<svg id="Layer_1" data-name="Layer 1" xmlns="http://www.w3.org/2000/svg" xmlns:xlink="http://www.w3.org/1999/xlink" viewBox="0 0 228.99 226.63"><defs><style>.cls-1{fill:none;}.cls-2{clip-path:url(#clip-path);}.cls-3{fill:#0a2d72;}.cls-4{fill:#fff;}</style><clipPath id="clip-path"><rect class="cls-1" x="0.41" y="0.44" width="225.74" height="225.74"/></clipPath></defs><title>TEL_Logo_Web&amp;amp;Small-Brandmark</title><g class="cls-2"><polygon class="cls-3" points="121.28 274.63 104.38 -47.95 105.29 -48 122.2 274.58 121.28 274.63"/><polygon class="cls-3" points="120.81 275.15 120.78 274.65 103.85 -48.42 105.77 -48.52 105.79 -48.02 122.72 275.05 120.81 275.15"/><rect class="cls-3" x="112.83" y="-48.19" width="0.92" height="323.02" transform="translate(-16.33 19.12) rotate(-9)"/><polygon class="cls-3" points="137.68 273.48 137.6 272.99 87 -46.55 88.89 -46.85 139.58 273.18 137.68 273.48"/><polygon class="cls-3" points="154.64 269.44 71.04 -42.57 71.93 -42.81 155.53 269.2 154.64 269.44"/><polygon class="cls-3" points="154.29 270.05 154.16 269.57 70.43 -42.93 72.28 -43.42 72.41 -42.94 156.14 269.56 154.29 270.05"/><rect class="cls-3" x="-48.22" y="112.86" width="323.02" height="0.92" transform="translate(-5.81 6.12) rotate(-3.02)"/><polygon class="cls-3" points="-48.45 122.75 -48.55 120.84 -48.05 120.81 275.02 103.88 275.12 105.79 274.62 105.82 -48.45 122.75"/><rect class="cls-3" x="-48.22" y="112.86" width="323.02" height="0.92" transform="translate(-16.31 19.08) rotate(-8.98)"/><polygon class="cls-3" points="-46.58 139.61 -46.88 137.71 -46.38 137.63 273.15 87.02 273.45 88.92 272.96 89 -46.58 139.61"/><polygon class="cls-3" points="-42.6 155.56 -42.84 154.67 269.17 71.07 269.41 71.96 -42.6 155.56"/><polygon class="cls-3" points="-42.95 156.17 -43.45 154.32 -42.97 154.19 269.52 70.46 270.02 72.31 269.54 72.44 -42.95 156.17"/><polygon class="cls-3" points="269.17 155.56 -42.84 71.96 -42.6 71.07 269.41 154.67 269.17 155.56"/><polygon class="cls-3" points="269.53 156.17 269.04 156.04 -43.45 72.31 -42.95 70.46 -42.47 70.59 270.02 154.32 269.53 156.17"/><rect class="cls-3" x="112.83" y="-48.19" width="0.92" height="323.02" transform="translate(-16.36 207.48) rotate(-81)"/><polygon class="cls-3" points="273.15 139.61 272.66 139.53 -46.88 88.92 -46.58 87.02 -46.08 87.1 273.45 137.71 273.15 139.61"/><rect class="cls-3" x="112.83" y="-48.19" width="0.92" height="323.02" transform="translate(-5.8 220.52) rotate(-87)"/><polygon class="cls-3" points="275.02 122.75 274.52 122.72 -48.55 105.79 -48.45 103.88 -47.95 103.9 275.12 120.83 275.02 122.75"/><rect class="cls-3" x="112.83" y="-48.19" width="0.92" height="323.02" transform="translate(-33.08 48.12) rotate(-21)"/><polygon class="cls-3" points="170.45 264.91 170.27 264.44 54.33 -37.59 56.12 -38.28 56.3 -37.81 172.24 264.22 170.45 264.91"/><rect class="cls-3" x="-48.22" y="112.86" width="323.02" height="0.92" transform="translate(-33.09 48.13) rotate(-21)"/><polygon class="cls-3" points="-37.62 172.27 -38.3 170.48 -37.84 170.3 264.19 54.36 264.88 56.15 -37.62 172.27"/><rect class="cls-3" x="112.83" y="-48.19" width="0.92" height="323.01" transform="translate(-39.1 63.78) rotate(-27)"/><polygon class="cls-3" points="185.98 258.1 185.75 257.65 38.88 -30.6 40.59 -31.47 40.82 -31.02 187.69 257.23 185.98 258.1"/><rect class="cls-3" x="-48.22" y="112.86" width="323.02" height="0.92" transform="translate(-39.07 63.69) rotate(-26.97)"/><polygon class="cls-3" points="-30.63 187.72 -31.5 186.01 -31.05 185.78 257.2 38.91 258.07 40.62 257.63 40.85 -30.63 187.72"/><rect class="cls-3" x="112.83" y="-48.19" width="0.92" height="323.02" transform="translate(-43.44 79.98) rotate(-33)"/><polygon class="cls-3" points="200.72 249.71 200.45 249.29 24.25 -22.04 25.85 -23.08 26.13 -22.66 202.33 248.66 200.72 249.71"/><rect class="cls-3" x="-48.22" y="112.86" width="323.02" height="0.92" transform="translate(-43.43 79.92) rotate(-32.98)"/><polygon class="cls-3" points="-22.06 202.36 -23.11 200.75 -22.69 200.47 248.64 24.27 249.68 25.88 249.26 26.16 -22.06 202.36"/><rect class="cls-3" x="112.83" y="-48.19" width="0.92" height="323.01" transform="translate(-46.07 96.55) rotate(-39)"/><polygon class="cls-3" points="214.5 239.82 214.18 239.43 10.59 -11.98 12.08 -13.19 12.39 -12.8 215.99 238.62 214.5 239.82"/><rect class="cls-3" x="-48.22" y="112.86" width="323.02" height="0.92" transform="translate(-46.06 96.48) rotate(-38.97)"/><polygon class="cls-3" points="-12.01 216.01 -13.22 214.52 -12.83 214.21 238.59 10.62 239.79 12.11 239.41 12.42 -12.01 216.01"/><rect class="cls-3" x="112.83" y="-48.19" width="0.92" height="323.02" transform="translate(-46.94 113.29) rotate(-45)"/><rect class="cls-3" x="112.33" y="-48.69" width="1.92" height="324.02" transform="translate(-46.94 113.29) rotate(-45)"/><rect class="cls-3" x="-48.22" y="112.86" width="323.02" height="0.92" transform="translate(-46.94 113.29) rotate(-45)"/><rect class="cls-3" x="-48.72" y="112.36" width="324.02" height="1.92" transform="translate(-46.94 113.29) rotate(-45)"/><rect class="cls-3" x="112.83" y="-48.19" width="0.92" height="323.02" transform="translate(-46.07 130.04) rotate(-51)"/><polygon class="cls-3" points="238.59 216.01 238.2 215.7 -13.22 12.11 -12.01 10.62 -11.63 10.93 239.79 214.52 238.59 216.01"/><rect class="cls-3" x="112.83" y="-48.19" width="0.92" height="323.02" transform="translate(-43.45 146.61) rotate(-57)"/><polygon class="cls-3" points="248.64 202.36 248.22 202.08 -23.11 25.88 -22.06 24.27 -21.64 24.55 249.68 200.75 248.64 202.36"/><rect class="cls-3" x="112.83" y="-48.19" width="0.92" height="323.02" transform="translate(-39.11 162.81) rotate(-63)"/><polygon class="cls-3" points="257.2 187.72 256.76 187.49 -31.5 40.62 -30.63 38.91 -30.18 39.14 258.07 186.01 257.2 187.72"/><rect class="cls-3" x="112.83" y="-48.19" width="0.92" height="323.02" transform="translate(-33.1 178.47) rotate(-69)"/><polygon class="cls-3" points="264.19 172.27 263.73 172.09 -38.3 56.15 -37.62 54.36 264.88 170.48 264.19 172.27"/><rect class="cls-3" x="-48.22" y="112.86" width="323.01" height="0.92" transform="translate(-46.06 130.11) rotate(-51.03)"/><polygon class="cls-3" points="12.08 239.82 10.59 238.62 10.9 238.23 214.5 -13.19 215.99 -11.98 215.67 -11.6 12.08 239.82"/><rect class="cls-3" x="-48.22" y="112.86" width="323.02" height="0.92" transform="translate(-43.41 146.76) rotate(-57.06)"/><polygon class="cls-3" points="25.85 249.71 24.25 248.66 24.52 248.25 200.72 -23.08 202.33 -22.04 202.05 -21.61 25.85 249.71"/><rect class="cls-3" x="-48.22" y="112.86" width="323.01" height="0.92" transform="translate(-39.08 162.9) rotate(-63.03)"/><polygon class="cls-3" points="40.59 258.1 38.88 257.23 39.11 256.78 185.98 -31.47 187.69 -30.6 187.46 -30.15 40.59 258.1"/><rect class="cls-3" x="-48.22" y="112.86" width="323.02" height="0.92" transform="translate(-33.16 178.33) rotate(-68.95)"/><polygon class="cls-3" points="56.12 264.91 54.33 264.22 54.51 263.75 170.45 -38.28 172.24 -37.59 172.06 -37.12 56.12 264.91"/><polygon class="cls-3" points="71.93 269.44 71.04 269.2 154.64 -42.81 155.53 -42.57 71.93 269.44"/><polygon class="cls-3" points="72.28 270.05 70.43 269.56 70.56 269.07 154.29 -43.42 156.14 -42.93 156.01 -42.44 72.28 270.05"/><rect class="cls-3" x="-48.22" y="112.86" width="323.02" height="0.92" transform="translate(-16.33 207.52) rotate(-81.02)"/><polygon class="cls-3" points="88.89 273.48 87 273.18 87.07 272.69 137.68 -46.85 139.58 -46.55 88.89 273.48"/><polygon class="cls-3" points="105.29 274.63 104.38 274.58 121.28 -48 122.2 -47.95 105.29 274.63"/><polygon class="cls-3" points="105.77 275.15 103.85 275.05 103.88 274.55 120.81 -48.52 122.72 -48.42 122.7 -47.92 105.77 275.15"/></g><polygon class="cls-4" points="73.48 73.52 73.48 136.25 91.19 153.95 153.94 153.95 153.94 73.52 73.48 73.52"/><rect class="cls-3" x="122.54" y="93.48" width="14.33" height="12" rx="2.3"/><path class="cls-3" d="M119.7,95.78a2.3,2.3,0,0,0-2.3-2.3H92.85a2.3,2.3,0,0,0-2.3,2.3v7.4a2.31,2.31,0,0,0,2.3,2.31h12.6a2.29,2.29,0,0,1,2.22,2.28v.33h0v25.09a2.3,2.3,0,0,0,2.3,2.3h7.4a2.3,2.3,0,0,0,2.3-2.3v-29.9s0-.07,0-.11Z"/></svg>