<svg id="Layer_1" data-name="Layer 1" xmlns="http://www.w3.org/2000/svg" viewBox="0 0 30.91 30.91"><defs><style>.cls-1{fill:#fff;}</style></defs><title>brandmark_reversed</title><path class="cls-1" d="M30.91.09V0h-.09l-10,10h-.37l9-10h-.17l-9,10H20L28.05,0h-.16L19.82,10h-.3L26.76,0h-.15L19.36,10h-.27L25.57,0h-.15L18.94,10H18.7L24.45,0h-.14L18.55,10h-.23L23.4,0h-.14L18.18,10H18L22.4,0h-.13L17.83,10h-.2L21.46,0h-.14L17.49,10H17.3L20.54,0h-.13L17.17,10H17L19.66,0h-.13L16.86,10h-.17L18.8,0h-.12L16.56,10h-.17L18,0h-.13L16.26,10h-.17L17.14,0H17L16,10h-.16l.52-10H16.2l-.52,10h-.16V0h-.13V10h-.16L14.71,0h-.13l.52,10h-.16l-1-10h-.12l1.05,10h-.17L13.07,0h-.13l1.58,10h-.17L12.23,0h-.12l2.11,10h-.17L11.38,0h-.13l2.67,10h-.18L10.5,0h-.13l3.24,10h-.19L9.59,0H9.46l3.82,10h-.2L8.64,0H8.51l4.43,10h-.21L7.65,0H7.51l5.08,10h-.23L6.6,0H6.46l5.76,10H12L5.49,0H5.34l6.48,10h-.27L4.3,0H4.15l7.24,10h-.3L3,0H2.86l8.07,10H10.6l-9-10H1.45l9,10h-.37L.09,0H0V.09l10,10v.37l-10-9v.17l10,9v.33L0,2.86V3l10,8.07v.3L0,4.15V4.3l10,7.25v.27L0,5.34v.15L10,12v.24L0,6.46V6.6l10,5.76v.23L0,7.51v.14l10,5.08v.21L0,8.51v.13l10,4.44v.2L0,9.46v.13l10,3.83v.19L0,10.37v.13l10,3.24v.18L0,11.25v.13l10,2.67v.17L0,12.11v.12l10,2.12v.17L0,12.94v.13l10,1.58v.17L0,13.77v.12l10,1v.16L0,14.58v.13l10,.52v.16H0v.13H10v.16L0,16.2v.13l10-.52V16L0,17v.12l10-1v.16L0,17.84V18l10-1.58v.17L0,18.68v.12l10-2.11v.17L0,19.53v.13L10,17v.18L0,20.41v.13L10,17.3v.19L0,21.32v.13l10-3.82v.2L0,22.27v.13L10,18v.21L0,23.26v.14l10-5.08v.21h0L0,24.31v.14l10.08-5.82.14.15L0,25.42v.15l10.31-6.7.14.14L0,26.61v.15L10.54,19.1l.14.14L0,27.89v.16l10.77-8.72.14.14L0,29.29v.17l11-9.91.13.14L0,30.82v.09H.09L11.22,19.78l.14.13-9.91,11h.17L11.44,20l.14.14L2.86,30.91H3l8.65-10.68.14.14L4.15,30.91H4.3l7.6-10.45.14.14L5.34,30.91h.15l6.64-10.22.15.14L6.46,30.91H6.6l5.77-10h.22l-5.08,10h.14l5.08-10h.21l-4.43,10h.13l4.44-10h.2l-3.82,10h.13l3.83-10h.19l-3.24,10h.13l3.24-10h.18l-2.67,10h.13l2.67-10h.17l-2.11,10h.12l2.12-10h.17l-1.58,10h.13l1.58-10h.17l-1.05,10h.12l1-10h.16l-.52,10h.13l.52-10h.16v10h.13v-10h.16l.52,10h.13l-.52-10H16l1,10h.12l-1-10h.16l1.58,10H18l-1.58-10h.17l2.12,10h.12l-2.11-10h.17l2.67,10h.13L17,20.94h.18l3.24,10h.13l-3.24-10h.19l3.83,10h.14l-3.83-10h.2l4.44,10h.13L18,20.94h.21l5.08,10h.14l-5.08-10h.23l5.76,10h.14l-5.75-10h.24l6.48,10h.15l-6.48-10h.27l7.25,10h.15l-7.24-10h.3l8.07,10h.16L20,20.94h.33l9,10h.17l-9-10h.37l10,10h.09v-.09l-10-10v-.37l10,9v-.17l-10-9V20l10,8.07v-.16l-10-8.07v-.3l10,7.24v-.15l-10-7.25v-.27l10,6.48v-.15l-10-6.48V18.7l10,5.75v-.14l-10-5.76v-.23l10,5.08v-.14l-10-5.08V18l10,4.43v-.13l-10-4.44v-.2l10,3.82v-.13l-10-3.83V17.3l10,3.24v-.13l-10-3.24V17l10,2.67v-.13l-10-2.67v-.17l10,2.11v-.12l-10-2.12v-.17l10,1.58v-.13l-10-1.58V16.1l10,1V17l-10-1v-.16l10,.52V16.2l-10-.52v-.16h10v-.13h-10v-.16l10-.52v-.13l-10,.52v-.16l10-1v-.12l-10,1.05v-.17l10-1.58v-.13l-10,1.58v-.17l10-2.12v-.12l-10,2.11v-.17l10-2.67v-.13l-10,2.67v-.18l10-3.24v-.13l-10,3.24v-.19l10-3.83V9.46l-10,3.82v-.2l10-4.44V8.51l-10,4.43v-.21l10-5.08V7.51l-10,5.08v-.23l10-5.76V6.46l-10,5.75V12l10-6.48V5.34l-10,6.48v-.27l10-7.25V4.15l-10,7.24v-.3L30.91,3V2.86l-10,8.07V10.6l10-9V1.45l-10,9v-.37ZM16.27,18.21a.21.21,0,0,1-.21.21H14.84a.21.21,0,0,1-.21-.21V14.64a.32.32,0,0,0-.29-.31H12.5a.2.2,0,0,1-.2-.21V12.9a.2.2,0,0,1,.2-.21h3.56a.21.21,0,0,1,.21.21Zm2.34-4.09a.2.2,0,0,1-.2.21H16.87a.21.21,0,0,1-.21-.21V12.9a.21.21,0,0,1,.21-.21h1.54a.2.2,0,0,1,.2.21Z"/></svg>