<svg id="Layer_1" data-name="Layer 1" xmlns="http://www.w3.org/2000/svg" viewBox="0 0 200 40.27"><defs><style>.cls-1{fill:#fff;}</style></defs><title>special_use_alternate_logo_reversed</title><path class="cls-1" d="M75.68,40.27h-3.6c-.69,0-1-.33-1-1V8.88a.5.5,0,0,0-.57-.57H63.25c-.68,0-1-.33-1-1V4.41c0-.65.35-1,1-1H84.51c.68,0,1,.32,1,1V7.33c0,.65-.35,1-1,1H77.29q-.63,0-.63.57V39.29A.87.87,0,0,1,75.68,40.27Z"/><path class="cls-1" d="M109.45,40.27H97.07a8.77,8.77,0,0,1-6.55-2.35,8.88,8.88,0,0,1-2.32-6.53V19.93a8.83,8.83,0,0,1,2.32-6.55,8.83,8.83,0,0,1,6.55-2.32h4.7a9,9,0,0,1,6.59,2.32,8.81,8.81,0,0,1,2.35,6.55v7.28a.91.91,0,0,1-1,1H94.33c-.42,0-.64.19-.64.57v2.46q0,4.19,4.19,4.19h11.57a.91.91,0,0,1,1,1v2.86C110.48,40,110.13,40.27,109.45,40.27ZM94.33,24.35h10.25a.51.51,0,0,0,.57-.58V20.11a4.43,4.43,0,0,0-1-3.18,4.24,4.24,0,0,0-3.15-1H97.88a4.22,4.22,0,0,0-3.15,1,4.43,4.43,0,0,0-1,3.18v3.66A.51.51,0,0,0,94.33,24.35Z"/><path class="cls-1" d="M123,40.27h-3.61a.86.86,0,0,1-1-1V1a.86.86,0,0,1,1-1H123a.87.87,0,0,1,1,1V39.29A.87.87,0,0,1,123,40.27Z"/><path class="cls-1" d="M132.93,6.19V1a.82.82,0,0,1,.92-.92h3.72a.82.82,0,0,1,.92.92V6.19c0,.65-.31,1-.92,1h-3.72C133.24,7.16,132.93,6.84,132.93,6.19Zm0,33.1V12c0-.65.31-1,.92-1h3.66a.86.86,0,0,1,1,1V39.29a1.14,1.14,0,0,1-.2.78,1.05,1.05,0,0,1-.72.2H133.9A.87.87,0,0,1,132.93,39.29Z"/><path class="cls-1" d="M151.72,40.27h-3.61a.86.86,0,0,1-1-1V12a.85.85,0,0,1,1-1h3.61a.85.85,0,0,1,1,1v2.06h.23c.92-2,2.84-3,5.79-3h2.52a8.54,8.54,0,0,1,6.41,2.29c1.49,1.52,2.23,3.72,2.23,6.58V39.29c0,.65-.34,1-1,1h-3.6a.86.86,0,0,1-1-1V20.16c0-2.82-1.39-4.24-4.18-4.24h-2.69c-3.13,0-4.7,1.63-4.7,4.87v18.5A.86.86,0,0,1,151.72,40.27Z"/><path class="cls-1" d="M182.48,40.27h-3.61a.87.87,0,0,1-1-1V1a.87.87,0,0,1,1-1h3.61a.87.87,0,0,1,1,1V39.29A.87.87,0,0,1,182.48,40.27Zm12-29.21h4.13a.77.77,0,0,1,.71.31c.14.21.09.49-.14.83L191.13,25v.23l8.7,13.86a.75.75,0,0,1,.09.8.89.89,0,0,1-.83.35h-3.73a2.16,2.16,0,0,1-1.94-1l-8.08-13.23a1.56,1.56,0,0,1,0-1.54L192.84,12A1.77,1.77,0,0,1,194.5,11.06Z"/><path class="cls-1" d="M0,3.39V32.15l8.12,8.12H36.89V3.39ZM21.18,31.1a.7.7,0,0,1-.7.7h-4.1a.7.7,0,0,1-.7-.7v-12a1.07,1.07,0,0,0-1-1.05H8.52a.7.7,0,0,1-.7-.69V13.24a.7.7,0,0,1,.7-.7h12a.7.7,0,0,1,.7.7Zm7.89-13.75a.7.7,0,0,1-.7.69H23.19a.7.7,0,0,1-.7-.69V13.24a.7.7,0,0,1,.7-.7h5.18a.7.7,0,0,1,.7.7Z"/></svg>