<svg id="Layer_1" data-name="Layer 1" xmlns="http://www.w3.org/2000/svg" viewBox="0 0 80 30.91"><defs><style>.cls-1{fill:#fff;}</style></defs><title>primary_reversed</title><path class="cls-1" d="M43,20.94H41.94a.26.26,0,0,1-.3-.29v-9a.15.15,0,0,0-.17-.17H39.32c-.21,0-.31-.09-.31-.29v-.87c0-.19.1-.29.31-.29h6.32c.21,0,.31.1.31.29v.87c0,.2-.1.29-.31.29H43.49c-.12,0-.18.06-.18.17v9A.26.26,0,0,1,43,20.94Z"/><path class="cls-1" d="M53.06,20.94H49.38a2.6,2.6,0,0,1-2-.7,2.63,2.63,0,0,1-.69-1.94V14.89a2.64,2.64,0,0,1,.69-2,2.64,2.64,0,0,1,2-.69h1.4a2.68,2.68,0,0,1,2,.69,2.64,2.64,0,0,1,.7,2v2.17a.27.27,0,0,1-.31.3H48.56c-.12,0-.18.06-.18.17v.73a1.1,1.1,0,0,0,1.24,1.25h3.44a.27.27,0,0,1,.31.31v.85C53.37,20.85,53.27,20.94,53.06,20.94Zm-4.5-4.74h3c.12,0,.17-.05.17-.17V14.94a1.28,1.28,0,0,0-.29-.94,1.24,1.24,0,0,0-.93-.3h-.94a1.28,1.28,0,0,0-.94.3,1.32,1.32,0,0,0-.29.94V16A.15.15,0,0,0,48.56,16.2Z"/><path class="cls-1" d="M57.1,20.94H56a.25.25,0,0,1-.29-.29V9.25A.25.25,0,0,1,56,9H57.1a.26.26,0,0,1,.29.29v11.4A.26.26,0,0,1,57.1,20.94Z"/><path class="cls-1" d="M60.05,10.8V9.25A.24.24,0,0,1,60.32,9h1.11a.24.24,0,0,1,.27.27V10.8c0,.19-.09.29-.27.29H60.32C60.14,11.09,60.05,11,60.05,10.8Zm0,9.85V12.54c0-.19.09-.29.27-.29h1.09a.26.26,0,0,1,.29.29v8.11a.33.33,0,0,1-.06.23.29.29,0,0,1-.21.06H60.34A.25.25,0,0,1,60.05,20.65Z"/><path class="cls-1" d="M65.64,20.94H64.56a.26.26,0,0,1-.29-.29V12.54a.26.26,0,0,1,.29-.29h1.08a.26.26,0,0,1,.29.29v.61H66a1.71,1.71,0,0,1,1.73-.9h.75a2.55,2.55,0,0,1,1.9.68,2.68,2.68,0,0,1,.67,2v5.76c0,.19-.1.29-.31.29H69.66a.25.25,0,0,1-.29-.29V15a1.11,1.11,0,0,0-1.25-1.26h-.8c-.93,0-1.39.48-1.39,1.45v5.5A.26.26,0,0,1,65.64,20.94Z"/><path class="cls-1" d="M74.79,20.94H73.71a.26.26,0,0,1-.29-.29V9.25A.26.26,0,0,1,73.71,9h1.08a.26.26,0,0,1,.29.29v11.4A.26.26,0,0,1,74.79,20.94Zm3.58-8.69h1.22a.23.23,0,0,1,.21.09.22.22,0,0,1,0,.25l-2.4,3.82v.07L80,20.6a.22.22,0,0,1,0,.24.27.27,0,0,1-.25.1H78.62a.66.66,0,0,1-.58-.29l-2.4-3.94a.47.47,0,0,1,0-.46l2.23-3.73A.53.53,0,0,1,78.37,12.25Z"/><path class="cls-1" d="M30.91.09V0h-.09l-10,10h-.37l9-10h-.17l-9,10H20L28.05,0h-.16L19.82,10h-.3L26.76,0H26.6L19.36,10h-.27L25.56,0h-.15L18.94,10h-.25L24.45,0H24.3L18.55,10h-.23L23.4,0h-.14L18.18,10H18L22.4,0h-.13L17.83,10h-.2L21.45,0h-.13L17.49,10H17.3L20.54,0h-.13L17.17,10H17L19.66,0h-.13L16.86,10h-.18L18.8,0h-.13L16.56,10h-.17L18,0h-.13L16.26,10h-.17L17.14,0H17L16,10H15.8l.53-10H16.2l-.52,10h-.16V0h-.13V10h-.16L14.71,0h-.13l.52,10h-.16l-1-10h-.12l1,10h-.16L13.07,0h-.13l1.58,10h-.17L12.23,0H12.1l2.12,10h-.17L11.38,0h-.13l2.67,10h-.18L10.5,0h-.13l3.24,10h-.19L9.59,0H9.45l3.83,10h-.2L8.64,0H8.5l4.44,10h-.21L7.65,0H7.51l5.08,10h-.23L6.6,0H6.46l5.75,10H12L5.49,0H5.34l6.48,10h-.27L4.3,0H4.15l7.24,10h-.3L3,0H2.86l8.07,10H10.6l-9-10H1.45l9,10h-.37L.09,0H0V.09l10,10v.37l-10-9v.17l10,9v.33L0,2.86V3l10,8.07v.3L0,4.15V4.3l10,7.24v.28L0,5.34v.15L10,12v.24L0,6.46V6.6l10,5.76v.23L0,7.51v.14l10,5.08v.21L0,8.5v.14l10,4.44v.2L0,9.45v.14l10,3.82v.19L0,10.37v.13l10,3.24v.18L0,11.25v.13l10,2.67v.17L0,12.1v.13l10,2.12v.17L0,12.94v.13l10,1.58v.16l-10-1v.12l10,1v.16L0,14.58v.13l10,.52v.16H0v.13H10v.16L0,16.2v.13l10-.53V16L0,17v.13l10-1.05v.17L0,17.84V18l10-1.58v.17L0,18.67v.13l10-2.12v.18L0,19.53v.13L10,17v.18L0,20.41v.13L10,17.3v.19L0,21.32v.13l10-3.82v.2L0,22.27v.13L10,18v.21L0,23.26v.14l10-5.08v.22L0,24.3v.15l10.07-5.82.15.15L0,25.41v.15l10.31-6.69.14.14L0,26.6v.16L10.54,19.1l.14.14L0,27.89v.16l10.77-8.72.14.13L0,29.28v.17l11-9.9.13.14L0,30.82v.09H.09L11.22,19.78l.13.13-9.9,11h.17L11.44,20l.14.14L2.86,30.91H3l8.65-10.68.14.14L4.15,30.91H4.3l7.6-10.45.14.14L5.34,30.91h.15l6.64-10.22.15.14L6.46,30.91H6.6l5.77-10h.22l-5.08,10h.14l5.08-10h.21l-4.44,10h.14l4.44-10h.2l-3.83,10h.14l3.83-10h.19l-3.24,10h.13l3.24-10h.18l-2.67,10h.13l2.67-10h.17l-2.12,10h.13l2.12-10h.17l-1.58,10h.13l1.58-10h.16l-1,10h.12l1-10h.16l-.52,10h.13l.52-10h.16v10h.13v-10h.16l.52,10h.13l-.53-10H16l1,10h.13l-1.05-10h.17l1.58,10H18l-1.58-10h.17l2.11,10h.13l-2.12-10h.18l2.67,10h.13L17,20.94h.18l3.24,10h.13l-3.24-10h.19l3.83,10h.13l-3.82-10h.2l4.44,10h.13L18,20.94h.21l5.08,10h.14l-5.08-10h.23l5.75,10h.15l-5.76-10h.25l6.47,10h.15l-6.47-10h.27l7.24,10h.16l-7.24-10h.3l8.07,10h.16L20,20.94h.33l9,10h.17l-9-10h.37l10,10h.09v-.09l-10-10v-.37l10,9v-.17l-10-9V20l10,8.07v-.16l-10-8.07v-.3l10,7.24V26.6l-10-7.24v-.27l10,6.47v-.15l-10-6.47v-.25l10,5.76V24.3l-10-5.75v-.23l10,5.08v-.14l-10-5.08V18l10,4.43v-.13l-10-4.44v-.2l10,3.82v-.13l-10-3.83V17.3l10,3.24v-.13l-10-3.24V17l10,2.67v-.13l-10-2.67v-.18l10,2.12v-.13l-10-2.11v-.17l10,1.58v-.13l-10-1.58v-.17l10,1.05V17l-10-1V15.8l10,.53V16.2l-10-.52v-.16h10v-.13h-10v-.16l10-.52v-.13l-10,.52v-.16l10-1v-.12l-10,1v-.16l10-1.58v-.13l-10,1.58v-.17l10-2.12V12.1l-10,2.12v-.17l10-2.67v-.13l-10,2.67v-.18l10-3.24v-.13l-10,3.23v-.19l10-3.82V9.45l-10,3.83v-.2l10-4.44V8.5l-10,4.44v-.21l10-5.08V7.51l-10,5.08v-.23l10-5.76V6.46l-10,5.75V12l10-6.48V5.34l-10,6.48v-.28l10-7.24V4.15l-10,7.24v-.3L30.91,3V2.86l-10,8.07V10.6l10-9V1.45l-10,9v-.37ZM16.27,18.21a.21.21,0,0,1-.21.21H14.84a.21.21,0,0,1-.21-.21V14.64a.31.31,0,0,0-.29-.31H12.5a.21.21,0,0,1-.21-.21V12.9a.21.21,0,0,1,.21-.21h3.56a.21.21,0,0,1,.21.21Zm2.34-4.09a.2.2,0,0,1-.2.21H16.87a.21.21,0,0,1-.21-.21V12.9a.21.21,0,0,1,.21-.21h1.54a.2.2,0,0,1,.2.21Z"/></svg>