<svg id="Layer_1" data-name="Layer 1" xmlns="http://www.w3.org/2000/svg" viewBox="0 0 40.99 30.91"><defs><style>.cls-1{fill:#fff;}</style></defs><title>wordmark_reversed</title><path class="cls-1" d="M4,20.94H2.93c-.2,0-.31-.1-.31-.29v-9a.15.15,0,0,0-.17-.17H.31c-.21,0-.31-.09-.31-.29v-.87c0-.19.1-.29.31-.29H6.63c.2,0,.31.1.31.29v.87c0,.2-.11.29-.31.29H4.48c-.12,0-.19.06-.19.17v9A.25.25,0,0,1,4,20.94Z"/><path class="cls-1" d="M14.05,20.94H10.37a2.6,2.6,0,0,1-1.95-.7,2.63,2.63,0,0,1-.69-1.94V14.89a2.64,2.64,0,0,1,.69-2,2.64,2.64,0,0,1,1.95-.69h1.4a2.64,2.64,0,0,1,2,.69,2.6,2.6,0,0,1,.7,2v2.17a.27.27,0,0,1-.3.3H9.55c-.12,0-.19.06-.19.17v.73a1.11,1.11,0,0,0,1.25,1.25h3.44a.28.28,0,0,1,.31.31v.85C14.36,20.85,14.25,20.94,14.05,20.94ZM9.55,16.2h3a.15.15,0,0,0,.17-.17V14.94a1.32,1.32,0,0,0-.29-.94,1.25,1.25,0,0,0-.94-.3h-.93a1.25,1.25,0,0,0-.94.3,1.32,1.32,0,0,0-.29.94V16A.15.15,0,0,0,9.55,16.2Z"/><path class="cls-1" d="M18.09,20.94H17a.26.26,0,0,1-.29-.29V9.25A.26.26,0,0,1,17,9h1.08a.26.26,0,0,1,.29.29v11.4A.26.26,0,0,1,18.09,20.94Z"/><path class="cls-1" d="M21,10.8V9.25A.24.24,0,0,1,21.31,9h1.11a.24.24,0,0,1,.27.27V10.8c0,.19-.09.29-.27.29H21.31C21.13,11.09,21,11,21,10.8Zm0,9.85V12.54c0-.19.09-.29.27-.29H22.4a.26.26,0,0,1,.29.29v8.11a.33.33,0,0,1-.06.23.29.29,0,0,1-.21.06h-1.1C21.13,20.94,21,20.84,21,20.65Z"/><path class="cls-1" d="M26.62,20.94H25.55a.26.26,0,0,1-.29-.29V12.54a.26.26,0,0,1,.29-.29h1.07a.25.25,0,0,1,.29.29v.61H27a1.69,1.69,0,0,1,1.72-.9h.75a2.56,2.56,0,0,1,1.91.68,2.72,2.72,0,0,1,.67,2v5.76c0,.19-.11.29-.31.29H30.65a.25.25,0,0,1-.29-.29V15a1.11,1.11,0,0,0-1.25-1.26h-.8a1.26,1.26,0,0,0-1.4,1.45v5.5A.25.25,0,0,1,26.62,20.94Z"/><path class="cls-1" d="M35.77,20.94H34.7a.26.26,0,0,1-.29-.29V9.25A.26.26,0,0,1,34.7,9h1.07a.25.25,0,0,1,.29.29v11.4A.25.25,0,0,1,35.77,20.94Zm3.58-8.69h1.23a.23.23,0,0,1,.21.09.22.22,0,0,1,0,.25l-2.4,3.82v.07l2.59,4.12a.23.23,0,0,1,0,.24.25.25,0,0,1-.24.1H39.61a.65.65,0,0,1-.58-.29l-2.4-3.94a.47.47,0,0,1,0-.46l2.23-3.73A.52.52,0,0,1,39.35,12.25Z"/></svg>