<?xml version="1.0" encoding="utf-8"?>
<!-- Generator: Adobe Illustrator 23.0.3, SVG Export Plug-In . SVG Version: 6.00 Build 0)  -->
<svg version="1.1" id="Layer_1" xmlns="http://www.w3.org/2000/svg" xmlns:xlink="http://www.w3.org/1999/xlink" x="0px" y="0px"
	 viewBox="0 0 80 23.35" style="enable-background:new 0 0 80 23.35;" xml:space="preserve">
<style type="text/css">
	.st0{fill:#0A2D72;}
</style>
<g>
	<path class="st0" d="M7.82,23.28H5.72c-0.4,0-0.6-0.19-0.6-0.57V5.06c0-0.22-0.11-0.33-0.33-0.33H0.6C0.2,4.72,0,4.53,0,4.16v-1.7
		C0,2.08,0.2,1.9,0.6,1.9h12.34c0.4,0,0.6,0.19,0.6,0.57v1.7c0,0.38-0.2,0.57-0.6,0.57H8.75c-0.24,0-0.37,0.11-0.37,0.33v17.66
		C8.38,23.09,8.19,23.28,7.82,23.28z"/>
	<path class="st0" d="M27.42,23.28h-7.18c-1.64,0-2.91-0.45-3.81-1.36c-0.9-0.91-1.35-2.17-1.35-3.79v-6.65
		c0-1.64,0.45-2.91,1.35-3.81c0.9-0.9,2.17-1.35,3.81-1.35h2.73c1.64,0,2.92,0.45,3.82,1.35s1.36,2.17,1.36,3.81v4.22
		c0,0.4-0.2,0.6-0.6,0.6h-8.91c-0.24,0-0.37,0.11-0.37,0.33v1.43c0,1.62,0.81,2.43,2.43,2.43h6.72c0.4,0,0.6,0.2,0.6,0.6v1.66
		C28.02,23.1,27.82,23.28,27.42,23.28z M18.64,14.03h5.95c0.22,0,0.33-0.11,0.33-0.33v-2.13c0-0.84-0.19-1.46-0.57-1.85
		c-0.38-0.39-0.99-0.58-1.83-0.58H20.7c-0.84,0-1.45,0.19-1.83,0.58c-0.38,0.39-0.57,1-0.57,1.85v2.13
		C18.31,13.92,18.42,14.03,18.64,14.03z"/>
	<path class="st0" d="M35.3,23.28h-2.1c-0.38,0-0.57-0.19-0.57-0.57V0.47c0-0.38,0.19-0.57,0.57-0.57h2.1
		c0.38,0,0.57,0.19,0.57,0.57v22.25C35.87,23.09,35.68,23.28,35.3,23.28z"/>
	<path class="st0" d="M41.06,3.49V0.47c0-0.35,0.18-0.53,0.53-0.53h2.16c0.35,0,0.53,0.18,0.53,0.53v3.03
		c0,0.38-0.18,0.57-0.53,0.57h-2.16C41.23,4.06,41.06,3.87,41.06,3.49z M41.06,22.72V6.88c0-0.38,0.18-0.57,0.53-0.57h2.13
		c0.38,0,0.57,0.19,0.57,0.57v15.83c0,0.22-0.04,0.37-0.12,0.45c-0.08,0.08-0.22,0.12-0.42,0.12h-2.13
		C41.25,23.28,41.06,23.09,41.06,22.72z"/>
	<path class="st0" d="M51.96,23.28h-2.09c-0.38,0-0.57-0.19-0.57-0.57V6.88c0-0.38,0.19-0.57,0.57-0.57h2.09
		c0.38,0,0.57,0.19,0.57,0.57v1.2h0.13c0.53-1.18,1.65-1.76,3.36-1.76h1.46c1.62,0,2.86,0.44,3.73,1.33c0.86,0.89,1.3,2.16,1.3,3.82
		v11.24c0,0.38-0.2,0.57-0.6,0.57h-2.09c-0.38,0-0.57-0.19-0.57-0.57V11.61c0-1.64-0.81-2.46-2.43-2.46h-1.56
		c-1.82,0-2.73,0.94-2.73,2.83v10.74C52.53,23.09,52.34,23.28,51.96,23.28z"/>
	<path class="st0" d="M69.82,23.28h-2.09c-0.38,0-0.57-0.19-0.57-0.57V0.47c0-0.38,0.19-0.57,0.57-0.57h2.09
		c0.38,0,0.57,0.19,0.57,0.57v22.25C70.39,23.09,70.2,23.28,69.82,23.28z M76.81,6.32h2.39c0.2,0,0.34,0.06,0.42,0.18
		c0.08,0.12,0.05,0.28-0.08,0.48l-4.69,7.45v0.13l5.06,8.05c0.11,0.18,0.13,0.33,0.05,0.47c-0.08,0.13-0.24,0.2-0.48,0.2h-2.16
		c-0.51,0-0.89-0.19-1.13-0.57l-4.69-7.68c-0.15-0.29-0.15-0.59,0-0.9l4.36-7.28C76.04,6.5,76.37,6.32,76.81,6.32z"/>
</g>
</svg>
