<svg id="Layer_1" data-name="Layer 1" xmlns="http://www.w3.org/2000/svg" viewBox="0 0 30.91 30.91"><defs><style>.cls-1{fill:#0a2d72;}.cls-2{fill:#fff;}</style></defs><title>brandmark</title><polygon class="cls-1" points="9.97 13.92 0 11.25 0 11.38 9.97 14.05 9.97 13.92"/><polygon class="cls-1" points="9.97 13.61 0 10.37 0 10.5 9.97 13.74 9.97 13.61"/><polygon class="cls-1" points="9.97 15.1 0 14.58 0 14.71 9.97 15.23 9.97 15.1"/><polygon class="cls-1" points="9.97 14.81 0 13.77 0 13.89 9.97 14.94 9.97 14.81"/><polygon class="cls-1" points="9.97 14.52 0 12.94 0 13.07 9.97 14.65 9.97 14.52"/><polygon class="cls-1" points="9.97 14.22 0 12.11 0 12.23 9.97 14.35 9.97 14.22"/><polygon class="cls-1" points="9.97 13.28 0 9.46 0 9.59 9.97 13.42 9.97 13.28"/><polygon class="cls-1" points="9.97 10.93 0 2.86 0 3.02 9.97 11.09 9.97 10.93"/><polygon class="cls-1" points="9.97 12.94 0 8.51 0 8.64 9.97 13.08 9.97 12.94"/><polygon class="cls-1" points="9.97 10.43 0 1.46 0 1.62 9.97 10.6 9.97 10.43"/><polygon class="cls-1" points="9.97 11.39 0 4.15 0 4.3 9.97 11.55 9.97 11.39"/><polygon class="cls-1" points="9.97 12.59 0 7.51 0 7.65 9.97 12.73 9.97 12.59"/><polygon class="cls-1" points="9.97 12.21 0 6.46 0 6.61 9.97 12.36 9.97 12.21"/><polygon class="cls-1" points="9.97 11.82 0 5.34 0 5.49 9.97 11.97 9.97 11.82"/><polygon class="cls-1" points="9.97 18.18 0 23.26 0 23.4 9.97 18.32 9.97 18.18"/><rect class="cls-1" y="15.39" width="9.97" height="0.13"/><polygon class="cls-1" points="9.98 18.54 0 24.3 0 24.45 10.07 18.63 9.98 18.54"/><polygon class="cls-1" points="9.97 9.97 10.06 9.97 0.09 0 0 0 0 0.09 9.97 10.06 9.97 9.97"/><polygon class="cls-1" points="10.45 19.01 0 26.61 0 26.76 10.54 19.1 10.45 19.01"/><polygon class="cls-1" points="10.91 19.46 0 29.29 0 29.45 11 19.55 10.91 19.46"/><polygon class="cls-1" points="9.97 17.83 0 22.27 0 22.41 9.97 17.97 9.97 17.83"/><polygon class="cls-1" points="10.68 19.24 0 27.89 0 28.05 10.77 19.33 10.68 19.24"/><polygon class="cls-1" points="10.22 18.78 0 25.42 0 25.57 10.31 18.87 10.22 18.78"/><polygon class="cls-1" points="9.97 15.97 0 17.02 0 17.14 9.97 16.09 9.97 15.97"/><polygon class="cls-1" points="9.97 15.68 0 16.2 0 16.33 9.97 15.81 9.97 15.68"/><polygon class="cls-1" points="9.97 16.26 0 17.84 0 17.97 9.97 16.39 9.97 16.26"/><polygon class="cls-1" points="9.97 17.17 0 20.41 0 20.54 9.97 17.3 9.97 17.17"/><polygon class="cls-1" points="9.97 17.49 0 21.32 0 21.45 9.97 17.63 9.97 17.49"/><polygon class="cls-1" points="9.97 16.86 0 19.53 0 19.66 9.97 16.99 9.97 16.86"/><polygon class="cls-1" points="12.36 9.97 6.61 0 6.46 0 12.21 9.97 12.36 9.97"/><polygon class="cls-1" points="15.8 9.97 16.33 0 16.2 0 15.68 9.97 15.8 9.97"/><polygon class="cls-1" points="17.3 9.97 20.54 0 20.41 0 17.17 9.97 17.3 9.97"/><polygon class="cls-1" points="17.63 9.97 21.45 0 21.32 0 17.49 9.97 17.63 9.97"/><polygon class="cls-1" points="16.99 9.97 19.66 0 19.53 0 16.86 9.97 16.99 9.97"/><polygon class="cls-1" points="10.6 9.97 1.62 0 1.46 0 10.43 9.97 10.6 9.97"/><polygon class="cls-1" points="16.68 9.97 18.8 0 18.68 0 16.56 9.97 16.68 9.97"/><polygon class="cls-1" points="16.39 9.97 17.97 0 17.84 0 16.26 9.97 16.39 9.97"/><polygon class="cls-1" points="17.97 9.97 22.41 0 22.27 0 17.83 9.97 17.97 9.97"/><polygon class="cls-1" points="19.52 9.97 26.76 0 26.61 0 19.36 9.97 19.52 9.97"/><polygon class="cls-1" points="19.98 9.97 28.05 0 27.89 0 19.82 9.97 19.98 9.97"/><polygon class="cls-1" points="20.48 9.97 29.45 0 29.29 0 20.31 9.97 20.48 9.97"/><polygon class="cls-1" points="18.7 9.97 24.45 0 24.3 0 18.55 9.97 18.7 9.97"/><polygon class="cls-1" points="19.09 9.97 25.57 0 25.42 0 18.94 9.97 19.09 9.97"/><polygon class="cls-1" points="18.32 9.97 23.4 0 23.26 0 18.18 9.97 18.32 9.97"/><polygon class="cls-1" points="16.09 9.97 17.14 0 17.02 0 15.97 9.97 16.09 9.97"/><polygon class="cls-1" points="12.73 9.97 7.65 0 7.51 0 12.59 9.97 12.73 9.97"/><polygon class="cls-1" points="11.13 19.69 0 30.82 0 30.91 0.09 30.91 11.22 19.78 11.13 19.69"/><polygon class="cls-1" points="13.08 9.97 8.64 0 8.51 0 12.94 9.97 13.08 9.97"/><polygon class="cls-1" points="11.09 9.97 3.02 0 2.86 0 10.93 9.97 11.09 9.97"/><polygon class="cls-1" points="13.42 9.97 9.59 0 9.46 0 13.28 9.97 13.42 9.97"/><rect class="cls-1" x="15.39" width="0.13" height="9.97"/><polygon class="cls-1" points="11.97 9.97 5.49 0 5.34 0 11.82 9.97 11.97 9.97"/><polygon class="cls-1" points="11.55 9.97 4.3 0 4.15 0 11.39 9.97 11.55 9.97"/><polygon class="cls-1" points="14.94 9.97 13.89 0 13.77 0 14.81 9.97 14.94 9.97"/><polygon class="cls-1" points="14.65 9.97 13.07 0 12.94 0 14.52 9.97 14.65 9.97"/><polygon class="cls-1" points="15.23 9.97 14.71 0 14.58 0 15.11 9.97 15.23 9.97"/><polygon class="cls-1" points="13.74 9.97 10.5 0 10.37 0 13.61 9.97 13.74 9.97"/><polygon class="cls-1" points="14.05 9.97 11.38 0 11.25 0 13.92 9.97 14.05 9.97"/><polygon class="cls-1" points="14.35 9.97 12.23 0 12.11 0 14.22 9.97 14.35 9.97"/><polygon class="cls-1" points="9.97 16.56 0 18.68 0 18.8 9.97 16.68 9.97 16.56"/><polygon class="cls-1" points="20.94 16.69 30.91 18.8 30.91 18.68 20.94 16.56 20.94 16.69"/><polygon class="cls-1" points="20.94 15.23 30.91 14.71 30.91 14.58 20.94 15.1 20.94 15.23"/><polygon class="cls-1" points="20.94 16.39 30.91 17.97 30.91 17.84 20.94 16.26 20.94 16.39"/><rect class="cls-1" x="20.94" y="15.39" width="9.97" height="0.13"/><polygon class="cls-1" points="20.94 17.3 30.91 20.54 30.91 20.41 20.94 17.17 20.94 17.3"/><polygon class="cls-1" points="20.94 16.09 30.91 17.14 30.91 17.02 20.94 15.97 20.94 16.09"/><polygon class="cls-1" points="20.94 15.81 30.91 16.33 30.91 16.2 20.94 15.68 20.94 15.81"/><polygon class="cls-1" points="20.94 16.99 30.91 19.66 30.91 19.53 20.94 16.86 20.94 16.99"/><polygon class="cls-1" points="20.94 19.09 30.91 25.57 30.91 25.42 20.94 18.94 20.94 19.09"/><polygon class="cls-1" points="20.94 17.63 30.91 21.45 30.91 21.32 20.94 17.49 20.94 17.63"/><polygon class="cls-1" points="20.94 19.98 30.91 28.05 30.91 27.89 20.94 19.82 20.94 19.98"/><polygon class="cls-1" points="20.94 19.52 30.91 26.76 30.91 26.61 20.94 19.36 20.94 19.52"/><polygon class="cls-1" points="20.94 18.7 30.91 24.45 30.91 24.3 20.94 18.55 20.94 18.7"/><polygon class="cls-1" points="20.94 17.97 30.91 22.41 30.91 22.27 20.94 17.83 20.94 17.97"/><polygon class="cls-1" points="20.94 18.32 30.91 23.4 30.91 23.26 20.94 18.18 20.94 18.32"/><polygon class="cls-1" points="20.94 11.09 30.91 3.02 30.91 2.86 20.94 10.93 20.94 11.09"/><polygon class="cls-1" points="20.94 12.73 30.91 7.65 30.91 7.51 20.94 12.59 20.94 12.73"/><polygon class="cls-1" points="20.94 11.97 30.91 5.49 30.91 5.34 20.94 11.82 20.94 11.97"/><polygon class="cls-1" points="20.94 12.36 30.91 6.61 30.91 6.46 20.94 12.21 20.94 12.36"/><polygon class="cls-1" points="20.94 11.54 30.91 4.3 30.91 4.15 20.94 11.39 20.94 11.54"/><polygon class="cls-1" points="30.82 0 20.85 9.97 20.94 9.97 20.94 10.06 30.91 0.09 30.91 0 30.82 0"/><polygon class="cls-1" points="20.94 10.6 30.91 1.62 30.91 1.46 20.94 10.43 20.94 10.6"/><polygon class="cls-1" points="20.94 20.48 30.91 29.45 30.91 29.29 20.94 20.31 20.94 20.48"/><polygon class="cls-1" points="20.94 14.65 30.91 13.07 30.91 12.94 20.94 14.52 20.94 14.65"/><polygon class="cls-1" points="20.94 14.05 30.91 11.38 30.91 11.25 20.94 13.92 20.94 14.05"/><polygon class="cls-1" points="20.94 14.35 30.91 12.23 30.91 12.11 20.94 14.22 20.94 14.35"/><polygon class="cls-1" points="20.94 14.94 30.91 13.89 30.91 13.77 20.94 14.81 20.94 14.94"/><polygon class="cls-1" points="20.94 13.08 30.91 8.64 30.91 8.51 20.94 12.94 20.94 13.08"/><polygon class="cls-1" points="20.94 13.74 30.91 10.5 30.91 10.37 20.94 13.61 20.94 13.74"/><polygon class="cls-1" points="20.94 13.42 30.91 9.59 30.91 9.46 20.94 13.28 20.94 13.42"/><polygon class="cls-1" points="13.92 20.94 11.25 30.91 11.38 30.91 14.05 20.94 13.92 20.94"/><polygon class="cls-1" points="11.36 19.91 1.46 30.91 1.62 30.91 11.44 20 11.36 19.91"/><rect class="cls-1" x="15.39" y="20.94" width="0.13" height="9.97"/><polygon class="cls-1" points="13.61 20.94 10.37 30.91 10.5 30.91 13.74 20.94 13.61 20.94"/><polygon class="cls-1" points="20.94 20.94 20.85 20.94 30.82 30.91 30.91 30.91 30.91 30.82 20.94 20.85 20.94 20.94"/><polygon class="cls-1" points="13.28 20.94 9.46 30.91 9.59 30.91 13.42 20.94 13.28 20.94"/><polygon class="cls-1" points="14.81 20.94 13.77 30.91 13.89 30.91 14.94 20.94 14.81 20.94"/><polygon class="cls-1" points="14.52 20.94 12.94 30.91 13.07 30.91 14.65 20.94 14.52 20.94"/><polygon class="cls-1" points="14.22 20.94 12.11 30.91 12.23 30.91 14.35 20.94 14.22 20.94"/><polygon class="cls-1" points="11.81 20.37 4.15 30.91 4.3 30.91 11.9 20.46 11.81 20.37"/><polygon class="cls-1" points="11.58 20.14 2.86 30.91 3.02 30.91 11.67 20.23 11.58 20.14"/><polygon class="cls-1" points="12.94 20.94 8.51 30.91 8.64 30.91 13.08 20.94 12.94 20.94"/><polygon class="cls-1" points="12.04 20.6 5.34 30.91 5.49 30.91 12.13 20.69 12.04 20.6"/><polygon class="cls-1" points="12.59 20.94 7.51 30.91 7.65 30.91 12.73 20.94 12.59 20.94"/><polygon class="cls-1" points="12.28 20.84 6.46 30.91 6.61 30.91 12.37 20.93 12.28 20.84"/><polygon class="cls-1" points="15.11 20.94 14.58 30.91 14.71 30.91 15.23 20.94 15.11 20.94"/><polygon class="cls-1" points="18.55 20.94 24.3 30.91 24.45 30.91 18.7 20.94 18.55 20.94"/><polygon class="cls-1" points="18.94 20.94 25.42 30.91 25.57 30.91 19.09 20.94 18.94 20.94"/><polygon class="cls-1" points="17.83 20.94 22.27 30.91 22.41 30.91 17.97 20.94 17.83 20.94"/><polygon class="cls-1" points="18.18 20.94 23.26 30.91 23.4 30.91 18.32 20.94 18.18 20.94"/><polygon class="cls-1" points="15.68 20.94 16.2 30.91 16.33 30.91 15.8 20.94 15.68 20.94"/><polygon class="cls-1" points="19.36 20.94 26.61 30.91 26.76 30.91 19.52 20.94 19.36 20.94"/><polygon class="cls-1" points="19.82 20.94 27.89 30.91 28.05 30.91 19.98 20.94 19.82 20.94"/><polygon class="cls-1" points="20.31 20.94 29.29 30.91 29.45 30.91 20.48 20.94 20.31 20.94"/><polygon class="cls-1" points="17.49 20.94 21.32 30.91 21.45 30.91 17.63 20.94 17.49 20.94"/><polygon class="cls-1" points="16.26 20.94 17.84 30.91 17.97 30.91 16.39 20.94 16.26 20.94"/><polygon class="cls-1" points="15.97 20.94 17.02 30.91 17.14 30.91 16.09 20.94 15.97 20.94"/><polygon class="cls-1" points="16.56 20.94 18.68 30.91 18.8 30.91 16.68 20.94 16.56 20.94"/><polygon class="cls-1" points="16.86 20.94 19.53 30.91 19.66 30.91 16.99 20.94 16.86 20.94"/><polygon class="cls-1" points="17.17 20.94 20.41 30.91 20.54 30.91 17.3 20.94 17.17 20.94"/><polygon class="cls-2" points="9.97 9.97 9.97 18.53 12.38 20.94 20.94 20.94 20.94 9.97 9.97 9.97"/><rect class="cls-1" x="16.66" y="12.69" width="1.96" height="1.64" rx="0.21"/><path class="cls-1" d="M14.63,18.22a.21.21,0,0,0,.21.2h1.22a.2.2,0,0,0,.21-.2V12.9a.21.21,0,0,0-.21-.21H12.5a.21.21,0,0,0-.2.21v1.22a.2.2,0,0,0,.2.21h1.84a.32.32,0,0,1,.29.31Z"/></svg>