<?xml version="1.0" standalone="no"?><!DOCTYPE svg PUBLIC "-//W3C//DTD SVG 1.1//EN" "http://www.w3.org/Graphics/SVG/1.1/DTD/svg11.dtd"><svg t="1726145822781" class="icon" viewBox="0 0 1024 1024" version="1.1" xmlns="http://www.w3.org/2000/svg" p-id="5520" xmlns:xlink="http://www.w3.org/1999/xlink" width="48" height="48"><path d="M512 1024c282.773333 0 512-229.226667 512-512S794.773333 0 512 0 0 229.226667 0 512s229.226667 512 512 512z m199.168-778.261333c7.530667 6.912 11.797333 16.597333 11.797333 26.730666 0 10.133333-4.266667 19.797333-11.797333 26.709334l-36.608 35.818666h37.376a123.136 123.136 0 0 1 84.992 33.28A110.634667 110.634667 0 0 1 832 448.704v226.901333a115.157333 115.157333 0 0 1-36.117333 81.344A118.762667 118.762667 0 0 1 711.936 789.333333H312.064a124.16 124.16 0 0 1-84.992-33.28A110.656 110.656 0 0 1 192 676.117333V449.194667a115.157333 115.157333 0 0 1 35.925333-81.664 118.741333 118.741333 0 0 1 84.138667-32.533334h37.376l-36.608-34.56a36.949333 36.949333 0 0 1-11.008-37.056 39.168 39.168 0 0 1 28.672-26.965333 41.408 41.408 0 0 1 38.912 9.322667l84.736 80.426666c2.474667 2.304 4.629333 4.928 6.4 7.808h102.4c1.664-2.858667 3.733333-5.504 6.144-7.808l85.504-80.426666a41.685333 41.685333 0 0 1 56.576 0z m4.010667 173.824H308.053333c-21.866667-0.426667-40.021333 15.701333-40.746666 36.16v223.018666c0.512 19.562667 16.981333 35.498667 37.866666 36.629334h410.816c21.056 0.341333 38.826667-14.570667 40.746667-34.197334v-224a36.288 36.288 0 0 0-12.266667-26.197333 41.514667 41.514667 0 0 0-28.48-10.453333l-0.789333-0.96z m-334.933334 73.962666c9.813333-0.213333 19.328 3.562667 26.389334 10.453334 7.082667 6.869333 11.114667 16.298667 11.242666 26.197333v36.394667c0 20.906667-16.853333 37.866667-37.632 37.866666a37.76 37.76 0 0 1-37.653333-37.866666v-36.394667a37.269333 37.269333 0 0 1 37.653333-36.650667z m263.509334 0c20.437333-0.277333 37.269333 16.298667 37.653333 37.12v36.864a36.714667 36.714667 0 0 1-18.816 31.936 37.994667 37.994667 0 0 1-37.653333 0 36.48 36.48 0 0 1-18.816-31.936v-36.885333c0.128-10.026667 4.16-19.562667 11.242666-26.517333a36.565333 36.565333 0 0 1 26.389334-10.581334z" p-id="5521"></path></svg>