<?xml version="1.0" standalone="no"?><!DOCTYPE svg PUBLIC "-//W3C//DTD SVG 1.1//EN" "http://www.w3.org/Graphics/SVG/1.1/DTD/svg11.dtd"><svg t="1727188415129" class="icon" viewBox="0 0 1024 1024" version="1.1" xmlns="http://www.w3.org/2000/svg" p-id="7445" xmlns:xlink="http://www.w3.org/1999/xlink" width="16" height="16"><path d="M869.741 423.077v70.967H152.26v-70.967H869.74z m-79.21-172.838v78.98H231.47v-78.98H790.53z" fill="#FFD42B" p-id="7446"></path><path d="M177.747 494.15v94.033h96.362v-94.032h25.238v94.032h111.276v-94.032h25.237v94.032h150.28v-94.032h25.237v94.032h111.276v-94.032h25.238v94.032h96.362v-94.032h25.238v94.032h37.856v48.163H114.653v-48.163h37.856v-94.032h25.238z m79.155-165.13l-0.001 47.016h37.857V329.02h25.238v47.016H423.24V329.02h25.238v47.016h125.04l0.002-47.016h25.238l-0.001 47.016h103.245V329.02h25.239l-0.001 47.016h37.857V329.02h25.238v47.016h9.404c19.653 3.896 64.815 16.223 112.544 23.218 15.462 2.267 31.328 4.131 47.6 5.595 11.477 1.032 29.526 2.13 54.15 3.296-44.048 18.463-94.914 31.58-152.6 39.35-83.358 11.227-222.73 6.52-363.053 6.52-139.22 0-255.898 5.7-340.857-3.54-59.709-6.493-109.561-20.603-149.558-42.33 30.396-1.18 62.917-4.115 97.564-8.806 51.97-7.036 99.292-19.39 119.024-23.302l7.11-0.001V329.02h25.238z m40.15-155.956v-24.648c0-11.087 8.989-20.075 20.076-20.075 11.088 0 20.076 8.988 20.076 20.075v24.648h147.985L511 101.966l25.811 71.098h147.985v-24.648c0-11.087 8.988-20.075 20.076-20.075 11.087 0 20.075 8.988 20.075 20.075v24.648h0.31c24.02 52.321 81.1 72.963 171.237 61.924-34.303 24.921-79.147 39.947-134.533 45.078-63.468 5.879-147.019 1.938-250.652 1.938-103.889 0-187.596 3.926-251.121-1.982-55.195-5.133-99.883-20.145-134.064-45.034 90.138 11.039 147.217-9.603 171.238-61.924h-0.31z" fill="#EF5918" p-id="7447"></path><path d="M224.728 375.624h575.079c19.649 3.882 64.802 16.162 112.522 23.132 15.459 2.258-858.563 7.095-806.603 0.085 51.96-7.01 99.274-19.32 119.002-23.217z" fill="#D63A0C" p-id="7448"></path><path d="M907.556 636.346v281.62H640.125V835.54c0-62.593-50.365-113.454-112.88-114.465l-1.898-0.015h-4.59c-62.757 0-113.75 50.234-114.763 112.587l-0.015 1.893v82.425H114.444v-281.62h793.112z" fill="#73D2DA" p-id="7449"></path><path d="M466.717 664.21h89.561v40.8h-89.561z" fill="#FFD83D" p-id="7450"></path><path d="M317.101 121.365c14.742 0 26.72 11.821 26.959 26.493l0.003 0.446v17.767h26.028a6.881 6.881 0 0 1 6.884 6.878 6.88 6.88 0 0 1-6.625 6.874l-0.259 0.004H337.18a6.881 6.881 0 0 1-6.879-6.62l-0.005-0.258v-24.645c0-7.28-5.907-13.183-13.194-13.183-7.175 0-13.012 5.722-13.19 12.848l-0.004 0.335v22.595a6.791 6.791 0 0 1-0.319 4.92c-22.739 49.504-72.95 72.122-149.365 68.384 22.484 11.764 48.655 20.17 78.544 25.196a6.88 6.88 0 0 1 5.735 6.503l0.006 0.28v99.665a6.88 6.88 0 0 1-6.626 6.873l-0.258 0.005h-6.402l-2.34 0.51c-9.995 2.198-41.27 9.217-57.13 12.483l-1.045 0.215-3.618 0.73c-19.039 3.803-37.075 6.91-54.694 9.293-24.907 3.371-48.734 5.841-71.48 7.41 33.462 14.339 72.906 24.181 118.343 29.496a6.88 6.88 0 0 1 6.079 6.564l0.005 0.267v138.222a6.88 6.88 0 0 1-6.626 6.873l-0.258 0.005H121.48v316.383h277.656v-75.713l0.016-1.951c1.065-65.599 54.106-118.436 119.613-119.486l1.989-0.016h4.645l1.953 0.016c65.657 1.064 118.542 54.058 119.593 119.506l0.016 1.987v75.657h253.562V784.097a6.881 6.881 0 0 1 6.884-6.878 6.889 6.889 0 0 1 6.884 6.62v134.215c0 3.712-2.943 6.737-6.626 6.878H640.077a6.881 6.881 0 0 1-6.88-6.62l-0.004-0.258v-82.535c0-58.258-46.316-105.826-104.25-107.696l-1.758-0.042-1.842-0.015h-4.59c-58.31 0-105.92 46.274-107.791 104.156l-0.043 1.757-0.015 1.84v82.535c0 3.712-2.944 6.737-6.626 6.878H114.596a6.881 6.881 0 0 1-6.88-6.62l-0.005-0.258V587.915a6.88 6.88 0 0 1 6.626-6.873l0.259-0.005h30.978V455.782l-1.719-0.221C88.952 448.416 42.53 434.577 4.606 413.987c-6.147-3.337-3.97-12.645 3.02-12.916 30.173-1.17 62.48-4.085 96.921-8.746 17.31-2.342 35.072-5.4 53.847-9.152l3.619-0.73c8.522-1.741 22.32-4.762 34.676-7.493l25.247-5.588 1.238-0.261a6.89 6.89 0 0 1 1.002-0.124l0.337-0.008h0.227V281.95c-40.75-7.54-75.013-21.372-102.724-41.54-5.74-4.178-2.159-13.25 4.89-12.386 85.442 10.458 139.064-7.953 162.53-54.538l0.702-1.42v-23.762c0-14.878 12.072-26.939 26.963-26.939z m590.306 606.4a6.881 6.881 0 0 1 6.884 6.878 6.881 6.881 0 0 1-6.884 6.878 6.881 6.881 0 0 1-6.884-6.878 6.881 6.881 0 0 1 6.884-6.877zM517.367 99.258l0.105 0.275 24.17 66.54h136.297v-17.768c0-14.878 12.072-26.939 26.963-26.939 14.742 0 26.72 11.821 26.959 26.493l0.003 0.446v22.463l0.692 1.449c23.129 47.52 76.945 66.36 163.16 55.808 7.052-0.864 10.631 8.216 4.883 12.39-27.546 20.003-61.542 33.776-101.924 41.366l-1.411 0.262-0.001 86.927h2.521c0.343 0 0.685 0.026 1.024 0.077l0.337 0.059 1.23 0.248c4.857 0.993 41.192 9.5 56.628 12.863l0.918 0.2 3.034 0.648c17.889 3.794 34.436 6.85 50.388 9.187a844.508 844.508 0 0 0 40.778 4.945l3.21 0.306 3.238 0.296 2.138 0.187c9.212 0.78 22.217 1.601 38.996 2.462l4.1 0.208 8.632 0.419c7.329 0.346 9.102 10.378 2.337 13.213-40.457 16.949-86.51 29.43-138.156 37.459l-2.186 0.336-0.001 128.955h30.978a6.881 6.881 0 0 1 6.88 6.62l0.004 0.258v114.458a6.881 6.881 0 0 1-6.884 6.878 6.881 6.881 0 0 1-6.88-6.62l-0.004-0.258v-107.58h-30.978a6.881 6.881 0 0 1-6.88-6.62l-0.004-0.258 0.001-141.763a6.88 6.88 0 0 1 5.896-6.806c41.146-5.962 78.668-14.721 112.566-26.269l-5.466-0.346a745.784 745.784 0 0 1-14.45-1.068l-1.885-0.165-3.262-0.3a862.13 862.13 0 0 1-44.715-5.337c-16.268-2.383-33.092-5.49-51.244-9.34l-3.488-0.746c-14.522-3.15-48.595-11.117-56.02-12.737l-1.497-0.313h-8.719a6.881 6.881 0 0 1-6.879-6.62l-0.005-0.258 0.002-99.581a6.88 6.88 0 0 1 5.75-6.784c29.578-4.938 55.536-13.163 77.9-24.657l1.195-0.619-2.258 0.103c-74.247 3.134-123.396-18.968-146.26-66.803a6.847 6.847 0 0 1-1.72-4.23l-0.007-0.327v-24.645c0-7.28-5.907-13.183-13.194-13.183-7.175 0-13.013 5.722-13.19 12.848l-0.005 0.335v24.645a6.88 6.88 0 0 1-6.626 6.874l-0.258 0.004H536.816c-2.8 0-5.31-1.692-6.367-4.262l-0.104-0.27-19.344-53.255-19.344 53.256a6.884 6.884 0 0 1-6.182 4.525l-0.289 0.006h-34.074a6.881 6.881 0 0 1-6.884-6.878 6.88 6.88 0 0 1 6.626-6.873l0.258-0.005h29.25l24.168-66.54c2.161-5.949 10.486-6.04 12.837-0.274z m-96.432 66.814a6.881 6.881 0 0 1 6.884 6.878 6.881 6.881 0 0 1-6.884 6.878 6.881 6.881 0 0 1-6.884-6.878 6.881 6.881 0 0 1 6.884-6.878z" fill="#3B3B3B" p-id="7451"></path><path d="M871.425 491.53v94.048h37.871v52.759H111.708v-52.759h37.872v-94.047h721.845z m-696.598 4.589H154.17v94.047h-37.871v43.583h788.407v-43.583h-37.871v-94.047h-20.657v94.047h-100.99v-94.047h-20.657v94.047H608.623v-94.047h-20.657v94.047H433.039v-94.047h-20.657v94.047H296.473v-94.047h-20.657v94.047h-100.99v-94.047z m666.76-0.001h-91.809v89.46h91.81l-0.002-89.46z m-121.647 0H613.212l0.001 89.46h106.728v-89.46z m-136.566 0H437.628l0.001 89.46h145.746v-89.46z m-175.584 0H301.063v89.46h106.728v-89.46z m-136.565 0h-91.809l0.001 89.46h91.809v-89.46z m744.62-89.2a2.293 2.293 0 0 1-1.229 3.003c-43.733 18.328-94.126 31.403-151.175 39.233l-3.018 0.408-1.945 0.254c-27.714 3.559-62.403 5.606-106.388 6.528l-6.271 0.122-8.097 0.136c-29.394 0.454-56.334 0.474-106.818 0.14l-4.96-0.033-66.516-0.493c-15.506-0.106-27.94-0.172-39.71-0.208l-9.98-0.023-19.163-0.004c-20.21 0.024-39.39 0.152-64.373 0.416l-4.656 0.05-72.739 0.867c-34.886 0.39-54.616 0.497-74.614 0.374l-4.541-0.032-10.201-0.098-5.274-0.066c-36.597-0.51-66.593-1.929-92.68-4.56l-2.474-0.255-2.38-0.254c-60.01-6.525-110.167-20.718-150.463-42.602a2.293 2.293 0 1 1 2.192-4.03c39.729 21.575 89.316 35.607 148.768 42.072l2.472 0.263c25.671 2.687 55.185 4.163 91.204 4.728l5.275 0.075 9.946 0.108c19.72 0.18 37.23 0.149 66.606-0.14l16.153-0.17 72.598-0.866c28.35-0.31 49.145-0.452 71.512-0.47l2.07-0.002 21.845 0.024 18.834 0.072 18.666 0.109 79.06 0.577c46.309 0.3 72.545 0.292 99.732-0.09l2.692-0.038 8.361-0.136 6.214-0.117c45.122-0.913 80.469-2.994 108.485-6.65l1.898-0.252 2.052-0.279c56.671-7.778 106.68-20.754 150.026-38.919a2.296 2.296 0 0 1 3.004 1.229z m-791.898-28.932a2.295 2.295 0 0 1-0.171-4.582l0.17-0.006h4.818v-42.436a2.295 2.295 0 0 1 2.296-2.294h558.885a2.295 2.295 0 0 1 2.295 2.294v42.436h7.113a2.295 2.295 0 0 1 0.171 4.582l-0.171 0.006H223.947z m93.183-44.73h-20.657v40.142h20.657v-40.142z m128.532 0h-20.656v40.142h20.656v-40.142z m278.87 0h-20.658v40.142h20.657v-40.142z m63.118 0h-20.657v40.142h20.657v-40.142z m-533.638 0h-20.657v40.142h20.657v-40.142z m508.39 0h-33.28v40.142h33.28v-40.142z m-191.65 0h-120.5v40.142h120.5v-40.142z m-150.338 0H321.72v40.142h98.694v-40.142z m-128.532 0h-33.28v40.142h33.28v-40.142z m304.117 0h-20.657v40.142H596v-40.142z m103.284 0H600.59v40.142h98.694v-40.142z m195.511-100.49a2.296 2.296 0 0 1 3.206 0.506 2.293 2.293 0 0 1-0.507 3.204c-34.676 25.188-79.929 40.347-135.722 45.514-35.416 3.28-65.687 3.729-147.79 2.818l-30.005-0.355c-22.239-0.26-38.622-0.412-54.386-0.477l-15.426-0.036-16.595 0.017c-8.841 0.025-17.685 0.076-27.47 0.158l-19.13 0.184-40.949 0.475c-79.916 0.89-111.56 0.545-145.226-2.343l-3.131-0.276-2.281-0.209c-55.603-5.17-100.7-20.315-135.254-45.471a2.293 2.293 0 0 1-0.503-3.205 2.296 2.296 0 0 1 3.206-0.503c33.833 24.63 78.147 39.513 132.976 44.611 35.626 3.313 66.176 3.744 150.19 2.808l16.757-0.196c26.605-0.322 45.138-0.509 62.562-0.59l14-0.044h14.174c13.176 0.018 25.846 0.092 41.046 0.236l11.189 0.113 41.938 0.49c79.47 0.895 110.928 0.558 144.317-2.295l3.105-0.272 2.262-0.206c55.021-5.096 99.492-19.993 133.447-44.657z" fill="#3B3B3B" p-id="7452"></path></svg>