<?xml version="1.0" standalone="no"?><!DOCTYPE svg PUBLIC "-//W3C//DTD SVG 1.1//EN" "http://www.w3.org/Graphics/SVG/1.1/DTD/svg11.dtd"><svg t="1727188546582" class="icon" viewBox="0 0 1024 1024" version="1.1" xmlns="http://www.w3.org/2000/svg" p-id="4676" xmlns:xlink="http://www.w3.org/1999/xlink" width="16" height="16"><path d="M269.838336 514.048c-2.33472 2.33472-3.598336 5.152768-3.598336 8.103936 0 2.53952 0.913408 4.62848 2.031616 6.232064h30.752768c1.118208-1.605632 2.031616-3.692544 2.031616-6.232064 0-2.953216-1.263616-5.769216-3.600384-8.103936h-27.61728zM722.446336 514.048c-2.33472 2.33472-3.598336 5.152768-3.598336 8.103936 0 2.53952 0.913408 4.62848 2.031616 6.232064h30.752768c1.118208-1.605632 2.031616-3.692544 2.031616-6.232064 0-2.953216-1.263616-5.769216-3.600384-8.103936h-27.61728zM286.134272 477.57312c-0.872448-0.802816-1.75104-1.615872-2.617344-2.43712-0.90112 0.88064-1.814528 1.75104-2.721792 2.6112-2.93888 2.793472-8.411136 7.989248-8.411136 10.176512 0 1.933312 0.831488 3.971072 2.246656 5.644288h18.04288c1.439744-1.626112 2.238464-3.60448 2.238464-5.644288 0-2.2528-5.709824-7.522304-8.777728-10.350592M738.742272 477.57312c-0.872448-0.802816-1.75104-1.615872-2.617344-2.43712-0.90112 0.88064-1.814528 1.75104-2.721792 2.6112-2.93888 2.793472-8.411136 7.989248-8.411136 10.176512 0 1.933312 0.831488 3.971072 2.246656 5.644288h18.04288c1.439744-1.626112 2.238464-3.60448 2.238464-5.644288 0-2.2528-5.709824-7.522304-8.777728-10.350592M312.922112 608.256h-58.548224c-11.843584 7.82336-18.853888 19.976192-18.853888 32.856064 0 12.767232 6.912 24.85248 18.591744 32.679936h59.07456c11.677696-7.827456 18.589696-19.912704 18.589696-32.679936 0-12.88192-7.010304-25.032704-18.853888-32.856064M765.530112 608.256h-58.548224c-11.843584 7.82336-18.853888 19.976192-18.853888 32.856064 0 12.767232 6.912 24.85248 18.591744 32.679936h59.07456c11.677696-7.827456 18.589696-19.912704 18.589696-32.679936 0-12.88192-7.010304-25.032704-18.853888-32.856064" fill="#EAEAEA" p-id="4677"></path><path d="M289.81248 649.216h-0.004096a9.396224 9.396224 0 0 1-5.14048-1.531904 9.357312 9.357312 0 0 1-8.361984 0.956416c-3.567616-1.306624-5.967872-4.685824-5.96992-8.409088 0-8.51968 9.086976-13.53728 12.992512-15.302656a3.258368 3.258368 0 0 1 2.686976 0c3.905536 1.76128 12.992512 6.77888 12.992512 15.29856-0.008192 4.95616-4.132864 8.982528-9.19552 8.988672zM246.648832 647.168c-1.052672 0-2.076672-0.454656-2.93888-1.277952-1.388544 1.337344-3.162112 1.660928-4.777984 0.79872-2.039808-1.089536-3.40992-3.905536-3.411968-7.008256 0-7.100416 5.19168-11.282432 7.424-12.750848a1.34144 1.34144 0 0 1 1.536 0c2.23232 1.468416 7.424 5.648384 7.424 12.7488-0.004096 4.12672-2.361344 7.48544-5.255168 7.489536zM326.520832 647.168c-1.052672 0-2.076672-0.454656-2.93888-1.277952-1.388544 1.337344-3.162112 1.660928-4.777984 0.79872-2.039808-1.089536-3.40992-3.905536-3.411968-7.008256 0-7.100416 5.19168-11.282432 7.424-12.750848a1.34144 1.34144 0 0 1 1.536 0c2.23232 1.468416 7.424 5.648384 7.424 12.7488-0.004096 4.12672-2.361344 7.48544-5.255168 7.489536zM742.42048 649.216h-0.004096a9.396224 9.396224 0 0 1-5.14048-1.531904 9.357312 9.357312 0 0 1-8.361984 0.956416c-3.567616-1.306624-5.967872-4.685824-5.96992-8.409088 0-8.51968 9.086976-13.53728 12.992512-15.302656a3.258368 3.258368 0 0 1 2.686976 0c3.905536 1.76128 12.992512 6.77888 12.992512 15.29856-0.008192 4.95616-4.132864 8.982528-9.19552 8.988672zM699.256832 647.168c-1.052672 0-2.076672-0.454656-2.93888-1.277952-1.388544 1.337344-3.162112 1.660928-4.777984 0.79872-2.039808-1.089536-3.40992-3.905536-3.411968-7.008256 0-7.100416 5.19168-11.282432 7.424-12.750848a1.34144 1.34144 0 0 1 1.536 0c2.23232 1.468416 7.424 5.648384 7.424 12.7488-0.004096 4.12672-2.361344 7.48544-5.255168 7.489536zM779.128832 647.168c-1.052672 0-2.076672-0.454656-2.93888-1.277952-1.388544 1.337344-3.162112 1.660928-4.777984 0.79872-2.039808-1.089536-3.40992-3.905536-3.411968-7.008256 0-7.100416 5.19168-11.282432 7.424-12.750848a1.34144 1.34144 0 0 1 1.536 0c2.23232 1.468416 7.424 5.648384 7.424 12.7488-0.004096 4.12672-2.361344 7.48544-5.255168 7.489536z" fill="#261F31" p-id="4678"></path><path d="M694.272 749.568v-8.192a4.096 4.096 0 0 1 4.096-4.096h75.776a4.096 4.096 0 0 1 4.096 4.096v8.192M477.882368 319.488c-5.769216 5.668864-8.890368 12.51328-8.890368 19.68128 0 6.16448 2.256896 11.237376 5.019648 15.13472h75.976704c2.760704-3.897344 5.019648-8.97024 5.019648-15.13472 0-7.172096-3.121152-14.012416-8.892416-19.68128H477.88032zM519.5776 239.972352c-2.297856-2.144256-4.61824-4.308992-6.90176-6.500352a623.106048 623.106048 0 0 1-7.172096 6.9632C497.754112 247.881728 483.328 261.742592 483.328 267.5712c0 5.154816 2.19136 10.590208 5.922816 15.0528h47.5648c3.79904-4.335616 5.904384-9.617408 5.904384-15.0528 0-6.01088-15.054848-20.056064-23.1424-27.598848M577.220608 503.808h-134.535168C415.471616 523.12064 399.36 553.12384 399.36 584.91904c0 31.51872 15.884288 61.35808 42.72128 80.68096h135.745536C604.66176 646.279168 620.544 616.43776 620.544 584.91904c0-31.7952-16.109568-61.7984-43.323392-81.11104" fill="#EAEAEA" p-id="4679"></path><path d="M523.671552 600.064h-0.008192a19.968 19.968 0 0 1-10.645504-3.065856c-5.03808 3.207168-11.462656 3.985408-17.321984 1.91488-7.39328-2.6112-12.361728-9.371648-12.367872-16.818176 0-17.03936 18.82112-27.078656 26.91072-30.603264a6.969344 6.969344 0 0 1 5.566464 0c8.093696 3.52256 26.914816 13.55776 26.914816 30.59712-0.016384 9.906176-8.56064 17.963008-19.048448 17.975296zM424.400896 598.016h-0.006144c-2.36544 0-4.66944-0.95232-6.606848-2.68288-3.127296 2.80576-7.114752 3.487744-10.752 1.677312-4.58752-2.287616-7.671808-8.20224-7.675904-14.716928 0-14.911488 11.681792-23.69536 16.703488-26.7776a3.19488 3.19488 0 0 1 3.454976 0c5.023744 3.08224 16.705536 11.859968 16.705536 26.773504-0.01024 8.667136-5.312512 15.716352-11.823104 15.726592zM608.720896 598.016h-0.006144c-2.36544 0-4.66944-0.95232-6.606848-2.68288-3.127296 2.80576-7.114752 3.487744-10.752 1.677312-4.58752-2.287616-7.671808-8.20224-7.675904-14.716928 0-14.911488 11.681792-23.69536 16.703488-26.7776a3.19488 3.19488 0 0 1 3.454976 0c5.023744 3.08224 16.705536 11.859968 16.705536 26.773504-0.01024 8.667136-5.312512 15.716352-11.823104 15.726592z" fill="#261F31" p-id="4680"></path><path d="M501.76 161.792m10.24 0l0 0q10.24 0 10.24 10.24l0 36.864q0 10.24-10.24 10.24l0 0q-10.24 0-10.24-10.24l0-36.864q0-10.24 10.24-10.24Z" fill="#261F31" p-id="4681"></path><path d="M421.888 747.52a14.336 14.336 0 0 1 14.336-14.336h149.504a14.336 14.336 0 0 1 14.336 14.336M417.792 798.72v-28.672a4.096 4.096 0 0 1 4.096-4.096h178.176a4.096 4.096 0 0 1 4.096 4.096v28.672" fill="#EAEAEA" p-id="4682"></path><path d="M471.04 405.504m2.048 0l26.624 0q2.048 0 2.048 2.048l0 8.192q0 2.048-2.048 2.048l-26.624 0q-2.048 0-2.048-2.048l0-8.192q0-2.048 2.048-2.048Z" fill="#EAEAEA" p-id="4683"></path><path d="M524.288 405.504m2.048 0l26.624 0q2.048 0 2.048 2.048l0 8.192q0 2.048-2.048 2.048l-26.624 0q-2.048 0-2.048-2.048l0-8.192q0-2.048 2.048-2.048Z" fill="#EAEAEA" p-id="4684"></path><path d="M241.664 749.568v-8.192a4.096 4.096 0 0 1 4.096-4.096h75.776a4.096 4.096 0 0 1 4.096 4.096v8.192" fill="#EAEAEA" p-id="4685"></path><path d="M464.850944 401.412096c-0.436224 0-0.876544-0.038912-1.32096-0.12288l-41.928704-7.80288a7.168 7.168 0 1 1-1.009664-13.828096l43.008-14.72512a7.168 7.168 0 1 1 4.642816 13.565952l-17.197056 5.888 15.110144 2.811904a7.168 7.168 0 0 1-1.304576 14.21312M257.017856 563.206144c-1.241088 0-2.49856-0.323584-3.643392-0.999424l-16.384-9.693184a7.168 7.168 0 0 1 0.710656-12.70784l19.456-8.738816a7.168 7.168 0 0 1 5.87776 13.074432l-6.84032 3.074048 4.478976 2.650112a7.174144 7.174144 0 0 1-3.65568 13.340672M709.625856 563.206144c-1.241088 0-2.49856-0.323584-3.643392-0.999424l-16.384-9.693184a7.168 7.168 0 0 1 0.710656-12.70784l19.456-8.738816a7.168 7.168 0 0 1 5.87776 13.074432l-6.84032 3.074048 4.478976 2.650112a7.174144 7.174144 0 0 1-3.65568 13.340672M311.300096 563.206144a7.168 7.168 0 0 1-3.65568-13.340672l4.481024-2.650112-6.84032-3.074048a7.168 7.168 0 0 1 5.87776-13.074432l19.453952 8.738816a7.168 7.168 0 0 1 0.710656 12.70784l-16.384 9.693184a7.149568 7.149568 0 0 1-3.643392 0.999424M763.908096 563.206144a7.168 7.168 0 0 1-3.65568-13.340672l4.481024-2.650112-6.84032-3.074048a7.168 7.168 0 0 1 5.87776-13.074432l19.453952 8.738816a7.168 7.168 0 0 1 0.710656 12.70784l-16.384 9.693184a7.149568 7.149568 0 0 1-3.643392 0.999424" fill="#261F31" p-id="4686"></path><path d="M305.154048 544.772096h-45.060096a7.161856 7.161856 0 0 1-5.013504-2.045952c-6.01088-5.883904-9.320448-13.479936-9.320448-21.39136 0-9.316352 4.605952-18.157568 12.640256-24.256512a7.161856 7.161856 0 0 1 4.333568-1.458176h3.24608a7.168 7.168 0 1 1 0 14.336h-0.636928c-3.401728 3.203072-5.246976 7.17824-5.246976 11.378688 0 3.81952 1.49504 6.866944 3.201024 9.101312h38.656c1.705984-2.234368 3.198976-5.281792 3.198976-9.101312 0-4.202496-1.845248-8.177664-5.246976-11.378688h-0.745472a7.168 7.168 0 0 1 0-14.336h3.354624a7.168 7.168 0 0 1 4.333568 1.458176c8.032256 6.094848 12.640256 14.938112 12.640256 24.256512 0 7.911424-3.309568 15.507456-9.320448 21.39136a7.161856 7.161856 0 0 1-5.013504 2.045952M757.762048 544.772096h-45.060096a7.161856 7.161856 0 0 1-5.013504-2.045952c-6.01088-5.883904-9.320448-13.479936-9.320448-21.39136 0-9.316352 4.605952-18.157568 12.640256-24.256512a7.161856 7.161856 0 0 1 4.333568-1.458176h3.24608a7.168 7.168 0 1 1 0 14.336h-0.636928c-3.401728 3.203072-5.246976 7.17824-5.246976 11.378688 0 3.81952 1.49504 6.866944 3.201024 9.101312h38.656c1.705984-2.234368 3.198976-5.281792 3.198976-9.101312 0-4.202496-1.845248-8.177664-5.246976-11.378688h-0.745472a7.168 7.168 0 0 1 0-14.336h3.354624a7.168 7.168 0 0 1 4.333568 1.458176c8.032256 6.094848 12.640256 14.938112 12.640256 24.256512 0 7.911424-3.309568 15.507456-9.320448 21.39136a7.161856 7.161856 0 0 1-5.013504 2.045952" fill="#261F31" p-id="4687"></path><path d="M270.024704 495.620096h25.188352c2.433024-2.443264 3.794944-5.527552 3.794944-8.71424 0-3.485696-7.20896-10.0352-11.9808-14.368768-1.536-1.396736-3.094528-2.811904-4.595712-4.247552-1.536 1.517568-3.13344 3.012608-4.7104 4.489216-4.84352 4.534272-11.481088 10.74176-11.481088 14.127104 0 3.0208 1.41312 6.207488 3.784704 8.71424m27.838464 14.336h-30.584832a7.176192 7.176192 0 0 1-4.42368-1.52576C256 503.054336 251.904 495.007744 251.904 486.905856c0-9.60512 8.146944-17.227776 16.0256-24.59648 3.39968-3.180544 6.610944-6.187008 8.689664-8.916992a7.168 7.168 0 0 1 5.615616-2.828288h0.088064c2.174976 0 4.233216 0.987136 5.595136 2.689024 2.12992 2.658304 5.34528 5.5808 8.749056 8.671232 8.200192 7.448576 16.676864 15.149056 16.676864 24.981504 0 8.400896-4.07552 16.277504-11.177984 21.614592a7.159808 7.159808 0 0 1-4.302848 1.435648M722.632704 495.620096h25.188352c2.433024-2.443264 3.794944-5.527552 3.794944-8.71424 0-3.485696-7.20896-10.0352-11.9808-14.368768-1.536-1.396736-3.094528-2.811904-4.595712-4.247552-1.536 1.517568-3.13344 3.012608-4.7104 4.489216-4.84352 4.534272-11.481088 10.74176-11.481088 14.127104 0 3.0208 1.41312 6.207488 3.784704 8.71424m27.838464 14.336h-30.584832a7.176192 7.176192 0 0 1-4.42368-1.52576C708.608 503.054336 704.512 495.007744 704.512 486.905856c0-9.60512 8.146944-17.227776 16.0256-24.59648 3.39968-3.180544 6.610944-6.187008 8.689664-8.916992a7.168 7.168 0 0 1 5.615616-2.828288h0.088064c2.174976 0 4.233216 0.987136 5.595136 2.689024 2.12992 2.658304 5.34528 5.5808 8.749056 8.671232 8.200192 7.448576 16.676864 15.149056 16.676864 24.981504 0 8.400896-4.07552 16.277504-11.177984 21.614592a7.159808 7.159808 0 0 1-4.302848 1.435648M253.351936 600.068096c-0.3584 0-0.720896-0.026624-1.08544-0.08192l-27.039744-4.110336a7.163904 7.163904 0 0 1-2.301952-13.406208l30.72-16.429056a7.168 7.168 0 1 1 6.7584 12.640256l-11.706368 6.262784 5.72416 0.8704a7.165952 7.165952 0 0 1-1.069056 14.25408M705.959936 600.068096c-0.3584 0-0.720896-0.026624-1.08544-0.08192l-27.039744-4.110336a7.163904 7.163904 0 0 1-2.301952-13.406208l30.72-16.429056a7.168 7.168 0 1 1 6.7584 12.640256l-11.706368 6.262784 5.72416 0.8704a7.165952 7.165952 0 0 1-1.069056 14.25408M313.944064 600.068096a7.168 7.168 0 0 1-1.069056-14.25408l5.72416-0.8704-11.706368-6.262784a7.168 7.168 0 1 1 6.7584-12.640256l30.72 16.429056a7.163904 7.163904 0 0 1-2.301952 13.406208l-27.039744 4.110336c-0.364544 0.055296-0.72704 0.08192-1.08544 0.08192M766.552064 600.068096a7.168 7.168 0 0 1-1.069056-14.25408l5.72416-0.8704-11.706368-6.262784a7.168 7.168 0 1 1 6.7584-12.640256l30.72 16.429056a7.163904 7.163904 0 0 1-2.301952 13.406208l-27.039744 4.110336c-0.364544 0.055296-0.72704 0.08192-1.08544 0.08192" fill="#261F31" p-id="4688"></path><path d="M248.846336 679.940096h67.555328C329.91232 670.429184 337.92 655.683584 337.92 640.110592c0-15.710208-8.118272-30.537728-21.817344-40.042496h-66.955264c-13.70112 9.506816-21.819392 24.332288-21.819392 40.042496 0 15.570944 8.005632 30.316544 21.518336 39.829504m69.750784 14.336h-71.94624a7.182336 7.182336 0 0 1-3.903488-1.155072c-18.630656-12.101632-29.75744-31.916032-29.75744-53.010432 0-21.25824 11.261952-41.1648 30.124032-53.245952a7.153664 7.153664 0 0 1 3.866624-1.132544h71.288832c1.370112 0 2.7136 0.391168 3.866624 1.132544 18.860032 12.081152 30.119936 31.985664 30.119936 53.245952 0 21.0944-11.122688 40.910848-29.75744 53.010432a7.180288 7.180288 0 0 1-3.90144 1.155072M701.454336 679.940096h67.555328C782.52032 670.429184 790.528 655.683584 790.528 640.110592c0-15.710208-8.118272-30.537728-21.817344-40.042496h-66.955264c-13.70112 9.506816-21.819392 24.332288-21.819392 40.042496 0 15.570944 8.005632 30.316544 21.518336 39.829504m69.750784 14.336h-71.94624a7.182336 7.182336 0 0 1-3.903488-1.155072c-18.630656-12.101632-29.75744-31.916032-29.75744-53.010432 0-21.25824 11.261952-41.1648 30.124032-53.245952a7.153664 7.153664 0 0 1 3.866624-1.132544h71.288832c1.370112 0 2.7136 0.391168 3.866624 1.132544 18.860032 12.081152 30.119936 31.985664 30.119936 53.245952 0 21.0944-11.122688 40.910848-29.75744 53.010432a7.180288 7.180288 0 0 1-3.90144 1.155072M334.848 731.140096a7.168 7.168 0 0 1-7.168-7.168c0-6.209536-5.054464-11.264-11.264-11.264h-67.584a11.278336 11.278336 0 0 0-11.264 11.264 7.168 7.168 0 1 1-14.336 0c0-14.116864 11.483136-25.6 25.6-25.6h67.584c14.116864 0 25.6 11.483136 25.6 25.6a7.168 7.168 0 0 1-7.168 7.168M787.456 731.140096a7.168 7.168 0 0 1-7.168-7.168c0-6.209536-5.054464-11.264-11.264-11.264h-67.584a11.278336 11.278336 0 0 0-11.264 11.264 7.168 7.168 0 1 1-14.336 0c0-14.116864 11.483136-25.6 25.6-25.6h67.584c14.116864 0 25.6 11.483136 25.6 25.6a7.168 7.168 0 0 1-7.168 7.168" fill="#261F31" p-id="4689"></path><path d="M336.896 753.668096a7.168 7.168 0 0 1-7.168-7.168v-8.192c0-3.95264-3.21536-7.168-7.168-7.168h-79.872c-3.95264 0-7.168 3.21536-7.168 7.168v8.192a7.168 7.168 0 1 1-14.336 0v-8.192c0-11.85792 9.64608-21.504 21.504-21.504h79.872c11.85792 0 21.504 9.64608 21.504 21.504v8.192a7.168 7.168 0 0 1-7.168 7.168M789.504 753.668096a7.168 7.168 0 0 1-7.168-7.168v-8.192c0-3.95264-3.21536-7.168-7.168-7.168h-79.872c-3.95264 0-7.168 3.21536-7.168 7.168v8.192a7.168 7.168 0 1 1-14.336 0v-8.192c0-11.85792 9.64608-21.504 21.504-21.504h79.872c11.85792 0 21.504 9.64608 21.504 21.504v8.192a7.168 7.168 0 0 1-7.168 7.168M561.199104 401.412096a7.168 7.168 0 0 1-1.304576-14.21312l15.108096-2.813952-17.195008-5.888a7.168 7.168 0 0 1 4.642816-13.563904l43.008 14.72512a7.168 7.168 0 0 1-1.011712 13.826048l-41.928704 7.804928c-0.442368 0.08192-0.882688 0.12288-1.318912 0.12288" fill="#261F31" p-id="4690"></path><path d="M557.58848 378.884096h-93.227008a7.168 7.168 0 0 1-5.001216-2.033664c-10.9568-10.672128-16.992256-24.393728-16.992256-38.633472 0-16.791552 8.431616-32.792576 23.13216-43.89888a7.180288 7.180288 0 0 1 4.32128-1.449984h6.71744a7.168 7.168 0 0 1 0 14.336h-4.225024c-9.949184 8.259584-15.609856 19.447808-15.609856 31.012864 0 9.478144 3.77856 18.731008 10.694656 26.331136h87.156736c6.916096-7.59808 10.69056-16.852992 10.69056-26.331136 0-11.567104-5.656576-22.755328-15.607808-31.012864h-4.452352a7.168 7.168 0 0 1 0-14.336h6.94272c1.560576 0 3.076096 0.507904 4.319232 1.447936 14.70464 11.104256 23.136256 27.10528 23.136256 43.900928 0 14.24384-6.035456 27.963392-16.9984 38.63552a7.165952 7.165952 0 0 1-4.99712 2.031616" fill="#261F31" p-id="4691"></path><path d="M483.2768 292.868096h57.31328c7.890944-6.836224 12.36992-16.207872 12.36992-26.038272 0-10.801152-14.340096-24.129536-26.99264-35.889152-4.950016-4.601856-10.018816-9.312256-14.460928-14.03904-4.450304 4.927488-9.570304 9.8304-14.57152 14.616576-12.138496 11.618304-25.894912 24.786944-25.894912 35.311616 0 9.48224 4.534272 19.054592 12.2368 26.038272m59.860992 14.336h-62.496768a7.174144 7.174144 0 0 1-4.487168-1.57696c-12.177408-9.76896-19.449856-24.272896-19.449856-38.797312 0-16.646144 15.413248-31.399936 30.316544-45.666304 7.18848-6.88128 13.9776-13.379584 18.612224-19.611648a7.172096 7.172096 0 0 1 5.664768-2.891776c2.19136-0.090112 4.354048 0.989184 5.732352 2.750464 4.728832 6.043648 11.515904 12.351488 18.69824 19.030016 15.519744 14.426112 31.567872 29.341696 31.567872 46.389248 0 15.050752-7.213056 29.227008-19.789824 38.889472a7.168 7.168 0 0 1-4.368384 1.4848M450.258944 493.572096c-0.346112 0-0.69632-0.024576-1.048576-0.075776l-56.010752-8.220672a7.165952 7.165952 0 0 1-1.695744-13.715456l59.392-24.547328a7.168 7.168 0 1 1 5.474304 13.246464l-35.346432 14.610432 30.26944 4.442112a7.168 7.168 0 0 1-1.03424 14.260224M569.647104 493.572096a7.168 7.168 0 0 1-1.03424-14.260224l30.267392-4.442112-35.344384-14.610432a7.168 7.168 0 1 1 5.474304-13.246464l59.392 24.547328a7.168 7.168 0 0 1-1.69984 13.715456l-56.006656 8.220672a7.286784 7.286784 0 0 1-1.050624 0.075776" fill="#261F31" p-id="4692"></path><path d="M437.989376 673.796096h141.8752C610.5088 652.793856 628.736 619.343872 628.736 583.901184c0-35.731456-18.468864-69.347328-49.5104-90.329088h-140.5952C407.586816 514.553856 389.12 548.169728 389.12 583.901184c0 35.442688 18.2272 68.892672 48.869376 89.894912m144.062464 14.336h-146.24768a7.174144 7.174144 0 0 1-3.948544-1.183744C396.120064 663.371776 374.784 624.850944 374.784 583.901184c0-41.265152 21.600256-79.960064 57.778176-103.50592a7.176192 7.176192 0 0 1 3.91168-1.159168h144.912384c1.386496 0 2.74432 0.403456 3.91168 1.159168 36.175872 23.545856 57.77408 62.240768 57.77408 103.50592 0 40.94976-21.336064 79.470592-57.071616 103.047168a7.182336 7.182336 0 0 1-3.948544 1.183744M615.424 757.764096a7.168 7.168 0 0 1-7.168-7.168v-8.192c0-10.727424-8.728576-19.456-19.456-19.456h-157.696c-10.727424 0-19.456 8.728576-19.456 19.456v8.192a7.168 7.168 0 1 1-14.336 0v-8.192c0-18.632704 15.159296-33.792 33.792-33.792h157.696c18.632704 0 33.792 15.159296 33.792 33.792v8.192a7.168 7.168 0 0 1-7.168 7.168" fill="#261F31" p-id="4693"></path><path d="M621.568 804.868096a7.168 7.168 0 0 1-7.168-7.168v-34.816c0-3.95264-3.21536-7.168-7.168-7.168h-194.56c-3.95264 0-7.168 3.21536-7.168 7.168v34.816a7.168 7.168 0 1 1-14.336 0v-34.816c0-11.85792 9.64608-21.504 21.504-21.504h194.56c11.85792 0 21.504 9.64608 21.504 21.504v34.816a7.168 7.168 0 0 1-7.168 7.168M454.656 434.180096c-3.387392 0-6.144 2.756608-6.144 6.144s2.756608 6.144 6.144 6.144h112.64c3.387392 0 6.144-2.756608 6.144-6.144s-2.756608-6.144-6.144-6.144h-112.64z m112.64 26.624h-112.64c-11.292672 0-20.48-9.187328-20.48-20.48s9.187328-20.48 20.48-20.48h112.64c11.292672 0 20.48 9.187328 20.48 20.48s-9.187328 20.48-20.48 20.48zM728.064 835.588096h-423.936a7.168 7.168 0 1 1 0-14.336h423.936a7.168 7.168 0 1 1 0 14.336M580.608 868.356096h-165.888a7.168 7.168 0 1 1 0-14.336h165.888a7.168 7.168 0 1 1 0 14.336" fill="#261F31" p-id="4694"></path><path d="M659.564544 806.916096H572.416a7.168 7.168 0 0 1 0-14.336h87.148544a7.168 7.168 0 1 1 0 14.336M521.216 806.916096h-253.952a7.168 7.168 0 1 1 0-14.336h253.952a7.168 7.168 0 1 1 0 14.336M737.388544 772.100096H650.24a7.168 7.168 0 0 1 0-14.336h87.148544a7.168 7.168 0 1 1 0 14.336M440.32 722.948096a7.168 7.168 0 0 1-7.168-7.168v-26.624a7.168 7.168 0 1 1 14.336 0v26.624a7.168 7.168 0 0 1-7.168 7.168M579.584 722.948096a7.168 7.168 0 0 1-7.168-7.168v-26.624a7.168 7.168 0 1 1 14.336 0v26.624a7.168 7.168 0 0 1-7.168 7.168M512 423.940096a7.168 7.168 0 0 1-7.168-7.168v-12.288a7.168 7.168 0 1 1 14.336 0v12.288a7.168 7.168 0 0 1-7.168 7.168M565.248 423.940096a7.168 7.168 0 0 1-7.168-7.168v-12.288a7.168 7.168 0 1 1 14.336 0v12.288a7.168 7.168 0 0 1-7.168 7.168M458.752 423.940096a7.168 7.168 0 0 1-7.168-7.168v-12.288a7.168 7.168 0 1 1 14.336 0v12.288a7.168 7.168 0 0 1-7.168 7.168" fill="#261F31" p-id="4695"></path><path d="M566.272 401.412096h-108.544a7.168 7.168 0 1 1 0-14.336h108.544a7.168 7.168 0 1 1 0 14.336M650.24 706.564096h-30.72a7.168 7.168 0 1 1 0-14.336h30.72a7.168 7.168 0 1 1 0 14.336M382.265344 741.380096H355.79904a7.168 7.168 0 0 1 0-14.336h26.466304a7.168 7.168 0 1 1 0 14.336M658.745344 741.380096H632.27904a7.168 7.168 0 0 1 0-14.336h26.466304a7.168 7.168 0 1 1 0 14.336M812.032 772.100096h-45.056a7.168 7.168 0 1 1 0-14.336h45.056a7.168 7.168 0 1 1 0 14.336M365.187072 773.124096H326.656a7.168 7.168 0 1 1 0-14.336h38.526976a7.168 7.168 0 1 1 0 14.336M249.856 712.708096a7.168 7.168 0 0 1-7.168-7.168v-12.288a7.168 7.168 0 1 1 14.336 0v12.288a7.168 7.168 0 0 1-7.168 7.168M317.44 712.708096a7.168 7.168 0 0 1-7.168-7.168v-12.288a7.168 7.168 0 1 1 14.336 0v12.288a7.168 7.168 0 0 1-7.168 7.168M282.624 573.444096a7.168 7.168 0 0 1-7.168-7.168v-6.144a7.168 7.168 0 1 1 14.336 0v6.144a7.168 7.168 0 0 1-7.168 7.168M282.624 460.804096a7.168 7.168 0 0 1-7.168-7.168v-12.924928a7.168 7.168 0 1 1 14.336 0v12.924928a7.168 7.168 0 0 1-7.168 7.168M257.024 573.444096a7.168 7.168 0 0 1-7.168-7.168v-6.144a7.168 7.168 0 1 1 14.336 0v6.144a7.168 7.168 0 0 1-7.168 7.168M310.272 573.444096a7.168 7.168 0 0 1-7.168-7.168v-6.144a7.168 7.168 0 1 1 14.336 0v6.144a7.168 7.168 0 0 1-7.168 7.168" fill="#261F31" p-id="4696"></path><path d="M310.272 563.204096h-53.248a7.168 7.168 0 1 1 0-14.336h53.248a7.168 7.168 0 1 1 0 14.336M314.368 581.636096h-61.44a7.168 7.168 0 1 1 0-14.336h61.44a7.168 7.168 0 1 1 0 14.336M702.464 712.708096a7.168 7.168 0 0 1-7.168-7.168v-12.288a7.168 7.168 0 1 1 14.336 0v12.288a7.168 7.168 0 0 1-7.168 7.168M770.048 712.708096a7.168 7.168 0 0 1-7.168-7.168v-12.288a7.168 7.168 0 1 1 14.336 0v12.288a7.168 7.168 0 0 1-7.168 7.168M735.232 573.444096a7.168 7.168 0 0 1-7.168-7.168v-6.144a7.168 7.168 0 1 1 14.336 0v6.144a7.168 7.168 0 0 1-7.168 7.168M735.232 460.804096a7.168 7.168 0 0 1-7.168-7.168v-12.924928a7.168 7.168 0 1 1 14.336 0v12.924928a7.168 7.168 0 0 1-7.168 7.168M709.632 573.444096a7.168 7.168 0 0 1-7.168-7.168v-6.144a7.168 7.168 0 1 1 14.336 0v6.144a7.168 7.168 0 0 1-7.168 7.168M762.88 573.444096a7.168 7.168 0 0 1-7.168-7.168v-6.144a7.168 7.168 0 1 1 14.336 0v6.144a7.168 7.168 0 0 1-7.168 7.168" fill="#261F31" p-id="4697"></path><path d="M762.88 563.204096h-53.248a7.168 7.168 0 1 1 0-14.336h53.248a7.168 7.168 0 1 1 0 14.336M766.976 581.636096h-61.44a7.168 7.168 0 1 1 0-14.336h61.44a7.168 7.168 0 1 1 0 14.336M269.312 773.124096h-57.344a7.168 7.168 0 1 1 0-14.336h57.344a7.168 7.168 0 1 1 0 14.336" fill="#261F31" p-id="4698"></path></svg>