<?xml version="1.0" standalone="no"?><!DOCTYPE svg PUBLIC "-//W3C//DTD SVG 1.1//EN" "http://www.w3.org/Graphics/SVG/1.1/DTD/svg11.dtd"><svg t="1727188585920" class="icon" viewBox="0 0 1024 1024" version="1.1" xmlns="http://www.w3.org/2000/svg" p-id="5848" xmlns:xlink="http://www.w3.org/1999/xlink" width="16" height="16"><path d="M504.576 113.848889a51.256889 51.256889 0 0 0-48.540444 51.185778v7.153777l-3.783112 0.853334c-41.244444 9.372444-74.083556 18.104889-98.56 26.254222l-4.494222 1.521778c-25.728 8.860444-60.728889 23.665778-105.130666 44.430222a21.333333 21.333333 0 0 0-4.408889 35.882667c12.814222 10.410667 22.656 17.521778 29.909333 21.504l2.318222 1.237333c6.485333 3.271111 15.189333 6.656 26.211556 10.197333l3.114666 0.981334v47.530666l-87.281777 0.014223a28.444444 28.444444 0 0 0-23.907556 43.847111c14.819556 23.011556 28.117333 40.149333 40.135111 51.541333l2.531556 2.346667c14.023111 12.629333 35.527111 26.965333 64.696889 43.235555l3.825777 2.119111v31.857778l-15.331555 0.355556c-43.036444 1.137778-76.259556 3.669333-99.797333 7.68-24.618667 4.167111-56.462222 12.956444-95.715556 26.339555a28.444444 28.444444 0 0 0-11.633778 46.307556c21.688889 23.324444 41.642667 40.405333 60.046222 51.271111l2.986667 1.706667c19.299556 10.851556 48.355556 22.186667 87.424 34.176l9.372445 2.830222v182.115555a28.444444 28.444444 0 0 0 28.444444 28.444445h495.672889l2.133333-0.071111a28.444444 28.444444 0 0 0 26.311111-28.373334l-0.014222-181.361777 6.257778-1.479112c34.716444-8.689778 66.517333-21.333333 95.388444-37.902222 26.396444-15.160889 48.142222-32.355556 65.180445-51.655111a28.444444 28.444444 0 0 0-11.847111-45.653333L938.666667 569.685333c-34.915556-12.003556-65.208889-20.053333-91.008-24.135111l-3.896889-0.597333-8.291556-1.123556c-27.235556-3.413333-64.085333-5.475556-110.648889-6.215111l-8.647111-0.128v-31.843555l4.664889-2.602667c29.226667-16.554667 51.086222-31.459556 65.706667-44.899556 12.586667-11.576889 26.695111-28.401778 42.524444-50.574222a28.444444 28.444444 0 0 0 5.290667-16.526222l-0.085333-2.133333a28.444444 28.444444 0 0 0-28.359112-26.311111l-89.742222-0.014223v-47.886222l2.318222-0.810667c11.278222-4.053333 19.84-7.879111 25.856-11.648 6.627556-4.124444 15.445333-11.491556 26.88-22.286222a21.333333 21.333333 0 0 0-4.280888-34.176l-6.627556-3.655111c-35.384889-19.342222-64.526222-33.080889-87.623111-41.258667l-3.356445-1.166222c-22.840889-7.779556-56.462222-16.312889-100.992-25.685333l-9.784888-2.048v-6.926222A51.256889 51.256889 0 0 0 507.306667 113.777778l-2.702223 0.071111zM507.306667 142.222222c12.600889 0 22.826667 10.211556 22.826666 22.812445v30.208l25.173334 5.105777c49.294222 10.197333 85.333333 19.342222 107.889777 27.320889l4.096 1.493334c18.076444 6.727111 40.391111 17.123556 66.844445 31.160889l10.368 5.575111-0.526222 0.483555c-6.371556 5.688889-11.320889 9.628444-14.705778 11.733334-5.546667 3.484444-16.256 7.864889-31.672889 12.814222l-9.870222 3.171555v96.938667h118.186666c-14.776889 20.707556-27.704889 36.124444-38.627555 46.165333-13.681778 12.572444-35.84 27.448889-66.332445 44.373334l-13.226666 7.224889v76.899555l29.155555 0.241778c56.405333 0.711111 98.588444 3.299556 126.321778 7.694222l5.219556 0.867556c22.912 4.039111 49.92 11.377778 80.924444 22.044444l7.281778 2.545778c-14.890667 16.853333-34.218667 32.142222-58.026667 45.824-31.004444 17.792-65.834667 30.72-104.576 38.727111l-11.335111 2.346667V890.311111H267.022222V686.876444l-10.282666-2.972444c-49.208889-14.222222-83.84-27.306667-103.495112-38.897778-14.620444-8.632889-31.146667-22.513778-49.436444-41.656889L99.555556 598.840889c37.916444-12.942222 68.408889-21.333333 91.292444-25.230222l7.338667-1.137778c26.88-3.868444 66.090667-6.115556 117.404444-6.684445l14.065778-0.142222v-76.871111l-7.466667-4.039111-10.666666-5.845333c-29.212444-16.298667-49.877333-30.236444-61.795556-41.528889-9.372444-8.903111-20.394667-22.883556-32.881778-41.856l-2.915555-4.465778h115.726222v-97.28l-10.282667-2.958222c-17.322667-4.977778-29.482667-9.443556-36.096-13.084445l-1.550222-0.881777a131.726222 131.726222 0 0 1-10.154667-6.897778l-5.006222-3.783111 15.829333-7.224889c29.169778-13.169778 53.219556-23.125333 72.106667-29.824l3.953778-1.393778c23.822222-8.206222 57.244444-17.208889 100.195555-26.951111l25.827556-5.731556v-29.994666c0-12.600889 10.225778-22.812444 22.812444-22.812445z" fill="#275AA1" p-id="5849"></path><path d="M776.903111 686.890667v14.222222H252.8v-14.222222zM703.232 551.395556v14.222222H313.031111v-14.222222zM693.575111 488.817778v14.222222H320.270222v-14.222222z" fill="#275AA1" p-id="5850"></path><path d="M382.919111 497.649778h71.111111v28.444444h-71.111111zM454.030222 725.205333h113.777778v184.888889h-113.777778z" fill="#275AA1" p-id="5851"></path><path d="M347.363556 774.983111m-49.777778 0a49.777778 49.777778 0 1 0 99.555555 0 49.777778 49.777778 0 1 0-99.555555 0Z" fill="#275AA1" p-id="5852"></path><path d="M674.474667 774.983111m-49.777778 0a49.777778 49.777778 0 1 0 99.555555 0 49.777778 49.777778 0 1 0-99.555555 0Z" fill="#275AA1" p-id="5853"></path><path d="M567.808 497.649778h71.111111v28.444444h-71.111111z" fill="#275AA1" p-id="5854"></path><path d="M699.121778 376.775111v14.222222H315.434667v-14.222222zM692.622222 291.555556l1.891556 14.08-16.782222 2.204444c-71.509333 9.187556-126.919111 13.952-166.343112 14.293333l-4.465777 0.028445c-39.665778 0-96.568889-4.778667-170.808889-14.321778l-16.782222-2.190222 1.877333-14.108445 24.789333 3.228445c67.057778 8.433778 119.267556 12.814222 156.515556 13.141333l4.408889 0.028445c37.504 0 91.164444-4.394667 160.924444-13.169778l24.789333-3.228445z" fill="#275AA1" p-id="5855"></path><path d="M468.252444 312.760889h85.333334v28.444444h-85.333334z" fill="#275AA1" p-id="5856"></path></svg>