<?xml version="1.0" standalone="no"?><!DOCTYPE svg PUBLIC "-//W3C//DTD SVG 1.1//EN" "http://www.w3.org/Graphics/SVG/1.1/DTD/svg11.dtd"><svg t="1727188615553" class="icon" viewBox="0 0 1024 1024" version="1.1" xmlns="http://www.w3.org/2000/svg" p-id="7178" xmlns:xlink="http://www.w3.org/1999/xlink" width="16" height="16"><path d="M89.09 817.57s-8.24-2.49-11.03 3.57 13.28 9.72 21.77 6.78c0.88-5.87 0.8-22.89-8.03-20.34-7.51 2.16-2.71 9.99-2.71 9.99z" fill="#F099F9" p-id="7179"></path><path d="M92.59 831.82c-6.21 0-12.92-1.71-15.99-5.1-1.8-1.98-2.21-4.45-1.14-6.78 1.96-4.24 5.88-5.6 9.4-5.73-0.23-1.43-0.21-3.03 0.39-4.57 0.62-1.62 2.13-3.77 5.76-4.81 3.54-1.02 5.96 0.24 7.37 1.47 5.48 4.8 4.92 17.86 4.29 22.05l-0.26 1.72-1.64 0.57c-2.31 0.78-5.19 1.18-8.18 1.18z m-7.28-11.91c-1.73 0-3.74 0.47-4.64 2.43-0.04 0.27 0.25 0.77 1.33 1.41 3.24 1.9 10.13 2.99 15.21 1.92 0.45-5.39-0.23-12.98-2.61-15.07-0.38-0.33-0.89-0.6-2-0.28-1.1 0.32-1.77 0.78-2 1.37-0.5 1.27 0.43 3.51 0.96 4.39l3.82 6.36-7.08-2.13c-0.16-0.03-1.47-0.4-2.99-0.4zM736.72 856.13s-8.24-2.49-11.03 3.57 13.28 9.72 21.77 6.78c0.88-5.87 0.8-22.89-8.03-20.34-7.52 2.16-2.71 9.99-2.71 9.99z" fill="#F099F9" p-id="7180"></path><path d="M740.21 870.38c-6.21 0-12.92-1.71-15.99-5.1-1.8-1.98-2.21-4.46-1.14-6.78 1.96-4.24 5.88-5.6 9.4-5.73-0.23-1.43-0.21-3.03 0.38-4.57 0.63-1.62 2.14-3.76 5.76-4.81 3.54-1.03 5.96 0.24 7.37 1.47 5.48 4.8 4.92 17.86 4.29 22.05l-0.26 1.72-1.64 0.57c-2.29 0.78-5.17 1.18-8.17 1.18z m-7.28-11.91c-1.73 0-3.74 0.47-4.64 2.43-0.04 0.27 0.24 0.77 1.33 1.41 3.25 1.91 10.14 2.99 15.22 1.92 0.45-5.39-0.23-12.98-2.61-15.07-0.38-0.33-0.89-0.6-2-0.28-1.1 0.32-1.77 0.78-2.01 1.37-0.5 1.27 0.43 3.51 0.96 4.39L743 861l-7.09-2.13c-0.15-0.03-1.46-0.4-2.98-0.4zM370.65 209.32s-18.12-5.47-24.26 7.84c-6.14 13.31 29.19 21.36 47.86 14.9 1.94-12.91 1.75-50.34-17.65-44.73-16.51 4.77-5.95 21.99-5.95 21.99z" fill="#F099F9" p-id="7181"></path><path d="M378.78 237.18c-13.29 0-27.43-3.83-33.06-10.05-3.02-3.34-3.71-7.31-1.93-11.16 4.42-9.58 14.44-11.23 21.99-10.49-1.19-3.47-2.04-8.13-0.4-12.37 1.6-4.12 5.1-6.99 10.42-8.52 4.97-1.43 9.47-0.57 12.99 2.52 11.09 9.72 9.36 38.27 8.29 45.39l-0.26 1.71-1.64 0.57c-4.75 1.64-10.49 2.4-16.4 2.4z m-16.46-26.15c-4.79 0-10.58 1.38-13.33 7.33-0.55 1.18-0.93 2.81 0.98 4.92 5.85 6.46 27.33 10.69 41.68 6.6 1.27-11 0.64-32.1-6.63-38.47-2.06-1.81-4.48-2.23-7.62-1.33-3.55 1.03-5.73 2.68-6.66 5.07-1.71 4.38 1.13 10.63 2.37 12.66l3.86 6.36-7.13-2.12c-0.3-0.07-3.57-1.02-7.52-1.02zM746.6 136.52s13.2-27.69-6.62-40.79-41.38 41.52-35.61 73.02c20.2 6.27 80.21 15.15 75.99-17.32-3.59-27.6-33.76-14.91-33.76-14.91zM935.18 620.84s8.1-16.98-4.06-25.01c-12.15-8.03-25.38 25.46-21.84 44.78 12.39 3.85 49.19 9.29 46.6-10.62-2.2-16.93-20.7-9.15-20.7-9.15zM137.61 216.68s-8.24-2.49-11.03 3.57 13.28 9.72 21.77 6.78c0.88-5.87 0.8-22.89-8.03-20.34-7.52 2.16-2.71 9.99-2.71 9.99z" fill="#F099F9" p-id="7182"></path><path d="M141.26 230.89c-6.26 0-13.11-1.7-16.15-5.06-1.8-1.98-2.21-4.45-1.14-6.78 1.96-4.24 5.87-5.6 9.4-5.73-0.23-1.43-0.21-3.03 0.39-4.58 0.62-1.62 2.14-3.76 5.76-4.81 3.54-1.02 5.96 0.24 7.37 1.47 5.48 4.8 4.92 17.86 4.29 22.05l-0.26 1.71-1.64 0.57c-2.23 0.78-5.06 1.16-8.02 1.16z m-7.44-11.87c-1.73 0-3.74 0.47-4.64 2.43-0.04 0.27 0.24 0.77 1.33 1.41 3.24 1.9 10.12 2.98 15.21 1.92 0.45-5.39-0.23-12.98-2.61-15.07-0.39-0.33-0.9-0.6-2-0.28-1.66 0.48-1.92 1.15-2.01 1.38-0.51 1.32 0.52 3.66 0.95 4.37l3.94 6.42-7.2-2.17c-0.13-0.04-1.44-0.41-2.97-0.41z" fill="#F099F9" p-id="7183"></path><path d="M478.82 367.41c5.3-1.87 8.64-6.33 10.7-12.15l-12.94-28.46-23.26 41.34c9 1.65 17.99 1.92 25.5-0.73z" fill="#CEF6FE" p-id="7184"></path><path d="M489.52 355.26c-2.07 5.82-5.41 10.28-10.7 12.15-7.5 2.65-16.49 2.38-25.5 0.72L269.16 668.77s86.85 34.45 125.15 28.53 74.93-26.88 91.95-35.63c17.02-8.75 125.32-37.87 125.32-37.87L489.52 355.26z" fill="#7B62F6" p-id="7185"></path><path d="M384.42 701.87c-41.82 0-113.4-28.18-116.69-29.49a3.9 3.9 0 0 1-2.31-2.54c-0.33-1.15-0.11-2.4 0.59-3.37 0.65-0.9 66.19-91.06 118.38-183.81 1.05-1.87 3.43-2.53 5.3-1.48a3.888 3.888 0 0 1 1.48 5.3c-46.07 81.87-102.48 161.71-115.9 180.46 18.44 6.94 86.64 31.42 118.44 26.51 33.58-5.19 65.55-22.01 84.65-32.05 2.25-1.18 4.29-2.26 6.11-3.19 15.4-7.92 100.84-31.33 121.66-36.97L476.21 335.39l-57.38 101.97a3.888 3.888 0 0 1-5.3 1.48 3.888 3.888 0 0 1-1.48-5.3l61.15-108.66a3.943 3.943 0 0 1 3.56-1.98c1.46 0.06 2.77 0.94 3.37 2.28l135 297a3.93 3.93 0 0 1-0.02 3.27c-0.49 1.03-1.4 1.8-2.51 2.1-1.08 0.29-108.09 29.11-124.55 37.58-1.8 0.93-3.83 1.99-6.05 3.16-19.53 10.27-52.22 27.47-87.09 32.86-3.21 0.49-6.73 0.72-10.49 0.72z" fill="#110971" p-id="7186"></path><path d="M365.59 490.46c-17.73-2.06-27.66-17.02-45.74 2.13-6.91 7.31-16 4.18-27.91-5.44L184.39 721.16S278 703.22 316.3 697.3s60.99 8.75 78.01 0c7.94-4.08 35.76-12.6 63.17-20.53l-75.01-191.63c-4.93 3.25-9.99 6.12-16.88 5.32z" fill="#7B62F6" p-id="7187"></path><path d="M397.14 477.77c-5.66 1.05-10.1 4.37-14.66 7.38l75.01 191.63c31.34-9.06 62.15 9.26 62.15 9.26l-122.5-208.27z" fill="#6250EA" p-id="7188"></path><path d="M319.85 492.59c18.08-19.15 28.02-4.19 45.74-2.13 13.25 1.54 19.77-10.51 31.55-12.7L337.58 376.5l-45.64 110.65c11.9 9.62 21 12.75 27.91 5.44z" fill="#CEF6FE" p-id="7189"></path><path d="M184.39 725.05c-1.46 0-2.83-0.82-3.49-2.17-0.77-1.57-0.4-3.47 0.91-4.63 0.16-0.14 17.04-15.72 37.07-64.25 0.82-1.99 3.1-2.93 5.08-2.11 1.99 0.82 2.93 3.09 2.11 5.08-12.74 30.88-24.24 48.84-31.42 58.28 25.93-4.92 90.93-17.14 121.06-21.79 19.83-3.06 35.65-0.76 48.36 1.09 11.8 1.72 21.12 3.08 28.47-0.71 6.91-3.55 28.39-10.55 63.87-20.8 20.86-6.03 41.22-0.7 53.49 4.11L395.23 482.19c-0.24 0.16-0.49 0.3-0.77 0.41-0.14 0.05-0.26 0.13-0.39 0.19l-0.63 0.31c-0.43 0.2-0.89 0.31-1.34 0.34a4 4 0 0 1-0.98 0.79c-0.21 0.12-0.42 0.26-0.63 0.39l-0.5 0.31a3.894 3.894 0 0 1-5.35-1.29c-1.12-1.83-0.54-4.22 1.29-5.35l0.38-0.24c0.31-0.2 0.63-0.4 0.96-0.58 0.01 0 0.01-0.01 0.02-0.01 0.52-0.29 1.08-0.46 1.63-0.5 0.35-0.39 0.78-0.71 1.28-0.94l0.33-0.17c0.25-0.13 0.51-0.26 0.77-0.37l-33.04-56.19a3.897 3.897 0 0 1 1.38-5.33 3.9 3.9 0 0 1 5.33 1.38L523 684.04c0.9 1.53 0.65 3.47-0.61 4.73a3.873 3.873 0 0 1-4.73 0.59c-0.29-0.18-29.78-17.33-59.08-8.86-43.58 12.6-58.03 17.97-62.47 20.25-9.57 4.92-20.5 3.33-33.15 1.49-12.19-1.77-27.38-3.99-46.04-1.1-37.79 5.84-130.84 23.66-131.78 23.84-0.26 0.05-0.51 0.07-0.75 0.07z m52.95-101.7c-0.49 0-1-0.1-1.48-0.3a3.888 3.888 0 0 1-2.11-5.08l100.23-242.96a3.908 3.908 0 0 1 3.32-2.4c1.51-0.11 2.88 0.64 3.63 1.91l14.04 23.87c1.09 1.85 0.47 4.24-1.38 5.33a3.9 3.9 0 0 1-5.33-1.38l-10.07-17.12-97.26 235.73a3.88 3.88 0 0 1-3.59 2.4z m133.02-129.03c-1.92 0-3.6-1.42-3.85-3.38a4.55 4.55 0 0 1-0.04-0.52c0-1.91 1.42-3.58 3.36-3.85 0.58-0.16 0.85-0.23 1.12-0.29 2.13-0.45 4.17 0.89 4.62 2.99 0.06 0.27 0.09 0.55 0.09 0.82 0 1.79-1.25 3.41-3.07 3.8-0.77 0.21-1.22 0.33-1.71 0.39-0.18 0.03-0.35 0.04-0.52 0.04z" fill="#110971" p-id="7190"></path><path d="M703.34 445.23c31.39 3.79 1.6 35.66 20.33 18.23 13.59-12.65 37.47-5.97 59.74 7.87l-46.55-103.2-75.17 84.91c14.06-4.47 29.55-9.27 41.65-7.81z" fill="#CEF6FE" p-id="7191"></path><path d="M783.41 471.33c-22.28-13.83-46.15-20.51-59.74-7.87-18.72 17.43 11.06-14.44-20.33-18.23-12.1-1.46-27.59 3.33-41.65 7.8L513.09 620.9l20.23 71.2 370.35 29.06-120.26-249.83z" fill="#6250EA" p-id="7192"></path><path d="M783.41 475.22c-0.71 0-1.42-0.19-2.05-0.59-16.01-9.94-30.89-14.86-41.86-13.87-2.19 0.2-4.03-1.38-4.23-3.52a3.899 3.899 0 0 1 3.53-4.23c12.07-1.1 25.19 3.51 36.19 9.09l-39.19-86.89-62.06 70.1c1.45-0.41 2.9-0.8 4.34-1.16 2.07-0.53 4.2 0.73 4.73 2.81 0.53 2.08-0.73 4.2-2.81 4.73-5.54 1.41-11.26 3.2-17.12 5.06-1.68 0.53-3.48-0.12-4.44-1.59-0.96-1.47-0.81-3.39 0.35-4.7l75.17-84.91c0.88-0.99 2.17-1.47 3.5-1.27 1.3 0.2 2.42 1.04 2.96 2.25l46.55 103.2c0.71 1.56 0.31 3.4-0.98 4.53-0.75 0.64-1.66 0.96-2.58 0.96z" fill="#110971" p-id="7193"></path><path d="M903.67 725.05c-0.1 0-0.2 0-0.31-0.01l-370.35-29.06a3.903 3.903 0 0 1-3.44-2.82l-20.23-71.2c-0.36-1.27-0.05-2.65 0.83-3.64l223.77-252.77c0.88-0.99 2.17-1.47 3.5-1.27 1.3 0.2 2.42 1.04 2.96 2.25L774.9 443c0.89 1.96 0.01 4.26-1.94 5.15a3.9 3.9 0 0 1-5.15-1.95l-32.02-70.99-218.37 246.68 18.91 66.55 354.92 27.85c-5.67-6.33-13.01-17.25-21.18-36.03-0.86-1.97 0.05-4.26 2.01-5.12 1.98-0.85 4.26 0.05 5.12 2.02 15.74 36.2 27.2 40.19 27.31 40.21 2 0.44 3.31 2.35 3.01 4.37a3.9 3.9 0 0 1-3.85 3.31z" fill="#110971" p-id="7194"></path><path d="M867.28 668c-1.5 0-2.93-0.88-3.57-2.34l-83.86-192.77-1.9-4.21c-0.89-1.96-0.01-4.26 1.94-5.15a3.9 3.9 0 0 1 5.15 1.95l1.92 4.25 83.89 192.82a3.896 3.896 0 0 1-3.57 5.45z" fill="#110971" p-id="7195"></path><path d="M546.34 362.45c12.51 11.35 21.02-12.97 32.37-7.19 11.35 5.77 16.1 9.75 32.87 21.23 11.95 8.18 21.87 17.51 32.73 5.39l-88.3-190.25-85.31 194.24c7.74-0.82 18.65-4.47 29.99-16.49 21.28-22.53 33.14-18.27 45.65-6.93z" fill="#CEF6FE" p-id="7196"></path><path d="M486.67 380.55c-6.01 3.38-11.52 4.85-15.96 5.33L336.24 701.4l34.42 2.81c0.44-1.03 0.78-1.86 0.96-2.41 1.63-4.89 63.21-163.49 115.05-321.25z" fill="#6250EA" p-id="7197"></path><path d="M778.78 686.9L644.31 381.89c-10.87 12.12-20.79 2.79-32.73-5.39-16.77-11.49-21.52-15.46-32.87-21.23-11.35-5.77-19.86 18.54-32.37 7.19-12.51-11.35-24.37-15.6-45.65 6.94-4.83 5.12-9.57 8.65-14.03 11.16-51.83 157.75-113.41 316.35-115.04 321.24-0.18 0.55-0.52 1.38-0.96 2.41l120.19 9.82 287.93-27.13z" fill="#7B62F6" p-id="7198"></path><path d="M490.84 717.92c-0.11 0-0.21-0.01-0.32-0.01l-154.61-12.63c-1.25-0.1-2.37-0.8-3.01-1.87a3.918 3.918 0 0 1-0.25-3.54l134.47-315.52 46.48-105.84c0.86-1.97 3.16-2.86 5.13-2 1.97 0.86 2.86 3.16 2 5.13l-44.06 100.33c0.84 0.54 1.46 1.4 1.69 2.45a3.9 3.9 0 0 1-2.98 4.62l-0.47-2.17 0.46 2.17c-0.01 0-0.04 0.01-0.09 0.02-0.04 0.01-0.32 0.07-0.36 0.08h-0.02c-0.46 0.1-0.93 0.1-1.37 0.03l-131.6 308.77 148.89 12.17 312.52-29.45c-12.44-18.58-54.08-82.27-91.8-156.98-0.97-1.92-0.2-4.26 1.72-5.23 1.92-0.97 4.26-0.2 5.23 1.72 44.49 88.12 94.45 160.82 94.95 161.54 0.78 1.14 0.91 2.6 0.32 3.86a3.88 3.88 0 0 1-3.16 2.23l-319.4 30.1c-0.11 0.02-0.23 0.02-0.36 0.02z m-16.03-331.49l0.55 2.62-0.55-2.62z m224.11 107.5c-1.42 0-2.79-0.78-3.48-2.14l-54.6-108.15-13.07-28.16a3.89 3.89 0 0 1 1.89-5.17c1.94-0.91 4.26-0.06 5.17 1.89l13.02 28.05 54.55 108.03c0.97 1.92 0.2 4.26-1.72 5.23-0.57 0.29-1.17 0.42-1.76 0.42z m-95.43-196.1c-1.47 0-2.87-0.83-3.53-2.25l-43.85-94.48-26.67 60.74c-0.87 1.96-3.17 2.86-5.13 2-1.97-0.86-2.86-3.16-2-5.13l30.14-68.63c0.61-1.4 1.99-2.31 3.52-2.33h0.04c1.51 0 2.89 0.88 3.53 2.25l47.48 102.3a3.89 3.89 0 0 1-1.89 5.17c-0.53 0.24-1.09 0.36-1.64 0.36z" fill="#110971" p-id="7199"></path><path d="M633.41 391.62c-7.15 0-14.04-4.87-20.41-9.38-1.19-0.84-2.4-1.7-3.63-2.54-3.95-2.71-7.24-5-10.1-7-9.25-6.45-13.9-9.69-22.34-13.98-2.65-1.34-5.26 0.32-10.18 4.19-5.49 4.31-13.77 10.82-23.03 2.42-0.97-0.87-1.92-1.7-2.89-2.48a3.892 3.892 0 0 1-0.59-5.47 3.892 3.892 0 0 1 5.47-0.59c1.08 0.87 2.15 1.8 3.23 2.78 4.04 3.66 6.62 2.24 13-2.77 4.97-3.9 11.14-8.76 18.52-5 8.92 4.54 14.01 8.09 23.26 14.53 2.85 1.99 6.12 4.27 10.05 6.96 1.26 0.87 2.51 1.74 3.73 2.61 10.2 7.21 15.81 10.71 22.13 5.17L556.1 201.1l-78.79 179.4c5.92-1.93 13.1-5.89 20.54-13.77 8.61-9.12 16.26-14.52 23.4-16.51 2.06-0.58 4.22 0.63 4.79 2.7a3.88 3.88 0 0 1-2.7 4.79c-5.73 1.6-12.22 6.3-19.83 14.36-12.36 13.09-24.45 16.84-32.41 17.69-1.37 0.14-2.73-0.45-3.55-1.57a3.88 3.88 0 0 1-0.42-3.86l85.3-194.24c0.61-1.4 1.99-2.31 3.52-2.33h0.04c1.51 0 2.89 0.88 3.53 2.25l88.3 190.25c0.65 1.41 0.41 3.08-0.63 4.24-4.64 5.18-9.26 7.12-13.78 7.12z" fill="#110971" p-id="7200"></path><path d="M611.58 471.33c1.17-11.01-54.07-85.12-54.07-85.12s13.22 63.37 17.21 77.25c3.99 13.88 36.86 83.45 36.86 83.45v-75.58zM504.95 511.9l-33.53 122.29 14.84 27.48zM783.41 529.29v67.08l47.06 50.84zM320.94 546.91s-39.39 56.11-20.24 68.45l19.15 12.33 1.09-80.78z" fill="#F099F9" p-id="7201"></path><path d="M873.62 712.21c-6.84 0-13.37 0.96-19.47 2.65-77.1-28.48-148.28-29.36-207.44-19.02-98.47-32.87-170.8-12.17-217.32 15.09-9.37-11.09-23.81-18.22-40.03-18.22-14.74 0-27.98 5.9-37.32 15.29-98.51-13.7-151.67 9.8-179.28 33.24-8.76 4.17-14.34 9.56-15.17 15.52-9.52 11.94-12.56 21.18-12.56 21.18h33.95c10.33 3.67 23.61 5.89 38.09 5.89 8.97 0 17.45-0.87 25.08-2.39 8.7 14.91 25.53 25.03 44.87 25.03 20.39 0 37.94-11.26 46.16-27.5 9.59 20.28 40.98 35.17 78.31 35.17 32.89 0 61.16-11.57 73.99-28.18 10.65 3.03 22.54 4.77 35.15 4.77 13.53 0 26.26-1.98 37.48-5.44 12.59 16.98 41.2 28.85 74.53 28.85 31.51 0 58.77-10.61 72.3-26.11 2.97 0.36 5.99 0.61 9.09 0.61 7.98 0 15.58-1.26 22.52-3.52 9.27 15.88 29.66 26.93 53.37 26.93 18.98 0 35.81-7.09 46.54-18.05 10.12 6.48 23.04 10.38 37.12 10.38 32.44 0 58.73-20.63 58.73-46.08s-26.25-46.09-58.69-46.09z" fill="#7B62F6" p-id="7202"></path><path d="M866.06 692.8c-6.84 0-13.37 0.96-19.47 2.65-77.1-28.48-148.28-29.36-207.44-19.02-98.47-32.87-170.8-12.17-217.32 15.09-9.37-11.09-23.81-18.22-40.03-18.22-14.74 0-27.98 5.9-37.32 15.29-98.51-13.7-151.67 9.8-179.28 33.24-8.76 4.17-14.34 9.56-15.17 15.52-9.52 11.94-12.56 21.18-12.56 21.18h33.95c10.33 3.67 23.61 5.89 38.09 5.89 8.97 0 17.45-0.87 25.08-2.39 8.7 14.91 25.53 25.03 44.87 25.03 20.39 0 37.94-11.26 46.16-27.5 9.59 20.28 40.98 35.17 78.31 35.17 32.89 0 61.16-11.57 73.99-28.18 10.65 3.03 22.54 4.77 35.15 4.77 13.53 0 26.26-1.98 37.48-5.44 12.59 16.98 41.2 28.85 74.53 28.85 31.51 0 58.77-10.61 72.3-26.11 2.97 0.36 5.99 0.61 9.09 0.61 7.98 0 15.58-1.26 22.52-3.52 9.27 15.88 29.66 26.93 53.37 26.93 18.98 0 35.81-7.09 46.54-18.05 10.12 6.48 23.04 10.38 37.12 10.38 32.44 0 58.73-20.63 58.73-46.08 0.05-25.46-26.25-46.09-58.69-46.09z" fill="#CEF6FE" p-id="7203"></path><path d="M162.09 768.87c-0.27 0-0.55-0.03-0.83-0.09h-33.35a3.89 3.89 0 0 1-3.69-5.13c0.12-0.37 3.11-9.09 11.82-20.52a3.889 3.889 0 1 1 6.19 4.71c-4 5.25-6.68 9.87-8.34 13.16h27.97c0.46 0 0.92 0.08 1.35 0.24 2 0.74 3.17 3.01 2.45 5.02-0.57 1.58-2 2.61-3.57 2.61zM371.76 811.88c-0.41 0-0.82-0.07-1.23-0.2-16.95-5.64-29.95-14.41-37.38-25.08-10.06 14.61-27.49 23.74-46.13 23.74-19.09 0-36.76-9.36-46.77-24.6-10.77 1.89-22.53 2.42-33.84 1.57a3.895 3.895 0 0 1-3.59-4.17c0.16-2.14 2-3.77 4.17-3.59 11.55 0.86 23.57 0.21 34.4-1.94 1.64-0.32 3.28 0.42 4.12 1.86 8.31 14.25 24.21 23.1 41.51 23.1 18.14 0 34.89-9.96 42.69-25.37 0.67-1.33 2.11-2.11 3.52-2.14 1.49 0.02 2.83 0.88 3.47 2.23 5.33 11.27 18.56 21.11 36.29 27.01 2.04 0.68 3.14 2.88 2.46 4.92a3.887 3.887 0 0 1-3.69 2.66zM411.5 818.01c-2.23 0-4.44-0.05-6.63-0.15a3.892 3.892 0 0 1-3.71-4.07c0.1-2.15 1.94-3.8 4.07-3.71 2.07 0.1 4.16 0.14 6.27 0.14 30.56 0 58.4-10.47 70.91-26.67 0.98-1.26 2.62-1.8 4.14-1.36 9.36 2.66 19.28 4.19 29.47 4.54 2.15 0.08 3.83 1.88 3.75 4.02-0.07 2.15-1.87 3.78-4.03 3.75-9.93-0.35-19.62-1.75-28.85-4.16-14.57 16.89-43.77 27.67-75.39 27.67zM632.66 818.01c-30 0-57.19-9.25-72.74-24.75a3.887 3.887 0 0 1-0.01-5.5 3.887 3.887 0 0 1 5.5-0.01c13.91 13.87 39.68 22.48 67.24 22.48 27.73 0 53.58-8.7 67.45-22.71 1.5-1.53 3.97-1.54 5.5-0.03a3.887 3.887 0 0 1 0.03 5.5c-15.5 15.67-42.78 25.02-72.97 25.02zM789.96 815.92c-24.22 0-46.49-11.33-56.73-28.86a3.887 3.887 0 0 1 1.4-5.32c1.84-1.08 4.23-0.46 5.32 1.4 8.87 15.19 28.5 25 50.01 25 16.77 0 32.42-5.85 42.94-16.06 1.54-1.5 4-1.46 5.5 0.08a3.887 3.887 0 0 1-0.08 5.5c-11.96 11.61-29.59 18.26-48.36 18.26zM886.11 807.21a3.89 3.89 0 0 1-3.83-3.24 3.896 3.896 0 0 1 3.18-4.49c24.92-4.24 43.01-21.56 43.01-41.2 0-7.15-2.43-14.26-7.03-20.56-0.41-0.57-0.67-1.23-0.73-1.93-2.07-21.93-26.07-39.11-54.64-39.11-6.21 0-12.42 0.84-18.44 2.51-0.79 0.22-1.62 0.18-2.39-0.1-37.28-13.77-75.73-21.9-114.31-24.16a3.898 3.898 0 0 1-3.66-4.11c0.13-2.15 2.01-3.79 4.11-3.66 38.94 2.28 77.76 10.42 115.39 24.2a77.125 77.125 0 0 1 19.29-2.46c32.09 0 59.19 19.72 62.27 45.09 5.18 7.43 7.91 15.8 7.91 24.28 0 23.44-20.81 44-49.48 48.87-0.22 0.05-0.44 0.07-0.65 0.07zM158.17 729.81c-1.21 0-2.39-0.56-3.15-1.61a3.888 3.888 0 0 1 0.87-5.43c2.08-1.51 4.49-2.93 7.18-4.24 27.41-23.08 80.8-47.47 180.06-34.06 10.38-9.73 24.03-15.07 38.67-15.07 15.67 0 30.37 6.22 40.81 17.16 44.32-25.16 117.17-47.13 216.83-14.15 11-1.89 22.16-3.35 33.19-4.34 2.21-0.19 4.03 1.39 4.22 3.53a3.89 3.89 0 0 1-3.53 4.22c-11.14 1-22.41 2.48-33.51 4.42-0.64 0.11-1.29 0.06-1.9-0.14-99.49-33.21-171.35-10.31-214.12 14.76-1.63 0.96-3.72 0.6-4.94-0.85-9.05-10.7-22.55-16.84-37.06-16.84-13.22 0-25.49 5.02-34.56 14.14-0.86 0.87-2.08 1.28-3.29 1.11-98.12-13.64-149.98 10.06-176.22 32.35-0.26 0.22-0.54 0.4-0.85 0.55-2.45 1.16-4.61 2.42-6.43 3.74-0.68 0.51-1.48 0.75-2.27 0.75zM311.1 500.51c-8.83 0-17.55-7.04-21.61-10.33a3.885 3.885 0 0 1-1.15-4.51l45.64-110.65a3.908 3.908 0 0 1 3.32-2.4c1.51-0.11 2.88 0.64 3.63 1.91 27.16 46.17 59.54 101.22 59.58 101.3a3.891 3.891 0 1 1-6.73 3.91c-0.25-0.43-42.31-71.95-55.59-94.52l-41.53 100.69c12.31 9.33 17.07 7.49 20.36 4.01 14.47-15.31 25.28-11.16 35.73-7.14 4.17 1.6 8.48 3.26 13.3 3.82 0.51 0.06 1.02 0.09 1.51 0.11 2.15 0.05 3.85 1.83 3.8 3.97-0.05 2.15-1.68 3.91-3.98 3.8-0.73-0.02-1.47-0.07-2.23-0.15-5.8-0.67-10.79-2.59-15.2-4.29-9.87-3.8-16.4-6.3-27.27 5.22-3.61 3.82-7.61 5.25-11.58 5.25z" fill="#110971" p-id="7204"></path><path d="M643.96 549.54c0.24 23.23 3.95 29.85 12.08 21.55-8.13 8.3-1.43 11.87 21.8 11.63-23.23 0.24-29.85 3.95-21.55 12.08-8.3-8.13-11.87-1.43-11.63 21.8-0.24-23.23-3.95-29.85-12.08-21.55 8.13-8.3 1.43-11.87-21.8-11.63 23.23-0.24 29.85-3.95 21.55-12.08 8.3 8.12 11.87 1.43 11.63-21.8zM498.32 688.17c0.24 23.23 3.95 29.85 12.08 21.55-8.13 8.3-1.43 11.87 21.8 11.63-23.23 0.24-29.85 3.95-21.55 12.08-8.3-8.13-11.87-1.43-11.63 21.8-0.24-23.23-3.95-29.85-12.08-21.55 8.13-8.3 1.43-11.87-21.8-11.63 23.23-0.24 29.85-3.95 21.55-12.08 8.3 8.13 11.87 1.43 11.63-21.8zM301.97 525.87c0.12 11.61 1.98 14.92 6.04 10.78-4.06 4.15-0.72 5.94 10.9 5.81-11.61 0.12-14.92 1.98-10.78 6.04-4.15-4.06-5.94-0.72-5.81 10.9-0.12-11.61-1.98-14.92-6.04-10.78 4.06-4.15 0.72-5.94-10.9-5.81 11.61-0.12 14.92-1.98 10.78-6.04 4.14 4.06 5.93 0.72 5.81-10.9z" fill="#FFFFFF" p-id="7205"></path><path d="M815.76 623.52c0.16 15.72 2.68 20.2 8.18 14.58-5.5 5.62-0.97 8.03 14.75 7.87-15.72 0.16-20.2 2.68-14.58 8.18-5.62-5.5-8.03-0.97-7.87 14.75-0.16-15.72-2.68-20.2-8.18-14.58 5.5-5.62 0.97-8.03-14.75-7.87 15.72-0.16 20.2-2.68 14.58-8.18 5.62 5.51 8.04 0.97 7.87-14.75z" fill="#FFFFFF" p-id="7206"></path><path d="M644.44 726.57s-8.24-2.49-11.03 3.57c-2.79 6.05 13.28 9.72 21.77 6.78 0.88-5.87 0.8-22.89-8.03-20.34-7.51 2.16-2.71 9.99-2.71 9.99z" fill="#F099F9" p-id="7207"></path><path d="M647.93 740.82c-6.21 0-12.92-1.71-15.99-5.1-1.8-1.98-2.21-4.46-1.14-6.78 1.96-4.24 5.88-5.6 9.4-5.73-0.23-1.43-0.21-3.03 0.38-4.57 0.63-1.62 2.14-3.76 5.76-4.81 3.55-1.02 5.96 0.24 7.37 1.47 5.48 4.8 4.92 17.86 4.29 22.05l-0.26 1.72-1.64 0.57c-2.29 0.78-5.17 1.18-8.17 1.18z m-7.28-11.91c-1.73 0-3.74 0.47-4.64 2.43-0.04 0.27 0.24 0.77 1.33 1.41 3.25 1.91 10.14 2.99 15.22 1.92 0.45-5.39-0.23-12.98-2.61-15.07-0.38-0.33-0.89-0.6-2-0.28-1.1 0.32-1.77 0.78-2.01 1.37-0.5 1.27 0.43 3.51 0.96 4.39l3.82 6.36-7.09-2.13c-0.15-0.03-1.45-0.4-2.98-0.4z" fill="#F099F9" p-id="7208"></path><path d="M504.79 430.89c0.11 10.64 1.81 13.67 5.53 9.87-3.72 3.8-0.66 5.44 9.98 5.33-10.64 0.11-13.67 1.81-9.87 5.53-3.8-3.72-5.44-0.66-5.33 9.98-0.11-10.64-1.81-13.67-5.53-9.87 3.72-3.8 0.66-5.44-9.98-5.33 10.64-0.11 13.67-1.81 9.87-5.53 3.8 3.72 5.44 0.66 5.33-9.98z" fill="#FFFFFF" p-id="7209"></path><path d="M191.09 467.73c0.11 10.64 1.81 13.67 5.53 9.87-3.72 3.8-0.66 5.44 9.98 5.33-10.64 0.11-13.67 1.81-9.87 5.53-3.8-3.72-5.44-0.66-5.33 9.98-0.11-10.64-1.81-13.67-5.53-9.87 3.72-3.8 0.66-5.44-9.98-5.33 10.64-0.11 13.67-1.81 9.87-5.53 3.81 3.72 5.44 0.66 5.33-9.98zM387.6 834.26c0.24 23.23 3.95 29.85 12.08 21.55-8.13 8.3-1.43 11.87 21.8 11.63-23.23 0.24-29.85 3.95-21.55 12.08-8.3-8.13-11.87-1.43-11.63 21.8-0.24-23.23-3.95-29.85-12.08-21.55 8.13-8.3 1.43-11.87-21.8-11.63 23.23-0.24 29.85-3.95 21.55-12.08 8.3 8.13 11.87 1.43 11.63-21.8zM815.46 874.44c0.24 23.02 3.92 29.59 11.97 21.36-8.06 8.22-1.42 11.77 21.61 11.53-23.02 0.24-29.59 3.92-21.36 11.97-8.22-8.06-11.77-1.42-11.53 21.61-0.24-23.02-3.92-29.59-11.97-21.36 8.06-8.22 1.42-11.77-21.61-11.53 23.02-0.24 29.58-3.92 21.36-11.97 8.23 8.05 11.77 1.42 11.53-21.61zM295.06 304.84c0.27 25.54 4.35 32.82 13.28 23.69-8.93 9.12-1.57 13.05 23.96 12.78-25.54 0.27-32.82 4.35-23.69 13.28-9.12-8.93-13.05-1.57-12.78 23.96-0.27-25.54-4.35-32.82-13.28-23.69 8.93-9.12 1.57-13.05-23.96-12.78 25.54-0.27 32.82-4.35 23.69-13.28 9.12 8.94 13.05 1.58 12.78-23.96zM556.21 122.73c0.32 30.45 5.18 39.13 15.84 28.25-10.65 10.88-1.88 15.56 28.57 15.24-30.45 0.32-39.13 5.18-28.25 15.84-10.88-10.65-15.56-1.88-15.24 28.57-0.32-30.45-5.18-39.13-15.84-28.25 10.65-10.88 1.88-15.56-28.57-15.24 30.45-0.32 39.13-5.18 28.25-15.84 10.88 10.66 15.56 1.88 15.24-28.57zM680.83 266.13c0.12 11.61 1.98 14.92 6.04 10.78-4.06 4.15-0.72 5.94 10.9 5.81-11.61 0.12-14.92 1.98-10.78 6.04-4.15-4.06-5.94-0.72-5.81 10.9-0.12-11.61-1.98-14.92-6.04-10.78 4.06-4.15 0.72-5.94-10.9-5.81 11.61-0.12 14.92-1.98 10.78-6.04 4.15 4.06 5.93 0.71 5.81-10.9zM903.51 502.48c0.11 10.64 1.81 13.67 5.53 9.87-3.72 3.8-0.66 5.44 9.98 5.33-10.64 0.11-13.67 1.81-9.87 5.53-3.8-3.72-5.44-0.66-5.33 9.98-0.11-10.64-1.81-13.67-5.53-9.87 3.72-3.8 0.66-5.44-9.98-5.33 10.64-0.11 13.67-1.81 9.87-5.53 3.8 3.73 5.44 0.66 5.33-9.98z" fill="#F099F9" p-id="7210"></path></svg>