<?xml version="1.0" standalone="no"?><!DOCTYPE svg PUBLIC "-//W3C//DTD SVG 1.1//EN" "http://www.w3.org/Graphics/SVG/1.1/DTD/svg11.dtd"><svg t="1727192351347" class="icon" viewBox="0 0 1024 1024" version="1.1" xmlns="http://www.w3.org/2000/svg" p-id="27858" xmlns:xlink="http://www.w3.org/1999/xlink" width="16" height="16"><path d="M978.261333 888.832h-111.957333c-3.413333 0-6.826667-2.730667-6.826667-6.826667s2.730667-6.826667 6.826667-6.826666h111.274667c17.066667 0 31.402667-14.336 31.402666-32.768 0-17.749333-13.653333-32.768-31.402666-32.768H6.826667c-3.413333 0-6.826667-2.730667-6.826667-6.826667 0-3.413333 2.730667-6.826667 6.826667-6.826667h971.434666c25.258667 0 45.738667 21.162667 45.738667 46.421334 0 25.941333-20.48 46.421333-45.738667 46.421333z" p-id="27859"></path><path d="M847.189333 888.832h-22.528c-3.413333 0-6.826667-2.730667-6.826666-6.826667s2.730667-6.826667 6.826666-6.826666h22.528c3.413333 0 6.826667 2.730667 6.826667 6.826666 0.682667 4.096-2.730667 6.826667-6.826667 6.826667zM806.229333 888.832h-10.922666c-3.413333 0-6.826667-2.730667-6.826667-6.826667s2.730667-6.826667 6.826667-6.826666h10.922666c3.413333 0 6.826667 2.730667 6.826667 6.826666s-3.413333 6.826667-6.826667 6.826667zM776.192 888.832h-259.413333c-3.413333 0-6.826667-2.730667-6.826667-6.826667s2.730667-6.826667 6.826667-6.826666h258.048c3.413333 0 6.826667 2.730667 6.826666 6.826666 1.365333 4.096-2.048 6.826667-5.461333 6.826667zM694.954667 968.704H314.709333c-25.258667 0-45.738667-21.162667-45.738666-46.421333 0-25.941333 20.48-46.421333 45.738666-46.421334h111.274667c3.413333 0 6.826667 2.730667 6.826667 6.826667s-2.730667 6.826667-6.826667 6.826667H314.709333c-17.066667 0-31.402667 14.336-31.402666 32.768 0 17.749333 13.653333 32.768 31.402666 32.768h380.245334c3.413333 0 6.826667 2.730667 6.826666 6.826666s-3.413333 6.826667-6.826666 6.826667z" p-id="27860"></path><path d="M468.309333 888.832h-22.528c-3.413333 0-6.826667-2.730667-6.826666-6.826667s2.730667-6.826667 6.826666-6.826666h22.528c3.413333 0 6.826667 2.730667 6.826667 6.826666 0.682667 4.096-2.730667 6.826667-6.826667 6.826667zM498.346667 888.832h-10.922667c-3.413333 0-6.826667-2.730667-6.826667-6.826667s2.730667-6.826667 6.826667-6.826666H498.346667c3.413333 0 6.826667 2.730667 6.826666 6.826666s-3.413333 6.826667-6.826666 6.826667z" p-id="27861"></path><path d="M98.304 801.450667c-8.874667 0-16.384-7.509333-16.384-16.384V169.301333c0-8.874667 7.509333-16.384 16.384-16.384h2.730667c8.874667 0 16.384 7.509333 16.384 16.384V785.066667c0 8.874667-7.509333 16.384-16.384 16.384h-2.730667z" fill="#F2F2F2" p-id="27862"></path><path d="M101.034667 159.744c5.461333 0 9.557333 4.096 9.557333 9.557333V785.066667c0 5.461333-4.096 9.557333-9.557333 9.557333h-2.730667c-5.461333 0-9.557333-4.096-9.557333-9.557333V169.301333c0-5.461333 4.096-9.557333 9.557333-9.557333h2.730667m0-13.653333h-2.730667c-12.970667 0-23.210667 10.24-23.210667 23.210666V785.066667c0 12.970667 10.24 23.210667 23.210667 23.210666h2.730667c12.970667 0 23.210667-10.24 23.210666-23.210666V169.301333c0-12.970667-10.24-23.210667-23.210666-23.210666z" p-id="27863"></path><path d="M79.189333 215.04c-4.778667 0-8.874667-4.096-8.874666-8.874667s4.096-8.874667 8.874666-8.874666h40.277334c4.778667 0 8.874667 4.096 8.874666 8.874666s-4.096 8.874667-8.874666 8.874667h-40.277334z" fill="#1679DA" p-id="27864"></path><path d="M120.149333 204.117333c1.365333 0 2.048 0.682667 2.048 2.048 0 1.365333-0.682667 2.048-2.048 2.048h-40.277333c-1.365333 0-2.048-0.682667-2.048-2.048 0-1.365333 0.682667-2.048 2.048-2.048h40.277333m0-13.653333h-40.277333c-8.874667 0-15.701333 6.826667-15.701333 15.701333 0 8.874667 6.826667 15.701333 15.701333 15.701334h40.277333c8.874667 0 15.701333-6.826667 15.701334-15.701334-0.682667-8.192-7.509333-15.701333-15.701334-15.701333z" p-id="27865"></path><path d="M79.189333 252.586667c-4.778667 0-8.874667-4.096-8.874666-8.874667 0-4.778667 4.096-8.874667 8.874666-8.874667h40.277334c4.778667 0 8.874667 4.096 8.874666 8.874667 0 4.778667-4.096 8.874667-8.874666 8.874667h-40.277334z" fill="#1679DA" p-id="27866"></path><path d="M120.149333 241.664c1.365333 0 2.048 0.682667 2.048 2.048s-1.365333 2.048-2.048 2.048h-40.277333c-1.365333 0-2.048-0.682667-2.048-2.048s0.682667-2.048 2.048-2.048h40.277333m0-13.653333h-40.277333c-8.874667 0-15.701333 6.826667-15.701333 15.701333s6.826667 15.701333 15.701333 15.701333h40.277333c8.874667 0 15.701333-6.826667 15.701334-15.701333s-7.509333-15.701333-15.701334-15.701333z" p-id="27867"></path><path d="M98.304 801.450667c-8.874667 0-16.384-7.509333-16.384-16.384V573.44c0-8.874667 7.509333-16.384 16.384-16.384h2.730667c8.874667 0 16.384 7.509333 16.384 16.384v211.626667c0 8.874667-7.509333 16.384-16.384 16.384h-2.730667z" fill="#D8D8D8" p-id="27868"></path><path d="M101.034667 563.882667c5.461333 0 9.557333 4.096 9.557333 9.557333v211.626667c0 5.461333-4.096 9.557333-9.557333 9.557333h-2.730667c-5.461333 0-9.557333-4.096-9.557333-9.557333V573.44c0-5.461333 4.096-9.557333 9.557333-9.557333h2.730667m0-13.653334h-2.730667c-12.970667 0-23.210667 10.24-23.210667 23.210667v211.626667c0 12.970667 10.24 23.210667 23.210667 23.210666h2.730667c12.970667 0 23.210667-10.24 23.210666-23.210666V573.44c0-12.288-10.24-23.210667-23.210666-23.210667z" p-id="27869"></path><path d="M70.314667 716.8h58.026666v84.650667h-58.026666z" fill="#D8D8D8" p-id="27870"></path><path d="M122.197333 723.626667v71.68h-44.373333V723.626667h44.373333m8.874667-13.653334H68.266667c-2.730667 0-4.778667 2.048-4.778667 4.778667v89.429333c0 2.730667 2.048 4.778667 4.778667 4.778667h62.122666c2.730667 0 4.778667-2.048 4.778667-4.778667v-89.429333c0-2.730667-2.048-4.778667-4.096-4.778667z" p-id="27871"></path><path d="M81.92 596.650667h35.498667v26.624H81.92z" fill="#F2F2F2" p-id="27872"></path><path d="M110.592 602.794667v13.653333H88.746667v-13.653333h21.845333m13.653333-12.970667H75.093333v40.277333h49.152v-40.277333z" p-id="27873"></path><path d="M81.92 654.677333h35.498667v26.624H81.92z" fill="#F2F2F2" p-id="27874"></path><path d="M110.592 660.821333v13.653334H88.746667v-13.653334h21.845333m13.653333-12.970666H75.093333v40.277333h49.152v-40.277333z" p-id="27875"></path><path d="M63.488 745.472h72.362667v56.661333H63.488z" fill="#D8D8D8" p-id="27876"></path><path d="M129.024 752.298667v43.008h-58.709333v-43.008h58.709333m9.557333-13.653334H60.757333c-2.048 0-4.096 2.048-4.096 4.096v61.44c0 2.048 2.048 4.096 4.096 4.096h77.141334c2.048 0 4.096-2.048 4.096-4.096v-61.44c0.682667-2.048-1.365333-4.096-3.413334-4.096z" p-id="27877"></path><path d="M922.965333 801.450667c-8.874667 0-16.384-7.509333-16.384-16.384V169.301333c0-8.874667 7.509333-16.384 16.384-16.384h2.730667c8.874667 0 16.384 7.509333 16.384 16.384V785.066667c0 8.874667-7.509333 16.384-16.384 16.384h-2.730667z" fill="#F2F2F2" p-id="27878"></path><path d="M925.696 159.744c5.461333 0 9.557333 4.096 9.557333 9.557333V785.066667c0 5.461333-4.096 9.557333-9.557333 9.557333h-2.730667c-5.461333 0-9.557333-4.096-9.557333-9.557333V169.301333c0-5.461333 4.096-9.557333 9.557333-9.557333h2.730667m0-13.653333h-2.730667c-12.970667 0-23.210667 10.24-23.210666 23.210666V785.066667c0 12.970667 10.24 23.210667 23.210666 23.210666h2.730667c12.970667 0 23.210667-10.24 23.210667-23.210666V169.301333c0-12.970667-10.24-23.210667-23.210667-23.210666z" p-id="27879"></path><path d="M903.850667 215.04c-4.778667 0-8.874667-4.096-8.874667-8.874667s4.096-8.874667 8.874667-8.874666h40.277333c4.778667 0 8.874667 4.096 8.874667 8.874666s-4.096 8.874667-8.874667 8.874667h-40.277333z" fill="#1679DA" p-id="27880"></path><path d="M944.128 204.117333c1.365333 0 2.048 0.682667 2.048 2.048 0 1.365333-0.682667 2.048-2.048 2.048h-40.277333c-1.365333 0-2.048-0.682667-2.048-2.048 0-1.365333 0.682667-2.048 2.048-2.048h40.277333m0-13.653333h-40.277333c-8.874667 0-15.701333 6.826667-15.701334 15.701333 0 8.874667 6.826667 15.701333 15.701334 15.701334h40.277333c8.874667 0 15.701333-6.826667 15.701333-15.701334 0-8.192-6.826667-15.701333-15.701333-15.701333z" p-id="27881"></path><path d="M903.850667 252.586667c-4.778667 0-8.874667-4.096-8.874667-8.874667 0-4.778667 4.096-8.874667 8.874667-8.874667h40.277333c4.778667 0 8.874667 4.096 8.874667 8.874667 0 4.778667-4.096 8.874667-8.874667 8.874667h-40.277333z" fill="#1679DA" p-id="27882"></path><path d="M944.128 241.664c1.365333 0 2.048 0.682667 2.048 2.048s-0.682667 2.048-2.048 2.048h-40.277333c-1.365333 0-2.048-0.682667-2.048-2.048s0.682667-2.048 2.048-2.048h40.277333m0-13.653333h-40.277333c-8.874667 0-15.701333 6.826667-15.701334 15.701333s6.826667 15.701333 15.701334 15.701333h40.277333c8.874667 0 15.701333-6.826667 15.701333-15.701333s-6.826667-15.701333-15.701333-15.701333z" p-id="27883"></path><path d="M922.965333 801.450667c-8.874667 0-16.384-7.509333-16.384-16.384V573.44c0-8.874667 7.509333-16.384 16.384-16.384h2.730667c8.874667 0 16.384 7.509333 16.384 16.384v211.626667c0 8.874667-7.509333 16.384-16.384 16.384h-2.730667z" fill="#D8D8D8" p-id="27884"></path><path d="M925.696 563.882667c5.461333 0 9.557333 4.096 9.557333 9.557333v211.626667c0 5.461333-4.096 9.557333-9.557333 9.557333h-2.730667c-5.461333 0-9.557333-4.096-9.557333-9.557333V573.44c0-5.461333 4.096-9.557333 9.557333-9.557333h2.730667m0-13.653334h-2.730667c-12.970667 0-23.210667 10.24-23.210666 23.210667v211.626667c0 12.970667 10.24 23.210667 23.210666 23.210666h2.730667c12.970667 0 23.210667-10.24 23.210667-23.210666V573.44c0-12.288-10.24-23.210667-23.210667-23.210667z" p-id="27885"></path><path d="M894.976 716.8h58.026667v84.650667h-58.026667z" fill="#D8D8D8" p-id="27886"></path><path d="M946.176 723.626667v71.68h-44.373333V723.626667h44.373333m9.557333-13.653334h-62.122666c-2.730667 0-4.778667 2.048-4.778667 4.778667v89.429333c0 2.730667 2.048 4.778667 4.778667 4.778667h62.122666c2.730667 0 4.778667-2.048 4.778667-4.778667v-89.429333c-0.682667-2.730667-2.730667-4.778667-4.778667-4.778667z" p-id="27887"></path><path d="M906.581333 596.650667h35.498667v26.624h-35.498667z" fill="#F2F2F2" p-id="27888"></path><path d="M935.253333 602.794667v13.653333h-22.528v-13.653333h22.528m13.653334-12.970667h-49.152v40.277333h49.152v-40.277333z" p-id="27889"></path><path d="M906.581333 654.677333h35.498667v26.624h-35.498667z" fill="#F2F2F2" p-id="27890"></path><path d="M935.253333 660.821333v13.653334h-22.528v-13.653334h22.528m13.653334-12.970666h-49.152v40.277333h49.152v-40.277333z" p-id="27891"></path><path d="M888.149333 745.472h72.362667v56.661333h-72.362667z" fill="#D8D8D8" p-id="27892"></path><path d="M953.685333 752.298667v43.008h-58.709333v-43.008h58.709333m8.874667-13.653334h-77.141333c-2.048 0-4.096 2.048-4.096 4.096v61.44c0 2.048 2.048 4.096 4.096 4.096H962.56c2.048 0 4.096-2.048 4.096-4.096v-61.44c0-2.048-1.365333-4.096-4.096-4.096z" p-id="27893"></path><path d="M337.92 801.450667c-9.557333 0-17.749333-8.192-17.749333-17.749334V75.776c0-9.557333 8.192-17.749333 17.749333-17.749333s17.749333 8.192 17.749333 17.749333v707.925333c0 10.24-7.509333 17.749333-17.749333 17.749334z" fill="#F2F2F2" p-id="27894"></path><path d="M337.92 64.853333c6.144 0 10.922667 4.778667 10.922667 10.922667v707.925333c0 6.144-4.778667 10.922667-10.922667 10.922667-6.144 0-10.922667-4.778667-10.922667-10.922667V75.776c0-6.144 4.778667-10.922667 10.922667-10.922667m0-13.653333c-13.653333 0-24.576 10.922667-24.576 24.576v707.925333c0 13.653333 10.922667 24.576 24.576 24.576s24.576-10.922667 24.576-24.576V75.776c0-13.653333-10.922667-24.576-24.576-24.576z" p-id="27895"></path><path d="M318.122667 115.370667c-4.778667 0-8.874667-4.096-8.874667-8.874667s4.096-8.874667 8.874667-8.874667h40.277333c4.778667 0 8.874667 4.096 8.874667 8.874667s-4.096 8.874667-8.874667 8.874667h-40.277333z" fill="#1679DA" p-id="27896"></path><path d="M358.4 104.448c1.365333 0 2.048 0.682667 2.048 2.048s-0.682667 2.048-2.048 2.048h-40.277333c-1.365333 0-2.048-0.682667-2.048-2.048 0-1.365333 0.682667-2.048 2.048-2.048h40.277333m0-13.653333h-40.277333c-8.874667 0-15.701333 6.826667-15.701334 15.701333 0 8.874667 6.826667 15.701333 15.701334 15.701333h40.277333c8.874667 0 15.701333-6.826667 15.701333-15.701333 0-8.192-6.826667-15.701333-15.701333-15.701333z" p-id="27897"></path><path d="M318.122667 152.917333c-4.778667 0-8.874667-4.096-8.874667-8.874666s4.096-8.874667 8.874667-8.874667h40.277333c4.778667 0 8.874667 4.096 8.874667 8.874667s-4.096 8.874667-8.874667 8.874666h-40.277333z" fill="#1679DA" p-id="27898"></path><path d="M358.4 141.994667c1.365333 0 2.048 0.682667 2.048 2.048 0 1.365333-0.682667 2.048-2.048 2.048h-40.277333c-1.365333 0-2.048-0.682667-2.048-2.048 0-1.365333 0.682667-2.048 2.048-2.048h40.277333m0-13.653334h-40.277333c-8.874667 0-15.701333 6.826667-15.701334 15.701334 0 8.874667 6.826667 15.701333 15.701334 15.701333h40.277333c8.874667 0 15.701333-6.826667 15.701333-15.701333 0-8.874667-6.826667-15.701333-15.701333-15.701334z" p-id="27899"></path><path d="M336.554667 801.450667c-8.874667 0-16.384-7.509333-16.384-16.384V573.44c0-8.874667 7.509333-16.384 16.384-16.384h2.730666c8.874667 0 16.384 7.509333 16.384 16.384v211.626667c0 8.874667-7.509333 16.384-16.384 16.384h-2.730666z" fill="#D8D8D8" p-id="27900"></path><path d="M339.285333 563.882667c5.461333 0 9.557333 4.096 9.557334 9.557333v211.626667c0 5.461333-4.096 9.557333-9.557334 9.557333h-2.730666c-5.461333 0-9.557333-4.096-9.557334-9.557333V573.44c0-5.461333 4.096-9.557333 9.557334-9.557333h2.730666m0-13.653334h-2.730666c-12.970667 0-23.210667 10.24-23.210667 23.210667v211.626667c0 12.970667 10.24 23.210667 23.210667 23.210666h2.730666c12.970667 0 23.210667-10.24 23.210667-23.210666V573.44c0-12.288-10.24-23.210667-23.210667-23.210667z" p-id="27901"></path><path d="M309.248 716.8h58.026667v84.650667h-58.026667z" fill="#D8D8D8" p-id="27902"></path><path d="M360.448 723.626667v71.68h-44.373333V723.626667h44.373333m8.874667-13.653334H307.2c-2.730667 0-4.778667 2.048-4.778667 4.778667v89.429333c0 2.730667 2.048 4.778667 4.778667 4.778667h62.122667c2.730667 0 4.778667-2.048 4.778666-4.778667v-89.429333c-0.682667-2.730667-2.048-4.778667-4.778666-4.778667z" p-id="27903"></path><path d="M320.170667 596.650667h35.498666v26.624h-35.498666z" fill="#F2F2F2" p-id="27904"></path><path d="M349.525333 602.794667v13.653333h-22.528v-13.653333h22.528m12.970667-12.970667h-49.152v40.277333h49.152v-40.277333z" p-id="27905"></path><path d="M320.170667 654.677333h35.498666v26.624h-35.498666z" fill="#F2F2F2" p-id="27906"></path><path d="M349.525333 660.821333v13.653334h-22.528v-13.653334h22.528m12.970667-12.970666h-49.152v40.277333h49.152v-40.277333z" p-id="27907"></path><path d="M301.738667 745.472h72.362666v56.661333H301.738667z" fill="#D8D8D8" p-id="27908"></path><path d="M367.274667 752.298667v43.008h-58.709334v-43.008h58.709334m9.557333-13.653334H299.690667c-2.048 0-4.096 2.048-4.096 4.096v61.44c0 2.048 2.048 4.096 4.096 4.096h77.141333c2.048 0 4.096-2.048 4.096-4.096v-61.44c0-2.048-2.048-4.096-4.096-4.096z" p-id="27909"></path><path d="M686.08 801.450667c-9.557333 0-17.749333-8.192-17.749333-17.749334V75.776c0-9.557333 8.192-17.749333 17.749333-17.749333 9.557333 0 17.749333 8.192 17.749333 17.749333v707.925333c0 10.24-8.192 17.749333-17.749333 17.749334z" fill="#F2F2F2" p-id="27910"></path><path d="M686.08 64.853333c6.144 0 10.922667 4.778667 10.922667 10.922667v707.925333c0 6.144-4.778667 10.922667-10.922667 10.922667-6.144 0-10.922667-4.778667-10.922667-10.922667V75.776c-0.682667-6.144 4.778667-10.922667 10.922667-10.922667m0-13.653333c-13.653333 0-24.576 10.922667-24.576 24.576v707.925333c0 13.653333 10.922667 24.576 24.576 24.576s24.576-10.922667 24.576-24.576V75.776c0-13.653333-10.922667-24.576-24.576-24.576z" p-id="27911"></path><path d="M665.6 115.370667c-4.778667 0-8.874667-4.096-8.874667-8.874667s4.096-8.874667 8.874667-8.874667h40.277333c4.778667 0 8.874667 4.096 8.874667 8.874667s-4.096 8.874667-8.874667 8.874667h-40.277333z" fill="#1679DA" p-id="27912"></path><path d="M705.877333 104.448c1.365333 0 2.048 0.682667 2.048 2.048s-0.682667 2.048-2.048 2.048h-40.277333c-1.365333 0-2.048-0.682667-2.048-2.048 0-1.365333 0.682667-2.048 2.048-2.048h40.277333m0-13.653333h-40.277333c-8.874667 0-15.701333 6.826667-15.701333 15.701333 0 8.874667 6.826667 15.701333 15.701333 15.701333h40.277333c8.874667 0 15.701333-6.826667 15.701334-15.701333 0-8.192-6.826667-15.701333-15.701334-15.701333z" p-id="27913"></path><path d="M665.6 152.917333c-4.778667 0-8.874667-4.096-8.874667-8.874666s4.096-8.874667 8.874667-8.874667h40.277333c4.778667 0 8.874667 4.096 8.874667 8.874667s-4.096 8.874667-8.874667 8.874666h-40.277333z" fill="#1679DA" p-id="27914"></path><path d="M705.877333 141.994667c1.365333 0 2.048 0.682667 2.048 2.048 0 1.365333-0.682667 2.048-2.048 2.048h-40.277333c-1.365333 0-2.048-0.682667-2.048-2.048 0-1.365333 0.682667-2.048 2.048-2.048h40.277333m0-13.653334h-40.277333c-8.874667 0-15.701333 6.826667-15.701333 15.701334 0 8.874667 6.826667 15.701333 15.701333 15.701333h40.277333c8.874667 0 15.701333-6.826667 15.701334-15.701333 0-8.874667-6.826667-15.701333-15.701334-15.701334z" p-id="27915"></path><path d="M684.714667 801.450667c-8.874667 0-16.384-7.509333-16.384-16.384V573.44c0-8.874667 7.509333-16.384 16.384-16.384h2.730666c8.874667 0 16.384 7.509333 16.384 16.384v211.626667c0 8.874667-7.509333 16.384-16.384 16.384h-2.730666z" fill="#D8D8D8" p-id="27916"></path><path d="M687.445333 563.882667c5.461333 0 9.557333 4.096 9.557334 9.557333v211.626667c0 5.461333-4.096 9.557333-9.557334 9.557333h-2.730666c-5.461333 0-9.557333-4.096-9.557334-9.557333V573.44c0-5.461333 4.096-9.557333 9.557334-9.557333h2.730666m0-13.653334h-2.730666c-12.970667 0-23.210667 10.24-23.210667 23.210667v211.626667c0 12.970667 10.24 23.210667 23.210667 23.210666h2.730666c12.970667 0 23.210667-10.24 23.210667-23.210666V573.44c0-12.288-10.24-23.210667-23.210667-23.210667z" p-id="27917"></path><path d="M656.725333 716.8h58.026667v84.650667h-58.026667z" fill="#D8D8D8" p-id="27918"></path><path d="M707.925333 723.626667v71.68h-44.373333V723.626667h44.373333m9.557334-13.653334H655.36c-2.730667 0-4.778667 2.048-4.778667 4.778667v89.429333c0 2.730667 2.048 4.778667 4.778667 4.778667h62.122667c2.730667 0 4.778667-2.048 4.778666-4.778667v-89.429333c-0.682667-2.730667-2.730667-4.778667-4.778666-4.778667z" p-id="27919"></path><path d="M668.330667 596.650667h35.498666v26.624h-35.498666z" fill="#F2F2F2" p-id="27920"></path><path d="M697.002667 602.794667v13.653333h-22.528v-13.653333h22.528m13.653333-12.970667h-49.152v40.277333h49.152v-40.277333z" p-id="27921"></path><path d="M668.330667 654.677333h35.498666v26.624h-35.498666z" fill="#F2F2F2" p-id="27922"></path><path d="M697.002667 660.821333v13.653334h-22.528v-13.653334h22.528m13.653333-12.970666h-49.152v40.277333h49.152v-40.277333z" p-id="27923"></path><path d="M649.898667 745.472h72.362666v56.661333H649.898667z" fill="#D8D8D8" p-id="27924"></path><path d="M715.434667 752.298667v43.008h-58.709334v-43.008h58.709334m8.874666-13.653334H647.168c-2.048 0-4.096 2.048-4.096 4.096v61.44c0 2.048 2.048 4.096 4.096 4.096h77.141333c2.048 0 4.096-2.048 4.096-4.096v-61.44c0-2.048-1.365333-4.096-4.096-4.096z" p-id="27925"></path><path d="M85.333333 355.669333l30.037334-71.68h206.848l30.037333 71.68z" fill="#1679DA" p-id="27926"></path><path d="M318.122667 290.816l24.576 58.026667H95.573333l24.576-58.026667h197.973334m8.874666-13.653333H111.274667L75.093333 362.496h287.402667l-35.498667-85.333333z" p-id="27927"></path><path d="M117.418667 355.669333h202.752v42.325334H117.418667z" fill="#D8D8D8" p-id="27928"></path><path d="M313.344 362.496v28.672H124.245333v-28.672h189.098667m13.653333-13.653333H110.592v55.978666h216.405333v-55.978666z" p-id="27929"></path><path d="M117.418667 433.493333h202.752v42.325334H117.418667z" fill="#F2F2F2" p-id="27930"></path><path d="M313.344 440.32v28.672H124.245333v-28.672h189.098667m13.653333-13.653333H110.592v55.978666h216.405333v-55.978666z" p-id="27931"></path><path d="M671.744 355.669333l30.037333-71.68h206.848l30.037334 71.68z" fill="#1679DA" p-id="27932"></path><path d="M903.850667 290.816l24.576 58.026667H681.301333l24.576-58.026667h197.973334m8.874666-13.653333h-215.722666l-35.498667 85.333333H948.906667l-36.181334-85.333333z" p-id="27933"></path><path d="M703.146667 355.669333h202.752v42.325334H703.146667z" fill="#D8D8D8" p-id="27934"></path><path d="M899.754667 362.496v28.672H709.973333v-28.672h189.781334m12.970666-13.653333H696.32v55.978666h216.405333v-55.978666z" p-id="27935"></path><path d="M703.146667 433.493333h202.752v42.325334H703.146667z" fill="#F2F2F2" p-id="27936"></path><path d="M899.754667 440.32v28.672H709.973333v-28.672h189.781334m12.970666-13.653333H696.32v55.978666h216.405333v-55.978666z" p-id="27937"></path><path d="M323.584 250.538667l30.037333-71.68h316.757334l30.037333 71.68z" fill="#1679DA" p-id="27938"></path><path d="M665.6 185.685333l24.576 58.026667H333.824l24.576-58.026667h307.2m8.874667-13.653333H348.842667l-35.498667 85.333333H709.973333l-35.498666-85.333333z" p-id="27939"></path><path d="M356.352 250.538667h311.978667v42.325333H356.352z" fill="#D8D8D8" p-id="27940"></path><path d="M661.504 257.365333v28.672H363.178667v-28.672h298.325333m13.653333-13.653333H349.525333v55.978667h324.949334v-55.978667h0.682666z" p-id="27941"></path><path d="M356.352 328.362667h311.978667v42.325333H356.352z" fill="#F2F2F2" p-id="27942"></path><path d="M661.504 335.189333v28.672H363.178667v-28.672h298.325333m13.653333-13.653333H349.525333v55.978667h324.949334v-55.978667h0.682666z" p-id="27943"></path><path d="M446.464 250.538667h130.389333v77.824H446.464z" fill="#1679DA" p-id="27944"></path><path d="M570.709333 257.365333v64.170667H453.290667v-64.170667h117.418666m12.970667-13.653333H439.637333V334.506667h144.042667V243.712z" p-id="27945"></path></svg>