<?xml version="1.0" standalone="no"?><!DOCTYPE svg PUBLIC "-//W3C//DTD SVG 1.1//EN" "http://www.w3.org/Graphics/SVG/1.1/DTD/svg11.dtd"><svg t="1727188111665" class="icon" viewBox="0 0 1024 1024" version="1.1" xmlns="http://www.w3.org/2000/svg" p-id="2567" width="16" height="16" xmlns:xlink="http://www.w3.org/1999/xlink"><path d="M409.6 499.712a100.352 92.16 0 1 0 200.704 0 100.352 92.16 0 1 0-200.704 0Z" fill="#EF213A" p-id="2568"></path><path d="M466.944 186.630144m6.144 0l16.384 0q6.144 0 6.144 6.144l0 111.33952q0 6.144-6.144 6.144l-16.384 0q-6.144 0-6.144-6.144l0-111.33952q0-6.144 6.144-6.144Z" fill="#EF213A" p-id="2569"></path><path d="M495.616 143.36m6.144 0l16.384 0q6.144 0 6.144 6.144l0 154.607616q0 6.144-6.144 6.144l-16.384 0q-6.144 0-6.144-6.144l0-154.607616q0-6.144 6.144-6.144Z" fill="#EF213A" p-id="2570"></path><path d="M524.288 227.837952m6.144 0l16.384 0q6.144 0 6.144 6.144l0 70.129664q0 6.144-6.144 6.144l-16.384 0q-6.144 0-6.144-6.144l0-70.129664q0-6.144 6.144-6.144Z" fill="#EF213A" p-id="2571"></path><path d="M434.176 328.92928m6.144 0l208.896 0q6.144 0 6.144 6.144l0 28.921856q0 6.144-6.144 6.144l-208.896 0q-6.144 0-6.144-6.144l0-28.921856q0-6.144 6.144-6.144Z" fill="#EF213A" p-id="2572"></path><path d="M288.768 391.129088m6.144 0l311.296 0q6.144 0 6.144 6.144l0 26.861568q0 6.144-6.144 6.144l-311.296 0q-6.144 0-6.144-6.144l0-26.861568q0-6.144 6.144-6.144Z" fill="#EF213A" p-id="2573"></path><path d="M331.776 450.367488m6.144 0l442.368 0q6.144 0 6.144 6.144l0 28.921856q0 6.144-6.144 6.144l-442.368 0q-6.144 0-6.144-6.144l0-28.921856q0-6.144 6.144-6.144Z" fill="#EF213A" p-id="2574"></path><path d="M204.8 512.180224m6.144 0l602.112 0q6.144 0 6.144 6.144l0 28.921856q0 6.144-6.144 6.144l-602.112 0q-6.144 0-6.144-6.144l0-28.921856q0-6.144 6.144-6.144Z" fill="#EF213A" p-id="2575"></path><path d="M399.36 573.995008m6.144 0l73.728 0q6.144 0 6.144 6.144l0 28.921856q0 6.144-6.144 6.144l-73.728 0q-6.144 0-6.144-6.144l0-28.921856q0-6.144 6.144-6.144Z" fill="#EF213A" p-id="2576"></path><path d="M282.624 635.807744m6.144 0l299.008 0q6.144 0 6.144 6.144l0 28.921856q0 6.144-6.144 6.144l-299.008 0q-6.144 0-6.144-6.144l0-28.921856q0-6.144 6.144-6.144Z" fill="#EF213A" p-id="2577"></path><path d="M411.648 697.62048m6.144 0l184.32 0q6.144 0 6.144 6.144l0 28.921856q0 6.144-6.144 6.144l-184.32 0q-6.144 0-6.144-6.144l0-28.921856q0-6.144 6.144-6.144Z" fill="#EF213A" p-id="2578"></path><path d="M366.592 758.40512m6.144 0l274.432 0q6.144 0 6.144 6.144l0 49.524736q0 6.144-6.144 6.144l-274.432 0q-6.144 0-6.144-6.144l0-49.524736q0-6.144 6.144-6.144Z" fill="#EF213A" p-id="2579"></path><path d="M526.336 573.995008m6.144 0l229.376 0q6.144 0 6.144 6.144l0 28.921856q0 6.144-6.144 6.144l-229.376 0q-6.144 0-6.144-6.144l0-28.921856q0-6.144 6.144-6.144Z" fill="#EF213A" p-id="2580"></path><path d="M367.616 828.78464a7.168 7.168 0 0 1-7.168-7.168v-61.816832a7.168 7.168 0 0 1 7.168-7.168h286.72a7.168 7.168 0 0 1 7.168 7.168v30.908416a7.168 7.168 0 1 1-14.336 0v-23.740416H374.784v54.646784a7.168 7.168 0 0 1-7.168 7.168M316.416 645.660672a7.168 7.168 0 0 1-0.014336-14.336l274.432-0.516096h0.014336a7.168 7.168 0 0 1 0.014336 14.336l-274.432 0.516096h-0.014336zM297.984 684.81024a7.168 7.168 0 0 1-0.016384-14.336l237.568-0.516096h0.016384a7.168 7.168 0 0 1 0.016384 14.336l-237.568 0.514048h-0.016384zM478.208 338.010112a7.168 7.168 0 0 1-0.016384-14.336l118.784-0.258048h0.016384a7.168 7.168 0 0 1 0.016384 14.336l-118.784 0.258048h-0.016384zM472.064 377.544704a7.168 7.168 0 0 1-7.168-7.155712v-0.012288a7.168 7.168 0 0 1 7.155712-7.168l151.552-0.258048h0.012288a7.168 7.168 0 0 1 7.168 7.155712v0.012288a7.168 7.168 0 0 1-7.155712 7.168l-151.552 0.258048h-0.012288zM472.064 582.557696h-69.632a7.168 7.168 0 1 1 0-14.336h69.632a7.168 7.168 0 1 1 0 14.336" fill="#261F31" p-id="2581"></path><path d="M729.176064 829.812736H292.775936a7.168 7.168 0 1 1 0-14.336h436.400128a7.168 7.168 0 1 1 0 14.336M515.072 745.85088h-86.016a7.168 7.168 0 1 1 0-14.336h86.016a7.168 7.168 0 1 1 0 14.336M592.896 745.85088h-28.672a7.168 7.168 0 1 1 0-14.336h28.672a7.168 7.168 0 1 1 0 14.336M590.848 706.701312h-159.744a7.168 7.168 0 1 1 0-14.336h159.744a7.168 7.168 0 1 1 0 14.336M756.736 583.58784h-221.184a7.168 7.168 0 1 1 0-14.336h221.184a7.168 7.168 0 1 1 0 14.336M764.928 622.739456h-110.592a7.168 7.168 0 1 1 0-14.336h110.592a7.168 7.168 0 1 1 0 14.336M631.808 622.739456h-81.92a7.168 7.168 0 1 1 0-14.336h81.92a7.168 7.168 0 1 1 0 14.336M449.536 622.739456h-45.056a7.168 7.168 0 1 1 0-14.336h45.056a7.168 7.168 0 1 1 0 14.336M799.744 521.777152h-241.664a7.168 7.168 0 1 1 0-14.336h241.664a7.168 7.168 0 1 1 0 14.336M480.256 521.777152h-245.76a7.168 7.168 0 1 1 0-14.336h245.76a7.168 7.168 0 1 1 0 14.336M603.136 560.924672h-376.832a7.168 7.168 0 1 1 0-14.336h376.832a7.168 7.168 0 1 1 0 14.336M795.648 560.924672h-114.688a7.168 7.168 0 1 1 0-14.336h114.688a7.168 7.168 0 1 1 0 14.336M611.328 499.109888h-270.336a7.168 7.168 0 1 1 0-14.336h270.336a7.168 7.168 0 1 1 0 14.336M771.072 459.962368h-425.984a7.168 7.168 0 1 1 0-14.336h425.984a7.168 7.168 0 1 1 0 14.336M769.024 499.109888h-94.208a7.168 7.168 0 1 1 0-14.336h94.208a7.168 7.168 0 1 1 0 14.336M492.544 400.20992h-192.512a7.168 7.168 0 1 1 0-14.336h192.512a7.168 7.168 0 1 1 0 14.336M420.864 437.297152h-118.784a7.168 7.168 0 1 1 0-14.336h118.784a7.168 7.168 0 1 1 0 14.336M525.686784 277.22752a7.168 7.168 0 0 1-7.168-7.168V146.432a7.168 7.168 0 1 1 14.336 0v123.62752a7.168 7.168 0 0 1-7.168 7.168M553.53344 312.641536a7.168 7.168 0 0 1-7.168-7.168V289.9968a7.168 7.168 0 1 1 14.336 0v15.476736a7.168 7.168 0 0 1-7.168 7.168M496.64 252.88704a7.168 7.168 0 0 1-7.168-7.168V204.509184a7.168 7.168 0 1 1 14.336 0v41.209856a7.168 7.168 0 0 1-7.168 7.168M468.48 311.609344a7.168 7.168 0 0 1-7.168-7.168v-48.72192a7.168 7.168 0 1 1 14.336 0v48.72192a7.168 7.168 0 0 1-7.168 7.168M477.184 859.508736h-104.448a7.168 7.168 0 1 1 0-14.336h104.448a7.168 7.168 0 1 1 0 14.336M625.664 859.508736H608.256a7.168 7.168 0 1 1 0-14.336h17.408a7.168 7.168 0 1 1 0 14.336M629.76 887.156736h-231.424a7.168 7.168 0 1 1 0-14.336h231.424a7.168 7.168 0 1 1 0 14.336M603.136 438.644736h-61.44a7.168 7.168 0 1 1 0-14.336h61.44a7.168 7.168 0 1 1 0 14.336" fill="#261F31" p-id="2582"></path></svg>