<?xml version="1.0" standalone="no"?><!DOCTYPE svg PUBLIC "-//W3C//DTD SVG 1.1//EN" "http://www.w3.org/Graphics/SVG/1.1/DTD/svg11.dtd"><svg t="1727188642816" class="icon" viewBox="0 0 1024 1024" version="1.1" xmlns="http://www.w3.org/2000/svg" p-id="8438" xmlns:xlink="http://www.w3.org/1999/xlink" width="16" height="16"><path d="M404.09088 234.008576c-32.577536 34.066432-66.711552 124.604416-71.89504 187.45344-9.48224 114.962432 17.985536 223.647744 82.403328 326.057984-75.69408-217.372672-79.19616-388.542464-10.50624-513.511424z" fill="#2D78D6" p-id="8439"></path><path d="M607.75424 728.49408c64.4096-232.148992 54.9888-332.527616 21.51424-393.699328 0.059392 0.24576-220.059648-54.439936-220.667904-54.810624-10.69056 29.816832-22.370304 83.652608-25.66144 124.452864-7.829504 97.019904 7.20896 205.039616 45.1072 324.059136h179.707904z" fill="#3FACFF" p-id="8440"></path><path d="M419.547136 741.376h197.251072c40.69376-137.793536 57.62048-240.758784 51.757056-314.650624-5.656576-71.241728-32.356352-108.404736-57.731072-135.360512C549.060608 225.744896 479.062016 196.608 462.87872 196.608c-5.953536 0-32.444416 12.832768-60.667904 52.125696-23.232512 32.344064-52.498432 89.976832-59.994112 180.850688-9.199616 111.536128 16.81408 216.41216 77.33248 311.791616m202.602496 14.336H415.623168a7.168 7.168 0 0 1-6.025216-3.284992c-63.762432-98.9696-91.2384-207.986688-81.668096-324.020224C342.122496 256.323584 435.245056 182.272 462.87872 182.272c22.67136 0 97.040384 34.093056 158.386176 99.26656 27.080704 28.770304 55.574528 68.384768 61.579264 144.054272 6.08256 76.597248-11.524096 182.904832-53.82144 324.99712a7.165952 7.165952 0 0 1-6.87104 5.122048" fill="#261F31" p-id="8441"></path><path d="M420.7616 741.376h196.038656c40.689664-137.793536 57.618432-240.758784 51.755008-314.650624-5.656576-71.241728-32.356352-108.404736-57.729024-135.360512C551.981056 228.847616 480.45056 196.608 462.87872 196.608c-15.097856 0-78.813184 53.622784-91.9552 205.441024-8.753152 101.12 8.013824 215.267328 49.836032 339.326976m201.392128 14.336H415.623168a7.168 7.168 0 0 1-6.782976-4.849664c-43.677696-127.838208-61.241344-245.610496-52.201472-350.048256C370.11456 245.157888 437.182464 182.272 462.87872 182.272c22.044672 0 97.931264 35.037184 158.386176 99.26656 27.080704 28.770304 55.574528 68.384768 61.58336 144.054272 6.076416 76.597248-11.528192 182.904832-53.827584 324.99712a7.165952 7.165952 0 0 1-6.868992 5.122048" fill="#261F31" p-id="8442"></path><path d="M633.856 780.288a7.168 7.168 0 0 1-7.168-7.168V755.712H401.408v17.408a7.168 7.168 0 1 1-14.336 0v-24.576a7.168 7.168 0 0 1 7.168-7.168h239.616a7.168 7.168 0 0 1 7.168 7.168v24.576a7.168 7.168 0 0 1-7.168 7.168M546.816 719.872h-135.186432a7.168 7.168 0 0 1 0-14.336H546.816a7.168 7.168 0 1 1 0 14.336M626.688 453.632a7.168 7.168 0 0 1-0.026624-14.336l50.176-0.188416c4.016128 0.022528 7.180288 3.18464 7.194624 7.141376a7.168 7.168 0 0 1-7.141376 7.194624l-50.176 0.188416H626.688zM419.84 361.472h-49.180672a7.168 7.168 0 0 1 0-14.336H419.84a7.168 7.168 0 1 1 0 14.336M369.664 541.790208a7.168 7.168 0 0 1-0.004096-14.336l144.384-0.094208H514.048a7.168 7.168 0 0 1 0.004096 14.336l-144.384 0.094208h-0.004096zM371.712 406.62016a7.168 7.168 0 0 1-0.006144-14.336l115.712-0.09216H487.424a7.168 7.168 0 0 1 0.006144 14.336l-115.712 0.09216h-0.006144zM531.2 406.62016a7.168 7.168 0 0 1-0.024576-14.336l27.904-0.09216H559.104a7.168 7.168 0 0 1 0.024576 14.336l-27.904 0.09216h-0.024576zM473.088 226.304h-41.984a7.168 7.168 0 1 1 0-14.336H473.088a7.168 7.168 0 1 1 0 14.336M626.688 316.416h-108.544a7.168 7.168 0 1 1 0-14.336h108.544a7.168 7.168 0 1 1 0 14.336M546.816 269.312h-145.408a7.168 7.168 0 1 1 0-14.336h145.408a7.168 7.168 0 1 1 0 14.336M546.816 498.688h-116.736a7.168 7.168 0 1 1 0-14.336h116.736a7.168 7.168 0 1 1 0 14.336M430.08 631.808h-46.08a7.168 7.168 0 1 1 0-14.336H430.08a7.168 7.168 0 1 1 0 14.336M604.16 676.864h-98.304a7.168 7.168 0 1 1 0-14.336h98.304a7.168 7.168 0 1 1 0 14.336" fill="#261F31" p-id="8443"></path><path d="M723.968 787.456h-421.888a7.168 7.168 0 1 1 0-14.336h421.888a7.168 7.168 0 1 1 0 14.336M473.088 814.08h-104.448a7.168 7.168 0 1 1 0-14.336h104.448a7.168 7.168 0 1 1 0 14.336M621.568 814.08H604.16a7.168 7.168 0 1 1 0-14.336h17.408a7.168 7.168 0 1 1 0 14.336M625.664 841.728h-231.424a7.168 7.168 0 1 1 0-14.336h231.424a7.168 7.168 0 1 1 0 14.336M664.576 588.8H559.104a7.168 7.168 0 1 1 0-14.336h105.472a7.168 7.168 0 1 1 0 14.336M495.36 588.8h-43.52a7.168 7.168 0 1 1 0-14.336h43.52a7.168 7.168 0 1 1 0 14.336" fill="#261F31" p-id="8444"></path></svg>