<?xml version="1.0" standalone="no"?><!DOCTYPE svg PUBLIC "-//W3C//DTD SVG 1.1//EN" "http://www.w3.org/Graphics/SVG/1.1/DTD/svg11.dtd"><svg t="1727266072151" class="icon" viewBox="0 0 1024 1024" version="1.1" xmlns="http://www.w3.org/2000/svg" p-id="5950" xmlns:xlink="http://www.w3.org/1999/xlink" width="16" height="16"><path d="M462.312236 135.174481c-10.099578 1.700186-22.998954 3.638008-28.665519 4.307713-5.666565 0.669705-9.740962 2.125772-9.053974 3.238346 0.686987 1.112574-0.632979 2.022076-2.935899 2.022076-2.300759 0-5.383561 1.447426-6.852591 3.216743-1.46903 1.769316-3.7093 2.572962-4.981738 1.786599-1.40854-0.870616-0.682667-2.138734 1.864371-3.249148 2.955342-1.287561 2.281316-1.460388-2.30292-0.589772-3.564557 0.678346-7.453165 2.393654-8.64135 3.815156-1.188186 1.419342-5.562869 2.87973-9.721519 3.244827-9.319696 0.814447-26.541907 8.472844-24.928135 11.082532 0.650262 1.052084-2.886211 2.601046-7.857148 3.441417-10.373941 1.752034-22.823966 8.021333-28.060624 14.126448-2.566481 2.994228-3.910211 3.417654-4.690093 1.484152-0.868456-2.158177-1.127696-2.160338-1.263797-0.012962-0.092895 1.486312-1.829806 2.700422-3.858363 2.700422-3.737384 0-25.316996 13.966582-35.19838 22.780759-2.970464 2.650734-7.537418 5.463494-10.151426 6.252017-2.611848 0.788523-5.355477 3.344203-6.098633 5.679527-0.740996 2.335325-4.785148 5.683848-8.987004 7.440203-5.813468 2.428219-7.29762 4.080878-6.20881 6.917401 0.786363 2.05016 0.758278 3.056878-0.06049 2.235949-2.311561-2.311561-14.27335 7.155038-13.05492 10.330734 0.596253 1.548962-0.557367 3.540793-2.56216 4.428692-2.004793 0.885738-2.428219 1.695865-0.944068 1.799561 4.776506 0.328371 3.946937 4.137046-0.980793 4.499984-2.618329 0.19227-4.262346-0.455831-3.653131-1.443106 0.609215-0.985114 0.159865-1.79092-1.000236-1.79092-1.157941 0-2.916456 2.322363-3.908051 5.161047-0.989435 2.838684-6.174245 8.796895-11.52108 13.242869-5.346835 4.443814-9.298093 8.198481-8.781772 8.341063 1.715308 0.473114-3.921013 14.301435-5.830751 14.301435-1.030481 0-4.059274 3.888608-6.731612 8.64135-2.670177 4.752743-5.869637 8.64135-7.109671 8.64135-1.240034 0-1.717468 1.395578-1.062886 3.102245 0.654582 1.706667-0.699949 5.5067-3.00935 8.442599S179.308017 331.194869 179.308017 332.493232c0 1.296203-0.972152 2.359089-2.160338 2.359089s-2.160338 1.974549-2.160337 4.387645c0 2.415257-1.458228 4.949333-3.240507 5.632-1.782278 0.684827-3.240506 3.06984-3.240506 5.303629 0 2.231629-3.240506 10.166549-7.200405 17.632675-3.962059 7.463966-7.202565 15.223899-7.202565 17.241654 0 2.017755-1.842768 7.757772-4.096 12.756793-3.039595 6.738093-3.411173 9.315376-1.440945 9.972118 1.460388 0.486076 2.657215 2.380692 2.657215 4.210498 0 2.840844-0.518481 2.894852-3.551595 0.375899-3.145451-2.609688-3.385249-2.419578-2.086886 1.667781 0.933266 2.94454 0.246278 5.835072-1.894616 7.975966-4.871561 4.871561-10.350177 48.547105-10.611578 84.590177-0.226835 31.307612 1.142819 57.220861 3.022312 57.257587 0.594093 0.012962 1.311325 4.828354 1.594329 10.702312s2.015595 14.858802 3.854042 19.968c1.836287 5.107038 4.197536 14.148051 5.24746 20.088979 1.052084 5.940928 2.845165 13.232068 3.990144 16.202531 1.142819 2.970464 1.970228 5.88692 1.836286 6.481013-0.131781 0.594093 1.443105 3.484624 3.499747 6.422684 2.058802 2.935899 3.741705 7.021097 3.741705 9.073417 0 2.052321 1.624574 4.640405 3.609924 5.752979 1.993992 1.114734 3.746025 4.951494 3.914532 8.578701 0.168506 3.607764 1.34157 7.850667 2.607527 9.429873 1.265958 1.577046 3.037435 5.299308 3.936135 8.269772 0.900861 2.970464 2.233789 5.88692 2.966144 6.481013 0.730194 0.594093 3.739544 5.69897 6.684084 11.341772 2.9467 5.644962 6.694886 10.261603 8.332422 10.261603 1.72611 0 2.467105 1.328608 1.762835 3.160574-0.717232 1.870852 1.175224 5.040068 4.631764 7.757772 3.212422 2.527595 5.923646 5.236658 6.023021 6.020861 1.067207 8.408034 6.414042 14.415932 12.108692 13.605806 1.376135-0.196591 3.374447 4.273148 4.212658 9.421232 0.691308 4.245063 13.461063 13.599325 16.839832 12.337688 2.922937-1.093131 2.979105-0.76692 0.419105 2.380692-1.72827 2.123612-2.015595 3.644489-0.686987 3.644489 1.252996 0 2.901333 1.959426 3.661772 4.35308 0.771241 2.43038 2.426059 3.704979 3.752506 2.884051 1.499274-0.924624 1.888135-0.207392 1.060726 1.950785-1.415021 3.689857 2.296439 5.934447 9.807932 5.934447 4.376844 0 4.398447 0.116658 0.529283 2.94454-3.849722 2.81492-3.77627 3.110886 1.652658 6.668962 3.123848 2.04584 6.843949 3.000709 8.269772 2.121452 1.53384-0.948388 2.024236-0.686987 1.201148 0.64162-1.518717 2.458464 12.625013 15.543629 17.269739 15.977857 6.511257 0.607055 7.200405 0.8987 6.887156 2.905654-0.397502 2.549198 22.281722 18.464405 24.426936 17.140118 0.838211-0.518481 2.134414 0.045367 2.881891 1.252996 0.745316 1.207629 4.214819 2.194903 7.710244 2.194902 3.495426 0 6.353553 1.030481 6.353553 2.287798s-0.972152 1.687224-2.160337 0.952709-2.160338-0.375899-2.160338 0.795004c0 3.936135 11.771679 8.38643 15.673249 5.925806 1.959426-1.235713 4.309873-1.499274 5.223696-0.585452 0.913823 0.913823 0.259241 2.527595-1.453907 3.586161-3.71146 2.294278-4.115443 1.950785 10.801688 9.129586 13.912574 6.692726 32.331612 12.240473 36.185654 10.894583 1.486312-0.516321 2.700422-0.045367 2.700422 1.047763 0 2.845165 28.823224 11.419544 48.607595 14.45914l16.202531 2.488708c16.349435 2.510312 86.381097 3.584 89.088 1.365334 1.499274-1.229232 9.531409-2.890532 17.848709-3.694178 17.230852-1.66346 48.955409-9.073418 57.145249-13.348725 3.026633-1.579207 7.206886-2.87757 9.285131-2.886211 2.080405-0.006481 3.780591-0.985114 3.780591-2.1733s-1.700186-2.23811-3.780591-2.331004c-2.376371-0.108017-2.75011-0.583291-1.006717-1.283241 1.525198-0.613536 4.02903-0.071291 5.565029 1.203308 3.717941 3.084962 16.440169-1.618093 16.675646-6.163443 0.114498-2.24027 0.522802-2.43254 1.263797-0.594092 0.855494 2.121451 2.352608 2.017755 6.850431-0.468794 3.167055-1.749873 12.145418-5.990616 19.950717-9.423392 7.80746-3.430616 16.345114-8.081823 18.972084-10.332895 2.629131-2.251072 5.061671-3.605603 5.405165-3.01151 0.343494 0.594093 2.324523-0.620017 4.404928-2.700422 2.078245-2.078245 5.655764-3.780591 7.945722-3.780591 2.292118 0 4.167291-1.438785 4.167291-3.19946 0-1.758515 2.410937-3.804354 5.357637-4.54319 4.476219-1.123376 4.996861-2.019916 3.164894-5.44189-1.337249-2.499511-1.391257-4.09816-0.138261-4.09816 1.132017 0 2.385013 0.980793 2.782515 2.17762 0.399662 1.198987 3.873485-0.017283 7.718886-2.700422 3.843241-2.683139 6.545823-6.092152 6.001417-7.578464-0.542245-1.484152-0.12746-2.700422 0.924625-2.700422s2.274835 1.08881 2.719865 2.419578c0.442869 1.330768 3.674734-1.34373 7.183122-5.940928 3.506228-4.599359 6.139679-8.846582 5.854515-9.440675-0.287325-0.594093 0.693468-1.080169 2.17762-1.080169 1.486312 0 2.700422-1.296203 2.700422-2.87973 0-1.585688 0.70427-2.17546 1.566245-1.315646 1.916219 1.916219 10.144945-7.582785 10.244321-11.827848 0.038886-1.682903 0.684827-2.445502 1.434464-1.695865 2.456304 2.454143 9.827376-2.996388 8.550616-6.323308-0.671865-1.752034-0.341333-2.639932 0.738835-1.974548 2.153857 1.332928 8.790414-4.422211 8.790414-7.621671 0-1.103932-1.21411-2.022076-2.700422-2.039359-1.799561-0.023764-1.620253-0.732354 0.540084-2.127932 2.354768-1.520878 2.467105-2.104169 0.412625-2.127933-1.555443-0.017283-2.281316-0.918143-1.611612-2.000472 0.669705-1.084489 3.635848-1.704506 6.59335-1.380456 5.517502 0.607055 11.566447-4.173772 8.792574-6.949806-0.853333-0.853333 0.220354-1.557603 2.387173-1.566245 2.164658-0.010802 3.940456-1.311325 3.942616-2.892692 0.004321-1.579207 1.708827-4.117603 3.787072-5.638481 2.080405-1.520878 3.780591-4.197536 3.78059-5.947409 0-1.752034 3.888608-8.736405 8.64135-15.522025 4.752743-6.78346 8.64135-13.264473 8.641351-14.39865 0-1.136338 0.915983-2.065283 2.037198-2.065283 1.119055 0 1.6613-1.944304 1.203308-4.320675-0.457992-2.376371 0.084253-4.320675 1.203308-4.320675 1.121215 0 2.037198-1.825485 2.037198-4.057114 0-2.229468 1.399899-5.217215 3.113047-6.638717 1.710987-1.419342 2.579443-3.96854 1.929181-5.664405-0.665384-1.73043 0.101536-3.097924 1.747713-3.115207 2.261873-0.025924 2.190582-0.512-0.308928-2.127932-2.808439-1.814684-2.765232-2.097688 0.328371-2.127933 3.024473-0.028084 4.705215-2.75011 9.360743-15.154768 0.222515-0.594093 1.000236-2.538397 1.72611-4.320675 3.808675-9.349941 7.684321-26.464135 6.621434-29.235848-0.669705-1.743392-0.272203-3.169215 0.879258-3.169215 4.260186 0 10.566211-43.660422 7.021097-48.607595-2.825722-3.942616-3.830278-11.361215-1.942144-14.342481 1.265958-1.998312 1.873013-0.693468 1.896777 4.080877 0.051848 11.058768 3.77627 8.19416 5.614717-4.320675 2.272675-15.450734 1.391257-42.919426-2.374211-73.991561-4.024709-33.208709-6.789941-46.481823-13.171578-63.213637-2.836523-7.438042-5.158886-15.377283-5.158886-17.643477 0-3.864844-5.003342-15.954093-11.689587-28.239932-1.615932-2.970464-5.469975-10.989637-8.563578-17.822785-3.093603-6.830987-6.664641-12.421941-7.93492-12.421941-1.272439 0-1.710987 0.972152-0.976472 2.160338s0.410464 2.160338-0.721553 2.160337c-3.171376 0-4.770025-6.089992-1.85789-7.070785 1.911899-0.643781 1.957266-1.659139 0.177147-3.918852-1.322127-1.678582-3.072-5.848034-3.890767-9.263527-0.816608-3.417654-5.811308-10.24216-11.099815-15.16557-5.737857-5.344675-9.611342-10.862177-9.611342-13.69438 0-4.720338-6.837468-10.300489-9.438514-7.699443-0.749637 0.749637-1.363173-0.624338-1.363173-3.056877 0-2.464945-3.877806-7.818262-8.76449-12.102211-4.819713-4.22562-8.708321-8.230886-8.64135-8.900591 0.069131-0.671865 0.084253-0.490397 0.036726 0.399662-0.047527 0.892219-1.501435-0.987274-3.231865-4.171612-1.73043-3.186498-5.044388-6.396759-7.364591-7.131274-2.320203-0.736675-4.860759-3.363646-5.644962-5.835072-0.849013-2.672338-2.011274-3.549435-2.868928-2.164658-1.427983 2.309401-7.273857 0.159865-6.91092-2.542717 0.684827-5.124321-0.12962-7.919797-1.976709-6.779139-1.188186 0.734515-2.160338 0.248439-2.160338-1.080169s-0.972152-1.814684-2.160337-1.080169c-1.188186 0.734515-2.160338 0.371578-2.160338-0.807966 0-1.177384-1.944304-2.758751-4.320675-3.512709s-4.327156-2.521114-4.333637-3.925333c-0.021603-3.895089-12.516996-10.402025-14.33384-7.466127-0.849013 1.376135-1.810363 0.226835-2.255392-2.696101-0.427747-2.801958-1.000236-5.193451-1.270278-5.314431-0.270042-0.120979-4.707376-2.925097-9.864102-6.230413-5.154565-3.303156-10.695831-5.500219-12.311763-4.880203-1.870852 0.719392-2.514633 0.023764-1.771477-1.911898 0.751797-1.957266-0.771241-3.525671-4.275308-4.404929-2.992068-0.751797-5.966852-2.737148-6.608473-4.411409-0.643781-1.676422-3.087122-3.046076-5.431088-3.046076-2.341806 0-4.916928-1.062886-5.720574-2.363409-0.803646-1.300523-3.77843-1.92054-6.608473-1.380456-3.694177 0.70643-5.156726 0-5.180489-2.49735-0.030245-3.035274-0.300287-3.065519-2.127933-0.239797-1.736911 2.68746-2.106329 2.503831-2.160337-1.080169-0.054008-3.584-0.423426-3.767629-2.160338-1.080169-1.304844 2.017755-2.106329 2.253232-2.127932 0.626498-0.017283-1.436624-3.921013-3.77843-8.673756-5.202093-4.752743-1.423662-8.64135-3.281553-8.64135-4.126245 0-1.475511-11.173266-4.813232-24.843882-7.422919-12.009316-2.289958-12.964186-2.644253-12.380894-4.597199 0.31973-1.069367-1.624574-2.123612-4.320675-2.341806-5.714093-0.460152-28.388996-4.268827-36.226701-6.08351-12.92746-2.994228-83.497046-2.899173-101.535865 0.136101m84.270448 165.916084c-0.008641 1.036962 1.462549 0.656743 3.272911-0.844692 2.734987-2.268354 3.06984-2.160338 1.993991 0.648102-1.656979 4.316354 6.926042 13.106768 11.19703 11.467071 1.92054-0.736675 2.620489-0.306768 1.760675 1.08449-0.786363 1.270278 0.622177 3.743865 3.128169 5.500219 2.503831 1.754194 4.553992 4.592878 4.553991 6.308186s0.972152 3.117367 2.160338 3.117367 2.160338 1.378295 2.160338 3.061198 1.02616 3.402532 2.276995 3.819477c1.252996 0.416945 2.512473 2.343966 2.795477 4.281789 0.285165 1.937823 1.916219 5.208574 3.625047 7.269536 2.276996 2.741468 3.119527 10.004523 3.147611 27.125198 0.032405 20.780287-0.563848 24.532793-5.364118 33.737992-2.970464 5.69681-6.135359 10.68503-7.034059 11.082532-0.8987 0.399662-1.084489 1.613772-0.412624 2.700421s0.136101 1.976709-1.188186 1.976709c-3.614245 0-15.124523 13.381131-13.614447 15.826633 0.723713 1.168743 0.231156 1.453907-1.093131 0.6373-2.454143-1.518717-11.024203 2.318042-13.89097 6.219612-0.872776 1.188186-1.60081 1.397738-1.620254 0.464472-0.017283-0.933266-1.916219-0.689148-4.216979 0.542245-3.4587 1.851409-10.866498 3.415494-20.119223 4.249384-0.890059 0.079932-1.376135 1.322127-1.080169 2.763072 0.298127 1.438785-1.890295 2.780354-4.860759 2.979105-10.544608 0.70643-27.097114 3.231865-33.485233 5.109198-3.564557 1.047764-11.341772 2.521114-17.2827 3.275072-13.016034 1.648338-31.324895 7.306262-31.324894 9.680473 0 0.939747-3.931814 2.337485-8.736406 3.106565-4.804591 0.76908-10.393384 2.279156-12.42194 3.359325-2.026397 1.078008-5.273384 2.443342-7.211207 3.033114-1.939983 0.589772-4.819713 3.994464-6.39892 7.563342-1.581367 3.571038-3.882127 5.908523-5.115679 5.195612-1.233553-0.712911-0.477435 0.719392 1.678582 3.182177 2.927257 3.342042 3.255629 4.888844 1.291882 6.100793-1.542481 0.954869-3.884287-0.071291-5.675207-2.484388-2.989907-4.035511-3.102245-4.035511-6.152641 0.082093-1.708827 2.307241-3.106565 4.979578-3.106566 5.940928 0 0.96135-1.700186 1.762835-3.78059 1.780118-2.998549 0.025924-3.162734 0.425586-0.795005 1.924861 2.393654 1.516557 2.179781 2.149536-1.080168 3.192979-2.235949 0.715072-6.980051 5.921485-10.542448 11.570768-5.582312 8.850903-6.478852 12.342008-6.481012 25.21762-0.00216 10.034768 0.883578 15.241181 2.696101 15.848236 1.486312 0.496878 2.700422 2.719865 2.700422 4.940692 0 4.754903 18.023696 23.351089 27.140321 28.002296 3.488945 1.782278 6.887156 3.96638 7.548219 4.854278 0.661063 0.890059 6.980051 2.119291 14.042194 2.732827 7.062143 0.615696 14.297114 1.257316 16.079392 1.427983 1.782278 0.170667 6.156962 0.090734 9.721519-0.181468 5.590954-0.423426 5.88692-0.732354 2.160338-2.242431-3.584-1.451747-2.847325-2.009114 4.320675-3.277232 13.862886-2.449823 14.981941-2.963983 23.631933-10.888101 4.530228-4.150008 9.559494-7.543899 11.175426-7.543899 1.618093 0 4.361722-3.402532 6.100793-7.561181 1.736911-4.15865 4.422211-7.567662 5.969013-7.576304 5.05519-0.025924 12.205907-13.415696 11.047966-20.687392-0.827409-5.195612-0.270042-6.662481 2.529755-6.662481 2.417418 0 3.253468 1.294042 2.555679 3.962059-0.570329 2.17762-0.213873 3.959899 0.790684 3.959899 1.006717 0 2.130093-3.644489 2.499511-8.101266 0.388861-4.716017 1.806042-8.101266 3.389569-8.101266 2.734987 0 11.322329-12.326886 11.322329-16.25438 0-1.160101-1.21411-1.868692-2.700422-1.577046-1.484152 0.291646 0.131781-0.715072 3.592642-2.24027 4.782987-2.106329 5.690329-3.374447 3.78059-5.284186-1.382616-1.382616-2.49735-3.534312-2.480067-4.780827 0.019443-1.246515 0.976473-0.810127 2.127932 0.972152 1.520878 2.354768 2.104169 2.467105 2.127933 0.412624 0.017283-1.555443 0.96135-2.253232 2.097688-1.551122 1.136338 0.70211 3.733063-1.268118 5.770261-4.376844 3.151932-4.811072 3.246987-5.94957 0.63514-7.628152-2.013435-1.294042-0.663224-1.512236 3.918852-0.632979 5.290667 1.015359 7.312743 0.492557 8.325941-2.149536 0.736675-1.92054 2.210025-2.955342 3.275071-2.296438 1.062886 0.656743 1.933502 0.291646 1.933503-0.812287 0-3.011511 16.790143-7.304101 34.5654-8.835781 2.87973-0.248439 2.87973-0.535764 0-2.581603-2.441181-1.734751-1.639696-1.9227 3.240507-0.76908 6.431325 1.523038 24.44854 1.475511 26.950211-0.069131 2.704743-1.672101 32.558447 6.148321 31.828253 8.338903-1.045603 3.13465 6.915241 4.067916 13.538835 1.585687 3.000709-1.123376 13.43946-2.577283 23.197705-3.227544 14.262549-0.950549 18.397435-0.527122 21.082734 2.158177 1.836287 1.836287 2.788996 4.234262 2.11281 5.327393-0.674025 1.09097-0.196591 2.106329 1.060726 2.255392a600.141772 600.141772 0 0 0 4.780827 0.540085c1.369654 0.149063 0.697789 1.72827-1.494954 3.510548s-3.320439 2.127932-2.505991 0.76692c0.818768-1.367494-0.185789-3.115207-2.244591-3.90373-2.089046-0.803646-4.091679-0.337013-4.558312 1.062886-0.455831 1.369654-3.737384 5.802667-7.291139 9.851139-3.551595 4.046312-5.936608 8.716962-5.299308 10.378262 0.654582 1.706667-0.421266 3.434937-2.471426 3.972861-3.221063 0.840371-9.514127 21.480236-12.685503 41.60162-1.384776 8.781772-7.74481 37.05843-10.68935 47.527426-1.672101 5.940928-3.372287 13.932017-3.77843 17.757975-0.408304 3.825958-2.181941 9.172793-3.944777 11.881856-1.760675 2.709063-4.398447 8.572219-5.858835 13.026836-1.460388 4.456776-3.551595 8.101266-4.649046 8.101266-1.095291 0-1.991831 1.873013-1.991832 4.16297 0 2.292118-2.43038 6.07703-5.400844 8.412354-2.970464 2.337485-5.400844 5.705451-5.400843 7.48773 0 1.780118-1.458228 3.797873-3.240507 4.482701-1.782278 0.682667-3.240506 2.892692-3.240506 4.910447 0 2.017755-0.613536 3.054717-1.363173 2.30508-2.136574-2.136574-9.438515 2.598886-9.438515 6.120237 0 1.741232-1.825485 3.164895-4.057114 3.164894-2.229468 0-5.256101 1.447426-6.725131 3.216743-1.46903 1.769316-3.400371 2.765232-4.296911 2.212185-0.89438-0.553046-3.365806 0.915983-5.489418 3.26427-2.125772 2.348287-5.102717 4.268827-6.617114 4.268827-1.512236 0-4.270987 1.520878-6.128877 3.378768-1.85789 1.85789-4.184574 2.87973-5.169688 2.270515-0.985114-0.609215-4.456776 0.274363-7.712405 1.963747-3.255629 1.689384-9.330498 3.300996-13.497789 3.58184-4.169451 0.280844-8.053738 1.27892-8.634869 2.218666-0.581131 0.939747-3.90157 1.708827-7.379713 1.708827-3.475983 0-10.715274 1.175224-16.085874 2.611848-8.410194 2.248911-10.246481 2.127932-13.242869-0.866295-3.1973-3.19946-3.022312-3.77843 2.171139-7.180962 8.414515-5.513181 6.066228-9.956996-2.449823-4.638245-1.484152 0.928945-3.672574 1.08665-4.860759 0.352135-1.188186-0.734515-2.160338-0.410464-2.160338 0.717232 0 1.129857-6.923882 3.618565-15.388084 5.528304-20.192675 4.560473-64.926785 4.582076-83.987443 0.038886-7.723207-1.840608-16.472574-3.501907-19.443038-3.692017-2.970464-0.19227-7.284658-2.067443-9.589738-4.169451-3.642329-3.32692-5.584473-3.994464-10.974515-3.778431-0.617857 0.023764-3.231865-1.92054-5.809148-4.320675-2.577283-2.402295-6.504776-4.366042-8.727764-4.366042-2.220827 0-3.482464-0.903021-2.799797-2.004793 0.680506-1.101772-0.719392-2.62697-3.113046-3.385249-2.393654-0.760439-4.35308-2.313722-4.353081-3.450059 0-1.138498-2.43038-2.992068-5.400843-4.121924-6.120236-2.326684-6.487494-3.787072-2.335325-9.261367 2.678819-3.532152 7.202565-4.234262 9.896506-1.540321 3.182177 3.182177 11.782481 7.692962 27.004219 14.163173 12.35497 5.253941 44.248034 7.755612 57.78903 4.532388 3.268591-0.777722 8.12935-1.814684 10.801688-2.30508 9.764726-1.79308 20.782447-7.783696 22.132658-12.03308 0.760439-2.395814 2.337485-4.357401 3.506228-4.357401 1.168743 0 3.717941-3.644489 5.664405-8.101266 1.946464-4.454616 3.599122-6.735932 3.670413-5.068152 0.105857 2.439021 0.678346 2.372051 2.938059-0.347814 1.883814-2.272675 2.060962-3.84108 0.540085-4.780827-1.246515-0.76908-2.188422-2.55784-2.095528-3.972861 0.112338-1.706667 0.555207-1.611612 1.311325 0.280844 0.745316 1.864371 2.24027 0.740996 4.312034-3.240506 4.292591-8.246008 5.167527-16.872236 2.490869-24.552236-2.004793-5.748658-3.160574-6.385958-11.581569-6.385958-5.145924 0-10.663426 1.21627-12.262076 2.700422-1.59865 1.486312-4.342278 3.072-6.096473 3.52351-20.696034 5.344675-28.019578 5.778903-64.274363 3.812996-14.491544-0.786363-19.20108-1.946464-24.843882-6.115916-10.402025-7.686481-17.872473-10.512203-20.596658-7.788016-2.719865 2.719865-9.887865 0.488236-8.038616-2.503832 0.70643-1.144979 2.955342-1.497114 4.996861-0.784202 2.041519 0.712911 0.308928-2.158177-3.849722-6.381637-12.22103-12.408979-16.198211-16.924084-16.280303-18.481688-0.041046-0.807966-3.443578-8.271932-7.561182-16.589232l-7.483409-15.122363 0.283004-31.590616c0.177148-19.801654 1.348051-34.718785 3.13681-39.966245 1.572726-4.608 2.616169-9.589738 2.324523-11.07605-0.293806-1.484152 0.550886-2.700422 1.877334-2.700422 1.324287 0 2.231629-2.186262 2.015595-4.86076-0.615696-7.597907-0.010802-9.436354 2.041519-6.195848 1.47119 2.324523 2.769553 1.605131 5.856675-3.240506 2.181941-3.424135 4.642565-6.72297 5.467814-7.327865 0.823089-0.607055 2.17762-3.810835 3.00935-7.122633 0.82957-3.309637 1.98319-5.545586 2.56-4.968777 0.57681 0.57681 3.592641-1.492793 6.701367-4.601519 3.627207-3.627207 4.705215-5.964692 3.011511-6.52854-3.836759-1.27892-3.240506-7.001654 0.728034-7.001654 1.851409 0 2.767392 0.972152 2.032877 2.160338-2.009114 3.251308 1.395578 2.335325 8.641351-2.322363 3.564557-2.292118 9.397468-5.554228 12.962025-7.247932 3.564557-1.693705 7.727527-5.132962 9.252726-7.641114 1.523038-2.508152 3.71146-3.979342 4.860759-3.268591 1.1493 0.710751 2.089046 0.205232 2.089046-1.123376s0.89438-1.862211 1.985351-1.188185c1.093131 0.676186 3.32908-0.112338 4.966616-1.752034 1.639696-1.639696 6.33627-4.713857 10.43659-6.833148 4.100321-2.119291 8.427477-4.996861 9.615663-6.394599 1.188186-1.397738 6.306025-3.83892 11.372017-5.424607 5.068152-1.585688 10.289688-4.180253 11.607493-5.768102 1.315646-1.585688 3.676895-2.884051 5.24746-2.88405 1.568405 0 4.366042-2.160338 6.215292-4.802431 2.810599-4.011747 3.363646-4.180253 3.363645-1.024 0 3.514869 0.455831 3.540793 6.595511 0.365097 3.627207-1.875173 8.401553-5.215055 10.609417-7.42292 2.207865-2.207865 7.502852-5.668726 11.767359-7.692962 4.264506-2.022076 7.753451-4.54103 7.753451-5.593113 0-1.052084 1.976709-1.914059 4.389806-1.91406 2.534076 0 5.217215-2.054481 6.344912-4.860759 1.073688-2.672338 2.015595-3.944776 2.091207-2.827882 0.073451 1.119055 1.516557 0.146903 3.20162-2.160337 1.687224-2.30508 4.117603-4.314194 5.400844-4.463258 1.285401-0.149063 3.20162-0.391021 4.262346-0.540084 1.058565-0.149063 2.486549-2.456304 3.171375-5.130802 0.686987-2.672338 3.465181-7.330025 6.176405-10.350177 2.709063-3.017992 6.576068-8.364827 8.589502-11.881857 2.441181-4.262346 5.076793-6.178565 7.908996-5.748658 2.337485 0.354295 4.895325-0.131781 5.686009-1.080169 0.790684-0.948388 0.883578-0.751797 0.209552 0.436389-0.676186 1.188186-1.235713 3.00935-1.246514 4.044151M197.444051 504.004591c1.369654 1.427983 2.406616 4.052793 2.30508 5.835071-0.099376 1.782278 0.749637 4.484861 1.888135 6.005739 1.34157 1.79308 1.198987 4.67497-0.408304 8.202802-3.380928 7.418599-3.110886 9.069097 0.654582 4.026869 3.026633-4.050633 3.091443-4.026869 1.909739 0.667544-0.674025 2.674498-2.188422 4.860759-3.365806 4.86076-1.175224 0-1.559764 1.507916-0.851173 3.352843 0.70643 1.844928 0.391021 2.799797-0.69995 2.125773a2.361249 2.361249 0 0 0-3.236185 0.792843c-1.607291 2.601046 4.601519 8.850903 8.792574 8.850903 1.769316 0 2.572962 1.039122 1.788759 2.307241-0.784203 1.270278-2.786835 1.786599-4.448135 1.149299-1.66346-0.63946-3.022312-0.177148-3.022312 1.026161 0 1.203308-1.21411 2.030717-2.700422 1.836287-5.873958-0.762599-8.099105 0.326211-8.068861 3.942616 0.019443 2.253232 0.674025 2.855966 1.620253 1.490633 0.872776-1.259477 5.234498-2.281316 9.689114-2.266194 7.898194 0.023764 10.298329 1.862211 5.940929 4.556151-1.188186 0.734515-2.160338 2.307241-2.160338 3.495427s0.972152 1.559764 2.160338 0.825249c3.58184-2.214346 2.426059 1.490633-1.319967 4.22778-2.94238 2.153857-3.026633 3.022312-0.540084 5.640642 3.957738 4.16297 4.754903 13.167257 1.363173 15.36216-2.212186 1.430143-2.205705 2.121451 0.032405 3.568878 5.731376 3.704979 12.017958 18.823021 12.277198 29.529654 0.259241 10.719595 0.332692 10.823291 9.347781 13.707341 9.771207 3.123848 11.715511 6.532861 4.763544 8.349705-2.376371 0.622177-4.320675 1.572726-4.320675 2.11281 0 2.445502 6.535021 7.155038 9.926751 7.155038 2.065283 0 3.115207 0.63946 2.333165 1.421502-0.782042 0.782042-0.213873 2.912135 1.261637 4.73546 2.138734 2.644253 2.134414 2.985586-0.019443 1.691544-1.814684-1.09097-2.700422-0.146903-2.700422 2.87973 0 2.840844 2.039359 5.275544 5.530464 6.604152 3.041755 1.155781 4.949333 3.043916 4.236422 4.195376-0.710751 1.15146 0.689148 3.333401 3.110886 4.845637 2.423899 1.512236 4.404928 3.975021 4.404928 5.472135 0 1.494954 1.944304 2.719865 4.320675 2.719865s4.320675 1.030481 4.320675 2.287797-0.972152 1.687224-2.160337 0.952709c-1.252996-0.773401-2.160338 1.319966-2.160338 4.981739 0 3.473823-2.054481 8.930835-4.566953 12.123814-2.512473 3.192979-4.085198 6.286582-3.497587 6.874194 1.138498 1.138498 7.185283-4.234262 8.412355-7.476928 0.401823-1.062886 3.730903-2.581603 7.392675-3.370127 6.340591-1.367494 6.662481-1.106093 6.662481 5.396523 0 7.582785 7.537418 15.059713 13.940658 13.826161 2.04584-0.393181 4.260186 0.693468 4.921249 2.417417 0.965671 2.516793 0.360776 2.683139-3.06984 0.846853-2.912135-1.559764-4.270987-1.574886-4.270987-0.049688 0 1.229232 0.972152 2.235949 2.160338 2.235949s2.160338 1.458228 2.160337 3.240507 1.030481 3.240506 2.287798 3.240506 1.687224 0.972152 0.952708 2.160338c-0.758278 1.227072 1.080169 2.160338 4.260186 2.160337 3.078481 0 6.169924 1.494954 6.872034 3.320439 0.699949 1.827646 4.508624 4.67281 8.459882 6.325468 5.858835 2.447662 7.109671 4.085198 6.759696 8.863865-0.235477 3.225384 0.788523 6.293063 2.272675 6.818026 1.505755 0.533603 2.700422-0.740996 2.700422-2.87757 0-3.495426 0.237637-3.523511 2.700422-0.328371 1.486312 1.927021 4.631764 3.812996 6.990852 4.193215 2.359089 0.378059 6.733772 3.465181 9.721519 6.859072 2.987747 3.39173 5.163207 5.020624 4.836996 3.616405-0.393181-1.682903 0.982954-2.05016 4.048473-1.078009 2.551359 0.810127 5.735696 1.635376 7.075105 1.831966 1.337249 0.19443 2.529755 1.551122 2.648574 3.009351 0.118819 1.458228 0.362937 1.978869 0.540084 1.15578 0.179308-0.823089 2.843004 1.542481 5.919325 5.258262 3.078481 3.715781 6.774819 6.303865 8.215764 5.750818 1.440945-0.553046 6.256338 0.51416 10.702312 2.369891 4.445975 1.85789 8.999966 2.810599 10.123342 2.117131 1.160101-0.717232 1.425823 0.337013 0.617856 2.445502-0.924624 2.408776-0.589772 3.192979 0.95487 2.238109 1.307004-0.807966 2.987747-0.481755 3.735223 0.725874 0.745316 1.207629 3.720101 2.194903 6.606312 2.194903 2.888371 0 10.121181 1.851409 16.075072 4.113282 6.757536 2.568641 10.825451 3.225384 10.825452 1.752034 0-1.298363 2.188422-0.017283 4.860759 2.845165 4.191055 4.489181 4.86292 4.67065 4.878042 1.324287 0.008641-2.134414 0.736675-3.158414 1.620254-2.276996 2.43038 2.43038 1.916219 13.396253-0.704271 15.016506-1.270278 0.784203-1.786599 2.786835-1.149299 4.448135 0.63946 1.66346 0.114498 3.022312-1.162262 3.022312-1.27892 0-1.764996 1.458228-1.080168 3.240507 0.682667 1.782278 0.244118 3.240506-0.976473 3.240506-1.222751 0-1.527359 1.123376-0.680506 2.49519 0.924624 1.494954 0.596253 1.907578-0.818768 1.032641-1.298363-0.801485-3.244827 0.120979-4.324996 2.050161-1.080169 1.929181-3.793553 3.154093-6.029502 2.724185-3.365806-0.648101-3.951257-2.391494-3.39173-10.11686 0.473114-6.560945-0.442869-10.566211-3.080642-13.480507-5.193451-5.740017-8.105586-5.18481-6.863392 1.307004 0.572489 3.000709-0.043207 6.161283-1.369654 7.021098-1.326447 0.861975-3.417654 3.398211-4.649046 5.638481-3.421975 6.221772-5.703291 5.331713-8.727764-3.400372-2.30292-6.656-2.259713-8.38211 0.274363-10.486278 1.669941-1.384776 2.739308-4.458937 2.376371-6.833148-0.602734-3.946937-0.952709-4.020388-4.09816-0.874937-1.892456 1.892456-4.618802 7.094549-6.057587 11.562127-4.128405 12.817283-6.632236 14.856641-10.106059 8.228726-1.615932-3.087122-2.356928-6.554464-1.644017-7.705924 0.715072-1.160101-0.952709-1.909738-3.735223-1.678583-2.765232 0.228996-9.756084-1.873013-15.534988-4.670649-8.758008-4.238582-11.216473-4.644726-14.759426-2.43038-2.339646 1.460388-3.676895 1.723949-2.974785 0.587612 2.639932-4.270987 3.752506-17.695325 1.46903-17.695325-1.261637 0-2.294278 0.877097-2.294279 1.948624s-3.095764 3.028793-6.878514 4.346599c-6.664641 2.324523-10.261603 0.70211-10.371781-4.67497-0.017283-0.890059-1.559764-1.620253-3.426295-1.620253-6.316827 0-16.133401-14.560675-11.676625-17.315106 1.929181-1.192506 1.998312-2.668017 0.265722-5.651443-2.184101-3.758987-2.350447-3.698498-2.413097 0.890059-0.056169 4.279629-1.060726 4.86292-7.625992 4.420051-4.804591-0.324051-7.561181-1.613772-7.561181-3.538633 0-1.806042-1.309165-2.527595-3.240507-1.786599-2.035038 0.779882-3.240506-0.023764-3.240506-2.160338 0-2.331004 1.170903-2.955342 3.715781-1.978869 2.041519 0.784203 3.061198 0.771241 2.261873-0.025924-0.797165-0.799325-0.038886-2.864608 1.687224-4.588557 1.723949-1.72611 3.13681-2.583764 3.13681-1.903257 0 0.678346-0.082093 0.613536-0.183629-0.144743-0.101536-0.758278 1.112574-2.201384 2.700422-3.208101 2.797637-1.773637 2.568641-1.894616-3.596962-1.894616-0.594093 0-1.144979 0.730194-1.222751 1.620253-0.408304 4.67281-17.140118 9.293772-17.140118 4.7333 0-1.257316-1.136338-1.585688-2.527595-0.725874-1.667781 1.030481-2.084726 0.410464-1.229232-1.819004 0.844692-2.205705-0.155544-3.763308-2.873249-4.474059-4.577755-1.196827-5.806987-7.930599-1.47119-8.051578 1.486312-0.043207 0.31973-1.395578-2.592405-3.00935-4.521586-2.503831-6.020861-2.451983-10.298329 0.349974-4.54319 2.976945-4.880203 2.955342-3.657452-0.233316 0.900861-2.346127 0.19443-3.512709-2.123611-3.512709-1.909738 0-3.471662-0.972152-3.471663-2.160338s1.155781-2.160338 2.568641-2.160337c1.4107 0 0.438549-1.98319-2.160337-4.404928-3.789232-3.529992-4.728979-3.743865-4.728979-1.080169 0 1.827646-1.002397 3.324759-2.227308 3.324759-3.534312 0-5.024945-6.33411-2.702582-11.486515 5.463494-12.132456 6.78346-18.758211 3.730903-18.75821-1.944304 0-2.490869 1.319966-1.568405 3.78059 1.246515 3.32908 0.974312 3.421975-2.281317 0.771241-2.032878-1.652658-4.320675-2.382852-5.085434-1.620253-0.762599 0.764759-0.196591 1.389097 1.259476 1.389097 1.456068 0 2.048 0.972152 1.313486 2.160337-1.929181 3.119527-8.088304 2.663696-7.027578-0.520641 0.492557-1.475511-0.32189-3.897249-1.806043-5.381401-1.510076-1.510076-3.015831-1.786599-3.415493-0.628658-0.453671 1.317806-1.892456 1.311325-3.953418-0.019443-2.87973-1.85789-2.87973-2.350447 0-4.41573 2.439021-1.749873 2.572962-2.596726 0.540084-3.419815-1.484152-0.602734-2.700422-3.990143-2.700422-7.524455 0-3.536473-0.870616-5.891241-1.933502-5.234498-1.065046 0.658903-2.486549-0.239797-3.158413-1.996152a3.413333 3.413333 0 0 0-4.381165-1.98103c-2.04584 0.786363-2.976945-0.00216-2.648574-2.24243 0.278684-1.901097 1.386937-2.704743 2.462785-1.788759 1.075848 0.918143 0.591932-0.108017-1.075848-2.276996-2.417418-3.149772-2.475747-4.28827-0.287325-5.640642 2.108489-1.302684 1.950785-1.998312-0.678346-3.007189-1.881654-0.723713-3.421975-2.30508-3.421974-3.51703 0-3.39173-7.094549-10.894582-10.30049-10.894582-1.996152 0-2.726346-2.778194-2.413097-9.181435 0.507679-10.412827-1.667781-18.902954-4.841316-18.902953-1.179544 0-1.542481 0.972152-0.807967 2.160337 0.784203 1.268118-1.527359 2.160338-5.603915 2.160338h-6.939005l4.612321-4.000946c2.536236-2.199224 3.981502-4.629603 3.210262-5.400843-2.55784-2.55784-5.001181-1.449586-5.001182 2.272675 0 2.547038-0.689148 2.983426-2.251071 1.421502-1.564084-1.564084-1.231392-3.100084 1.080168-5.018464 1.948624-1.618093 3.268591-6.01654 3.180017-10.600777-0.120979-6.191527-0.520641-6.930363-1.901097-3.517029-1.529519 3.782751-2.009114 3.378768-3.851882-3.240507-2.516793-9.051814-1.819004-10.777924 4.41141-10.879459 4.627443-0.075612 4.61016-0.183629-0.836051-4.86076-5.37708-4.618802-6.52638-11.568608-3.828118-23.145857 0.416945-1.782278-0.423426-3.00935-1.866532-2.726346-1.516557 0.298127-2.102008-0.842532-1.389097-2.700421 0.678346-1.767156 0.043207-3.214582-1.4107-3.214583-1.579207 0-2.188422-1.739072-1.512237-4.322835 0.622177-2.378532 0.352135-3.843241-0.600573-3.253469-0.954869 0.587612-2.294278-0.391021-2.979106-2.17762-0.686987-1.786599-2.445502-2.996388-3.910211-2.68746-1.464709 0.306768 0.209553-1.054245 3.720101-3.024472 7.492051-4.206177 7.502852-4.245063 2.603207-9.146869-4.091679-4.091679-4.957975-7.792338-1.823325-7.792338 1.078008 0 1.449586-1.944304 0.82957-4.320675-0.622177-2.376371-2.313722-4.320675-3.758987-4.320675s-2.629131-1.458228-2.629131-3.240507 0.972152-3.240506 2.160337-3.240506 1.510076-0.652422 0.712912-1.447426c-0.795004-0.797165 0.036726-3.71362 1.851409-6.481013 2.518954-3.845401 2.646414-5.115679 0.546565-5.385721-1.512236-0.19443 2.596726-1.024 9.131747-1.844929 13.642532-1.715308 21.061131-0.857654 24.617047 2.843005m647.736168 1.505755c8.239527 5.024945 10.596456 5.420287 9.103663 1.527359-0.721553-1.879494 0.83173-2.767392 4.720337-2.700422 5.024945 0.088574 5.351156 0.470954 2.445503 2.88189-3.359325 2.786835-2.808439 11.26184 0.730194 11.26184 1.024 0 0.680506 2.596726-0.76692 5.770261-2.071764 4.54535-2.065283 5.956051 0.028084 6.65384 1.955105 0.652422 1.780118 1.760675-0.669704 4.208337-1.827646 1.829806-2.737148 3.910211-2.022076 4.625283 0.715072 0.715072 2.203544-0.12962 3.309637-1.877333 1.227072-1.939983 2.022076-2.17546 2.043679-0.604895 0.017283 1.415021-0.987274 3.203781-2.233789 3.972861-1.546802 0.95703-1.464709 2.363409 0.265722 4.448135 2.000473 2.410937 1.797401 3.048236-0.976473 3.048236-2.063122 0-3.504068 1.775797-3.504068 4.320676 0 2.376371-1.030481 4.320675-2.287797 4.320675s-1.687224-0.972152-0.952709-2.160338 0.304608-2.160338-0.952709-2.160337c-2.650734 0-2.758751 0.581131-0.976472 5.223696 0.721553 1.879494 2.56216 3.417654 4.093839 3.417654 2.054481 0 2.341806 1.944304 1.099612 7.453164-0.924624 4.09816-1.144979 7.986768-0.492557 8.64135 0.654582 0.652422 0.054008 1.188186-1.330768 1.188186-3.568878 0-3.123848 3.409013 0.976473 7.509333 1.924861 1.924861 2.959662 4.035511 2.30508 4.692254-1.91838 1.916219-5.802667-1.363173-5.802667-4.895325 0-1.782278-0.967831-2.642093-2.151696-1.909739-1.356692 0.838211-0.950549 3.655291 1.099612 7.621671 3.180017 6.148321 3.102245 6.370835-3.421975 9.745283-4.860759 2.512473-6.282262 4.441654-5.223696 7.088067 3.540793 8.859544 2.603207 13.679257-3.545114 18.224608-6.431325 4.754903-8.19416 11.32665-3.499747 13.035477 3.990143 1.451747-1.049924 9.041013-6.189367 9.319696-2.24027 0.120979-3.342042 0.365097-2.451983 0.540084 2.851646 0.563848 1.732591 8.338903-1.596489 11.101975-1.769316 1.46903-2.734987 3.447899-2.147376 4.400608 0.589772 0.952709-0.151224 2.222987-1.644017 2.825721-1.553283 0.626498-1.000236 1.166582 1.298363 1.263798 2.711224 0.114498 3.607764-0.879257 2.767393-3.06984-0.682667-1.782278-0.300287-3.240506 0.849012-3.240506 2.901333 0 2.639932 10.209755-0.308928 12.03092-1.319966 0.816608-3.160574 0.25708-4.087359-1.244355-1.099612-1.780118-3.756827-2.210025-7.632472-1.237873-4.331477 1.08665-5.299308 2.138734-3.564557 3.873485 1.734751 1.734751 3.285873 1.631055 5.714093-0.38454 2.769553-2.298599 3.331241-2.1733 3.33124 0.740996 0 1.927021-1.030481 3.504068-2.287797 3.504067s-1.687224 0.972152-0.952709 2.160338-0.114498 2.160338-1.888135 2.160337c-1.771477 0-3.849722 2.188422-4.618802 4.86076-3.387409 11.782481-7.891713 18.902954-11.957468 18.902953-3.244827 0-4.305553 1.622414-4.588557 7.021097-0.203072 3.862684-0.475274 8.669435-0.604895 10.68287-0.166346 2.588084-1.132017 3.106565-3.294515 1.771476-1.682903-1.041283-4.569114-1.119055-6.416202-0.172827-1.847089 0.944068-4.452456 1.322127-5.791865 0.838211-3.277232-1.186025-5.571511 5.253941-2.538397 7.126954 1.555443 0.96135 1.784439 0.488236 0.652422-1.34373-1.162262-1.879494-0.905181-2.307241 0.76908-1.272439 3.469502 2.143055-1.486312 8.619747-7.250092 9.477401-2.376371 0.352135-5.778903 1.21627-7.561182 1.91838-1.782278 0.70427-4.940692 1.466869-7.021097 1.698025-6.098633 0.676186-6.902278 2.979105-2.665856 7.658397 2.88189 3.186498 3.318278 5.035747 1.596489 6.757536-1.307004 1.307004-1.868692 3.689857-1.250835 5.301468 0.680506 1.773637-1.300523 3.962059-5.029266 5.554228-8.948118 3.823797-13.586363 8.250329-12.262076 11.704709 0.63946 1.66346 2.024236 2.49303 3.078481 1.840607 1.054245-0.650262 3.625046-0.19011 5.714093 1.026161 3.316118 1.931342 3.113046 2.212186-1.602971 2.210025-2.970464-0.00216-7.265215-1.415021-9.544371-3.138971-5.251781-3.972861-10.635342-0.293806-8.662954 5.923646 1.173063 3.696338 0.788523 3.910211-3.190818 1.780118-2.68962-1.438785-4.525907-1.574886-4.525907-0.332692 0 1.769316-4.981738 4.309873-11.341773 5.787544-0.890059 0.207392-1.030481 0.496878-0.311088 0.645941 0.719392 0.149063-1.594329 2.981266-5.143764 6.297384-6.422684 5.999257-9.628624 6.370835-15.401046 1.784439-2.603207-2.069603-2.603207-2.413097 0-2.426059 1.73043-0.008641 0.740996-1.633215-2.309401-3.780591-2.935899-2.071764-4.216979-3.765468-2.843004-3.765468 2.36989 0 1.883814-9.174954-0.708591-13.370329-1.916219-3.102245 1.481992-10.393384 4.845637-10.393384 1.773637 0 2.648574-0.931105 1.944304-2.069603-0.70211-1.138498 1.425823-0.656743 4.733299 1.069367 5.845873 3.052557 6.029502 2.976945 6.632237-2.791157 0.406143-3.895089-0.023764-4.977418-1.252996-3.156253-2.36557 3.501907-9.192236 1.093131-7.727528-2.728506 1.004557-2.616169 4.426532-2.765232 17.001857-0.740996 3.00719 0.483916 4.145688-0.380219 3.741705-2.843004-1.024-6.258498 3.495426-14.824236 7.822582-14.824236 2.259713 0 5.318751-1.458228 6.798582-3.240507 1.479831-1.782278 3.921013-3.240506 5.424608-3.240506 1.505755 0 2.601046-1.596489 2.436861-3.547274-0.164186-1.952945 0.915983-3.977181 2.400135-4.502144 1.486312-0.522802 2.700422 0.587612 2.700421 2.469266s1.72827 3.419814 3.841081 3.419814 5.647122 2.11065 7.857147 4.692254c3.845401 4.489181 4.143527 4.521586 6.891477 0.762599 1.927021-2.633451 2.205705-5.070312 0.849013-7.392675-1.723949-2.9467-2.071764-2.981266-2.346127-0.222515-0.177148 1.782278-0.207392 3.9707-0.06481 4.860759 0.375899 2.387173-3.594802 1.970228-5.145924-0.540084-0.734515-1.188186-0.304608-2.160338 0.952709-2.160338s2.287797-0.881418 2.287797-1.957265c0-1.078008-1.860051-1.47119-4.134886-0.877097-5.294987 1.384776-10.445232-6.776979-5.977654-9.473081 1.581367-0.952709 3.52135-3.486785 4.309874-5.627679 0.859814-2.337485 0.57681-3.363646-0.708591-2.568641-1.188186 0.734515-1.834127-0.421266-1.449587-2.588085 0.738835-4.178093 5.800506-6.541502 5.800507-2.709063 0 3.614245 8.740726-3.437097 11.96611-9.656709 1.594329-3.07416 1.98535-5.588793 0.868455-5.588793-1.119055 0-2.032878-0.972152-2.032877-2.160338s2.106329-2.160338 4.681451-2.160337c2.572962 0 3.951257 0.730194 3.059038 1.620253-0.890059 0.892219-0.328371 1.620253 1.248675 1.620253 1.609451 0 2.998549-2.577283 3.164895-5.863156 0.162025-3.225384 2.894852-8.956759 6.074869-12.733029 4.057114-4.824034 5.098397-7.548219 3.495426-9.15119-2.918616-2.918616-2.992068-8.591662-0.086414-6.796422 1.207629 0.747477 1.678582 2.194903 1.045604 3.218903-0.632979 1.024-0.291646 2.391494 0.756118 3.039595 2.598886 1.605131 9.719359-6.552304 8.06238-9.235443-0.730194-1.181705-0.276523-2.797637 1.008877-3.590481 1.283241-0.795004 2.168979-4.020388 1.965908-7.170161-0.607055-9.414751-0.075612-11.127899 3.45654-11.127898 1.851409 0 2.767392 0.972152 2.032877 2.160337-0.734515 1.188186 0.181468 2.160338 2.032878 2.160338 3.847561 0 4.497823-3.367966 1.060726-5.491578-1.270278-0.784203-1.797401-2.75443-1.175224-4.379005 0.624338-1.624574 0.138262-3.568878-1.080169-4.320675-1.21627-0.751797-1.566245-2.970464-0.777721-4.92989 0.790684-1.959426 1.639696-4.748422 1.885974-6.200169 1.006717-5.910684 3.45438-5.191291 3.45438 1.017519 0 3.663932-1.21411 7.150717-2.700422 7.751291-1.613772 0.650262-1.177384 1.157941 1.080169 1.259477 3.594802 0.162025 4.80243-2.979105 4.195376-10.903224-0.146903-1.931342 1.641857-5.240979 3.979341-7.355949 2.335325-2.11281 4.232101-4.908287 4.214819-6.20881-0.019443-1.300523-0.976473-0.907342-2.127933 0.874937-1.644017 2.542717-2.102008 2.011274-2.127932-2.469266-0.045367-8.051578 11.419544-12.508354 20.22508-7.865789 2.912135 1.536 4.547511 1.34373 5.798346-0.680507 2.393654-3.873485-0.170667-7.444523-2.726346-3.797873-1.605131 2.292118-2.296439 2.339646-3.156253 0.218194-0.604895-1.492793-1.987511-2.164658-3.07416-1.492793-1.08665 0.671865-1.976709 0.19011-1.976709-1.067207s-1.296203-2.287797-2.87973-2.287797c-1.585688 0-2.989907-1.21411-3.126009-2.700422-0.133941-1.484152-0.658903-5.472135-1.166582-8.857384-0.507679-3.387409 0.287325-8.734245 1.762835-11.881857 1.488473-3.171376 2.570802-12.953384 2.42822-21.927426-0.185789-11.575089 0.604895-16.878717 2.767392-18.572422 2.402295-1.881654 2.536236-3.77627 0.652422-9.181434-2.311561-6.630076-2.205705-6.811544 3.942616-6.811545 3.473823 0 9.499004 1.939983 13.389772 4.312034m-400.716692-4.059274c5.973333 4.687932 6.97789 6.794262 7.014616 14.690295 0.028084 6.569586 2.989907 7.956523 3.458701 1.620253 0.103696-1.386937 0.937586-0.818768 1.851409 1.259477 0.915983 2.080405 3.506228 3.780591 5.755139 3.780591 2.248911 0 4.089519 0.972152 4.089519 2.160337s1.47335 2.160338 3.272912 2.160338c6.14616 0 12.145418 13.052759 11.058768 24.06184-0.561688 5.673046 0.023764 11.032844 1.34589 12.35497 1.676422 1.676422 0.857654 2.884051-2.888371 4.270987-3.560236 1.317806-5.228017 1.164422-5.228017-0.473114 0-1.324287 1.458228-2.423899 3.240506-2.441181 2.272675-0.023764 2.477907-0.518481 0.686987-1.656979-1.505755-0.95919-3.869165 0.25708-5.768101 2.968304-1.767156 2.525435-4.197536 3.983662-5.398683 3.240506-1.201148-0.740996-4.806751 1.080169-8.010532 4.050633-4.631764 4.292591-5.56935 6.694886-4.569114 11.696068 1.164422 5.82211 0.691308 6.40108-6.323308 7.716725-4.171612 0.782042-9.40827 3.246987-11.639899 5.478616-3.478143 3.478143-4.420051 3.616405-6.625755 0.95919-1.412861-1.702346-4.903966-3.095764-7.757772-3.095763-3.603443 0-5.843713-1.719629-7.327865-5.621199-1.384776-3.642329-3.251308-5.191291-5.305789-4.402768-2.076084 0.797165-3.067679-0.060489-2.868928-2.482228 0.691308-8.451241-0.736675-11.222954-7.403477-14.381367-3.860523-1.829806-9.131747-2.918616-11.71119-2.417417-2.810599 0.542245-5.180489-0.373738-5.915004-2.289958-0.756118-1.968068-0.31757-2.633451 1.140658-1.732591 1.637536 1.013198 1.812523-0.116658 0.563848-3.668253-1.66562-4.741941-1.821165-12.836726-0.45151-23.493671 0.306768-2.376371 2.000473-4.320675 3.765468-4.320675 2.372051 0 2.577283-0.632979 0.786363-2.423899-2.713384-2.713384-1.324287-8.377789 2.054481-8.377789 1.207629 0 0.868456 1.59865-0.753958 3.551595-2.642093 3.184338-2.391494 3.367966 2.436861 1.775798 2.961823-0.976473 7.377553-1.847089 9.816574-1.931342 3.469502-0.120979 4.359561-1.481992 4.104641-6.267139-0.179308-3.361485 0.985114-7.42292 2.588084-9.025891 1.605131-1.605131 2.916456-3.817316 2.916456-4.919088 0-6.178565 26.766582-8.047257 33.999392-2.374211m226.541638 287.42859c0.676186 1.095291 0.082093 3.378768-1.322127 5.070313-2.054481 2.475747-1.138498 4.41573 4.67497 9.913789 3.975021 3.758987 5.770262 6.061907 3.987984 5.115679-1.782278-0.946228-0.516321 0.868456 2.812759 4.03335 3.32692 3.164895 7.0427 5.755139 8.25465 5.755139 1.211949 0 0.676186 1.527359-1.192506 3.393891-1.866532 1.868692-3.542954 4.054954-3.722262 4.860759-0.181468 0.807966-0.460152 0.494717-0.620017-0.693468-0.159865-1.188186-1.440945-4.104641-2.847325-6.481013l-2.553519-4.320675-0.099375 4.320675c-0.1253 5.444051-3.631527 11.162464-5.623359 9.170633-0.827409-0.827409-0.276523-2.987747 1.227072-4.79811 1.868692-2.251072 1.965907-3.292354 0.306768-3.292354-1.332928 0-2.423899 0.937586-2.423899 2.084726 0 4.046312-8.656473 7.072945-12.087089 4.22562-2.555679-2.121451-3.77411-1.836287-6.286582 1.47119-1.713148 2.255392-3.692017 5.802667-4.398447 7.880911-0.70427 2.080405-3.218903 3.780591-5.584473 3.780591-2.36773 0-3.743865-0.905181-3.061198-2.011274 0.684827-1.106093 0.25492-2.620489-0.952709-3.367966-1.207629-0.745316-2.343966 0.401823-2.523274 2.551358-0.181468 2.149536-0.440709 5.366278-0.57465 7.148557-0.170667 2.24243-0.736675 2.467105-1.838447 0.734515-0.877097-1.378295-0.995916-4.061435-0.265722-5.964692 0.987274-2.572962 0.403983-3.106565-2.276996-2.076084-1.98319 0.760439-3.113046 2.665857-2.510312 4.234261 1.391257 3.631527-5.221536 1.568405-8.708321-2.715544-2.006954-2.467105-2.868928-1.844928-4.692253 3.385249-1.916219 5.498059-3.670414 6.623595-12.339848 7.924118-6.830987 1.024-9.161992 2.11497-7.189603 3.363645 1.98103 1.255156 0.734515 1.860051-3.871325 1.883815-4.03335 0.019443-7.288979-1.268118-8.019173-3.171376-1.47119-3.834599-7.87443-1.963747-7.87443 2.30076 0 2.309401-1.259477 2.477907-5.752979 0.76908-3.923173-1.490633-6.46589-1.47335-7.993249 0.054008-1.546802 1.546802-0.76908 2.324523 2.512472 2.510313 2.614008 0.149063 5.724895 0.51416 6.91308 0.810126 1.188186 0.298127 3.32692 0.661063 4.752743 0.810127 1.963747 0.205232 1.98535 0.877097 0.090734 2.771713-1.892456 1.892456-3.348523 1.795241-5.997097-0.401823-2.938059-2.439021-3.808675-2.408776-5.459173 0.198751-1.080169 1.706667-1.976709 2.084726-1.996152 0.842532-0.017283-1.244354-2.704743-2.099848-5.973333-1.898937-3.26643 0.198751-4.968776 0.561688-3.780591 0.805806 1.188186 0.244118 0.462312 0.76908-1.611612 1.164422-5.860996 1.123376-6.824506-3.00935-1.227071-5.253941 3.529992-1.415021 3.925333-2.04584 1.34589-2.143055-2.009114-0.073451-4.29043 0.89438-5.065992 2.151696-0.777722 1.259477-3.996624 1.987511-7.150717 1.620254-4.115443-0.479595-4.867241-0.110177-2.659375 1.311324 2.49735 1.607291 2.30292 2.091207-1.026161 2.581604-2.255392 0.330532-4.839156-0.559527-5.742177-1.978869-1.248675-1.965907-1.648338-1.937823-1.674262 0.118818-0.017283 1.486312-1.548962 2.700422-3.400371 2.700422-2.022076 0-2.743629-1.011038-1.806042-2.527595 1.036962-1.676422 0.403983-2.082565-1.875173-1.207629-1.911899 0.732354-4.705215-0.209553-6.295224-2.127932-3.752506-4.525907-2.572962-26.744979 1.592169-29.996287 1.674262-1.304844 2.410937-3.00719 1.637536-3.780591-2.214346-2.212186 2.907814-1.644017 8.617586 0.95703 4.165131 1.896776 6.980051 1.497114 14.290633-2.035038 5.007662-2.419578 10.656945-3.804354 12.553722-3.076321 2.490869 0.954869 2.948861 0.518481 1.652658-1.579207-1.173063-1.896776-0.036726-1.672101 3.283713 0.654583 5.040068 3.529992 13.843443 3.080641 18.215966-0.926785 1.129857-1.034802 4.774346-1.881654 8.101266-1.881654s6.048945-0.972152 6.048945-2.160338-1.030481-2.160338-2.287797-2.160337-1.687224-0.972152-0.952709-2.160338c2.000473-3.238346 5.400844-2.601046 5.400844 1.013199 0 5.562869 6.193688 1.093131 6.895797-4.977418 0.44719-3.877806 1.898937-5.69897 4.445975-5.577992 2.080405 0.099376 2.892692 0.343494 1.806042 0.540085-1.084489 0.198751-1.268118 2.996388-0.406143 6.219612 1.339409 5.007662 1.786599 5.286346 3.080641 1.916219 1.233553-3.216743 2.102008-3.450059 4.726819-1.272439 2.741468 2.274835 3.188658 1.596489 3.043915-4.618802-0.092895-4.005266-0.674025-6.029502-1.289721-4.493502-0.885738 2.205705-1.784439 2.23811-4.294751 0.153384-2.726346-2.259713-2.551359-2.730667 1.224911-3.305316 4.882363-0.745316 9.924591 6.325468 8.032135 11.261839-2.488709 6.483173 2.804118 4.875882 6.921722-2.104168 3.346363-5.673046 5.411646-7.124793 8.853063-6.226093 2.564321 0.669705 4.487021 0.140422 4.487021-1.237874 0-1.328608 0.730194-2.253232 1.620253-2.058801 4.165131 0.911662 13.50211-3.318278 13.50211-6.115916 0-1.723949 0.972152-2.534076 2.160338-1.799561 1.188186 0.734515 2.160338 0.397502 2.160337-0.749637 0-2.477907 8.168236-0.682667 9.941874 2.186261M438.548523 174.213941c0 0.50984-1.570565 3.322599-3.491105 6.254177-1.92054 2.931578-2.996388 7.224169-2.389334 9.542211 0.604895 2.315882-0.010802 4.668489-1.369654 5.225857s-0.76908 1.09097 1.309165 1.183865c2.080405 0.092895 3.780591-0.695629 3.780591-1.756355 0-1.058565 2.343966-2.514633 5.210734-3.231865 4.054954-1.019679 5.532624-3.225384 6.668962-9.956996 1.21627-7.198245 2.30508-8.647831 6.496135-8.647831 7.366751 0 11.868895 2.190582 11.868894 5.774582 0 1.732591 1.155781 5.273384 2.566481 7.87011 3.063359 5.62984 2.456304 16.915443-1.302683 24.159055-3.037435 5.852354-2.218667 40.629468 1.101772 46.833958 1.075848 2.009114 1.955105 7.574143 1.955105 12.367932 0 6.859072 0.689148 8.451241 3.240507 7.472608 2.551359-0.980793 3.240506 0.615696 3.240506 7.500692 0 4.808911-0.797165 9.237603-1.769316 9.838177-0.974312 0.602734-1.365333-1.656979-0.872777-5.016304 0.492557-3.361485-0.168506-6.770498-1.47119-7.576303-2.028557-1.252996-3.672574 7.80962-2.622649 14.454818 0.326211 2.076084-6.630076 2.05016-9.466599-0.032405-1.188186-0.872776-2.49735-5.476456-2.909975-10.229198-0.412624-4.752743-1.626734-8.965401-2.700422-9.360743-1.073688-0.397502-1.950785-1.669941-1.950785-2.827882 0-1.160101 0.881418-1.564084 1.959426-0.8987 1.075848 0.667544 1.542481-0.490397 1.034802-2.572962-0.993755-4.067916-2.361249-15.878481-2.75227-23.765874-0.235477-4.73546-4.562633-7.150717-4.562633-2.547038 0 3.033114-5.513181 8.487966-8.5787 8.487967-4.318515 0-8.073181-5.176169-7.003815-9.656709 0.827409-3.465181 0.473114-3.849722-1.693704-1.829806-1.693705 1.579207-2.086886 4.052793-1.030481 6.481013 0.939747 2.158177 1.555443 4.655527 1.367493 5.545586-0.19011 0.892219 0.483916 1.620253 1.492793 1.620253 1.011038 0 2.011274 5.783224 2.222988 12.851848 0.31973 10.663426-0.315409 13.227747-3.724422 15.053232-3.236186 1.732591-4.973097 1.21627-8.163916-2.421738-2.229468-2.542717-2.830042-3.908051-1.335088-3.033114 2.153857 1.259477 2.192743 0.440709 0.19227-3.949097-1.386937-3.046076-3.663932-5.539105-5.057351-5.539105-2.888371 0-3.584-3.26427-3.828118-17.976169-0.153384-9.064776-0.697789-10.278886-4.210498-9.360743-3.175696 0.82957-3.754667 0.174987-2.719865-3.087122 0.931105-2.929418 0.280844-4.141367-2.216506-4.141367-2.618329 0-3.154093 1.188186-2.073924 4.590717 0.980793 3.089283 0.674025 4.108962-0.935426 3.113046-6.102954-3.771949 1.34373-21.63146 11.222954-26.917805 3.979342-2.130093 5.063831-4.411409 4.860759-10.231359-0.142582-4.121924-1.075848-6.716489-2.073924-5.765941-0.998076 0.948388-1.175224-0.360776-0.393181-2.909975 0.782042-2.549198 1.823325-7.794498 2.311561-11.655021 0.488236-3.862684 1.669941-7.770734 2.62697-8.684557 3.385249-3.240506 17.939443-3.761148 17.939443-0.64162M780.962025 347.814346l4.320675 1.85573-4.320675 0.222515c-4.292591 0.218194-4.294751 0.239797-0.062649 3.439257 2.343966 1.771477 5.50238 2.741468 7.021097 2.158177 1.520878-0.581131 2.793316 0.1253 2.827881 1.572726 0.036726 1.449586 1.056405 0.933266 2.268355-1.147139 1.211949-2.078245 3.499747-3.780591 5.083274-3.780591 1.585688 0 3.32692 1.702346 3.873485 3.780591 0.57681 2.199224 5.651443 5.452692 12.132456 7.777215 6.128878 2.199224 11.143021 4.923409 11.143021 6.053266 0 1.132017 2.914295 3.072 6.478852 4.314194 3.562397 1.242194 6.003578 3.026633 5.424608 3.964219-0.57897 0.937586 0.879257 2.210025 3.242667 2.827882 2.410937 0.628658 4.391966 0.025924 4.512945-1.376135 0.120979-1.373975 1.099612 1.259477 2.17762 5.850194 2.611848 11.114937-0.952709 24.986464-6.204489 24.146093-2.063122-0.328371-6.422684 0.756118-9.691275 2.413097-3.542954 1.795241-5.940928 2.11497-5.940928 0.795004 0-1.21843 1.458228-2.216506 3.240506-2.216506 6.956287 0 2.633451-3.467342-10.261603-8.230886-7.42508-2.745789-14.716219-5.094076-16.202532-5.221536-1.484152-0.1253-2.700422-1.008878-2.700421-1.961586s-1.486312-1.162262-3.305317-0.464473c-1.927021 0.738835-5.031426-0.721553-7.446683-3.506228-2.469266-2.847325-5.208574-4.115443-6.785621-3.141131-1.834127 1.132017-1.164422 2.181941 2.184102 3.419815 4.588557 1.698025 4.569114 6.144-0.023764 6.144-1.188186 0-1.559764-0.972152-0.825249-2.160338 0.734515-1.188186-0.075612-2.160338-1.801722-2.160337-3.145451 0-5.746498 4.16297-7.17016 11.473552-0.419105 2.151696 0.095055 3.383089 1.140658 2.734988 3.093603-1.911899 4.631764 10.952911 2.158177 18.04962-2.004793 5.750819-3.113046 6.439966-9.105822 5.653603a395.363376 395.363376 0 0 0-8.44476-1.041282c-3.51919-0.315409-1.34589-4.713857 3.240507-6.558785 3.914532-1.572726 4.100321-1.98103 0.952708-2.091207-2.328844-0.079932-3.300996-1.119055-2.404455-2.568641 1.106093-1.79092 0.427747-1.808203-2.572962-0.066971-2.24243 1.302684-3.104405 2.413097-1.91622 2.467106 1.188186 0.054008 1.024 0.820928-0.367257 1.706666-1.389097 0.883578-2.847325 2.989907-3.240506 4.681452-0.851173 3.670414-8.274093 5.472135-8.274093 2.006953 0-1.590008-1.166582-1.440945-3.432777 0.438549-2.909975 2.415257-3.320439 2.311561-2.700422-0.674025 0.401823-1.937823-0.239797-3.655291-1.427983-3.817317-1.188186-0.164186-2.914295-1.644017-3.836759-3.292354-0.922464-1.650498-3.110886-2.447662-4.86076-1.775798-1.752034 0.671865-3.184338 0.086414-3.184337-1.298363s0.972152-1.91838 2.160337-1.183865c1.188186 0.734515 2.233789 0.548726 2.326684-0.412624 0.090734-0.96135 0.477435-3.367966 0.861975-5.348996 0.38238-1.98103-0.604895-6.109435-2.194903-9.174953-2.570802-4.955814-2.441181-5.815629 1.15578-7.74049 2.225148-1.192506 5.999257-2.166819 8.38211-2.166818 2.385013 0 4.977418-1.039122 5.76162-2.307241 0.784203-1.270278 2.894852-1.745553 4.687933-1.056405 2.270515 0.870616 2.88189 0.259241 2.011274-2.013435-1.736911-4.525907 2.222987-4.111122 4.919088 0.516321 1.782278 3.061198 2.276996 3.164895 2.596726 0.540084 0.216034-1.782278 0.620017-4.212658 0.89654-5.400843s0.613536-4.022549 0.751798-6.301705c0.136101-2.276996 0.83389-3.553755 1.551122-2.838684 0.715072 0.717232 3.596962 0.429907 6.403241-0.637299 3.413333-1.296203 5.606076-1.127696 6.619274 0.512 0.985114 1.59865 1.700186 1.192506 2.043679-1.162262 0.293806-1.987511-0.840371-3.735224-2.516793-3.884287-1.678582-0.149063-4.022549-0.512-5.210734-0.810126a45.593924 45.593924 0 0 0-4.245064-0.810127c-3.83892-0.496878-6.859072-9.099342-5.448371-15.519865 1.244354-5.662245 2.257553-6.33627 9.324017-6.202329 4.361722 0.084253 9.874903 0.987274 12.251274 2.009114m-196.450295-173.05384c-0.658903 1.065046 0.38238 2.540557 2.311561 3.279393 2.717705 1.043443 3.246987 3.283713 2.352608 9.948354-0.632979 4.731139-0.274363 8.602464 0.801485 8.602464s1.955105-1.944304 1.955105-4.320675c0-4.013907 3.944776-6.316827 4.627443-2.700422 0.166346 0.892219 0.486076-0.324051 0.710752-2.700422 0.222515-2.376371 0.732354-3.834599 1.134177-3.240506 0.403983 0.594093 0.892219-1.350211 1.08881-4.320675 0.196591-2.970464 0.518481-4.320675 0.717232-3.000709 0.211713 1.393418 2.765232 1.942143 6.085671 1.307004 3.949097-0.753958 5.24746-0.326211 4.193215 1.380456-0.842532 1.361013-0.442869 2.473586 0.885738 2.473586s1.901097 0.83173 1.272439 1.849249c-0.628658 1.015359 1.162262 1.40638 3.975021 0.868456 4.253705-0.812287 5.357637 0.114498 6.539342 5.489418 0.868456 3.955578 0.157705 9.492523-1.831966 14.251747-2.709063 6.481013-4.335797 7.785857-9.717198 7.785856-8.025654 0-10.615899 3.661772-5.314431 7.509334 3.318278 2.408776 3.895089 2.410937 3.398211 0.019443-0.328371-1.585688 0.486076-3.551595 1.810363-4.368203 3.130329-1.935662 8.202802 2.922937 5.251781 5.031426-2.918616 2.082565-3.832439 8.531173-2.156017 15.208777 1.097451 4.372523 1.806042 4.880203 3.367966 2.410936 1.637536-2.588084 1.98535-2.475747 2.013435 0.652422 0.017283 2.080405-1.181705 3.795713-2.668017 3.812996-1.799561 0.023764-1.620253 0.732354 0.540084 2.127932 2.188422 1.415021 2.359089 2.104169 0.522802 2.127933-2.186262 0.025924-2.186262 0.89438 0 4.420051 2.246751 3.627207 2.156017 4.73546-0.522802 6.409721-1.823325 1.140658-3.527831 1.192506-3.899409 0.118819-0.371578-1.078008-3.419814-1.112574-7.021097-0.079933-3.676895 1.054245-6.362194 1.004557-6.362194-0.116658 0-1.069367-1.618093-1.322127-3.594802-0.563848-2.417418 0.928945-3.082802 0.553046-2.032878-1.147139 0.926785-1.501435 0.246278-2.527595-1.678582-2.527595-1.782278 0-3.84108 0.972152-4.575595 2.160337-1.950785 3.158414-10.957232 2.637772-13.806717-0.797164-3.270751-3.940456-2.017755-11.084692 1.946464-11.084692 1.736911 0 3.486785-1.700186 3.888608-3.780591 0.451511-2.354768-0.602734-3.780591-2.799798-3.780591-1.937823 0-2.925097 0.972152-2.190582 2.160338 0.734515 1.188186-0.786363 2.160338-3.376608 2.160337-3.927494 0-4.268827 0.535764-2.045839 3.214583 2.164658 2.607527 1.996152 3.473823-0.883579 4.577755-2.722025 1.045603-3.322599 3.361485-2.570801 9.915949 0.70427 6.126717 0.239797 8.265451-1.641857 7.543899-3.45654-1.326447-8.924354 3.054717-8.924354 7.152878 0 2.268354-2.756591 3.439257-9.181435 3.90373-5.048709 0.367257-9.181435 0.079932-9.181434-0.6373 0-0.717232 2.629131-3.931814 5.841552-7.144236l5.841553-5.841553-8.176878-0.261401c-5.130802-0.164186-8.600304 0.840371-9.313215 2.698262-0.624338 1.628895-1.890295 2.961823-2.812759 2.961823-2.454143 0-4.09816-10.697992-1.85789-12.082768 1.049924-0.648101 1.348051-2.082565 0.663223-3.188659-0.682667-1.106093-0.155544-2.011274 1.173063-2.011274s1.821165-0.96135 1.095292-2.136574c-0.756118-1.222751 0.110177-1.585688 2.032877-0.849012 1.844928 0.708591 3.352844 0.393181 3.352844-0.69995 0-1.095291 3.39389-3.320439 7.541738-4.947173 4.147848-1.628895 8.105586-4.739781 8.796895-6.917401 0.689148-2.17546 2.222987-3.357165 3.404692-2.62697 2.62697 1.622414 8.179038-5.301468 8.271932-10.319933 0.071291-3.769789-3.685536-7.353789-5.651443-5.390042-0.611376 0.611376-0.025924 3.13897 1.300524 5.616878 1.60297 2.994228 1.6613 4.506464 0.174987 4.506464-1.229232 0-2.235949-1.376135-2.235949-3.061198 0-1.682903-1.099612-3.426295-2.445503-3.875646-3.886447-1.294042 3.417654-13.430819 9.844659-16.360236 5.813468-2.648574 7.509333-6.84827 2.862447-7.083747-1.484152-0.075612-0.410464-1.054245 2.391494-2.17762 4.063595-1.626734 4.819713-3.117367 3.746025-7.390515-0.946228-3.77411-0.058329-6.636557 3.011511-9.706397 4.331477-4.331477 10.013165-6.109435 7.734008-2.419578M306.767932 234.396624c1.291882-0.799325 3.951257-0.153384 5.910684 1.434465 2.538397 2.058802 3.093603 2.11065 1.937823 0.185789-1.095291-1.825485-0.004321-2.806278 3.365806-3.028794 2.743629-0.181468 6.446447-0.490397 8.228725-0.684827 1.782278-0.196591 4.975257 0.490397 7.096709 1.525199 3.108726 1.516557 3.575359 3.430616 2.408777 9.866261-0.797165 4.391966-3.26211 11.592371-5.476456 15.99946-2.216506 4.409249-4.02903 10.11038-4.02903 12.67038 0 4.484861 0.200911 4.523747 5.465654 1.073688 5.381401-3.525671 5.513181-3.471662 8.410195 3.419814 1.618093 3.849722 2.458464 8.265451 1.864371 9.814414-1.354532 3.527831 1.987511 3.663932 5.431088 0.220354 2.015595-2.015595 2.592405-2.015595 2.592406 0 0 1.570565 3.305316 2.592405 8.395071 2.592405 4.616641 0 11.177586 1.451747 14.582279 3.227544 3.402532 1.773637 4.914768 3.231865 3.359325 3.240507-1.555443 0.006481-2.216506 1.000236-1.47119 2.207865 0.747477 1.207629 2.095527 1.739072 3.000709 1.181704 0.903021-0.559527 1.402059 1.125536 1.110413 3.743865-0.775561 6.945485-1.415021 6.986532-2.782515 0.177148-0.149063-0.740996-1.810363-0.069131-3.689856 1.492793-1.881654 1.561924-5.284186 2.976945-7.561182 3.145452-5.677367 0.416945-7.863629 3.046076-4.342278 5.223696 1.60297 0.989435 2.287797 2.81492 1.523038 4.052793-0.76692 1.240034-0.403983 2.862447 0.803645 3.609924 1.207629 0.745316 2.194903 2.892692 2.194903 4.772186 0 2.855966-1.98319 3.210262-12.09573 2.166818-11.460591-1.183865-11.914262-1.047764-8.64135 2.568642 4.402768 4.86292 4.428692 7.55254 0.058329 5.876118-1.868692-0.717232-5.403004-0.231156-7.854987 1.080169-3.571038 1.911899-3.860523 2.758751-1.462549 4.264506 1.646177 1.032641 4.694414 1.348051 6.772659 0.70211 2.080405-0.648101 3.780591-0.168506 3.78059 1.062886s-3.402532 2.11281-7.561181 1.957266c-4.15865-0.157705-7.576304-1.34373-7.593586-2.635612-0.019443-1.302684-0.842532-1.075848-1.847089 0.509839-2.797637 4.411409-16.271662 2.393654-17.21357-2.575122-0.44719-2.354768 0.159865-3.465181 1.453907-2.665856 1.220591 0.753958 2.920776 0.233316 3.780591-1.157941 0.976473-1.579207 0.628658-1.950785-0.928945-0.987275-2.363409 1.458228-2.849485 0.626498-3.359325-5.735696-0.166346-2.086886 0.168506-2.106329 1.481992-0.082093 2.028557 3.132489 12.344169-0.717232 12.344168-4.608 0-1.307004 2.544878-5.12 5.653604-8.472844 4.344439-4.685772 5.061671-6.681924 3.095764-8.619746-1.955105-1.924861-3.218903-1.628895-5.353317 1.259476-2.996388 4.057114-9.877063 5.18697-9.877063 1.620254 0-1.188186-1.451747-2.160338-3.223224-2.160338-2.480068 0-3.104405-2.36989-2.700422-10.261603 0.403983-7.913316-0.218194-10.261603-2.717704-10.261604-1.782278 0-4.02903-1.235713-4.99254-2.745789-0.965671-1.510076-2.81708-2.089046-4.115444-1.287561-1.415021 0.874937-1.743392 0.462312-0.818767-1.032641 0.859814-1.395578 0.293806-2.525435-1.287562-2.564321-2.117131-0.051848-2.013435-0.732354 0.412625-2.706903 1.782278-1.451747 3.562397-4.085198 3.953418-5.852354 0.393181-1.767156 1.814684-3.892928 3.162734-4.724659 1.736911-1.073688 1.237873-3.90589-1.710988-9.743122-2.287797-4.525907-4.195376-9.200878-4.242903-10.389063-0.045367-1.188186-1.350211-2.968304-2.901333-3.955578-2.136574-1.358852-2.222987-2.514633-0.354295-4.765705 1.354532-1.633215 1.708827-4.229941 0.784202-5.765941-1.304844-2.171139-0.885738-2.151696 1.879494 0.090734 1.959426 1.587848 4.618802 2.233789 5.910683 1.434464m-38.875274 103.737249c2.436861 8.699679 2.363409 15.431291-0.44935 41.452557-0.499038 4.623122-6.042464 5.141603-6.042464 0.566009 0-2.339646-1.036962-4.253705-2.30508-4.253705-1.34157 0-1.719629 1.851409-0.903021 4.424371 0.773401 2.43254 0.397502 5.638481-0.83173 7.120473-1.231392 1.481992-1.838447 6.053266-1.350211 10.157907 0.758278 6.368675 0.492557 6.934684-1.829806 3.860523-2.410937-3.19946-3.110886-2.693941-6.221772 4.487022-1.929181 4.450295-4.178093 11.672304-4.999021 16.049147-0.820928 4.376844-2.458464 8.552776-3.638009 9.282971-1.304844 0.805806-0.995916 2.056641 0.784203 3.184337 2.458464 1.557603 2.454143 1.862211-0.032405 1.890296-2.514633 0.028084-2.514633 0.589772 0 3.687696 1.628895 2.011274 1.860051 2.994228 0.509839 2.184101-1.430143-0.855494-3.113046 0.548726-4.029029 3.365806-1.451747 4.463257-1.605131 4.502143-1.968068 0.516321-0.341333-3.726582-0.624338-3.830278-2.063122-0.753958-1.937823 4.150008-6.768338 4.141367-6.768338-0.012962 0-1.559764 0.730194-2.104169 1.620253-1.21411 0.892219 0.892219 1.620253 0.486076 1.620254-0.8987 0-1.386937-0.946228-2.521114-2.104169-2.521114-2.220827 0-9.624304-12.767595-7.673519-13.232068 0.624338-0.149063 0.12962-0.391021-1.101772-0.540084-3.132489-0.378059-6.377316-6.126717-4.849958-8.595983 0.695629-1.127696-0.50984-3.350684-2.680979-4.938532-2.449823-1.79092-4.009586-5.76162-4.108962-10.466835-0.090734-4.169451-0.728034-7.582785-1.415021-7.587106-2.43038-0.012962-0.872776-9.751764 1.836287-11.480034 1.510076-0.965671 2.186262-2.659376 1.503595-3.765468-0.682667-1.103932-0.248439-3.717941 0.967831-5.806987 1.905418-3.272911 2.220827-2.994228 2.279156 2.015595 0.034565 3.1973-0.907342 6.414042-2.095527 7.148557-1.188186 0.734515-2.160338 2.307241-2.160338 3.495426s0.911662 1.596489 2.026397 0.907342c2.905654-1.795241 14.169654 15.995139 14.994903 23.68162 0.909502 8.470684 2.376371 10.631021 5.258261 7.749131 1.691544-1.691544 1.622414-3.07416-0.244118-4.940692-3.13465-3.13465-3.45654-6.837468-0.432067-4.968777 1.188186 0.734515 2.160338-0.473114 2.160337-2.680979s0.861975-4.938532 1.91838-6.068388c1.054245-1.127696 2.499511-3.996624 3.214582-6.372996 1.034802-3.447899 0.211713-4.411409-4.078717-4.770025-10.406346-0.872776-11.855932-1.376135-11.855933-4.124084 0-1.525198-1.544641-3.638008-3.434936-4.694414-4.491342-2.514633-4.9947-5.848034-0.885739-5.852354 3.996624-0.00216 5.260422-4.908287 2.210026-8.585182-1.613772-1.942143-1.397738-3.443578 0.751797-5.228017 2.337485-1.939983 3.298835-1.762835 4.279629 0.792844 2.261873 5.897722 5.720574 3.478143 5.720574-4.000945 0-4.011747 1.458228-8.505249 3.240506-9.98508s3.240506-1.965907 3.240506-1.080169c0 0.885738 1.458228 0.399662 3.240507-1.080169s3.240506-4.394127 3.240506-6.476692c0-4.150008 11.302886-10.678549 18.62211-10.75632 3.603443-0.038886 5.163207 2.035038 7.312742 9.712877M742.501536 249.518987c1.112574 9.168473 2.484388 12.342008 4.733299 10.950751 2.292118-1.417181 5.191291 4.342278 5.571511 11.06957 0.185789 3.259949-1.276759 5.124321-4.690093 5.981975-2.728506 0.684827-4.960135 2.108489-4.960135 3.162734s-5.346835 3.599122-11.881856 5.655764c-6.535021 2.054481-11.881857 4.73762-11.881857 5.962531 0 1.222751-0.620017 1.605131-1.376135 0.846853-0.758278-0.756118-4.363882 0.751797-8.017013 3.352843-3.653131 2.601046-9.107983 4.787308-12.125974 4.86076-5.461333 0.131781-5.465654 0.144743-0.76692 2.769553 2.596726 1.449586 6.031662 2.635612 7.636793 2.635611 4.294751 0 10.842734 12.257755 9.241924 17.304304-1.700186 5.357637-10.553249 7.755612-17.293502 4.683612-3.825958-1.743392-5.05303-3.979342-4.912608-8.945958 0.244118-8.585181-0.544405-9.194397-12.825924-9.907308-14.189097-0.823089-17.539781-2.547038-17.974008-9.250565-0.205232-3.171376-0.270042-5.638481-0.144743-5.480776 0.1253 0.157705 3.875646-1.015359 8.330262-2.605368 5.899882-2.106329 6.7813-2.916456 3.240506-2.985586-2.672338-0.051848-4.860759-1.173063-4.860759-2.488709 0-1.460388 2.056641-1.879494 5.269063-1.073688 2.897013 0.728034 5.806987 0.451511 6.46589-0.615696 0.658903-1.065046-1.34373-2.575122-4.450295-3.355004-3.104405-0.779882-6.934684-2.706903-8.51173-4.281789-2.378532-2.378532-1.98103-3.694177 2.350447-7.764253 4.854278-4.560473 6.128878-4.750582 18.434161-2.769553 10.402025 1.674262 13.839122 1.510076 16.120438-0.771241 1.594329-1.594329 3.739544-2.899173 4.763545-2.899173 1.02616 0 5.353316-3.158414 9.613502-7.021097 18.287257-16.567629 23.562802-18.053941 24.902211-7.021097M476.205367 822.097013c4.906127 2.55784 7.794498 2.793316 12.819443 1.041282 4.698734-1.637536 6.904439-1.583527 8.008371 0.200912 0.836051 1.354532 2.523274 1.842768 3.750346 1.08665 4.264506-2.637772 8.997806 4.895325 7.567663 12.043881-1.043443 5.223696-0.710751 6.340591 1.484152 4.983899 1.916219-1.183865 2.311561-0.909502 1.224911 0.849013-1.246515 2.019916-2.300759 2.022076-4.722498 0.012962-2.663696-2.210025-2.788996-1.72827-0.872776 3.316118 2.75011 7.23281 0.678346 11.542684-3.078481 6.40324-2.460624-3.363646-3.26427-2.918616-8.433958 4.692254-3.143291 4.625283-5.716253 7.155038-5.716253 5.621198 0-1.557603-1.101772-2.108489-2.49519-1.248675-1.415021 0.874937-1.911899 0.600574-1.1493-0.632979 0.740996-1.196827 0.036726-3.96638-1.561924-6.152641-2.693941-3.685536-3.022312-3.4587-4.456776 3.072-1.443105 6.569586-1.806042 6.813705-5." fill="#005CA0" fill-opacity="0.9882352941176471" p-id="5951"></path></svg>