<?xml version="1.0" standalone="no"?><!DOCTYPE svg PUBLIC "-//W3C//DTD SVG 1.1//EN" "http://www.w3.org/Graphics/SVG/1.1/DTD/svg11.dtd"><svg t="1727188785898" class="icon" viewBox="0 0 1024 1024" version="1.1" xmlns="http://www.w3.org/2000/svg" p-id="15053" xmlns:xlink="http://www.w3.org/1999/xlink" width="16" height="16"><path d="M242.1417 1012.164956c0-7.003835 0-12.3914 0.179586-17.599381 0.718342-195.209451 1.077513-390.239317 2.873368-585.448768 0.897928-87.458144 4.310052-175.095874 8.260934-262.554018 1.795855-41.843424 7.003835-83.507263 12.211814-125.171102C268.002014 1.816867 277.520046-3.391113 296.196939 1.996452a17.509587 17.509587 0 0 1 5.567151 5.387565 30.798915 30.798915 0 0 1-5.746736 5.20798c-5.926322 2.693783-14.905597-4.489638-18.317722 5.387566a142.716606 142.716606 0 0 0-4.130467 19.754406c-0.359171 1.975441-0.538757 4.130467-1.077513 7.18342a88.427906 88.427906 0 0 0 9.338446 0.718342c62.136587 0.179586 124.093589 0 186.050591 0.359172a12.337525 12.337525 0 0 0 14.007669-9.518033 183.033554 183.033554 0 0 1 10.41596-22.986945c-3.59171-0.179586-6.644664-0.538757-9.697617-0.538757H296.55611A21.801681 21.801681 0 0 1 288.115591 12.591997a20.400914 20.400914 0 0 1-6.285493-5.567151A26.057858 26.057858 0 0 1 287.576835 1.816867a21.083339 21.083339 0 0 1 7.542591-0.179586c47.410575 0 154.802711-1.61627 202.033701 0.897928 15.444354 0.718342 32.145807 8.620105 47.051404 4.489637C582.635831-4.109455 709.243616 4.690235 747.674916 1.816867c5.387565-0.359171 14.726012-3.232539 14.905597 5.207979 0.179586 8.79969-9.158861 5.567151-14.546426 5.746737-28.194925 0.359171-144.02758 0.179586-172.222506 0.179585-1.975441 0-3.950881 0.359171-6.644664 0.538757a76.000589 76.000589 0 0 1 7.722177 15.98311c3.052954 15.444354 12.930157 16.701453 26.39907 16.521868 58.00612-0.718342 116.191826-0.359171 174.377532-0.359172h10.41596a11.565307 11.565307 0 0 0 0.538757-3.771295C784.849117 12.951168 784.849117 12.951168 755.756264 12.951168a110.283463 110.283463 0 0 1-17.240209-0.179585 59.424846 59.424846 0 0 1-12.211815-5.20798 38.682719 38.682719 0 0 1 12.930157-5.567151c13.109742-0.897928 26.39907 0.179586 39.508812-0.538756a12.948115 12.948115 0 0 1 15.62394 12.211814c3.59171 24.603215 8.440519 49.026845 10.056789 73.809646 17.59938 285.900135 14.726012 572.15944 15.085183 858.418746 0 21.011505 0 42.02301 0.179585 63.034514a12.355483 12.355483 0 0 0 1.077513 3.23254 117.323215 117.323215 0 0 1 19.395235 0.359171 47.751788 47.751788 0 0 1 12.930157 5.56715 36.078729 36.078729 0 0 1-12.3914 5.028395c-25.321557 0.538757-50.643114 0.359171-75.964672 0.359171-40.945497 0-81.890993-0.359171-123.016075 0.179585a10.954716 10.954716 0 0 1-13.289328-13.468913c-1.61627-107.930893-3.771296-215.6822-5.746736-323.613092-0.179586-6.285493-1.077513-12.750571-1.077513-19.21565 0-5.20798-3.052954-12.3914 5.207979-13.468913a19.754406 19.754406 0 0 1 5.746737 12.3914c1.975441 52.977726 3.950881 105.955452 5.028394 159.112763 1.257099 59.442804 1.436684 118.885609 2.155026 178.328414 0 2.334612 0.179586 4.848809 0.359171 7.363006 8.79969 2.873368 8.081348-3.052954 7.901763-7.722177 0-30.349951 0.179586-60.699903-0.538757-90.870269-2.334612-105.775866-3.950881-211.372147-7.542591-317.148014a3608.986361 3608.986361 0 0 0-32.325392-393.471856 770.511638 770.511638 0 0 0-35.557932-155.700639c-10.41596-27.835754-10.41596-27.835754-39.508812-27.835754h-6.465079c-25.141972-0.179586-25.501143-0.359171-34.839589 23.705287a641.371697 641.371697 0 0 0-33.043734 134.329963c-16.162696 98.951617-24.244044 198.44199-30.529537 298.291535-10.775131 175.275459-13.289328 350.730504-14.00767 526.365135 0 4.489638-3.232539 12.570986 8.620105 10.41596 0-21.370676-0.538757-42.741352 0-63.932443q4.040674-160.818826 8.620104-321.27848c0.897928-32.145807 3.771296-63.932442 6.285493-95.898663a28.230842 28.230842 0 0 1 5.746736-9.877204 26.003982 26.003982 0 0 1 4.489638 10.056789c-1.975441 43.100523-5.567151 86.02146-6.644664 129.121983-3.232539 115.65307-5.387565 231.306139-7.901762 346.959209-0.359171 16.881038 0 16.881038-16.881038 16.881038H193.474027a84.117854 84.117854 0 0 1-9.518032 0c-5.20798-0.538757-12.750571 2.334612-13.289328-5.926322a19.305443 19.305443 0 0 1 12.750571-5.028394c19.21565-0.718342 38.4313-0.359171 58.724462-0.359171z m11.673059-0.897928h148.337632v-70.936277H253.814759v70.936277z m405.504085 0.179586h148.696804v-70.936278h-148.696804v70.936278zM795.624247 114.955739H603.46775c2.873368 16.162696 6.285493 31.786636 8.620104 47.410575a8.979276 8.979276 0 0 0 11.134302 8.979276c54.953167-0.359171 109.726748-0.179586 164.500329-0.179586 3.412125 0 6.824249-0.359171 10.954716-0.538756-1.077513-18.856479-1.975441-36.635444-3.052954-55.671509zM262.794034 171.166004c61.059074 0 120.142707 0 179.226341-0.179585a7.973597 7.973597 0 0 0 6.105907-3.950882c3.771296-17.240209 6.824249-34.480418 10.056789-51.900212H266.026573c-1.077513 18.497308-1.975441 36.455859-3.232539 56.030679z m-0.718342 70.756692h175.095874c2.873368-19.395235 5.746736-38.790471 8.620105-59.083634H262.075692v59.083634z m537.499437 0.359171v-59.263219H615.85915c3.052954 20.113577 5.746736 39.688398 8.620105 59.263219h175.095874z m2.514197 11.673058h-176.173387c2.155026 19.395235 4.130467 37.892543 6.285493 56.389851h169.887894v-56.389851zM259.381909 310.16519h170.247066c2.155026-19.21565 3.950881-37.533372 5.926321-56.030679H259.381909v56.030679z m-3.232539 79.915553v59.083633h161.986132c1.436684-19.933992 2.693783-39.149642 4.130467-59.083633H256.14937zM643.515319 448.984791h161.447375v-58.724463H639.384852c1.436684 19.933992 2.693783 39.329227 4.130467 58.724463z m160.190277-126.607786h-170.426651c1.795855 18.856479 3.412125 37.174201 5.028394 55.491923h165.398257v-55.491923zM257.945225 377.689343h165.398257c1.795855-18.856479 3.412125-36.81503 5.028394-55.312338H257.945225v55.312338z m548.274568 83.686848h-161.986132c1.257099 19.933992 2.334612 38.970056 3.59171 58.185706h158.394422v-58.185706z m-550.96835-0.359171v58.544877h158.753592l3.232539-58.544877H255.251443z m539.654462-357.375168c-1.436684-16.342282-2.693783-31.427465-4.130466-46.692233H588.023396c3.771296 13.289328 7.722177 25.860314 10.41596 38.610885a8.835607 8.835607 0 0 0 10.77513 8.260933c33.043734-0.179586 66.267054-0.179586 99.310788-0.179585h86.380631z m-321.458066-46.333062H270.695797c-1.257099 15.62394-2.514197 30.709123-3.591711 46.333062 63.932442 0 126.248615 0.179586 188.564788-0.179586a7.973597 7.973597 0 0 0 6.285493-3.771295c4.130467-13.828084 7.542591-28.01534 11.493472-42.382181z m184.973078 744.20236v58.006121h149.774316v-58.006121h-149.774316z m-254.831842 0.359171H253.276002v57.467364h150.313073v-57.467364z m5.028395-146.721363v-56.38985H253.994344v56.38985h154.623126z m398.859421-0.179585v-56.389851h-154.263954v56.389851h154.263954zM253.096417 789.11975h151.929342v-56.210265H253.096417v56.210265z m403.528644 0h151.390587v-56.03068h-151.390587v56.03068z m150.313074-257.346038h-158.753593c1.077513 18.676893 1.975441 36.635444 2.873369 54.41441h155.880224v-54.41441z m-393.471856 0H254.892272v54.41441h155.700638c0.897928-18.138137 1.975441-35.917102 2.873369-54.41441z m245.852565 339.596202v56.389851h148.876389v-56.389851h-148.876389z m-405.863256 0v56.389851h149.23556v-56.389851H253.455588z m554.56006-203.64997h-152.647685v52.977726h152.647685v-52.977726zM253.455588 720.69767h152.82727v-52.977726H253.455588v52.977726z m367.252371-241.542513c-0.897928 1.257099-3.232539 3.950881-5.387565 6.824249a24.962386 24.962386 0 0 1-5.746737-8.620104c-5.028394-40.586326-8.979276-81.352237-14.546426-121.758977a660.874683 660.874683 0 0 0-36.635445-155.341468 154.874545 154.874545 0 0 0-16.881038-30.709122c-7.003835-10.236374-14.366841-10.595545-21.011504-0.179586a151.121208 151.121208 0 0 0-21.191091 41.484253c-11.493473 43.100523-21.550261 86.739802-30.349951 130.558667-5.567151 28.194925-18.497308 170.426651-22.089018 198.980747a15.37252 15.37252 0 0 1-0.897928 4.130467 62.657385 62.657385 0 0 1-5.746736 6.285493 17.707131 17.707131 0 0 1-4.848809-7.722177c9.338447-77.22177 28.554096-267.941583 55.491923-341.930814a160.02865 160.02865 0 0 1 17.958551-34.83959c14.00767-20.831919 29.272438-20.652334 43.818865-0.359171a218.591485 218.591485 0 0 1 31.068294 75.425915 1223.480174 1223.480174 0 0 1 30.529537 176.352973c2.155026 19.574821 4.130467 38.970056 6.465078 61.418245zM578.325778 131.836777a22.017184 22.017184 0 0 1-7.363006 7.363006 8.979276 8.979276 0 0 1-6.285493-5.387565c-3.412125-11.493473-5.567151-23.525702-9.518032-34.83959-5.20798-14.546426-11.852644-28.733682-17.240209-43.280108a19.520945 19.520945 0 0 1 1.077513-9.338446 16.414116 16.414116 0 0 1 7.542592 3.232539c10.954716 27.296998 21.19109 54.593996 31.786635 82.250164z m50.8227 458.481812a13.50483 13.50483 0 0 1-0.179585 5.387565 61.400286 61.400286 0 0 1-4.669224 7.18342 19.018106 19.018106 0 0 1-5.926322-7.003835c-1.61627-17.778966-2.693783-35.378346-3.771295-53.157311a80.957149 80.957149 0 0 1-0.718342-14.726012 50.481487 50.481487 0 0 1 4.130466-11.673058 31.60705 31.60705 0 0 1 6.285493 10.236374c1.975441 21.19109 3.052954 42.561766 4.489638 63.752857h0.359171zM584.970442 166.13761l-8.081348 7.363006a118.310935 118.310935 0 0 1-7.18342-17.060624 17.168375 17.168375 0 0 1 4.489638-7.901762c3.412125 5.567151 6.644664 11.134302 10.77513 17.59938z m40.765911 338.698275c-3.950881 3.59171-6.285493 5.926322-8.620104 8.260934a64.650784 64.650784 0 0 1-5.746737-13.109743 17.653256 17.653256 0 0 1 4.669224-7.542591c2.873368 3.59171 5.567151 7.18342 9.697617 12.3914z" fill="#94B7BB" p-id="15054"></path></svg>