<?xml version="1.0" standalone="no"?><!DOCTYPE svg PUBLIC "-//W3C//DTD SVG 1.1//EN" "http://www.w3.org/Graphics/SVG/1.1/DTD/svg11.dtd"><svg t="1726149930100" class="icon" viewBox="0 0 1024 1024" version="1.1" xmlns="http://www.w3.org/2000/svg" p-id="18234" xmlns:xlink="http://www.w3.org/1999/xlink" width="48" height="48"><path d="M512.142222 0C229.745778 0 0 229.688889 0 512s229.745778 512 512.142222 512C794.368 1024 1024 794.311111 1024 512S794.368 0 512.142222 0z m0 969.642667C259.697778 969.642667 54.328889 764.302222 54.328889 512c0-252.330667 205.368889-457.614222 457.784889-457.614222 252.273778 0 457.500444 205.283556 457.500444 457.614222 0 252.330667-205.226667 457.642667-457.500444 457.642667z" fill="#5B5A64" p-id="18235"></path><path d="M768 385.365333v-21.703111a145.351111 145.351111 0 0 1-75.377778-21.276444 14.819556 14.819556 0 0 0-2.986666-2.730667 121.372444 121.372444 0 0 1-44.686223-47.786667 146.545778 146.545778 0 0 1-14.620444-39.424h-0.568889A127.345778 127.345778 0 0 1 627.541333 227.555556h-101.063111c0 47.303111 0.170667 94.606222-0.227555 141.909333v247.665778a81.635556 81.635556 0 0 1-39.736889 68.494222 85.76 85.76 0 0 1-84.110222 2.872889 102.855111 102.855111 0 0 1-25.6-20.366222 76.8 76.8 0 0 1-19.285334-42.183112 81.408 81.408 0 0 1 8.647111-46.791111c4.522667-8.476444 10.752-15.985778 18.289778-22.072889a103.708444 103.708444 0 0 1 42.894222-19.939555 73.187556 73.187556 0 0 1 39.822223 1.166222V489.528889c0-9.528889 0.284444-19.086222-0.227556-28.444445-0.312889-7.651556 0-15.274667 0-22.926222a189.212444 189.212444 0 0 0-122.311111 24.888889 184.007111 184.007111 0 0 0-61.496889 59.733333c-50.773333 80.64-28.359111 185.742222 51.2 240.156445l1.365333 1.137778a184.888889 184.888889 0 0 0 66.958223 28.16c17.038222 3.384889 34.417778 4.721778 51.825777 4.039111a173.368889 173.368889 0 0 0 95.800889-31.573334 187.534222 187.534222 0 0 0 52.081778-56.974222c15.473778-25.543111 24.746667-54.186667 27.022222-83.712 0.625778-8.049778 0.284444-16.071111 0.227556-24.120889-0.455111-60.302222-0.654222-120.632889-0.625778-180.963555A243.683556 243.683556 0 0 0 768 461.312v-75.946667z" fill="#5B5A64" p-id="18236"></path></svg>