<?xml version="1.0" standalone="no"?><!DOCTYPE svg PUBLIC "-//W3C//DTD SVG 1.1//EN" "http://www.w3.org/Graphics/SVG/1.1/DTD/svg11.dtd"><svg t="1727267101242" class="icon" viewBox="0 0 1024 1024" version="1.1" xmlns="http://www.w3.org/2000/svg" p-id="12552" xmlns:xlink="http://www.w3.org/1999/xlink" width="16" height="16"><path d="M370.9952 95.55968l11.43808 11.008 21.31968 19.39456v1.08544l91.7504 88.20736 6.28736 7.60832 6.02112 7.39328 5.7344 7.17824 5.4784 6.9632 5.20192 6.76864 4.9152 6.5536 4.6592 6.3488 4.38272 6.13376c0.7168 1.00352 1.41312 1.9968 2.08896 2.99008l3.98336 5.82656 3.69664 5.61152 1.75104 2.73408 3.29728 5.3248c2.10944 3.46112 4.03456 6.79936 5.7856 10.00448l2.47808 4.7104c2.3552 4.58752 4.29056 8.88832 5.82656 12.89216l1.40288 3.8912c1.05472 3.1744 1.82272 6.13376 2.31424 8.88832l0.2048 1.16736-17.67424 104.0896-7.2192 43.53024-6.13376 38.25664-5.0176 32.84992-2.53952 17.64352-1.67936 12.4416-1.3824 10.92608-1.04448 9.34912-0.57344 5.95968-0.89088 11.48928c-2.41664 32.5632-4.16768 67.39968-5.25312 104.4992l0.26624-8.64256 258.24256-60.38528 136.72448 103.20896v106.2912h32.512v60.23168H439.296l-0.02048-0.04096-327.7312 0.01024V751.68768h7.09632l0.01024-0.04096h19.8656l0.01024-99.06176-40.54016 0.01024-46.0288-66.37568 50.05312 36.1472 33.50528-19.22048 3.01056-0.01024V503.9104H97.93536l-43.02848-63.6928 47.2576 31.96928 36.36224-17.59232V351.13984l-23.36768 0.01024-28.08832-34.42688h17.13152l-29.52192-37.36576 68.44416 29.92128 66.06848-90.4192v-43.7248a12.3904 12.3904 0 0 1 11.12064-12.32896l1.26976-0.06144c6.84032 0 12.3904 5.53984 12.3904 12.3904l-0.01024 43.70432 67.08224 90.18368 60.20096-30.63808-26.112 38.33856h17.8176l-29.82912 34.42688H300.9536v100.99712l36.53632 19.94752 33.49504-22.272V95.55968z m564.55168 783.9744h-18.71872l0.01024 0.63488H483.30752v-0.6144l-30.22848-0.01024v32.64512h482.46784v-32.64512z m-622.04928-88.02304H125.31712l0.01024 120.64768h189.78816l-1.61792-120.64768z m35.81952 70.11328h-17.94048v50.5344H439.296v-46.39744h44.02176v-3.6352l-133.98016 0.01024v-0.512z m427.63264-190.48448l-279.8592 65.46432v129.14688h405.94432v-99.4304l-126.08512-95.1808zM482.816 833.10592h-79.07328v0.95232l-26.25536-0.73728h-14.10048v15.01184H482.816v-15.22688zM370.9952 609.536l-26.73664 43.0592H300.9536v99.04128h25.87648v3.90144l1.2288 92.29312h21.25824v-28.50816h21.66784V609.52576z m13.78304-481.60768v691.38432h5.16096V132.89472l-5.16096-4.9664z m18.96448 18.2272v673.15712h79.5648v-93.6448l5.3248-1.25952 19.3536-4.77184 0.6144-18.2272c1.08544-28.6208 2.58048-55.83872 4.5056-81.664l0.74752-9.75872 0.32768-3.75808 0.89088-8.704 0.89088-7.55712 1.46432-11.42784 2.27328-16.39424 2.74432-18.67776 1.86368-12.26752 4.97664-31.6416 3.90144-23.9616h-102.05184v-21.4016h105.5744l0.54272-3.26656H431.13472v-21.4016H540.8768l0.79872-4.7104H431.13472v-21.4016h114.176l0.55296-3.2768H431.13472v-21.4016H549.4784l7.5264-44.36992-0.44032-1.91488c-2.2016-8.64256-7.5264-19.88608-15.95392-33.61792l-3.29728-5.2736a360.01792 360.01792 0 0 0-1.76128-2.72384l-3.7376-5.61152-4.02432-5.84704-4.31104-6.07232-4.608-6.30784-4.88448-6.53312-5.1712-6.7584-5.46816-6.97344-5.7344-7.20896-6.0416-7.424-6.144-7.45472-81.69472-78.4896zM287.16032 765.44H152.32v0.0512H125.3376v12.2368h187.6992v-12.24704l-25.856 0.01024v-0.0512z m-60.8768-43.74528a4.7104 4.7104 0 0 0-8.0384 0l-7.65952 12.4928v17.46944h23.3472v-17.44896z m60.8768-55.4496H152.32v85.4016h44.46208V730.3168l9.69728-15.8208c1.536-2.49856 3.62496-4.59776 6.12352-6.12352l1.39264-0.77824a18.50368 18.50368 0 0 1 24.04352 6.90176l9.69728 15.8208v21.32992h39.424v-85.4016z m-0.23552-14.51008H152.69888v0.7168H286.9248v-0.7168zM138.9056 617.08288L104.0384 637.11232l1.16736 1.6896h33.71008l0.01024-0.86016h161.792v0.86016h35.87072l0.512-0.83968-36.38272-19.22048v1.56672h-161.792v-3.2256zM370.9952 459.80672l-26.6752 44.12416H300.9536v99.33824l36.36224 19.21024 33.66912-23.88992V459.80672z m-83.82464 58.4192H152.32v85.4016h44.46208v-21.32992l9.69728-15.83104c1.536-2.48832 3.62496-4.58752 6.12352-6.11328l1.39264-0.77824a18.50368 18.50368 0 0 1 24.04352 6.89152l9.69728 15.83104v21.32992h39.424v-85.4016z m-60.8768 55.4496a4.7104 4.7104 0 0 0-8.0384 0l-7.65952 12.4928v17.4592h23.3472v-17.43872z m60.64128-69.95968H152.69888v0.7168H286.9248v-0.7168z m-139.89888-37.888l-43.86816 21.1968 2.0992 3.10272h33.64864l0.01024-0.2048h161.792v0.2048h35.80928l1.31072-2.1504-37.12-20.25472v1.6896H147.0464v-3.584z m388.05504-1.8432H440.9344v1.81248h93.85984l0.3072-1.81248z m-363.3664-96.6656h-2.10944v88.29952h2.10944V367.3088z m101.09952 0h-2.39616v88.29952h2.39616V367.3088z m14.34624-1.45408h-0.55296v87.77728h0.55296V365.8752z m-131.34848 0h-3.4816v87.77728h3.4816V365.8752z m100.8128 0h-71.12704v87.77728h11.28448V432.8448l9.69728-15.8208c1.536-2.49856 3.62496-4.59776 6.12352-6.12352l1.39264-0.77824a18.50368 18.50368 0 0 1 24.04352 6.90176l9.69728 15.8208v20.80768h8.88832V365.8752z m-30.34112 58.34752a4.7104 4.7104 0 0 0-8.0384 0l-7.65952 12.4928v16.93696h23.3472V436.736z m312.9344 15.09376l-98.29376 0.01024v1.82272h97.9968l0.3072-1.83296z m4.42368-26.112H440.9344v1.82272H543.3344l0.3072-1.82272z m4.1984-24.66816H440.91392v1.81248h106.5984l0.3072-1.81248z m-260.9152-37.1712H152.69888v0.7168H286.9248v-0.7168zM221.58336 225.28l-73.84064 101.0688-28.04736-12.25728 12.97408 16.42496H116.1216l5.5808 6.84032h30.6176v0.2048h134.84032l0.01024-0.2048h29.65504l5.91872-6.84032h-13.66016l10.52672-15.4624-22.67136 11.55072L221.57312 225.28z" fill="#2C69FF" p-id="12553"></path><path d="M221.26592 208.05632m-11.61216 0a11.61216 11.61216 0 1 0 23.22432 0 11.61216 11.61216 0 1 0-23.22432 0Z" fill="#2C69FF" p-id="12554"></path></svg>