<?xml version="1.0" standalone="no"?><!DOCTYPE svg PUBLIC "-//W3C//DTD SVG 1.1//EN" "http://www.w3.org/Graphics/SVG/1.1/DTD/svg11.dtd"><svg t="1727353948716" class="icon" viewBox="0 0 1465 1024" version="1.1" xmlns="http://www.w3.org/2000/svg" p-id="5030" xmlns:xlink="http://www.w3.org/1999/xlink" width="22.890625" height="16"><path d="M1089.675272 130.337321a34.495637 34.495637 0 0 1 27.172799-54.852208V0.092111H348.180264v75.393002a34.725915 34.725915 0 0 1 27.633355 54.852208c-27.633354 45.733201-174.090132 152.812449-375.353063 152.81245a408.236755 408.236755 0 0 0 293.834668 155.391562v438.403166h145.996222V438.541333h70.925609v438.403166h75.070613V438.541333h291.071332v438.403166h73.228389V438.541333h75.070612v438.403166h146.456778V438.909778a396.99919 396.99919 0 0 0 292.453-155.760007 529.316902 529.316902 0 0 1-374.892507-152.81245zM179.156247 877.727444h1097.965279v146.272556H179.156247v-146.272556z" p-id="5031"></path></svg>