<?xml version="1.0" standalone="no"?><!DOCTYPE svg PUBLIC "-//W3C//DTD SVG 1.1//EN" "http://www.w3.org/Graphics/SVG/1.1/DTD/svg11.dtd"><svg t="1727270662362" class="icon" viewBox="0 0 1024 1024" version="1.1" xmlns="http://www.w3.org/2000/svg" p-id="15858" xmlns:xlink="http://www.w3.org/1999/xlink" width="16" height="16"><path d="M781.653333 877.226667c6.826667-17.066667 10.24-34.133333 10.24-54.613334 0-27.306667-6.826667-58.026667-20.48-81.92-13.653333-20.48-30.72-34.133333-51.2-44.373333 0 0 0 3.413333-3.413333 3.413333 6.826667-17.066667 13.653333-37.546667 17.066667-54.613333 61.44-34.133333 71.68-177.493333 40.96-177.493333-10.24 0-17.066667 3.413333-23.893334 10.24v-3.413334c27.306667-40.96 44.373333-92.16 40.96-139.946666 0-150.186667-252.586667-150.186667-252.586666-150.186667-17.066667 0-34.133333 0-47.786667 3.413333 3.413333-23.893333 6.826667-68.266667-51.2-81.92 10.24-44.373333 10.24-88.746667-34.133333-88.746666-3.413333 0-10.24 0-13.653334 3.413333-13.653333 6.826667-30.72 10.24-47.786666 6.826667C303.786667 23.893333 238.933333 23.893333 238.933333 85.333333c0 44.373333 34.133333 75.093333 68.266667 95.573334 0 23.893333 10.24 47.786667 27.306667 68.266666-30.72 20.48-47.786667 51.2-47.786667 88.746667 0 51.2 13.653333 98.986667 40.96 139.946667v3.413333c-6.826667-6.826667-17.066667-10.24-23.893333-10.24-30.72 0-20.48 146.773333 40.96 177.493333 3.413333 17.066667 10.24 37.546667 17.066666 54.613334 0 0 0-3.413333-3.413333-3.413334-20.48 10.24-37.546667 23.893333-51.2 44.373334-13.653333 23.893333-23.893333 51.2-20.48 81.92 0 17.066667 3.413333 37.546667 10.24 54.613333-129.706667 17.066667-146.773333 116.053333-146.773333 116.053333h385.706666-20.48 20.48c-10.24 0-23.893333-3.413333-34.133333-6.826666h3.413333c10.24 3.413333 20.48 6.826667 30.72 6.826666h20.48-20.48H921.6c6.826667-3.413333-10.24-102.4-139.946667-119.466666zM413.013333 785.066667l-10.24-10.24 20.48 20.48c-3.413333-6.826667-6.826667-10.24-10.24-10.24z m252.586667 0z m6.826667-6.826667z m-283.306667-23.893333z m40.96 40.96z m30.72 23.893333c-3.413333 0-3.413333-3.413333-6.826667-3.413333 3.413333 0 3.413333 0 6.826667 3.413333z m197.973333-27.306667c-17.066667 13.653333-37.546667 27.306667-58.026666 37.546667 20.48-13.653333 40.96-23.893333 58.026666-37.546667z m30.72-34.133333z m-6.826666 10.24s0 3.413333 0 0c0 3.413333 0 0 0 0z m17.066666-23.893333s0 3.413333-3.413333 3.413333c0 0 0-3.413333 3.413333-3.413333z m6.826667-13.653334s-3.413333 3.413333 0 0c-3.413333 3.413333 0 0 0 0z m-324.266667 13.653334z m-17.066666 204.8z m122.88 20.48z m3.413333 20.48h-10.24 10.24z m-20.48-61.44z m6.826667 27.306666c0 3.413333 3.413333 3.413333 0 0 3.413333 3.413333 0 3.413333 0 0z m-6.826667 30.72c-3.413333 0-6.826667 0-10.24-3.413333 3.413333 3.413333 6.826667 3.413333 10.24 3.413333z m-20.48-3.413333c-3.413333 0-6.826667 0-6.826667-3.413333 3.413333 0 3.413333 3.413333 6.826667 3.413333z m-34.133333-10.24z m-13.653334-6.826667h-3.413333 3.413333z m-20.48-6.826666z m81.92-136.533334c3.413333 3.413333 6.826667 3.413333 10.24 6.826667 0-3.413333-6.826667-6.826667-10.24-6.826667z m30.72 10.24c-3.413333 0-10.24-3.413333-13.653333-6.826666 3.413333 3.413333 10.24 6.826667 13.653333 6.826666z m204.8 122.88z m-17.066666 10.24h-3.413334 3.413334z m-17.066667 6.826667z m51.2-23.893333z m58.026667-58.026667zM709.973333 716.8s0-3.413333 3.413334-6.826667c0 3.413333 0 6.826667-3.413334 6.826667zM440.32 105.813333c-3.413333 0-6.826667 0-10.24-3.413333 0 3.413333 6.826667 3.413333 10.24 3.413333z m-34.133333-3.413333h-34.133334 34.133334z m17.066666 0h-10.24 10.24z m-54.613333 0c-3.413333 0-10.24 0-13.653333 3.413333 6.826667-3.413333 10.24-3.413333 13.653333-3.413333z m-13.653333 3.413333c-3.413333 0-6.826667 3.413333-10.24 3.413334 0 0 6.826667-3.413333 10.24-3.413334z m-23.893334 13.653334c-3.413333 0-6.826667 3.413333-10.24 6.826666 3.413333-3.413333 6.826667-6.826667 10.24-6.826666z m10.24-10.24c-3.413333 0-6.826667 3.413333-10.24 6.826666 3.413333 0 6.826667-3.413333 10.24-6.826666z m-20.48 17.066666l-6.826666 6.826667 6.826666-6.826667zM303.786667 170.666667v0z m10.24-34.133334c0 3.413333-3.413333 6.826667-3.413334 6.826667 0-3.413333 3.413333-3.413333 3.413334-6.826667z m-3.413334 10.24c-3.413333 3.413333-3.413333 6.826667-3.413333 6.826667s0-3.413333 3.413333-6.826667z m-3.413333 10.24v10.24c-3.413333-3.413333-3.413333-6.826667 0-10.24zM409.6 204.8z m64.853333-13.653333z m-20.48 3.413333z m-20.48 3.413333zM368.64 716.8c0-3.413333-3.413333-3.413333-3.413333-6.826667 3.413333 3.413333 3.413333 6.826667 3.413333 6.826667zM307.2 890.88z m194.56 98.986667h13.653333-13.653333z m-6.826667-13.653334l3.413334 3.413334-3.413334-3.413334z m10.24-139.946666c-3.413333 3.413333-6.826667 6.826667-6.826666 10.24 3.413333-3.413333 3.413333-6.826667 6.826666-10.24-3.413333 0-3.413333 0-6.826666-3.413334 3.413333 0 10.24 3.413333 13.653333 3.413334 0 3.413333-3.413333 3.413333-6.826667 0z m-30.72 61.44s0-3.413333 0 0c0-3.413333 0 0 0 0z m0-10.24v-3.413334c3.413333 0 3.413333 3.413333 0 3.413334z m6.826667-10.24s0-3.413333 3.413333-3.413334c-3.413333 0-3.413333 3.413333-3.413333 3.413334z m3.413333-10.24c0-3.413333 3.413333-3.413333 3.413334-6.826667 0 3.413333-3.413333 6.826667-3.413334 6.826667z m6.826667-10.24c0-3.413333 3.413333-3.413333 3.413333-6.826667 0 3.413333-3.413333 6.826667-3.413333 6.826667z m47.786667-13.653334h-20.48c6.826667-3.413333 13.653333-3.413333 20.48 0zM580.266667 989.866667h-13.653334 13.653334z m58.026666-10.24c-3.413333 0-6.826667 0-6.826666 3.413333 0 0 3.413333-3.413333 6.826666-3.413333z m-20.48 3.413333c-3.413333 0-6.826667 0-10.24 3.413333 3.413333 0 6.826667 0 10.24-3.413333z m-17.066666 3.413333h-10.24c0 3.413333 6.826667 3.413333 10.24 0z" fill="#6D5A61" p-id="15859"></path><path d="M740.693333 488.106667c6.826667-37.546667 6.826667-75.093333-3.413333-112.64 3.413333-13.653333 3.413333-27.306667 3.413333-40.96 0-122.88-163.84-146.773333-228.693333-150.186667h23.893333s252.586667 0 252.586667 150.186667c3.413333 102.4-47.786667 153.6-47.786667 153.6z" fill="#A4C2F7" p-id="15860"></path><path d="M740.693333 337.92c0 13.653333 0 27.306667-3.413333 40.96-6.826667-30.72-34.133333-51.2-64.853333-58.026667-44.373333-10.24-88.746667-13.653333-133.12-17.066666h-23.893334c-20.48 3.413333-54.613333 6.826667-109.226666 13.653333-102.4 17.066667-68.266667 167.253333-68.266667 167.253333-27.306667-30.72-44.373333-71.68-47.786667-112.64-3.413333-13.653333-3.413333-27.306667-3.413333-40.96 0-122.88 163.84-146.773333 228.693333-150.186666 64.853333 10.24 225.28 34.133333 225.28 157.013333z" fill="#E3E7F2" p-id="15861"></path><path d="M733.866667 648.533333c-13.653333 64.853333-51.2 129.706667-75.093334 139.946667-20.48 10.24-51.2 51.2-119.466666 51.2-6.826667 0-17.066667 0-23.893334-3.413333-51.2-6.826667-75.093333-37.546667-92.16-47.786667-27.306667-13.653333-61.44-75.093333-75.093333-139.946667-61.44-34.133333-71.68-177.493333-40.96-177.493333 10.24 0 17.066667 3.413333 23.893333 10.24V477.866667l10.24 10.24s-34.133333-150.186667 68.266667-167.253334c54.613333-10.24 88.746667-13.653333 109.226667-13.653333h23.893333c44.373333 3.413333 88.746667 6.826667 133.12 17.066667 102.4 17.066667 68.266667 167.253333 68.266667 167.253333l10.24-10.24v3.413333c6.826667-6.826667 17.066667-10.24 23.893333-10.24 27.306667-3.413333 17.066667 143.36-44.373333 174.08z" fill="#A4C2F7" p-id="15862"></path><path d="M686.08 648.533333c-13.653333 64.853333-51.2 129.706667-75.093333 139.946667-17.066667 10.24-44.373333 40.96-92.16 47.786667-51.2-6.826667-75.093333-37.546667-92.16-47.786667-27.306667-13.653333-61.44-75.093333-75.093334-139.946667-61.44-34.133333-71.68-177.493333-40.96-177.493333 10.24 0 17.066667 3.413333 23.893334 10.24V477.866667l10.24 10.24s-34.133333-150.186667 68.266666-167.253334c54.613333-10.24 88.746667-13.653333 109.226667-13.653333 20.48 3.413333 54.613333 6.826667 109.226667 13.653333 102.4 17.066667 68.266667 167.253333 68.266666 167.253334l10.24-10.24v3.413333c6.826667-6.826667 17.066667-10.24 23.893334-10.24 20.48 0 13.653333 146.773333-47.786667 177.493333z" fill="#E3E7F2" p-id="15863"></path><path d="M491.52 187.733333c-17.066667 3.413333-34.133333 3.413333-47.786667 6.826667-20.48 3.413333-44.373333 10.24-64.853333 20.48-17.066667 6.826667-34.133333 17.066667-47.786667 30.72-3.413333-3.413333-6.826667-6.826667-6.826666-10.24-23.893333-34.133333-30.72-92.16 6.826666-119.466667 17.066667-13.653333 37.546667-17.066667 58.026667-17.066666 112.64 3.413333 105.813333 61.44 102.4 88.746666z" fill="#A4C2F7" p-id="15864"></path><path d="M443.733333 197.973333v10.24l-61.44 10.24c-23.893333 3.413333-40.96 10.24-58.026666 17.066667-23.893333-34.133333-30.72-92.16 6.826666-119.466667h10.24c98.986667 3.413333 105.813333 51.2 102.4 81.92z" fill="#E3E7F2" p-id="15865"></path><path d="M293.546667 27.306667c10.24 0 20.48-3.413333 27.306666 0-10.24 3.413333-17.066667 3.413333-27.306666 0zM440.32 105.813333c-17.066667-3.413333-34.133333-3.413333-47.786667-3.413333 6.826667-30.72 6.826667-61.44-10.24-75.093333 3.413333 0 6.826667-3.413333 10.24-3.413334 3.413333-3.413333 10.24-3.413333 13.653334-3.413333 44.373333-3.413333 44.373333 40.96 34.133333 85.333333z" fill="#A4C2F7" p-id="15866"></path><path d="M392.533333 102.4h-23.893333c-17.066667 0-37.546667 10.24-47.786667 23.893333-13.653333 17.066667-17.066667 34.133333-17.066666 54.613334-17.066667-10.24-30.72-23.893333-44.373334-37.546667-13.653333-17.066667-20.48-37.546667-20.48-58.026667C238.933333 47.786667 262.826667 34.133333 293.546667 27.306667h51.2c13.653333 0 23.893333 0 37.546666-3.413334 17.066667 13.653333 17.066667 44.373333 10.24 78.506667z" fill="#E3E7F2" p-id="15867"></path><path d="M382.293333 23.893333c-10.24 3.413333-23.893333 6.826667-37.546666 3.413334h-23.893334c6.826667 0 13.653333-3.413333 20.48-6.826667 3.413333-3.413333 10.24-3.413333 13.653334-3.413333 10.24 0 17.066667 3.413333 27.306666 6.826666zM392.533333 102.4v6.826667c-10.24-3.413333-17.066667-6.826667-23.893333-6.826667h23.893333zM791.893333 826.026667c0 85.333333-75.093333 136.533333-160.426666 157.013333-30.72 6.826667-61.44 10.24-92.16 10.24-10.24 0-20.48-3.413333-30.72-6.826667 20.48-37.546667 78.506667-64.853333 150.186666-95.573333 34.133333-13.653333 64.853333-40.96 81.92-71.68 13.653333-23.893333 23.893333-47.786667 30.72-75.093333 13.653333 23.893333 23.893333 51.2 20.48 81.92z" fill="#A4C2F7" p-id="15868"></path><path d="M740.693333 843.093333c0 68.266667-47.786667 112.64-109.226666 139.946667-30.72 6.826667-61.44 10.24-92.16 10.24-10.24 0-20.48-3.413333-30.72-6.826667 20.48-37.546667 78.506667-64.853333 150.186666-95.573333 34.133333-13.653333 64.853333-40.96 81.92-71.68v23.893333z" fill="#E3E7F2" p-id="15869"></path><path d="M771.413333 744.106667c-6.826667 40.96-23.893333 75.093333-51.2 105.813333 10.24-20.48 20.48-40.96 23.893334-64.853333-10.24-17.066667-27.306667-30.72-44.373334-40.96 6.826667-13.653333 13.653333-30.72 20.48-44.373334 20.48 10.24 37.546667 23.893333 51.2 44.373334z" fill="#A4C2F7" p-id="15870"></path><path d="M740.693333 785.066667c-3.413333 23.893333-13.653333 44.373333-23.893333 64.853333-17.066667 17.066667-37.546667 34.133333-61.44 40.96-71.68 27.306667-129.706667 58.026667-150.186667 95.573333-37.546667-17.066667-47.786667-61.44-30.72-109.226666 6.826667-13.653333 13.653333-27.306667 27.306667-40.96 10.24 3.413333 23.893333 3.413333 34.133333 3.413333 68.266667 0 95.573333-40.96 119.466667-51.2 3.413333-3.413333 10.24-6.826667 13.653333-10.24 10.24-10.24 20.48-23.893333 27.306667-37.546667 20.48 13.653333 34.133333 27.306667 44.373333 44.373334z" fill="#E3E7F2" p-id="15871"></path><path d="M699.733333 744.106667c-6.826667 13.653333-17.066667 27.306667-27.306666 37.546666l20.48-40.96s3.413333 0 6.826666 3.413334z" fill="#A4C2F7" p-id="15872"></path><path d="M505.173333 836.266667c-20.48 20.48-30.72 47.786667-34.133333 78.506666-78.506667-23.893333-139.946667-88.746667-160.426667-170.666666 13.653333-20.48 30.72-34.133333 51.2-44.373334 3.413333 6.826667 3.413333 10.24 6.826667 17.066667 6.826667 17.066667 17.066667 34.133333 27.306667 51.2 0 3.413333 3.413333 3.413333 6.826666 6.826667l10.24 10.24c3.413333 3.413333 6.826667 6.826667 10.24 6.826666 3.413333 3.413333 10.24 6.826667 13.653334 10.24 20.48 17.066667 44.373333 27.306667 68.266666 34.133334z" fill="#E3E7F2" p-id="15873"></path><path d="M539.306667 993.28c-112.64 0-252.586667-51.2-252.586667-167.253333 0-27.306667 6.826667-58.026667 20.48-81.92 17.066667 81.92 78.506667 146.773333 160.426667 170.666666 0 44.373333 27.306667 78.506667 71.68 78.506667z" fill="#E3E7F2" p-id="15874"></path><path d="M928.426667 993.28H539.306667c88.746667 0 194.56-30.72 235.52-105.813333 3.413333-3.413333 3.413333-6.826667 6.826666-10.24 129.706667 17.066667 146.773333 116.053333 146.773334 116.053333z" fill="#A4C2F7" p-id="15875"></path><path d="M300.373333 877.226667c34.133333 78.506667 146.773333 116.053333 242.346667 116.053333H153.6s13.653333-98.986667 146.773333-116.053333z" fill="#E3E7F2" p-id="15876"></path><path d="M877.226667 993.28h-337.92c88.746667 0 194.56-30.72 235.52-105.813333 51.2 13.653333 88.746667 54.613333 102.4 105.813333z" fill="#E3E7F2" p-id="15877"></path><path d="M771.413333 744.106667c-3.413333 10.24-3.413333 17.066667-6.826666 27.306666 3.413333-10.24 3.413333-17.066667 6.826666-27.306666zM539.306667 993.28h-13.653334 13.653334zM761.173333 778.24c0-3.413333 0-3.413333 3.413334-6.826667-3.413333 3.413333-3.413333 3.413333-3.413334 6.826667zM522.24 993.28h20.48-20.48zM443.733333 979.626667c3.413333 0 6.826667 0 6.826667 3.413333-3.413333 0-3.413333-3.413333-6.826667-3.413333zM395.946667 965.973333h0zM365.226667 948.906667zM460.8 983.04c3.413333 0 6.826667 0 10.24 3.413333-3.413333 0-6.826667 0-10.24-3.413333zM501.76 989.866667h13.653333-13.653333zM515.413333 993.28h6.826667-6.826667zM522.24 989.866667c-3.413333 0-6.826667-3.413333-10.24-3.413334 3.413333 3.413333 6.826667 3.413333 10.24 3.413334zM522.24 989.866667h3.413333-3.413333c3.413333 0 0 0 0 0zM508.586667 986.453333c-3.413333-3.413333-3.413333-3.413333-6.826667-3.413333 3.413333 3.413333 6.826667 3.413333 10.24 3.413333h-3.413333c3.413333 0 0 0 0 0zM576.853333 989.866667s-3.413333 0 0 0c-3.413333 0 0 0 0 0zM573.44 989.866667c-3.413333 0-6.826667-3.413333-10.24-3.413334 3.413333 3.413333 6.826667 3.413333 10.24 3.413334zM563.2 986.453333c-3.413333 0-3.413333 0 0 0zM307.2 890.88c13.653333 23.893333 34.133333 40.96 58.026667 54.613333-23.893333-10.24-44.373333-30.72-58.026667-54.613333zM300.373333 283.306667c-3.413333 6.826667-3.413333 10.24-6.826666 13.653333 3.413333-3.413333 3.413333-6.826667 6.826666-13.653333zM419.84 102.4zM296.96 406.186667c0 6.826667 3.413333 10.24 6.826667 17.066666-3.413333-6.826667-6.826667-13.653333-6.826667-17.066666zM392.533333 102.4h17.066667-17.066667zM245.76 119.466667c0 3.413333 3.413333 6.826667 6.826667 10.24-3.413333-3.413333-6.826667-6.826667-6.826667-10.24zM392.533333 102.4c-3.413333 0-3.413333 0 0 0h-23.893333c6.826667 0 13.653333 3.413333 20.48 3.413333l3.413333-3.413333zM307.2 273.066667zM419.84 102.4h-6.826667 6.826667zM334.506667 116.053333c3.413333 0 3.413333-3.413333 6.826666-3.413333-3.413333 0-6.826667 3.413333-6.826666 3.413333zM252.586667 133.12c3.413333 3.413333 3.413333 6.826667 6.826666 10.24-3.413333-3.413333-3.413333-6.826667-6.826666-10.24zM249.173333 129.706667c3.413333 0 3.413333 3.413333 0 0 3.413333 3.413333 3.413333 0 0 0zM348.16 109.226667s3.413333 0 3.413333-3.413334l-3.413333 3.413334zM351.573333 105.813333c3.413333 0 10.24-3.413333 13.653334-3.413333-3.413333 0-6.826667 3.413333-13.653334 3.413333zM337.92 112.64c3.413333 0 6.826667-3.413333 6.826667-3.413333s-3.413333 0-6.826667 3.413333zM406.186667 102.4h0zM290.133333 361.813333v0zM286.72 337.92v0zM290.133333 324.266667v13.653333c-3.413333-6.826667-3.413333-10.24 0-13.653333zM290.133333 320.853333v0zM290.133333 378.88c0 6.826667 3.413333 13.653333 3.413334 17.066667 0-3.413333 0-10.24-3.413334-17.066667zM307.2 273.066667c-3.413333 3.413333-6.826667 6.826667-6.826667 10.24 0-3.413333 3.413333-6.826667 6.826667-10.24zM293.546667 399.36v6.826667c3.413333-3.413333 3.413333-6.826667 0-6.826667zM293.546667 296.96zM293.546667 296.96c0 3.413333-3.413333 6.826667-3.413334 10.24 3.413333-3.413333 3.413333-6.826667 3.413334-10.24zM290.133333 310.613333v0zM290.133333 307.2s0 3.413333 0 0c0 3.413333 0 0 0 0zM368.64 102.4zM279.893333 30.72s3.413333 0 0 0c3.413333 0 0 0 0 0zM273.066667 34.133333c3.413333 0 3.413333 0 6.826666-3.413333-3.413333 0-3.413333 3.413333-6.826666 3.413333zM283.306667 30.72c3.413333 0 6.826667 0 10.24-3.413333-3.413333 3.413333-6.826667 3.413333-10.24 3.413333zM395.946667 17.066667c-3.413333 0-3.413333 0-6.826667 3.413333h-3.413333 3.413333c3.413333 0 6.826667 0 6.826667-3.413333zM269.653333 34.133333c3.413333 0 3.413333 0 0 0 3.413333 0 3.413333 0 0 0zM341.333333 27.306667h27.306667-27.306667zM406.186667 17.066667h-6.826667 6.826667zM242.346667 116.053333c3.413333 0 3.413333 3.413333 0 0 3.413333 3.413333 3.413333 0 0 0zM341.333333 27.306667c10.24 0 20.48-3.413333 27.306667 0h3.413333c3.413333 0 3.413333 0 6.826667-3.413334 3.413333 0 3.413333-3.413333 6.826667-3.413333-3.413333 0-3.413333 3.413333-6.826667 3.413333-6.826667-6.826667-17.066667-6.826667-27.306667-6.826666-3.413333 0-10.24 0-13.653333 3.413333-3.413333 3.413333-10.24 6.826667-17.066667 6.826667h20.48zM406.186667 17.066667h6.826666-6.826666zM262.826667 37.546667zM262.826667 37.546667c3.413333 0 6.826667-3.413333 6.826666-3.413334s-3.413333 3.413333-6.826666 3.413334zM238.933333 71.68v0zM238.933333 85.333333v0zM238.933333 68.266667c0 3.413333 0 3.413333 0 0 0 3.413333 0 3.413333 0 0zM238.933333 102.4v0zM320.853333 27.306667h-27.306666 27.306666zM242.346667 61.44C238.933333 64.853333 238.933333 68.266667 238.933333 68.266667s0-3.413333 3.413334-6.826667zM238.933333 105.813333c0 3.413333 3.413333 6.826667 3.413334 10.24 0-3.413333 0-6.826667-3.413334-10.24zM242.346667 58.026667c0 3.413333 0 3.413333 0 0 0 3.413333 0 3.413333 0 0zM262.826667 37.546667zM245.76 54.613333c0 3.413333-3.413333 3.413333-3.413333 6.826667 0-3.413333 3.413333-6.826667 3.413333-6.826667zM249.173333 51.2c-3.413333 0-3.413333 0 0 0-3.413333 0-3.413333 0 0 0zM300.373333 877.226667c0 6.826667 3.413333 10.24 6.826667 13.653333-3.413333-3.413333-6.826667-6.826667-6.826667-13.653333zM303.786667 180.906667c0 6.826667 0 13.653333 3.413333 17.066666 0 6.826667 3.413333 10.24 3.413333 17.066667v3.413333c0 3.413333 3.413333 6.826667 6.826667 13.653334 0 3.413333 3.413333 3.413333 3.413333 6.826666 3.413333 0 6.826667 3.413333 10.24 6.826667-10.24 10.24-17.066667 17.066667-23.893333 27.306667 6.826667-10.24 13.653333-20.48 23.893333-27.306667 10.24-10.24 23.893333-17.066667 34.133334-23.893333-13.653333 6.826667-23.893333 17.066667-34.133334 23.893333-3.413333-3.413333-6.826667-6.826667-6.826666-10.24 13.653333-6.826667 27.306667-10.24 40.96-17.066667v-3.413333-3.413333c-3.413333-6.826667-3.413333-10.24-3.413334-17.066667s-3.413333-13.653333-3.413333-17.066667c-10.24-6.826667-20.48-13.653333-30.72-23.893333l-3.413333-3.413333c-6.826667 0-10.24-3.413333-10.24-3.413334l-3.413334-3.413333c0 3.413333-3.413333 6.826667-3.413333 10.24-3.413333 10.24-3.413333 17.066667-3.413333 27.306667-10.24-6.826667-20.48-17.066667-30.72-23.893334 10.24 6.826667 20.48 17.066667 30.72 23.893334zM273.066667 157.013333s-3.413333-3.413333 0 0c-3.413333-3.413333 0 0 0 0zM269.653333 153.6c-3.413333-3.413333-3.413333-6.826667-6.826666-6.826667 3.413333 0 3.413333 3.413333 6.826666 6.826667zM300.373333 423.253333v3.413334c3.413333-3.413333 3.413333-3.413333 0-3.413334zM477.866667 880.64s3.413333-3.413333 0 0c3.413333-3.413333 3.413333-3.413333 0 0 0-3.413333 0 0 0 0zM331.093333 477.866667v3.413333l-3.413333-3.413333c-6.826667-3.413333-13.653333-6.826667-20.48-6.826667-13.653333 0-17.066667 23.893333-17.066667 58.026667 0 37.546667 17.066667 85.333333 40.96 109.226666l3.413334 3.413334c3.413333 3.413333 6.826667 3.413333 6.826666 6.826666 0 0 3.413333 0 3.413334 3.413334v3.413333c3.413333 6.826667 3.413333 17.066667 6.826666 23.893333 3.413333 10.24 6.826667 17.066667 10.24 23.893334 0 0 0-3.413333-3.413333-3.413334 0 0 0 3.413333 3.413333 3.413334 0 3.413333 3.413333 6.826667 3.413334 6.826666v0c0 3.413333 0 3.413333 3.413333 6.826667v-3.413333 3.413333c3.413333 3.413333 3.413333 6.826667 6.826667 10.24 3.413333 3.413333 3.413333 6.826667 6.826666 10.24 0 0 0 3.413333 3.413334 3.413333 0 3.413333 3.413333 6.826667 3.413333 6.826667l3.413333 3.413333c3.413333 3.413333 6.826667 10.24 10.24 13.653334l3.413334 3.413333 3.413333 3.413333 3.413333 3.413334 3.413334 3.413333h3.413333l3.413333 3.413333c10.24 3.413333 20.48 17.066667 37.546667 27.306667 0 0 3.413333 3.413333 6.826667 3.413333l3.413333 3.413334c3.413333 0 6.826667 3.413333 10.24 3.413333h3.413333c3.413333 3.413333 10.24 3.413333 13.653334 3.413333H508.586667h-6.826667c3.413333 0 6.826667 3.413333 13.653333 3.413334h-6.826666H546.133333 525.653333h-3.413333c6.826667 0 17.066667-3.413333 23.893333-6.826667-3.413333 0-3.413333 0-6.826666-3.413333h-3.413334c-3.413333 0-6.826667-3.413333-10.24-3.413334l-3.413333-3.413333c-6.826667 10.24-10.24 10.24-10.24 10.24-17.066667-10.24-27.306667-20.48-37.546667-27.306667-3.413333 0-3.413333-3.413333-3.413333-3.413333h-3.413333l-3.413334-3.413333-3.413333-3.413334-3.413333-3.413333-3.413334-3.413333c-3.413333-3.413333-6.826667-6.826667-10.24-13.653334l-3.413333-3.413333c0-3.413333-3.413333-6.826667-3.413333-6.826667s0-3.413333-3.413334-3.413333c-3.413333-3.413333-3.413333-6.826667-6.826666-10.24-3.413333-3.413333-3.413333-6.826667-6.826667-10.24v-3.413333-3.413334c0-3.413333-3.413333-6.826667-3.413333-6.826666s0-3.413333-3.413334-3.413334c0 0 0 3.413333 3.413334 3.413334-3.413333-6.826667-6.826667-17.066667-10.24-23.893334-3.413333-6.826667-3.413333-17.066667-6.826667-23.893333v-3.413333s-3.413333 0-3.413333-3.413334c-3.413333 0-6.826667-3.413333-6.826667-6.826666l-3.413333-3.413334c-27.306667-23.893333-40.96-71.68-44.373334-109.226666-3.413333-30.72 3.413333-58.026667 17.066667-58.026667 6.826667 0 13.653333 3.413333 20.48 6.826667l3.413333 3.413333v-3.413333-3.413334-3.413333l-3.413333-3.413333c0-3.413333-3.413333-3.413333-3.413333-6.826667l-3.413334-3.413333c-3.413333-3.413333-3.413333-6.826667-6.826666-13.653334v-3.413333c-3.413333-6.826667-3.413333-10.24-6.826667-17.066667v-3.413333c-3.413333-6.826667-3.413333-10.24-6.826667-17.066667v-6.826666c0-6.826667-3.413333-13.653333-3.413333-17.066667v-3.413333c-10.24 37.546667-10.24 75.093333-3.413333 109.226666-6.826667-6.826667-10.24-10.24-13.653334-17.066666-3.413333-3.413333-3.413333 0 0 0zM491.52 856.746667c3.413333-3.413333 3.413333-6.826667 6.826667-10.24-3.413333 3.413333-6.826667 6.826667-6.826667 10.24z" fill="#FFFFFF" p-id="15878"></path><path d="M348.16 406.186667c0 6.826667 3.413333 10.24 6.826667 17.066666v3.413334c3.413333 6.826667 3.413333 13.653333 6.826666 17.066666v3.413334c3.413333 3.413333 3.413333 6.826667 6.826667 13.653333 0 3.413333 3.413333 3.413333 3.413333 3.413333 0 3.413333 3.413333 3.413333 3.413334 6.826667s3.413333 3.413333 3.413333 3.413333l3.413333 3.413334c3.413333 6.826667 6.826667 6.826667 6.826667 6.826666s-34.133333-150.186667 68.266667-167.253333c37.546667-6.826667 64.853333-10.24 85.333333-13.653333-10.24 0-17.066667-3.413333-23.893333-3.413334h0-6.826667c-20.48 3.413333-54.613333 6.826667-102.4 13.653334-34.133333 10.24-61.44 34.133333-68.266667 61.44v3.413333c0 6.826667 3.413333 13.653333 3.413334 17.066667 0 3.413333 0 6.826667 3.413333 10.24zM481.28 986.453333h-10.24 10.24zM324.266667 157.013333c10.24 10.24 20.48 17.066667 30.72 23.893334 0-6.826667 0-17.066667 3.413333-23.893334 0-3.413333 3.413333-6.826667 3.413333-10.24 0-3.413333 3.413333-6.826667 6.826667-10.24 3.413333-3.413333 3.413333-6.826667 6.826667-6.826666-13.653333-3.413333-23.893333-3.413333-37.546667-3.413334h-10.24s3.413333 0 3.413333-3.413333c0 0-3.413333 0-3.413333 3.413333 0 0-3.413333 0-3.413333 3.413334-3.413333-3.413333-3.413333-3.413333-6.826667 0s-3.413333 6.826667-6.826667 10.24l3.413334 3.413333c0 3.413333 3.413333 6.826667 10.24 13.653333-3.413333-3.413333-3.413333 0 0 0zM290.133333 378.88v-10.24 10.24zM491.52 989.866667h-10.24 10.24zM293.546667 856.746667c0-3.413333 0-6.826667-3.413334-6.826667 0 3.413333 0 6.826667 3.413334 6.826667zM300.373333 877.226667zM290.133333 849.92v-6.826667 6.826667zM290.133333 843.093333v-17.066666c-3.413333 3.413333 0 10.24 0 17.066666zM307.2 890.88zM293.546667 856.746667c3.413333 6.826667 3.413333 13.653333 6.826666 20.48-3.413333-6.826667-6.826667-13.653333-6.826666-20.48zM378.88 955.733333c-3.413333-3.413333-10.24-3.413333-13.653333-6.826666 6.826667 3.413333 10.24 6.826667 13.653333 6.826666zM416.426667 972.8zM443.733333 979.626667c-10.24-3.413333-17.066667-3.413333-23.893333-6.826667 6.826667 3.413333 13.653333 6.826667 23.893333 6.826667zM416.426667 972.8c-3.413333 0-10.24-3.413333-13.653334-6.826667 3.413333 3.413333 6.826667 3.413333 13.653334 6.826667zM395.946667 965.973333c-3.413333-3.413333-10.24-3.413333-13.653334-6.826666 6.826667 0 10.24 3.413333 13.653334 6.826666zM382.293333 959.146667zM460.8 983.04c-3.413333 0-6.826667 0-10.24-3.413333 3.413333 3.413333 6.826667 3.413333 10.24 3.413333zM501.76 989.866667h-6.826667 6.826667zM505.173333 836.266667c-3.413333 3.413333-6.826667 6.826667-6.826666 10.24 3.413333-3.413333 3.413333-6.826667 6.826666-10.24zM525.653333 839.68h-3.413333 3.413333zM484.693333 866.986667c0 3.413333-3.413333 3.413333-3.413333 6.826666 3.413333-3.413333 3.413333-3.413333 3.413333-6.826666zM491.52 856.746667s0 3.413333-3.413333 3.413333c0 0 3.413333 0 3.413333-3.413333zM416.426667 713.386667s3.413333 0 0 0l3.413333 6.826666c0-3.413333-3.413333-6.826667-3.413333-6.826666zM481.28 873.813333s0 3.413333-3.413333 3.413334l3.413333-3.413334zM310.613333 443.733333s0 3.413333 0 0c0 3.413333 0 0 0 0zM310.613333 447.146667c3.413333 3.413333 3.413333 6.826667 6.826667 13.653333 0-6.826667-3.413333-10.24-6.826667-13.653333zM303.786667 426.666667zM317.44 457.386667c0 3.413333 3.413333 3.413333 3.413333 3.413333s-3.413333 0-3.413333-3.413333zM324.266667 471.04c0 3.413333 3.413333 3.413333 3.413333 3.413333s0-3.413333-3.413333-3.413333zM320.853333 464.213333c0 3.413333 3.413333 3.413333 3.413334 6.826667 0-3.413333-3.413333-3.413333-3.413334-6.826667zM471.04 935.253333c0 3.413333 0 6.826667 3.413333 10.24 0-3.413333-3.413333-6.826667-3.413333-10.24zM488.106667 969.386667c-3.413333 0-3.413333-3.413333 0 0-3.413333-3.413333-3.413333 0 0 0zM471.04 928.426667v-13.653334 13.653334zM477.866667 959.146667c0 3.413333 3.413333 6.826667 6.826666 10.24-3.413333-6.826667-3.413333-10.24-6.826666-10.24zM501.76 983.04c-6.826667-3.413333-10.24-6.826667-17.066667-13.653333 6.826667 6.826667 13.653333 10.24 17.066667 13.653333zM474.453333 897.706667c0-3.413333 0-3.413333 0 0 0-3.413333 0-3.413333 0 0zM471.04 918.186667c0-3.413333 0-3.413333 0 0 0-3.413333 0-3.413333 0 0zM474.453333 945.493333c0 3.413333 0 3.413333 3.413334 6.826667-3.413333-3.413333-3.413333-6.826667-3.413334-6.826667zM477.866667 952.32c0 3.413333 0 3.413333 3.413333 6.826667-3.413333-3.413333-3.413333-6.826667-3.413333-6.826667zM471.04 907.946667v0zM471.04 928.426667v0zM474.453333 894.293333c0-3.413333 3.413333-10.24 3.413334-13.653333 0 3.413333-3.413333 6.826667-3.413334 13.653333zM474.453333 897.706667c0 3.413333 0 6.826667-3.413333 13.653333 0-6.826667 0-10.24 3.413333-13.653333zM484.693333 866.986667c0-3.413333 3.413333-3.413333 3.413334-6.826667 0 3.413333-3.413333 3.413333-3.413334 6.826667zM262.826667 146.773333c0-3.413333-3.413333-3.413333 0 0-3.413333-3.413333 0-3.413333 0 0zM925.013333 983.04zM928.426667 989.866667zM925.013333 986.453333zM925.013333 983.04zM918.186667 969.386667c3.413333 0 3.413333 0 0 0 3.413333 0 3.413333 0 0 0zM921.6 976.213333zM914.773333 959.146667c0 3.413333 0 3.413333 0 0zM901.12 938.666667c0 3.413333 3.413333 3.413333 0 0 3.413333 3.413333 0 3.413333 0 0zM897.706667 931.84s-3.413333 0 0 0c-3.413333 0 0 0 0 0zM894.293333 928.426667s0 3.413333 0 0c0 3.413333 0 0 0 0zM440.32 37.546667zM778.24 426.666667zM450.56 109.226667h3.413333c0 3.413333 0 0-3.413333 0zM484.693333 133.12s0 3.413333 0 0c0 3.413333 0 0 0 0zM488.106667 139.946667zM477.866667 126.293333c0 3.413333 3.413333 3.413333 3.413333 6.826667 0-3.413333 0-3.413333-3.413333-6.826667zM488.106667 143.36v3.413333c3.413333 0 0-3.413333 0-3.413333zM491.52 146.773333zM491.52 150.186667v0zM460.8 116.053333s3.413333 0 3.413333 3.413334c0-3.413333 0-3.413333-3.413333-3.413334zM453.973333 112.64c3.413333 0 3.413333 3.413333 6.826667 3.413333 0-3.413333-3.413333-3.413333-6.826667-3.413333zM464.213333 116.053333l3.413334 3.413334s0-3.413333-3.413334-3.413334zM477.866667 126.293333zM474.453333 122.88l3.413334 3.413333-3.413334-3.413333zM471.04 119.466667zM484.693333 136.533333s0 3.413333 3.413334 3.413334l-3.413334-3.413334zM491.52 153.6zM539.306667 184.32c-3.413333 0-20.48 0-40.96 3.413333h17.066666c10.24-3.413333 20.48-3.413333 23.893334-3.413333zM679.253333 320.853333c3.413333 0 6.826667 0 10.24 3.413334-3.413333-3.413333-6.826667-3.413333-10.24-3.413334zM494.933333 187.733333zM494.933333 163.84zM494.933333 163.84v0zM491.52 157.013333v6.826667c3.413333-3.413333 0-6.826667 0-6.826667zM494.933333 174.08V170.666667v3.413333zM440.32 105.813333zM494.933333 170.666667zM785.066667 406.186667v3.413333c-3.413333 0 0 0 0-3.413333zM771.413333 443.733333zM788.48 385.706667zM788.48 389.12c0 6.826667-3.413333 13.653333-3.413333 20.48 0-10.24 3.413333-13.653333 3.413333-20.48zM440.32 37.546667c0 3.413333 3.413333 3.413333 0 0 3.413333 3.413333 0 3.413333 0 0zM781.653333 413.013333c0 3.413333-3.413333 10.24-3.413333 13.653334 0-6.826667 3.413333-10.24 3.413333-13.653334zM440.32 37.546667c-3.413333-6.826667-6.826667-10.24-10.24-13.653334 6.826667 3.413333 10.24 10.24 10.24 13.653334zM440.32 102.4zM788.48 375.466667v-10.24c3.413333 3.413333 3.413333 6.826667 0 10.24zM791.893333 365.226667v-6.826667 6.826667zM788.48 375.466667v0zM791.893333 337.92v0zM764.586667 457.386667c-3.413333 3.413333-3.413333 6.826667-6.826667 10.24 0-3.413333 3.413333-6.826667 6.826667-10.24zM754.346667 477.866667l-3.413334 3.413333 3.413334-3.413333zM750.933333 477.866667c0-3.413333 3.413333-3.413333 6.826667-6.826667-3.413333 0-3.413333 3.413333-6.826667 6.826667zM754.346667 477.866667c6.826667-3.413333 13.653333-6.826667 20.48-6.826667-6.826667 0-13.653333 3.413333-20.48 6.826667zM774.826667 471.04zM768 447.146667c-3.413333 3.413333-3.413333 6.826667-6.826667 10.24 3.413333-3.413333 6.826667-6.826667 6.826667-10.24zM703.146667 327.68s-3.413333 0-3.413334-3.413333c0 3.413333 0 3.413333 3.413334 3.413333zM440.32 102.4v3.413333c-3.413333 0-6.826667-3.413333-13.653333-3.413333 3.413333 0 10.24 0 13.653333 3.413333V102.4zM440.32 105.813333c3.413333 0 6.826667 3.413333 10.24 3.413334-3.413333 0-6.826667 0-10.24-3.413334zM757.76 467.626667zM764.586667 457.386667zM744.106667 488.106667c3.413333-3.413333 6.826667-6.826667 6.826666-10.24-3.413333 3.413333-6.826667 6.826667-6.826666 10.24zM750.933333 477.866667zM750.933333 477.866667zM778.24 426.666667c-3.413333 6.826667-3.413333 10.24-6.826667 13.653333 3.413333-3.413333 3.413333-6.826667 6.826667-13.653333z" fill="#FFFFFF" p-id="15879"></path><path d="M337.92 505.173333c-3.413333 0-10.24-3.413333-10.24-3.413333-3.413333-3.413333-58.026667-58.026667-58.026667-163.84 0-71.68 47.786667-122.88 136.533334-150.186667 40.96-13.653333 85.333333-20.48 129.706666-20.48 44.373333 0 88.746667 6.826667 129.706667 20.48 88.746667 27.306667 136.533333 78.506667 136.533333 150.186667 0 105.813333-54.613333 160.426667-54.613333 163.84-6.826667 6.826667-13.653333 6.826667-20.48 3.413333-6.826667-3.413333-10.24-10.24-6.826667-17.066666 0 0 17.066667-78.506667-13.653333-122.88-10.24-13.653333-23.893333-23.893333-40.96-27.306667-44.373333-6.826667-88.746667-13.653333-133.12-17.066667-44.373333 3.413333-88.746667 6.826667-133.12 17.066667-17.066667 3.413333-30.72 10.24-40.96 27.306667-23.893333 34.133333-17.066667 98.986667-13.653333 122.88 0 3.413333 0 10.24-3.413334 13.653333 6.826667 0 3.413333 3.413333-3.413333 3.413333z m201.386667-218.453333c47.786667 3.413333 92.16 6.826667 136.533333 17.066667 27.306667 3.413333 47.786667 17.066667 64.853333 40.96 13.653333 20.48 20.48 47.786667 20.48 71.68 6.826667-23.893333 13.653333-51.2 13.653334-78.506667C774.826667 204.8 542.72 204.8 539.306667 204.8c-3.413333 0-235.52 3.413333-235.52 133.12 0 27.306667 3.413333 54.613333 13.653333 78.506667 0-23.893333 10.24-51.2 20.48-71.68 17.066667-23.893333 37.546667-37.546667 64.853333-40.96 44.373333-10.24 92.16-13.653333 136.533334-17.066667z" fill="#428DFF" p-id="15880"></path><path d="M303.786667 481.28c3.413333 3.413333 3.413333 3.413333 6.826666 3.413333-3.413333 3.413333-3.413333 6.826667-3.413333 10.24 0 6.826667-3.413333 17.066667 0 23.893334 0 17.066667 3.413333 34.133333 6.826667 51.2s10.24 30.72 20.48 44.373333c3.413333 6.826667 10.24 10.24 13.653333 17.066667 3.413333 0 3.413333 3.413333 6.826667 3.413333l6.826666 3.413333v6.826667l3.413334 10.24v6.826667c6.826667 23.893333 13.653333 44.373333 27.306666 64.853333 6.826667 10.24 10.24 20.48 17.066667 30.72l20.48 20.48-13.653333 30.72c-13.653333-6.826667-23.893333-17.066667-30.72-30.72-6.826667-10.24-13.653333-20.48-20.48-34.133333-10.24-23.893333-20.48-47.786667-27.306667-71.68 0-3.413333 0-3.413333-3.413333-6.826667v-3.413333l-3.413334-3.413334c-6.826667-6.826667-17.066667-13.653333-20.48-23.893333-10.24-17.066667-20.48-34.133333-23.893333-54.613333-10.24-20.48-13.653333-40.96-13.653333-61.44 0-10.24 0-20.48 3.413333-30.72 0-6.826667 3.413333-13.653333 6.826667-17.066667 0-3.413333 3.413333-3.413333 3.413333-3.413333 0-3.413333 3.413333-3.413333 3.413333-6.826667 3.413333-3.413333 10.24-6.826667 17.066667-6.826667v27.306667z" fill="#FFFFFF" p-id="15881"></path><path d="M290.133333 549.546667c10.24-3.413333 17.066667-10.24 17.066667-20.48v-30.72c0-3.413333 0-6.826667 3.413333-13.653334-3.413333-3.413333-3.413333-6.826667-3.413333-3.413333v-27.306667c-6.826667 0-13.653333 3.413333-20.48 10.24-3.413333 3.413333-6.826667 6.826667-6.826667 13.653334-3.413333 3.413333-6.826667 10.24-6.826666 17.066666v37.546667c0 3.413333 3.413333 10.24 6.826666 10.24 3.413333 6.826667 6.826667 6.826667 10.24 6.826667zM416.426667 805.546667l13.653333-30.72-20.48-20.48c-6.826667-10.24-13.653333-20.48-17.066667-30.72-10.24-20.48-20.48-44.373333-27.306666-64.853334 0-3.413333 0-6.826667-3.413334-6.826666v-6.826667c0-3.413333 0-6.826667-3.413333-6.826667-3.413333-3.413333-6.826667-3.413333-10.24-6.826666H341.333333c-3.413333 0-6.826667 3.413333-10.24 6.826666-3.413333 3.413333-3.413333 6.826667-3.413333 13.653334 0 3.413333 0 3.413333 3.413333 6.826666 0 3.413333 0 6.826667 3.413334 6.826667 6.826667 23.893333 17.066667 47.786667 27.306666 71.68 6.826667 10.24 13.653333 23.893333 20.48 34.133333 10.24 17.066667 20.48 27.306667 34.133334 34.133334zM320.853333 590.506667c0-3.413333-3.413333-6.826667-6.826666-10.24H307.2h-3.413333-3.413334c-3.413333 0-6.826667 3.413333-10.24 6.826666v6.826667c0 6.826667 3.413333 13.653333 10.24 17.066667H307.2c3.413333 0 3.413333 0 6.826667-3.413334s6.826667-6.826667 6.826666-10.24v-6.826666z" fill="#428DFF" p-id="15882"></path><path d="M539.306667 856.746667c-40.96 0-78.506667-13.653333-109.226667-40.96-3.413333-3.413333-10.24-6.826667-13.653333-10.24-6.826667-3.413333-10.24-13.653333-6.826667-23.893334 3.413333-6.826667 13.653333-10.24 23.893333-6.826666 6.826667 3.413333 13.653333 10.24 20.48 13.653333 51.2 47.786667 129.706667 47.786667 177.493334 0 6.826667-6.826667 13.653333-10.24 20.48-13.653333 17.066667-10.24 51.2-61.44 68.266666-129.706667 0-3.413333 3.413333-10.24 6.826667-10.24 20.48-10.24 37.546667-40.96 44.373333-78.506667 6.826667-20.48 6.826667-44.373333 0-64.853333-3.413333 0-6.826667 3.413333-10.24 6.826667 0 0-3.413333 3.413333-6.826666 3.413333l-3.413334 3.413333c-6.826667 6.826667-13.653333 6.826667-20.48 3.413334-6.826667-3.413333-10.24-10.24-6.826666-17.066667 0 0 17.066667-78.506667-13.653334-122.88-10.24-13.653333-23.893333-23.893333-40.96-27.306667-44.373333-6.826667-88.746667-13.653333-133.12-17.066666-44.373333 3.413333-88.746667 6.826667-133.12 17.066666-17.066667 3.413333-30.72 10.24-40.96 27.306667-23.893333 34.133333-17.066667 98.986667-13.653333 122.88 0 6.826667-3.413333 13.653333-6.826667 17.066667-6.826667 3.413333-13.653333 3.413333-20.48-3.413334l-3.413333-3.413333c-3.413333 0-3.413333-3.413333-6.826667-3.413333-3.413333-3.413333-10.24-6.826667-13.653333-6.826667-10.24 0-17.066667-6.826667-17.066667-17.066667s6.826667-17.066667 17.066667-17.066666h13.653333c-3.413333-30.72 0-78.506667 20.48-112.64 23.893333-23.893333 44.373333-37.546667 71.68-40.96 44.373333-10.24 92.16-13.653333 136.533334-17.066667 47.786667 3.413333 92.16 6.826667 136.533333 17.066667 27.306667 3.413333 47.786667 17.066667 64.853333 40.96 23.893333 34.133333 23.893333 81.92 20.48 112.64h13.653334c6.826667 0 23.893333 3.413333 30.72 30.72 10.24 44.373333-6.826667 139.946667-54.613334 177.493333-17.066667 68.266667-54.613333 129.706667-85.333333 146.773333-6.826667 3.413333-10.24 6.826667-13.653333 10.24-30.72 20.48-71.68 34.133333-112.64 34.133334zM331.093333 262.826667c-6.826667 0-10.24-3.413333-13.653333-6.826667-30.72-34.133333-37.546667-81.92-20.48-122.88 10.24-17.066667 30.72-51.2 92.16-51.2 51.2 0 85.333333 10.24 105.813333 34.133333 17.066667 20.48 20.48 47.786667 13.653334 71.68 0 6.826667-6.826667 13.653333-13.653334 13.653334-37.546667 3.413333-109.226667 17.066667-153.6 54.613333-3.413333 6.826667-6.826667 6.826667-10.24 6.826667z m58.026667-143.36c-30.72 0-54.613333 10.24-61.44 30.72-10.24 23.893333-6.826667 51.2 6.826667 71.68 44.373333-27.306667 92.16-44.373333 143.36-47.786667 0-10.24 0-23.893333-10.24-34.133333-13.653333-13.653333-40.96-20.48-78.506667-20.48z" fill="#428DFF" p-id="15883"></path><path d="M303.786667 197.973333c-3.413333 0-6.826667 0-6.826667-3.413333-47.786667-27.306667-75.093333-68.266667-75.093333-109.226667 0-20.48 6.826667-37.546667 20.48-51.2 27.306667-23.893333 71.68-23.893333 102.4-20.48 13.653333 0 27.306667 0 37.546666-6.826666 10.24-3.413333 17.066667-6.826667 23.893334-6.826667 17.066667 0 34.133333 6.826667 44.373333 20.48 13.653333 17.066667 17.066667 47.786667 6.826667 92.16 0 3.413333-3.413333 6.826667-6.826667 10.24-3.413333 3.413333-10.24 3.413333-13.653333 3.413333-17.066667-3.413333-30.72-6.826667-47.786667-3.413333-20.48 0-37.546667 3.413333-54.613333 17.066667-10.24 6.826667-13.653333 23.893333-13.653334 37.546666 0 3.413333 0 10.24-3.413333 13.653334-3.413333 3.413333-6.826667 6.826667-13.653333 6.826666z m13.653333-153.6c-17.066667 0-37.546667 3.413333-51.2 13.653334-10.24 6.826667-13.653333 17.066667-10.24 27.306666 0 27.306667 13.653333 51.2 37.546667 64.853334 0-13.653333 6.826667-27.306667 17.066666-37.546667 20.48-20.48 47.786667-30.72 78.506667-27.306667 13.653333 0 27.306667 0 37.546667 3.413334 3.413333-30.72 0-40.96-3.413334-47.786667-3.413333-6.826667-10.24-6.826667-17.066666-6.826667-3.413333 0-3.413333 0-6.826667 3.413334-17.066667 6.826667-37.546667 10.24-58.026667 10.24-6.826667-3.413333-17.066667-3.413333-23.893333-3.413334zM539.306667 1010.346667c-34.133333 0-64.853333-17.066667-78.506667-47.786667-17.066667-40.96-6.826667-92.16 30.72-133.12 3.413333-3.413333 10.24-6.826667 17.066667-3.413333 10.24 3.413333 20.48 3.413333 30.72 3.413333 34.133333 0 64.853333-13.653333 88.746666-34.133333 6.826667-6.826667 13.653333-10.24 20.48-13.653334 13.653333-6.826667 34.133333-37.546667 54.613334-81.92 0-3.413333 3.413333-6.826667 10.24-10.24 3.413333-3.413333 10.24 0 13.653333 0 30.72 13.653333 81.92 51.2 81.92 139.946667 0 116.053333-133.12 180.906667-269.653333 180.906667z m-27.306667-153.6c-23.893333 30.72-30.72 64.853333-20.48 92.16 6.826667 17.066667 27.306667 30.72 47.786667 27.306666 95.573333 0 235.52-40.96 235.52-150.186666 3.413333-40.96-17.066667-78.506667-47.786667-102.4-17.066667 34.133333-37.546667 71.68-61.44 81.92-6.826667 3.413333-10.24 6.826667-13.653333 10.24-30.72 27.306667-68.266667 40.96-109.226667 40.96H512z" fill="#428DFF" p-id="15884"></path><path d="M539.306667 1010.346667c-133.12 0-269.653333-64.853333-269.653334-184.32 0-88.746667 51.2-126.293333 81.92-139.946667 3.413333-3.413333 10.24-3.413333 13.653334 0l10.24 10.24c3.413333 6.826667 3.413333 10.24 6.826666 17.066667 6.826667 17.066667 17.066667 30.72 27.306667 47.786666 0 3.413333 3.413333 3.413333 3.413333 6.826667l10.24 10.24c3.413333 0 3.413333 3.413333 6.826667 3.413333 6.826667 3.413333 10.24 6.826667 17.066667 10.24l3.413333 3.413334c17.066667 13.653333 37.546667 23.893333 58.026667 30.72 6.826667 0 10.24 6.826667 13.653333 10.24 3.413333 6.826667 0 10.24-3.413333 17.066666-27.306667 30.72-37.546667 68.266667-23.893334 98.986667 6.826667 17.066667 27.306667 30.72 47.786667 27.306667 10.24 0 17.066667 6.826667 17.066667 17.066666-3.413333 6.826667-10.24 13.653333-20.48 13.653334z m-187.733334-286.72c-34.133333 23.893333-51.2 61.44-47.786666 102.4 0 85.333333 81.92 126.293333 160.426666 143.36 0-3.413333-3.413333-3.413333-3.413333-6.826667-13.653333-37.546667-6.826667-81.92 17.066667-116.053333-17.066667-6.826667-34.133333-17.066667-47.786667-30.72l-3.413333-3.413334c-3.413333-3.413333-6.826667-6.826667-10.24-6.826666-3.413333-3.413333-10.24-6.826667-13.653334-10.24l-13.653333-13.653334c-3.413333-3.413333-3.413333-6.826667-6.826667-6.826666l-30.72-51.2z" fill="#428DFF" p-id="15885"></path><path d="M508.586667 1003.52c-6.826667 0-10.24-3.413333-13.653334-6.826667-3.413333-3.413333-3.413333-10.24 0-17.066666 20.48-40.96 75.093333-68.266667 157.013334-102.4 51.2-20.48 88.746667-71.68 102.4-136.533334 3.413333-10.24 10.24-13.653333 20.48-13.653333 10.24 3.413333 13.653333 10.24 13.653333 20.48-13.653333 75.093333-61.44 136.533333-122.88 160.426667-61.44 23.893333-122.88 51.2-139.946667 85.333333-3.413333 6.826667-10.24 10.24-17.066666 10.24zM471.04 931.84h-3.413333c-85.333333-23.893333-150.186667-95.573333-170.666667-180.906667 0-6.826667 0-13.653333 3.413333-17.066666 3.413333-3.413333 10.24-6.826667 17.066667-3.413334s10.24 6.826667 10.24 13.653334c17.066667 75.093333 75.093333 136.533333 146.773333 157.013333 6.826667 3.413333 13.653333 10.24 10.24 17.066667s-6.826667 13.653333-13.653333 13.653333z" fill="#428DFF" p-id="15886"></path><path d="M928.426667 1010.346667H539.306667c-10.24 0-17.066667-6.826667-17.066667-17.066667s6.826667-17.066667 17.066667-17.066667c85.333333 0 194.56-34.133333 225.28-105.813333 3.413333-6.826667 10.24-10.24 17.066666-10.24 143.36 17.066667 160.426667 129.706667 160.426667 129.706667 0 3.413333 0 10.24-3.413333 13.653333-3.413333 3.413333-6.826667 6.826667-10.24 6.826667z m-228.693334-34.133334h204.8c-10.24-23.893333-40.96-68.266667-112.64-78.506666-20.48 34.133333-54.613333 61.44-92.16 78.506666z" fill="#428DFF" p-id="15887"></path><path d="M539.306667 1010.346667H153.6c-3.413333 0-10.24-3.413333-13.653333-6.826667-3.413333-3.413333-3.413333-6.826667-3.413334-13.653333 0 0 17.066667-112.64 160.426667-129.706667 6.826667 0 13.653333 3.413333 17.066667 10.24 30.72 71.68 139.946667 105.813333 225.28 105.813333 10.24 0 17.066667 6.826667 17.066666 17.066667s-6.826667 17.066667-17.066666 17.066667z m-361.813334-34.133334h204.8c-37.546667-17.066667-71.68-44.373333-92.16-78.506666-75.093333 10.24-102.4 54.613333-112.64 78.506666zM440.32 774.826667c-3.413333 0-3.413333 0 0 0-6.826667 0-10.24-3.413333-13.653333-6.826667-3.413333-3.413333-3.413333-6.826667-3.413334-13.653333l10.24-51.2c6.826667-23.893333 23.893333-44.373333 51.2-51.2l20.48-3.413334c6.826667 0 13.653333 0 17.066667 3.413334s6.826667 10.24 3.413333 17.066666c0 6.826667-6.826667 10.24-13.653333 10.24l-20.48 3.413334c-13.653333 3.413333-23.893333 13.653333-23.893333 27.306666l-10.24 54.613334c-3.413333 3.413333-10.24 10.24-17.066667 10.24zM641.706667 774.826667c-6.826667 0-13.653333-6.826667-17.066667-13.653334l-10.24-54.613333c-3.413333-13.653333-13.653333-23.893333-23.893333-27.306667l-20.48-3.413333c-10.24-3.413333-13.653333-10.24-13.653334-20.48 3.413333-10.24 10.24-13.653333 20.48-13.653333l20.48 3.413333c23.893333 6.826667 44.373333 27.306667 51.2 51.2l10.24 51.2c0 3.413333 0 10.24-3.413333 13.653333-3.413333 10.24-6.826667 10.24-13.653333 13.653334 3.413333 0 0 0 0 0z" fill="#428DFF" p-id="15888"></path><path d="M539.306667 675.84c-30.72 0-51.2-6.826667-61.44-20.48-6.826667-10.24-6.826667-23.893333 0-37.546667 10.24-27.306667 20.48-54.613333 23.893333-81.92 3.413333-10.24 10.24-13.653333 20.48-13.653333 10.24 3.413333 13.653333 10.24 13.653333 20.48-6.826667 30.72-13.653333 61.44-27.306666 92.16v3.413333c10.24 3.413333 20.48 6.826667 30.72 3.413334 23.893333 0 30.72-3.413333 30.72-6.826667v-3.413333c-13.653333-30.72-20.48-61.44-27.306667-92.16 0-10.24 3.413333-17.066667 13.653333-20.48 10.24-3.413333 17.066667 3.413333 20.48 13.653333 3.413333 27.306667 13.653333 58.026667 23.893334 81.92 6.826667 10.24 6.826667 23.893333 0 37.546667-10.24 17.066667-27.306667 23.893333-61.44 23.893333zM607.573333 522.24c-6.826667 0-13.653333-3.413333-17.066666-10.24-3.413333-6.826667 0-13.653333 3.413333-17.066667 27.306667-23.893333 61.44-37.546667 95.573333-37.546666 10.24 0 17.066667 6.826667 17.066667 17.066666s-6.826667 17.066667-17.066667 17.066667c-27.306667 0-51.2 10.24-71.68 27.306667 0 0-6.826667 3.413333-10.24 3.413333zM573.44 471.04c-6.826667 0-10.24-3.413333-13.653333-10.24-3.413333-6.826667-3.413333-13.653333 0-17.066667 0-3.413333 40.96-58.026667 98.986666-58.026666 17.066667 0 34.133333 10.24 44.373334 20.48 6.826667 6.826667 6.826667 17.066667 0 23.893333-6.826667 6.826667-17.066667 6.826667-23.893334 0-6.826667-6.826667-13.653333-10.24-20.48-10.24-40.96 0-68.266667 40.96-71.68 44.373333-3.413333 3.413333-6.826667 6.826667-13.653333 6.826667z" fill="#428DFF" p-id="15889"></path><path d="M641.706667 546.133333c-6.826667 0-13.653333-6.826667-17.066667-13.653333-3.413333-6.826667 3.413333-17.066667 10.24-20.48l17.066667-6.826667c6.826667-3.413333 17.066667 0 23.893333 6.826667 3.413333 6.826667 0 17.066667-6.826667 23.893333l-20.48 10.24h-6.826666zM474.453333 522.24c-3.413333 0-10.24-3.413333-10.24-3.413333-20.48-17.066667-44.373333-27.306667-71.68-27.306667-10.24 0-17.066667-6.826667-17.066666-17.066667s6.826667-17.066667 17.066666-17.066666c34.133333 0 68.266667 13.653333 95.573334 37.546666 3.413333 3.413333 6.826667 13.653333 3.413333 17.066667-6.826667 6.826667-10.24 10.24-17.066667 10.24zM505.173333 471.04c-6.826667 0-10.24-3.413333-13.653333-6.826667 0 0-30.72-44.373333-71.68-44.373333-6.826667 0-17.066667 6.826667-20.48 10.24-6.826667 6.826667-17.066667 6.826667-23.893333 0-6.826667-6.826667-6.826667-17.066667 0-23.893333 13.653333-13.653333 27.306667-20.48 44.373333-20.48 58.026667 0 95.573333 54.613333 98.986667 58.026666 3.413333 6.826667 3.413333 10.24 0 17.066667 0 6.826667-6.826667 10.24-13.653334 10.24zM440.32 546.133333h-6.826667l-17.066666-6.826666c-6.826667-3.413333-10.24-13.653333-6.826667-23.893334s13.653333-10.24 23.893333-6.826666l17.066667 6.826666c6.826667 3.413333 10.24 10.24 10.24 20.48-6.826667 6.826667-13.653333 10.24-20.48 10.24zM573.44 740.693333h-68.266667c-10.24 0-17.066667-6.826667-17.066666-17.066666s6.826667-17.066667 17.066666-17.066667h68.266667c10.24 0 17.066667 6.826667 17.066667 17.066667s-6.826667 17.066667-17.066667 17.066666z" fill="#428DFF" p-id="15890"></path></svg>