<?xml version="1.0" standalone="no"?><!DOCTYPE svg PUBLIC "-//W3C//DTD SVG 1.1//EN" "http://www.w3.org/Graphics/SVG/1.1/DTD/svg11.dtd"><svg t="1726150732501" class="icon" viewBox="0 0 1024 1024" version="1.1" xmlns="http://www.w3.org/2000/svg" p-id="26963" xmlns:xlink="http://www.w3.org/1999/xlink" width="48" height="48"><path d="M512 89.6c-234.666667 0-422.4 187.733333-422.4 422.4 0 72.533333 38.4 106.666667 76.8 128 21.333333 12.8 42.666667 17.066667 68.266667 21.333333 29.866667 8.533333 64 17.066667 89.6 38.4 29.866667 25.6 38.4 72.533333 46.933333 106.666667 4.266667 12.8 4.266667 21.333333 8.533333 29.866667 12.8 46.933333 68.266667 98.133333 136.533334 98.133333 234.666667 0 422.4-187.733333 422.4-422.4s-192-422.4-426.666667-422.4z m0 780.8c-38.4 0-68.266667-29.866667-72.533333-51.2 0-8.533333-4.266667-17.066667-4.266667-25.6-8.533333-38.4-21.333333-98.133333-68.266667-140.8-34.133333-34.133333-81.066667-42.666667-115.2-51.2-21.333333-4.266667-38.4-8.533333-46.933333-17.066667-34.133333-21.333333-46.933333-38.4-46.933333-72.533333 0-196.266667 162.133333-358.4 358.4-358.4 196.266667 0 358.4 162.133333 358.4 358.4-4.266667 196.266667-166.4 358.4-362.666667 358.4z" fill="#333333" p-id="26964"></path><path d="M682.666667 426.666667c-29.866667-25.6-59.733333-46.933333-89.6-64-34.133333-21.333333-68.266667-34.133333-102.4-38.4-42.666667-4.266667-85.333333 17.066667-102.4 59.733333-12.8 29.866667-21.333333 68.266667-21.333334 110.933333 0 38.4 4.266667 76.8 12.8 115.2 8.533333 46.933333 51.2 76.8 93.866667 76.8 8.533333 0 12.8 0 21.333333-4.266666h4.266667c42.666667-12.8 76.8-25.6 106.666667-46.933334 29.866667-17.066667 55.466667-38.4 81.066666-68.266666 17.066667-17.066667 25.6-42.666667 25.6-68.266667 4.266667-29.866667-8.533333-51.2-29.866666-72.533333 0 4.266667 0 0 0 0z m-38.4 98.133333c-21.333333 21.333333-42.666667 42.666667-68.266667 55.466667-25.6 17.066667-55.466667 29.866667-93.866667 38.4-17.066667 4.266667-34.133333-8.533333-38.4-25.6-8.533333-34.133333-12.8-68.266667-12.8-98.133334 0-34.133333 4.266667-64 12.8-85.333333 4.266667-12.8 21.333333-21.333333 34.133334-21.333333 25.6 4.266667 51.2 12.8 76.8 29.866666 29.866667 17.066667 55.466667 38.4 81.066666 59.733334 8.533333 4.266667 8.533333 12.8 8.533334 21.333333s4.266667 17.066667 0 25.6z" fill="#333333" p-id="26965"></path></svg>