<?xml version="1.0" standalone="no"?><!DOCTYPE svg PUBLIC "-//W3C//DTD SVG 1.1//EN" "http://www.w3.org/Graphics/SVG/1.1/DTD/svg11.dtd"><svg t="1726150001088" class="icon" viewBox="0 0 1024 1024" version="1.1" xmlns="http://www.w3.org/2000/svg" p-id="20355" xmlns:xlink="http://www.w3.org/1999/xlink" width="48" height="48"><path d="M827.3 196c-40.7-40.9-89-73.5-142.1-96.1a447.594 447.594 0 0 0-347.5 0C230.7 145.7 145.5 231 99.9 338.1a441 441 0 0 0-35.3 173.6v22.8c0.8 25.1 10.5 49.2 27.3 67.9 16.1 18.5 37.7 31.4 61.7 36.9 57.6 9.6 110.7 37 151.9 78.4 41.3 40.4 68.8 92.8 78.7 149.7 11.4 51.7 56.2 89.1 109 91.2h18.3c59.7 0.2 118.8-11.8 173.6-35.3 165.7-69.6 273.5-231.9 273.3-411.6 0.2-59.6-11.8-118.7-35.1-173.6-22.5-53.1-55.1-101.4-96-142.1M591.5 386.6c34.4 19.6 65.8 44.2 93.2 72.8 13.7 13.6 21.1 32.2 20.6 51.4 0.6 19.2-6.9 37.7-20.6 51.2-27.4 28.9-58.8 53.8-93.2 74-34.8 20.6-72.5 35.7-111.9 44.7-18.6 4.7-38.3 1.8-54.7-8-16.6-9.8-28.9-25.7-34.2-44.2-10.7-45.6-16.1-85.1-16.1-118.6-0.6-40.1 4.9-80.2 16.3-118.7 5.5-17.9 17.8-33 34.2-42 16.4-9.9 35.9-12.9 54.5-8.5 39.2 10.1 76.8 25.6 111.9 45.9z m0 0" fill="#666666" p-id="20356"></path></svg>