<?xml version="1.0" standalone="no"?><!DOCTYPE svg PUBLIC "-//W3C//DTD SVG 1.1//EN" "http://www.w3.org/Graphics/SVG/1.1/DTD/svg11.dtd"><svg t="1727188287903" class="icon" viewBox="0 0 1024 1024" version="1.1" xmlns="http://www.w3.org/2000/svg" p-id="6181" xmlns:xlink="http://www.w3.org/1999/xlink" width="16" height="16"><path d="M1011.2 115.2l-494.933333 97.28v38.4l494.933333 65.706667M12.8 115.2l500.906667 97.28v38.4L12.8 316.586667M453.973333 294.4h119.466667v69.12h-119.466667z" fill="#D2F2FF" p-id="6182"></path><path d="M576 366.08H451.413333v-73.386667h124.586667v73.386667z m-119.466667-5.12H571.733333v-64.853333H456.533333v64.853333z" fill="#231815" p-id="6183"></path><path d="M488.96 107.52c0-14.506667 11.093333-26.453333 24.746667-26.453333 13.653333 0 24.746667 11.946667 24.746666 26.453333" fill="#B81C22" p-id="6184"></path><path d="M541.866667 107.52h-6.826667c0-12.8-9.386667-23.04-21.333333-23.04s-21.333333 10.24-21.333334 23.04h-6.826666c0-16.213333 12.8-29.866667 28.16-29.866667s28.16 13.653333 28.16 29.866667z" fill="#231815" p-id="6185"></path><path d="M454.826667 170.666667c0-16.213333 12.8-29.013333 26.453333-38.4h64c14.506667 9.386667 26.453333 22.186667 26.453333 38.4" fill="#B81C22" p-id="6186"></path><path d="M575.146667 170.666667h-6.826667c0-12.8-7.68-24.746667-23.893333-34.986667h-62.293334c-16.213333 11.093333-23.893333 23.04-23.893333 34.986667h-6.826667c0-14.506667 9.386667-28.16 28.16-40.96l0.853334-0.853334h66.56l0.853333 0.853334c17.92 11.093333 27.306667 25.6 27.306667 40.96z" fill="#231815" p-id="6187"></path><path d="M482.133333 107.52H546.133333v24.746667h-64z" fill="#B81C22" p-id="6188"></path><path d="M549.546667 135.68h-70.826667v-31.573333h70.826667v31.573333z m-64-6.826667h57.173333V110.933333h-57.173333v17.92z" fill="#231815" p-id="6189"></path><path d="M445.44 170.666667h137.386667v9.386666H445.44z" fill="#B81C22" p-id="6190"></path><path d="M586.24 183.466667H442.026667v-16.213334h144.213333v16.213334z m-137.386667-5.12h130.56v-5.973334H448.853333v5.973334z" fill="#231815" p-id="6191"></path><path d="M445.44 285.013333h137.386667v9.386667H445.44z" fill="#FFFFFF" p-id="6192"></path><path d="M586.24 297.813333H442.026667V281.6h144.213333v16.213333z m-137.386667-6.826666h130.56v-2.56H448.853333v2.56zM510.293333 6.826667h6.826667v74.24h-6.826667z" fill="#231815" p-id="6193"></path><path d="M449.706667 181.76h6.826666v103.253333h-6.826666zM480.426667 181.76h6.826666v103.253333h-6.826666zM510.293333 181.76h6.826667v103.253333h-6.826667zM540.16 181.76h6.826667v103.253333h-6.826667zM570.88 181.76h6.826667v103.253333h-6.826667z" fill="#231815" p-id="6194"></path><path d="M454.826667 206.506667h117.76v6.826666H454.826667zM454.826667 258.56h117.76v6.826667H454.826667z" fill="#231815" p-id="6195"></path><path d="M417.28 418.986667v-55.466667h192.853333v55.466667" fill="#D2F2FF" p-id="6196"></path><path d="M612.693333 418.986667h-5.12v-52.906667h-187.733333v52.906667h-5.12v-58.026667h197.973333z" fill="#231815" p-id="6197"></path><path d="M419.84 334.506667h6.826667v29.013333h-6.826667zM493.226667 334.506667h5.12v29.013333h-5.12zM529.066667 334.506667h5.12v29.013333H529.066667zM600.746667 334.506667h6.826666v29.013333h-6.826666z" fill="#231815" p-id="6198"></path><path d="M419.84 331.946667h187.733333v5.12h-187.733333zM419.84 342.186667h187.733333v5.12h-187.733333zM419.84 351.573333h187.733333v5.12h-187.733333z" fill="#231815" p-id="6199"></path><path d="M394.24 495.786667h238.933333v56.32h-238.933333z" fill="#D2F2FF" p-id="6200"></path><path d="M390.826667 495.786667h6.826666v56.32h-6.826666zM629.76 495.786667h6.826667v56.32h-6.826667zM438.613333 495.786667h6.826667v56.32h-6.826667zM486.4 495.786667h6.826667v56.32H486.4zM534.186667 495.786667h6.826666v56.32h-6.826666zM581.973333 495.786667h6.826667v56.32h-6.826667z" fill="#231815" p-id="6201"></path><path d="M394.24 520.533333h238.933333v6.826667h-238.933333z" fill="#231815" p-id="6202"></path><path d="M647.68 1013.76H380.586667L410.453333 605.866667h206.506667z" fill="#D2F2FF" p-id="6203"></path><path d="M650.24 1017.173333H378.026667l29.866666-412.16h210.773334l31.573333 412.16z m-267.093333-5.973333h261.973333l-29.866667-402.773333H412.16l-29.013333 402.773333z" fill="#231815" p-id="6204"></path><path d="M333.653333 552.96h360.106667V605.866667H333.653333z" fill="#D2F2FF" p-id="6205"></path><path d="M696.32 607.573333H331.093333v-57.173333h365.226667v57.173333z m-360.106667-4.266666h355.84V554.666667H336.213333v48.64z" fill="#231815" p-id="6206"></path><path d="M511.146667 605.866667h5.973333v240.64h-5.973333zM589.653333 937.813333L571.733333 605.866667h5.12l17.92 331.946666zM383.146667 418.133333v81.066667h261.12V418.133333H383.146667z m254.293333 74.24h-247.466667v-68.266666h247.466667v68.266666z" fill="#231815" p-id="6207"></path></svg>