<?xml version="1.0" standalone="no"?><!DOCTYPE svg PUBLIC "-//W3C//DTD SVG 1.1//EN" "http://www.w3.org/Graphics/SVG/1.1/DTD/svg11.dtd"><svg t="1726150085311" class="icon" viewBox="0 0 1024 1024" version="1.1" xmlns="http://www.w3.org/2000/svg" p-id="25527" xmlns:xlink="http://www.w3.org/1999/xlink" width="48" height="48"><path d="M512 1024C229.248 1024 0 794.752 0 512S229.248 0 512 0s512 229.205333 512 512c0 282.752-229.248 512-512 512z m0-981.333333C252.8 42.666667 42.666667 252.8 42.666667 512s210.133333 469.333333 469.333333 469.333333 469.333333-210.133333 469.333333-469.333333S771.2 42.666667 512 42.666667z m49.152 246.954666H810.666667V741.973333h-102.314667l-81.194667 54.442667-19.2-54.442667h-46.805333V289.621333z m201.301333 403.669334V340.096h-151.765333v353.194667h16.597333l15.658667 44.501333 66.346667-44.501333h53.162666z m-356.608-146.346667l-0.128 1.706667c-1.706667 23.893333-7.338667 51.328-15.146666 79.061333v-0.128l28.074666-21.077333 82.901334 94.293333c10.794667 38.528-3.84 73.6-3.84 73.6l-111.872-130.688 0.042666-0.128c-11.050667 35.754667-25.173333 70.997333-38.869333 98.816-26.325333 53.461333-64.341333 64-104.490667 67.498667-40.106667 3.498667-27.178667-6.144-27.178666-6.144 79.402667-64.853333 91.093333-102.570667 113.066666-143.786667 13.909333-25.984 23.893333-75.008 29.525334-113.066667h-135.68s5.589333-36.352 22.442666-48.64h118.698667c0.725333-17.92-1.536-120.064-2.346667-153.386666H303.402667c-10.794667 52.565333-47.914667 66.133333-56.149334 70.101333-8.192 3.968-27.605333 8.32-24.576 0 2.986667-8.32 31.488-53.888 50.517334-129.28C292.181333 210.304 347.861333 213.333333 347.861333 213.333333c-14.933333 26.325333-26.197333 85.930667-26.197333 85.930667h186.496c11.818667 0 12.373333 45.610667 12.373333 45.610667H414.464c-0.853333 26.453333-3.242667 97.792-5.888 153.386666h111.530667s14.250667 17.962667 14.250666 48.64H405.845333z" fill="#7D7D7D" p-id="25528"></path></svg>