<?xml version="1.0" encoding="UTF-8" standalone="no"?>
<!DOCTYPE svg PUBLIC "-//W3C//DTD SVG 1.1//EN" "http://www.w3.org/Graphics/SVG/1.1/DTD/svg11.dtd">
<!-- 由 Microsoft Visio, SVG Export 生成 TimingSequenceChartinConnMasterRole.svg 页-1 -->
<svg xmlns="http://www.w3.org/2000/svg" xmlns:xlink="http://www.w3.org/1999/xlink" xmlns:ev="http://www.w3.org/2001/xml-events"
		xmlns:v="http://schemas.microsoft.com/visio/2003/SVGExtensions/" width="12.1718in" height="3.12357in"
		viewBox="0 0 876.369 224.897" xml:space="preserve" color-interpolation-filters="sRGB" class="st7">
	<v:documentProperties v:langID="2052" v:metric="true" v:viewMarkup="false">
		<v:userDefs>
			<v:ud v:nameU="msvConvertTheme"/>
		</v:userDefs>
	</v:documentProperties>

	<style type="text/css">
	<![CDATA[
		.st1 {stroke:#000000;stroke-linecap:round;stroke-linejoin:round;stroke-width:0.24}
		.st2 {fill:none;stroke:none;stroke-linecap:round;stroke-linejoin:round;stroke-width:0.72}
		.st3 {fill:#000000;font-family:Maven Pro;font-size:1.5em}
		.st4 {marker-end:url(#mrkr13-42);stroke:#000000;stroke-linecap:round;stroke-linejoin:round;stroke-width:0.24}
		.st5 {fill:#000000;fill-opacity:1;stroke:#000000;stroke-opacity:1;stroke-width:0.08695652173913}
		.st6 {font-size:1em}
		.st7 {fill:none;fill-rule:evenodd;font-size:12px;overflow:visible;stroke-linecap:square;stroke-miterlimit:3}
	]]>
	</style>

	<defs id="Markers">
		<g id="lend13">
			<path d="M 3 1 L 0 0 L 3 -1 L 3 1 " style="stroke:none"/>
		</g>
		<marker id="mrkr13-42" class="st5" v:arrowType="13" v:arrowSize="2" v:setback="34.5" refX="-34.5" orient="auto"
				markerUnits="strokeWidth" overflow="visible">
			<use xlink:href="#lend13" transform="scale(-11.5,-11.5) "/>
		</marker>
	</defs>
	<g v:mID="0" v:index="1" v:groupContext="foregroundPage">
		<title>页-1</title>
		<v:pageProperties v:drawingScale="0.0393701" v:pageScale="0.0393701" v:drawingUnits="24" v:shadowOffsetX="8.50394"
				v:shadowOffsetY="-8.50394"/>
		<g id="shape1906-1" v:mID="1906" v:groupContext="shape" transform="translate(233.625,147.413) rotate(90)">
			<title>工作表.1906</title>
			<path d="M0 224.9 L8.5 224.9" class="st1"/>
		</g>
		<g id="shape1907-4" v:mID="1907" v:groupContext="shape" transform="translate(233.625,161.586) rotate(90)">
			<title>工作表.1907</title>
			<path d="M0 224.9 L7.44 224.9" class="st1"/>
		</g>
		<g id="shape1908-7" v:mID="1908" v:groupContext="shape" transform="translate(233.625,191.35) rotate(90)">
			<title>工作表.1908</title>
			<path d="M0 224.9 L5.67 224.9" class="st1"/>
		</g>
		<g id="shape1909-10" v:mID="1909" v:groupContext="shape" transform="translate(233.625,202.689) rotate(90)">
			<title>工作表.1909</title>
			<path d="M0 224.9 L5.67 224.9" class="st1"/>
		</g>
		<g id="shape1910-13" v:mID="1910" v:groupContext="shape" transform="translate(233.625,203.043) rotate(90)">
			<title>工作表.1910</title>
			<path d="M0 224.9 L6.73 224.9" class="st1"/>
		</g>
		<g id="shape1911-16" v:mID="1911" v:groupContext="shape" transform="translate(672.995,145.996) rotate(90)">
			<title>工作表.1911</title>
			<path d="M0 224.9 L7.44 224.9" class="st1"/>
		</g>
		<g id="shape1912-19" v:mID="1912" v:groupContext="shape" transform="translate(672.995,161.586) rotate(90)">
			<title>工作表.1912</title>
			<path d="M0 224.9 L12.61 224.9" class="st1"/>
		</g>
		<g id="shape1913-22" v:mID="1913" v:groupContext="shape" transform="translate(672.995,192.767) rotate(90)">
			<title>工作表.1913</title>
			<path d="M0 224.9 L6.38 224.9" class="st1"/>
		</g>
		<g id="shape1914-25" v:mID="1914" v:groupContext="shape" transform="translate(672.995,206.94) rotate(90)">
			<title>工作表.1914</title>
			<path d="M0 224.9 L6.38 224.9" class="st1"/>
		</g>
		<g id="shape1915-28" v:mID="1915" v:groupContext="shape" transform="translate(672.995,204.106) rotate(90)">
			<title>工作表.1915</title>
			<path d="M0 224.9 L7.8 224.9" class="st1"/>
		</g>
		<g id="shape1916-31" v:mID="1916" v:groupContext="shape" transform="translate(672.995,218.279) rotate(90)">
			<title>工作表.1916</title>
			<path d="M0 224.9 L6.38 224.9" class="st1"/>
		</g>
		<g id="shape1917-34" v:mID="1917" v:groupContext="shape" transform="translate(144.791,-4.49197)">
			<title>工作表.1917</title>
			<desc>Conn interval</desc>
			<v:textBlock v:margins="rect(2,2,2,2)" v:tabSpace="42.5197"/>
			<v:textRect cx="73.7008" cy="203.637" width="147.41" height="42.5197"/>
			<rect x="0" y="182.377" width="147.402" height="42.5197" class="st2"/>
			<text x="18.81" y="209.04" class="st3" v:langID="2052"><v:paragraph v:horizAlign="1"/><v:tabList/>Conn interval</text>		</g>
		<g id="shape1918-37" v:mID="1918" v:groupContext="shape" transform="translate(292.192,-26.1061)">
			<title>工作表.1918</title>
			<path d="M0 224.9 L143.37 224.9" class="st4"/>
		</g>
		<g id="shape1919-43" v:mID="1919" v:groupContext="shape" transform="translate(150.46,424.751) rotate(180)">
			<title>工作表.1919</title>
			<path d="M0 224.9 L129.2 224.9" class="st4"/>
		</g>
		<g id="shape1920-48" v:mID="1920" v:groupContext="shape" transform="translate(192.98,-80.4605)">
			<title>工作表.1920</title>
			<desc>UI task</desc>
			<v:textBlock v:margins="rect(2,2,2,2)" v:tabSpace="42.5197"/>
			<v:textRect cx="79.3701" cy="203.637" width="158.75" height="42.5197"/>
			<rect x="0" y="182.377" width="158.74" height="42.5197" class="st2"/>
			<text x="50.96" y="209.04" class="st3" v:langID="2052"><v:paragraph v:horizAlign="1"/><v:tabList/>UI task</text>		</g>
		<g id="shape1921-51" v:mID="1921" v:groupContext="shape" transform="translate(635.185,-79.8227)">
			<title>工作表.1921</title>
			<desc>UI task</desc>
			<v:textBlock v:margins="rect(2,2,2,2)" v:tabSpace="42.5197"/>
			<v:textRect cx="79.3701" cy="203.637" width="158.75" height="42.5197"/>
			<rect x="0" y="182.377" width="158.74" height="42.5197" class="st2"/>
			<text x="50.96" y="209.04" class="st3" v:langID="2052"><v:paragraph v:horizAlign="1"/><v:tabList/>UI task</text>		</g>
		<g id="shape1922-54" v:mID="1922" v:groupContext="shape" transform="translate(541.641,-83.862)">
			<title>工作表.1922</title>
			<path d="M5.67 190.17 L0 190.17 L0 224.9" class="st1"/>
		</g>
		<g id="shape1923-57" v:mID="1923" v:groupContext="shape" transform="translate(448.098,-83.862)">
			<title>工作表.1923</title>
			<path d="M93.54 224.9 L17.01 224.9 L17.01 190.88 L0 190.88 L0 224.9" class="st1"/>
		</g>
		<g id="shape1924-60" v:mID="1924" v:groupContext="shape" transform="translate(448.098,364.515) rotate(180)">
			<title>工作表.1924</title>
			<path d="M0 224.9 L334.49 224.9" class="st1"/>
		</g>
		<g id="shape1925-63" v:mID="1925" v:groupContext="shape" transform="translate(112.192,-85.2794)">
			<title>工作表.1925</title>
			<path d="M1.42 224.9 L1.42 190.88 L0 190.88" class="st1"/>
		</g>
		<g id="shape1926-66" v:mID="1926" v:groupContext="shape" transform="translate(8.72789,-85.2794)">
			<title>工作表.1926</title>
			<path d="M96.38 190.88 L94.11 190.88 L94.11 224.9 L19.84 224.9 L19.84 189.46 L0 189.46 L0 224.9" class="st1"/>
		</g>
		<g id="shape1927-69" v:mID="1927" v:groupContext="shape" transform="translate(338.507,144.295) rotate(90)">
			<title>工作表.1927</title>
			<path d="M0 224.9 L7.44 224.9" class="st1"/>
		</g>
		<g id="shape1928-72" v:mID="1928" v:groupContext="shape" transform="translate(338.507,159.885) rotate(90)">
			<title>工作表.1928</title>
			<path d="M0 224.9 L8.5 224.9" class="st1"/>
		</g>
		<g id="shape1929-75" v:mID="1929" v:groupContext="shape" transform="translate(338.507,174.059) rotate(90)">
			<title>工作表.1929</title>
			<path d="M0 224.9 L6.38 224.9" class="st1"/>
		</g>
		<g id="shape1930-78" v:mID="1930" v:groupContext="shape" transform="translate(550.145,-83.5786)">
			<title>工作表.1930</title>
			<path d="M0 189.89 L0 224.9 L297.64 224.9" class="st1"/>
		</g>
		<g id="shape1931-81" v:mID="1931" v:groupContext="shape" transform="translate(547.311,-118.586)">
			<title>工作表.1931</title>
			<path d="M0 224.9 L2.83 224.9" class="st1"/>
		</g>
		<g id="shape1932-84" v:mID="1932" v:groupContext="shape" transform="translate(26.8696,-81.0274)">
			<title>工作表.1932</title>
			<desc>UI task</desc>
			<v:textBlock v:margins="rect(2,2,2,2)" v:tabSpace="42.5197"/>
			<v:textRect cx="39.685" cy="203.637" width="79.38" height="42.5197"/>
			<rect x="0" y="182.377" width="79.3701" height="42.5197" class="st2"/>
			<text x="11.28" y="209.04" class="st3" v:langID="2052"><v:paragraph v:horizAlign="1"/><v:tabList/>UI task</text>		</g>
		<g id="shape1933-87" v:mID="1933" v:groupContext="shape" transform="translate(466.523,-79.6101)">
			<title>工作表.1933</title>
			<desc>UI task</desc>
			<v:textBlock v:margins="rect(2,2,2,2)" v:tabSpace="42.5197"/>
			<v:textRect cx="39.685" cy="203.637" width="79.38" height="42.5197"/>
			<rect x="0" y="182.377" width="79.3701" height="42.5197" class="st2"/>
			<text x="11.28" y="209.04" class="st3" v:langID="2052"><v:paragraph v:horizAlign="1"/><v:tabList/>UI task</text>		</g>
		<g id="shape1934-90" v:mID="1934" v:groupContext="shape" transform="translate(21.4838,-39.925)">
			<title>工作表.1934</title>
			<desc>btx event</desc>
			<v:textBlock v:margins="rect(2,2,2,2)" v:tabSpace="42.5197"/>
			<v:textRect cx="39.685" cy="203.637" width="79.38" height="42.5197"/>
			<rect x="0" y="182.377" width="79.3701" height="42.5197" class="st2"/>
			<text x="26.92" y="198.24" class="st3" v:langID="2052"><v:paragraph v:horizAlign="1"/><v:tabList/>btx <tspan x="16.71"
						dy="1.2em" class="st6">event</tspan></text>		</g>
		<g id="shape1935-94" v:mID="1935" v:groupContext="shape" transform="translate(39.909,390.026) rotate(180)">
			<title>工作表.1935</title>
			<path d="M0 224.9 L22.9 224.9" class="st4"/>
		</g>
		<g id="shape1936-99" v:mID="1936" v:groupContext="shape" transform="translate(84.7318,-59.7676)">
			<title>工作表.1936</title>
			<path d="M0 224.9 L20.6 224.9" class="st4"/>
		</g>
		<g id="shape1937-104" v:mID="1937" v:groupContext="shape" transform="translate(775.042,148.83) rotate(90)">
			<title>工作表.1937</title>
			<path d="M0 224.9 L7.44 224.9" class="st1"/>
		</g>
		<g id="shape1938-107" v:mID="1938" v:groupContext="shape" transform="translate(775.042,164.421) rotate(90)">
			<title>工作表.1938</title>
			<path d="M0 224.9 L8.5 224.9" class="st1"/>
		</g>
		<g id="shape1939-110" v:mID="1939" v:groupContext="shape" transform="translate(775.042,178.594) rotate(90)">
			<title>工作表.1939</title>
			<path d="M0 224.9 L6.38 224.9" class="st1"/>
		</g>
		<g id="shape1940-113" v:mID="1940" v:groupContext="shape" transform="translate(476.444,392.294) rotate(180)">
			<title>工作表.1940</title>
			<path d="M0 224.9 L18.65 224.9" class="st4"/>
		</g>
		<g id="shape1941-118" v:mID="1941" v:groupContext="shape" transform="translate(521.267,-57.4998)">
			<title>工作表.1941</title>
			<path d="M0 224.9 L20.6 224.9" class="st4"/>
		</g>
		<g id="shape1942-123" v:mID="1942" v:groupContext="shape" transform="translate(460.854,-35.6731)">
			<title>工作表.1942</title>
			<desc>btx event</desc>
			<v:textBlock v:margins="rect(2,2,2,2)" v:tabSpace="42.5197"/>
			<v:textRect cx="39.685" cy="203.637" width="79.38" height="42.5197"/>
			<rect x="0" y="182.377" width="79.3701" height="42.5197" class="st2"/>
			<text x="26.92" y="198.24" class="st3" v:langID="2052"><v:paragraph v:horizAlign="1"/><v:tabList/>btx <tspan x="16.71"
						dy="1.2em" class="st6">event</tspan></text>		</g>
		<g id="shape1943-127" v:mID="1943" v:groupContext="shape" transform="translate(105.106,-119.295)">
			<title>工作表.1943</title>
			<path d="M0 224.9 L7.09 224.9" class="st1"/>
		</g>
		<g id="shape1944-130" v:mID="1944" v:groupContext="shape" transform="translate(543.059,-153.311)">
			<title>工作表.1944</title>
			<desc>btx post</desc>
			<v:textBlock v:margins="rect(2,2,2,2)" v:tabSpace="42.5197"/>
			<v:textRect cx="26.9291" cy="189.464" width="53.86" height="70.8661"/>
			<rect x="0" y="154.031" width="53.8583" height="70.8661" class="st2"/>
			<text x="14.16" y="184.06" class="st3" v:langID="2052"><v:paragraph v:horizAlign="1"/><v:tabList/>btx <tspan x="9.83"
						dy="1.2em" class="st6">post</tspan></text>		</g>
		<g id="shape1945-134" v:mID="1945" v:groupContext="shape" transform="translate(409.83,-151.894)">
			<title>工作表.1945</title>
			<desc>btx start</desc>
			<v:textBlock v:margins="rect(2,2,2,2)" v:tabSpace="42.5197"/>
			<v:textRect cx="26.9291" cy="189.464" width="53.86" height="70.8661"/>
			<rect x="0" y="154.031" width="53.8583" height="70.8661" class="st2"/>
			<text x="14.16" y="184.06" class="st3" v:langID="2052"><v:paragraph v:horizAlign="1"/><v:tabList/>btx <tspan x="9"
						dy="1.2em" class="st6">start</tspan></text>		</g>
		<g id="shape1946-138" v:mID="1946" v:groupContext="shape" transform="translate(847.783,-83.5786)">
			<title>工作表.1946</title>
			<path d="M0 224.9 L5.67 224.9" class="st1"/>
		</g>
		<g id="shape1947-141" v:mID="1947" v:groupContext="shape" transform="translate(847.783,-83.5786)">
			<title>工作表.1947</title>
			<path d="M0 224.9 L28.35 224.9" class="st1"/>
		</g>
		<g id="shape1948-144" v:mID="1948" v:groupContext="shape" transform="translate(240.209,104.185) rotate(-90)">
			<title>工作表.1948</title>
			<path d="M0 224.9 L75.12 224.9" class="st1"/>
		</g>
		<g id="shape1949-147" v:mID="1949" v:groupContext="shape" transform="translate(316.744,102.484) rotate(-90)">
			<title>工作表.1949</title>
			<path d="M0 224.9 L74.83 224.9" class="st1"/>
		</g>
		<g id="shape1950-150" v:mID="1950" v:groupContext="shape" transform="translate(256.305,224.492) rotate(-122.106)">
			<title>工作表.1950</title>
			<path d="M0 224.9 L85.33 224.9" class="st1"/>
		</g>
		<g id="shape1951-153" v:mID="1951" v:groupContext="shape" transform="translate(366.592,-27.1821) rotate(-54.7029)">
			<title>工作表.1951</title>
			<path d="M0 224.9 L98.12 224.9" class="st1"/>
		</g>
		<g id="shape1952-156" v:mID="1952" v:groupContext="shape" transform="translate(316.744,33.3184) rotate(-90)">
			<title>工作表.1952</title>
			<path d="M0 224.9 L7.44 224.9" class="st1"/>
		</g>
		<g id="shape1953-159" v:mID="1953" v:groupContext="shape" transform="translate(240.209,33.3184) rotate(-90)">
			<title>工作表.1953</title>
			<path d="M0 224.9 L7.09 224.9" class="st1"/>
		</g>
		<g id="shape1954-162" v:mID="1954" v:groupContext="shape" transform="translate(214.099,157.228) rotate(-122.106)">
			<title>工作表.1954</title>
			<path d="M0 224.9 L16.83 224.9" class="st1"/>
		</g>
	</g>
</svg>
