<svg xmlns="http://www.w3.org/2000/svg" viewBox="0 0 190.63 162.1"><defs><style>.cls-1{fill:#e83828;}.cls-2{fill:none;stroke:#fff;stroke-linecap:round;stroke-linejoin:round;stroke-width:6px;}</style></defs><g id="图层_2" data-name="图层 2"><g id="图层_1-2" data-name="图层 1"><path class="cls-1" d="M95.32,16.35h0a55.85,55.85,0,0,0-79,0h0a55.85,55.85,0,0,0,0,79h0l58.18,58.17a29.39,29.39,0,0,0,41.57,0l58.18-58.17h0a55.83,55.83,0,0,0,0-79h0a55.84,55.84,0,0,0-79,0Z"/><polyline class="cls-2" points="48.44 90.67 20.21 62.45 57.77 24.89 95.32 62.45"/><polyline class="cls-2" points="149.58 83.29 170.42 62.45 132.87 24.89 95.32 62.45 132.87 100 95.32 137.55 61.96 104.19"/></g></g></svg>