<svg xmlns="http://www.w3.org/2000/svg" viewBox="0 0 199.99 170.06"><defs><style>.cls-1{fill:#e83828;}.cls-2{fill:none;stroke:#fff;stroke-linecap:round;stroke-linejoin:round;stroke-width:5px;}</style></defs><g id="图层_2" data-name="图层 2"><g id="图层_1-2" data-name="图层 1"><path class="cls-1" d="M100,17.16h0a58.56,58.56,0,0,0-82.83,0h0a58.56,58.56,0,0,0,0,82.83h0l61,61a30.84,30.84,0,0,0,43.61,0l61-61h0a58.56,58.56,0,0,0,0-82.83h0a58.57,58.57,0,0,0-82.84,0Z"/><path class="cls-2" d="M158.8,69.78c9.35-16.19,3-35.45-13.17-44.79h0A33.84,33.84,0,0,0,99.4,37.37h0A33.85,33.85,0,0,0,111.79,83.6l5.44,3.15c16.18,9.34,21.24,29.75,11.9,45.93h0A33.84,33.84,0,0,1,82.9,145.07h0c-18.28-11.93-19.08-21.42-28.83-42.91"/><path class="cls-2" d="M87.88,83.6h0a33.85,33.85,0,0,0,12.39-46.23h0A33.84,33.84,0,0,0,54,25h0c-16.18,9.34-22.1,29.74-12.75,45.93"/></g></g></svg>