<svg id="Layer_1" data-name="Layer 1" xmlns="http://www.w3.org/2000/svg" xmlns:xlink="http://www.w3.org/1999/xlink" viewBox="0 0 632.99 268.63"><defs><style>.cls-1{fill:none;}.cls-2{clip-path:url(#clip-path);}.cls-3{fill:#0a2d72;}.cls-4{fill:#fff;}</style><clipPath id="clip-path"><rect class="cls-1" x="21.41" y="21.44" width="225.74" height="225.74"/></clipPath></defs><title>TEL_Logo_Web&amp;amp;Small_blue</title><g class="cls-2"><polygon class="cls-3" points="142.28 295.63 125.38 -26.95 126.29 -27 143.2 295.58 142.28 295.63"/><polygon class="cls-3" points="141.81 296.15 141.78 295.65 124.85 -27.42 126.77 -27.52 126.79 -27.02 143.72 296.05 141.81 296.15"/><rect class="cls-3" x="133.83" y="-27.19" width="0.92" height="323.02" transform="translate(-19.36 22.66) rotate(-9)"/><polygon class="cls-3" points="158.68 294.48 158.6 293.99 108 -25.55 109.89 -25.85 160.58 294.18 158.68 294.48"/><polygon class="cls-3" points="175.64 290.44 92.04 -21.57 92.93 -21.81 176.53 290.2 175.64 290.44"/><polygon class="cls-3" points="175.29 291.05 175.16 290.57 91.43 -21.93 93.28 -22.42 93.41 -21.94 177.14 290.56 175.29 291.05"/><rect class="cls-3" x="-27.22" y="133.86" width="323.02" height="0.92" transform="translate(-6.89 7.26) rotate(-3.02)"/><polygon class="cls-3" points="-27.45 143.75 -27.55 141.84 -27.05 141.81 296.02 124.88 296.12 126.79 295.62 126.82 -27.45 143.75"/><rect class="cls-3" x="-27.22" y="133.86" width="323.02" height="0.92" transform="translate(-19.33 22.62) rotate(-8.98)"/><polygon class="cls-3" points="-25.58 160.61 -25.88 158.71 -25.38 158.63 294.15 108.02 294.45 109.92 293.96 110 -25.58 160.61"/><polygon class="cls-3" points="-21.6 176.56 -21.84 175.67 290.17 92.07 290.41 92.96 -21.6 176.56"/><polygon class="cls-3" points="-21.95 177.17 -22.45 175.32 -21.97 175.19 290.52 91.46 291.02 93.31 290.54 93.44 -21.95 177.17"/><polygon class="cls-3" points="290.17 176.56 -21.84 92.96 -21.6 92.07 290.41 175.67 290.17 176.56"/><polygon class="cls-3" points="290.53 177.17 290.04 177.04 -22.45 93.31 -21.95 91.46 -21.47 91.59 291.02 175.32 290.53 177.17"/><rect class="cls-3" x="133.83" y="-27.19" width="0.92" height="323.02" transform="translate(-19.38 245.94) rotate(-81)"/><polygon class="cls-3" points="294.15 160.61 293.66 160.53 -25.88 109.92 -25.58 108.02 -25.08 108.1 294.45 158.71 294.15 160.61"/><rect class="cls-3" x="133.83" y="-27.19" width="0.92" height="323.02" transform="translate(-6.87 261.39) rotate(-87)"/><polygon class="cls-3" points="296.02 143.75 295.52 143.72 -27.55 126.79 -27.45 124.88 -26.95 124.9 296.12 141.84 296.02 143.75"/><rect class="cls-3" x="133.83" y="-27.19" width="0.92" height="323.02" transform="translate(-39.21 57.05) rotate(-21)"/><polygon class="cls-3" points="191.45 285.91 191.27 285.44 75.33 -16.59 77.12 -17.28 77.3 -16.81 193.24 285.22 191.45 285.91"/><rect class="cls-3" x="-27.22" y="133.86" width="323.02" height="0.92" transform="translate(-39.22 57.05) rotate(-21)"/><polygon class="cls-3" points="-16.62 193.27 -17.3 191.48 -16.84 191.3 285.19 75.36 285.88 77.15 -16.62 193.27"/><rect class="cls-3" x="133.83" y="-27.19" width="0.92" height="323.01" transform="translate(-46.34 75.6) rotate(-27)"/><polygon class="cls-3" points="206.98 279.1 206.75 278.65 59.88 -9.6 61.59 -10.47 61.82 -10.02 208.69 278.23 206.98 279.1"/><rect class="cls-3" x="-27.22" y="133.86" width="323.02" height="0.92" transform="translate(-46.31 75.5) rotate(-26.97)"/><polygon class="cls-3" points="-9.63 208.72 -10.5 207.01 -10.05 206.78 278.2 59.91 279.07 61.62 278.63 61.85 -9.63 208.72"/><rect class="cls-3" x="133.83" y="-27.19" width="0.92" height="323.02" transform="translate(-51.49 94.81) rotate(-33)"/><polygon class="cls-3" points="221.72 270.71 221.45 270.29 45.25 -1.03 46.85 -2.08 47.13 -1.66 223.33 269.67 221.72 270.71"/><rect class="cls-3" x="-27.22" y="133.86" width="323.02" height="0.92" transform="translate(-51.47 94.73) rotate(-32.98)"/><polygon class="cls-3" points="-1.06 223.36 -2.11 221.75 -1.69 221.47 269.64 45.27 270.68 46.88 270.26 47.16 -1.06 223.36"/><rect class="cls-3" x="133.83" y="-27.19" width="0.92" height="323.01" transform="translate(-54.6 114.44) rotate(-39)"/><polygon class="cls-3" points="235.5 260.82 235.18 260.43 31.59 9.02 33.08 7.81 33.39 8.2 236.99 259.62 235.5 260.82"/><rect class="cls-3" x="-27.22" y="133.86" width="323.02" height="0.92" transform="translate(-54.59 114.36) rotate(-38.97)"/><polygon class="cls-3" points="8.99 237.01 7.78 235.52 8.17 235.21 259.59 31.61 260.79 33.11 260.4 33.42 8.99 237.01"/><rect class="cls-3" x="133.83" y="-27.19" width="0.92" height="323.02" transform="translate(-55.64 134.29) rotate(-45)"/><rect class="cls-3" x="133.33" y="-27.69" width="1.92" height="324.02" transform="translate(-55.64 134.29) rotate(-45)"/><rect class="cls-3" x="-27.22" y="133.86" width="323.02" height="0.92" transform="translate(-55.64 134.29) rotate(-45)"/><rect class="cls-3" x="-27.72" y="133.36" width="324.02" height="1.92" transform="translate(-55.64 134.29) rotate(-45)"/><rect class="cls-3" x="133.83" y="-27.19" width="0.92" height="323.02" transform="translate(-54.6 154.15) rotate(-51)"/><polygon class="cls-3" points="259.59 237.01 259.2 236.7 7.78 33.11 8.99 31.61 9.38 31.93 260.79 235.52 259.59 237.01"/><rect class="cls-3" x="133.83" y="-27.19" width="0.92" height="323.02" transform="translate(-51.5 173.78) rotate(-57)"/><polygon class="cls-3" points="269.64 223.36 269.22 223.08 -2.11 46.88 -1.06 45.27 -0.64 45.55 270.68 221.75 269.64 223.36"/><rect class="cls-3" x="133.83" y="-27.19" width="0.92" height="323.02" transform="translate(-46.35 192.99) rotate(-63)"/><polygon class="cls-3" points="278.2 208.72 277.76 208.49 -10.5 61.62 -9.63 59.91 -9.18 60.14 279.07 207.01 278.2 208.72"/><rect class="cls-3" x="133.83" y="-27.19" width="0.92" height="323.02" transform="translate(-39.23 211.55) rotate(-69)"/><polygon class="cls-3" points="285.19 193.27 284.73 193.09 -17.3 77.15 -16.62 75.36 285.88 191.48 285.19 193.27"/><rect class="cls-3" x="-27.22" y="133.86" width="323.01" height="0.92" transform="translate(-54.6 154.23) rotate(-51.03)"/><polygon class="cls-3" points="33.08 260.82 31.59 259.62 31.9 259.23 235.5 7.81 236.99 9.02 236.67 9.4 33.08 260.82"/><rect class="cls-3" x="-27.22" y="133.86" width="323.02" height="0.92" transform="translate(-51.46 173.97) rotate(-57.06)"/><polygon class="cls-3" points="46.85 270.71 45.25 269.67 45.52 269.25 221.72 -2.08 223.33 -1.03 223.05 -0.61 46.85 270.71"/><rect class="cls-3" x="-27.22" y="133.86" width="323.01" height="0.92" transform="translate(-46.32 193.1) rotate(-63.03)"/><polygon class="cls-3" points="61.59 279.1 59.88 278.23 60.11 277.78 206.98 -10.47 208.69 -9.6 208.46 -9.15 61.59 279.1"/><rect class="cls-3" x="-27.22" y="133.86" width="323.02" height="0.92" transform="translate(-39.3 211.39) rotate(-68.95)"/><polygon class="cls-3" points="77.12 285.91 75.33 285.22 75.51 284.75 191.45 -17.28 193.24 -16.59 193.06 -16.12 77.12 285.91"/><polygon class="cls-3" points="92.93 290.44 92.04 290.2 175.64 -21.81 176.53 -21.57 92.93 290.44"/><polygon class="cls-3" points="93.28 291.05 91.43 290.56 91.56 290.07 175.29 -22.42 177.14 -21.93 177.01 -21.44 93.28 291.05"/><rect class="cls-3" x="-27.22" y="133.86" width="323.02" height="0.92" transform="translate(-19.35 245.98) rotate(-81.02)"/><polygon class="cls-3" points="109.89 294.48 108 294.18 108.07 293.69 158.68 -25.85 160.58 -25.55 109.89 294.48"/><polygon class="cls-3" points="126.29 295.63 125.38 295.58 142.28 -27 143.2 -26.95 126.29 295.63"/><polygon class="cls-3" points="126.77 296.15 124.85 296.05 124.88 295.55 141.81 -27.52 143.72 -27.42 143.7 -26.92 126.77 296.15"/></g><polygon class="cls-4" points="94.48 94.52 94.48 157.25 112.19 174.95 174.94 174.95 174.94 94.52 94.48 94.52"/><rect class="cls-3" x="143.54" y="114.48" width="14.33" height="12" rx="2.3"/><path class="cls-3" d="M140.7,116.78a2.3,2.3,0,0,0-2.3-2.3H113.85a2.3,2.3,0,0,0-2.3,2.3v7.4a2.31,2.31,0,0,0,2.3,2.31h12.6a2.29,2.29,0,0,1,2.22,2.28v.33h0v25.09a2.3,2.3,0,0,0,2.3,2.3h7.4a2.3,2.3,0,0,0,2.3-2.3v-29.9s0-.07,0-.11Z"/><path class="cls-3" d="M326.34,174.42h-7.77q-2.22,0-2.22-2.1V106.84a1.09,1.09,0,0,0-1.24-1.24H299.57c-1.48,0-2.22-.7-2.22-2.09v-6.3c0-1.39.74-2.09,2.22-2.09h45.76c1.48,0,2.22.7,2.22,2.09v6.3c0,1.39-.74,2.09-2.22,2.09H329.79c-.91,0-1.36.41-1.36,1.24v65.48A1.85,1.85,0,0,1,326.34,174.42Z"/><path class="cls-3" d="M399,174.42H372.39q-9.12,0-14.12-5.06t-5-14.06V130.64q0-9.13,5-14.12t14.12-5H382.5q9.13,0,14.19,5t5.05,14.12V146.3a2,2,0,0,1-2.22,2.22h-33c-.91,0-1.36.41-1.36,1.23v5.3q0,9,9,9H399a2,2,0,0,1,2.22,2.22v6.16Q401.25,174.42,399,174.42Zm-32.55-34.29h22.07a1.09,1.09,0,0,0,1.23-1.23V131q0-4.69-2.09-6.85c-1.41-1.44-3.66-2.16-6.79-2.16h-6.78c-3.12,0-5.39.72-6.78,2.16s-2.1,3.72-2.1,6.85v7.89A1.09,1.09,0,0,0,366.48,140.13Z"/><path class="cls-3" d="M428.26,174.42h-7.77a1.86,1.86,0,0,1-2.1-2.1V89.82a1.86,1.86,0,0,1,2.1-2.1h7.77a1.86,1.86,0,0,1,2.1,2.1v82.5A1.86,1.86,0,0,1,428.26,174.42Z"/><path class="cls-3" d="M449.6,101V89.82a1.74,1.74,0,0,1,2-2h8a1.75,1.75,0,0,1,2,2V101q0,2.1-2,2.1h-8C450.25,103.14,449.6,102.44,449.6,101Zm0,71.28v-58.7c0-1.4.65-2.1,2-2.1h7.89a1.86,1.86,0,0,1,2.1,2.1v58.7a2.43,2.43,0,0,1-.43,1.67,2.19,2.19,0,0,1-1.55.43h-7.89A1.85,1.85,0,0,1,449.6,172.32Z"/><path class="cls-3" d="M490,174.42h-7.77a1.85,1.85,0,0,1-2.09-2.1v-58.7a1.85,1.85,0,0,1,2.09-2.1H490a1.86,1.86,0,0,1,2.1,2.1v4.44h.49q3-6.54,12.46-6.54h5.43q9,0,13.81,4.93t4.81,14.19v41.68q0,2.1-2.22,2.1h-7.77a1.86,1.86,0,0,1-2.1-2.1V131.13q0-9.12-9-9.13h-5.8q-10.11,0-10.11,10.49v39.83A1.86,1.86,0,0,1,490,174.42Z"/><path class="cls-3" d="M556.27,174.42H548.5a1.86,1.86,0,0,1-2.1-2.1V89.82a1.86,1.86,0,0,1,2.1-2.1h7.77a1.86,1.86,0,0,1,2.1,2.1v82.5A1.86,1.86,0,0,1,556.27,174.42Zm25.9-62.9h8.88a1.69,1.69,0,0,1,1.54.68c.29.45.18,1-.31,1.79l-17.39,27.62v.5L593.64,172a1.6,1.6,0,0,1,.18,1.73,1.9,1.9,0,0,1-1.78.74h-8a4.66,4.66,0,0,1-4.2-2.1l-17.39-28.49a3.45,3.45,0,0,1,0-3.33l16.16-27A3.8,3.8,0,0,1,582.17,111.52Z"/></svg>